<?xml version="1.0" encoding="utf-8" standalone="no"?>
<!DOCTYPE svg PUBLIC "-//W3C//DTD SVG 1.1//EN"
  "http://www.w3.org/Graphics/SVG/1.1/DTD/svg11.dtd">
<!-- Created with matplotlib (https://matplotlib.org/) -->
<svg height="607.586562pt" version="1.1" viewBox="0 0 339.0125 607.586562" width="339.0125pt" xmlns="http://www.w3.org/2000/svg" xmlns:xlink="http://www.w3.org/1999/xlink">
 <defs>
  <style type="text/css">
*{stroke-linecap:butt;stroke-linejoin:round;}
  </style>
 </defs>
 <g id="figure_1">
  <g id="patch_1">
   <path d="M 0 607.586562 
L 339.0125 607.586562 
L 339.0125 0 
L 0 0 
z
" style="fill:#ffffff;"/>
  </g>
  <g id="axes_1">
   <g id="patch_2">
    <path d="M 52.8125 252.802541 
L 331.8125 252.802541 
L 331.8125 11.759062 
L 52.8125 11.759062 
z
" style="fill:#ffffff;"/>
   </g>
   <g id="matplotlib.axis_1">
    <g id="xtick_1">
     <g id="line2d_1">
      <defs>
       <path d="M 0 0 
L 0 3.5 
" id="m628686c5d9" style="stroke:#000000;stroke-width:0.8;"/>
      </defs>
      <g>
       <use style="stroke:#000000;stroke-width:0.8;" x="52.8125" xlink:href="#m628686c5d9" y="252.802541"/>
      </g>
     </g>
     <g id="text_1">
      <!-- 0 -->
      <defs>
       <path d="M 31.78125 66.40625 
Q 24.171875 66.40625 20.328125 58.90625 
Q 16.5 51.421875 16.5 36.375 
Q 16.5 21.390625 20.328125 13.890625 
Q 24.171875 6.390625 31.78125 6.390625 
Q 39.453125 6.390625 43.28125 13.890625 
Q 47.125 21.390625 47.125 36.375 
Q 47.125 51.421875 43.28125 58.90625 
Q 39.453125 66.40625 31.78125 66.40625 
z
M 31.78125 74.21875 
Q 44.046875 74.21875 50.515625 64.515625 
Q 56.984375 54.828125 56.984375 36.375 
Q 56.984375 17.96875 50.515625 8.265625 
Q 44.046875 -1.421875 31.78125 -1.421875 
Q 19.53125 -1.421875 13.0625 8.265625 
Q 6.59375 17.96875 6.59375 36.375 
Q 6.59375 54.828125 13.0625 64.515625 
Q 19.53125 74.21875 31.78125 74.21875 
z
" id="DejaVuSans-48"/>
      </defs>
      <g transform="translate(48.995 268.920666)scale(0.12 -0.12)">
       <use xlink:href="#DejaVuSans-48"/>
      </g>
     </g>
    </g>
    <g id="xtick_2">
     <g id="line2d_2">
      <g>
       <use style="stroke:#000000;stroke-width:0.8;" x="95.735577" xlink:href="#m628686c5d9" y="252.802541"/>
      </g>
     </g>
     <g id="text_2">
      <!-- 10 -->
      <defs>
       <path d="M 12.40625 8.296875 
L 28.515625 8.296875 
L 28.515625 63.921875 
L 10.984375 60.40625 
L 10.984375 69.390625 
L 28.421875 72.90625 
L 38.28125 72.90625 
L 38.28125 8.296875 
L 54.390625 8.296875 
L 54.390625 0 
L 12.40625 0 
z
" id="DejaVuSans-49"/>
      </defs>
      <g transform="translate(88.100577 268.920666)scale(0.12 -0.12)">
       <use xlink:href="#DejaVuSans-49"/>
       <use x="63.623047" xlink:href="#DejaVuSans-48"/>
      </g>
     </g>
    </g>
    <g id="xtick_3">
     <g id="line2d_3">
      <g>
       <use style="stroke:#000000;stroke-width:0.8;" x="138.658654" xlink:href="#m628686c5d9" y="252.802541"/>
      </g>
     </g>
     <g id="text_3">
      <!-- 20 -->
      <defs>
       <path d="M 19.1875 8.296875 
L 53.609375 8.296875 
L 53.609375 0 
L 7.328125 0 
L 7.328125 8.296875 
Q 12.9375 14.109375 22.625 23.890625 
Q 32.328125 33.6875 34.8125 36.53125 
Q 39.546875 41.84375 41.421875 45.53125 
Q 43.3125 49.21875 43.3125 52.78125 
Q 43.3125 58.59375 39.234375 62.25 
Q 35.15625 65.921875 28.609375 65.921875 
Q 23.96875 65.921875 18.8125 64.3125 
Q 13.671875 62.703125 7.8125 59.421875 
L 7.8125 69.390625 
Q 13.765625 71.78125 18.9375 73 
Q 24.125 74.21875 28.421875 74.21875 
Q 39.75 74.21875 46.484375 68.546875 
Q 53.21875 62.890625 53.21875 53.421875 
Q 53.21875 48.921875 51.53125 44.890625 
Q 49.859375 40.875 45.40625 35.40625 
Q 44.1875 33.984375 37.640625 27.21875 
Q 31.109375 20.453125 19.1875 8.296875 
z
" id="DejaVuSans-50"/>
      </defs>
      <g transform="translate(131.023654 268.920666)scale(0.12 -0.12)">
       <use xlink:href="#DejaVuSans-50"/>
       <use x="63.623047" xlink:href="#DejaVuSans-48"/>
      </g>
     </g>
    </g>
    <g id="xtick_4">
     <g id="line2d_4">
      <g>
       <use style="stroke:#000000;stroke-width:0.8;" x="181.581731" xlink:href="#m628686c5d9" y="252.802541"/>
      </g>
     </g>
     <g id="text_4">
      <!-- 30 -->
      <defs>
       <path d="M 40.578125 39.3125 
Q 47.65625 37.796875 51.625 33 
Q 55.609375 28.21875 55.609375 21.1875 
Q 55.609375 10.40625 48.1875 4.484375 
Q 40.765625 -1.421875 27.09375 -1.421875 
Q 22.515625 -1.421875 17.65625 -0.515625 
Q 12.796875 0.390625 7.625 2.203125 
L 7.625 11.71875 
Q 11.71875 9.328125 16.59375 8.109375 
Q 21.484375 6.890625 26.8125 6.890625 
Q 36.078125 6.890625 40.9375 10.546875 
Q 45.796875 14.203125 45.796875 21.1875 
Q 45.796875 27.640625 41.28125 31.265625 
Q 36.765625 34.90625 28.71875 34.90625 
L 20.21875 34.90625 
L 20.21875 43.015625 
L 29.109375 43.015625 
Q 36.375 43.015625 40.234375 45.921875 
Q 44.09375 48.828125 44.09375 54.296875 
Q 44.09375 59.90625 40.109375 62.90625 
Q 36.140625 65.921875 28.71875 65.921875 
Q 24.65625 65.921875 20.015625 65.03125 
Q 15.375 64.15625 9.8125 62.3125 
L 9.8125 71.09375 
Q 15.4375 72.65625 20.34375 73.4375 
Q 25.25 74.21875 29.59375 74.21875 
Q 40.828125 74.21875 47.359375 69.109375 
Q 53.90625 64.015625 53.90625 55.328125 
Q 53.90625 49.265625 50.4375 45.09375 
Q 46.96875 40.921875 40.578125 39.3125 
z
" id="DejaVuSans-51"/>
      </defs>
      <g transform="translate(173.946731 268.920666)scale(0.12 -0.12)">
       <use xlink:href="#DejaVuSans-51"/>
       <use x="63.623047" xlink:href="#DejaVuSans-48"/>
      </g>
     </g>
    </g>
    <g id="xtick_5">
     <g id="line2d_5">
      <g>
       <use style="stroke:#000000;stroke-width:0.8;" x="224.504808" xlink:href="#m628686c5d9" y="252.802541"/>
      </g>
     </g>
     <g id="text_5">
      <!-- 40 -->
      <defs>
       <path d="M 37.796875 64.3125 
L 12.890625 25.390625 
L 37.796875 25.390625 
z
M 35.203125 72.90625 
L 47.609375 72.90625 
L 47.609375 25.390625 
L 58.015625 25.390625 
L 58.015625 17.1875 
L 47.609375 17.1875 
L 47.609375 0 
L 37.796875 0 
L 37.796875 17.1875 
L 4.890625 17.1875 
L 4.890625 26.703125 
z
" id="DejaVuSans-52"/>
      </defs>
      <g transform="translate(216.869808 268.920666)scale(0.12 -0.12)">
       <use xlink:href="#DejaVuSans-52"/>
       <use x="63.623047" xlink:href="#DejaVuSans-48"/>
      </g>
     </g>
    </g>
    <g id="xtick_6">
     <g id="line2d_6">
      <g>
       <use style="stroke:#000000;stroke-width:0.8;" x="267.427885" xlink:href="#m628686c5d9" y="252.802541"/>
      </g>
     </g>
     <g id="text_6">
      <!-- 50 -->
      <defs>
       <path d="M 10.796875 72.90625 
L 49.515625 72.90625 
L 49.515625 64.59375 
L 19.828125 64.59375 
L 19.828125 46.734375 
Q 21.96875 47.46875 24.109375 47.828125 
Q 26.265625 48.1875 28.421875 48.1875 
Q 40.625 48.1875 47.75 41.5 
Q 54.890625 34.8125 54.890625 23.390625 
Q 54.890625 11.625 47.5625 5.09375 
Q 40.234375 -1.421875 26.90625 -1.421875 
Q 22.3125 -1.421875 17.546875 -0.640625 
Q 12.796875 0.140625 7.71875 1.703125 
L 7.71875 11.625 
Q 12.109375 9.234375 16.796875 8.0625 
Q 21.484375 6.890625 26.703125 6.890625 
Q 35.15625 6.890625 40.078125 11.328125 
Q 45.015625 15.765625 45.015625 23.390625 
Q 45.015625 31 40.078125 35.4375 
Q 35.15625 39.890625 26.703125 39.890625 
Q 22.75 39.890625 18.8125 39.015625 
Q 14.890625 38.140625 10.796875 36.28125 
z
" id="DejaVuSans-53"/>
      </defs>
      <g transform="translate(259.792885 268.920666)scale(0.12 -0.12)">
       <use xlink:href="#DejaVuSans-53"/>
       <use x="63.623047" xlink:href="#DejaVuSans-48"/>
      </g>
     </g>
    </g>
    <g id="xtick_7">
     <g id="line2d_7">
      <g>
       <use style="stroke:#000000;stroke-width:0.8;" x="310.350962" xlink:href="#m628686c5d9" y="252.802541"/>
      </g>
     </g>
     <g id="text_7">
      <!-- 60 -->
      <defs>
       <path d="M 33.015625 40.375 
Q 26.375 40.375 22.484375 35.828125 
Q 18.609375 31.296875 18.609375 23.390625 
Q 18.609375 15.53125 22.484375 10.953125 
Q 26.375 6.390625 33.015625 6.390625 
Q 39.65625 6.390625 43.53125 10.953125 
Q 47.40625 15.53125 47.40625 23.390625 
Q 47.40625 31.296875 43.53125 35.828125 
Q 39.65625 40.375 33.015625 40.375 
z
M 52.59375 71.296875 
L 52.59375 62.3125 
Q 48.875 64.0625 45.09375 64.984375 
Q 41.3125 65.921875 37.59375 65.921875 
Q 27.828125 65.921875 22.671875 59.328125 
Q 17.53125 52.734375 16.796875 39.40625 
Q 19.671875 43.65625 24.015625 45.921875 
Q 28.375 48.1875 33.59375 48.1875 
Q 44.578125 48.1875 50.953125 41.515625 
Q 57.328125 34.859375 57.328125 23.390625 
Q 57.328125 12.15625 50.6875 5.359375 
Q 44.046875 -1.421875 33.015625 -1.421875 
Q 20.359375 -1.421875 13.671875 8.265625 
Q 6.984375 17.96875 6.984375 36.375 
Q 6.984375 53.65625 15.1875 63.9375 
Q 23.390625 74.21875 37.203125 74.21875 
Q 40.921875 74.21875 44.703125 73.484375 
Q 48.484375 72.75 52.59375 71.296875 
z
" id="DejaVuSans-54"/>
      </defs>
      <g transform="translate(302.715962 268.920666)scale(0.12 -0.12)">
       <use xlink:href="#DejaVuSans-54"/>
       <use x="63.623047" xlink:href="#DejaVuSans-48"/>
      </g>
     </g>
    </g>
    <g id="text_8">
     <!-- time [hr] -->
     <defs>
      <path d="M 27.484375 70.21875 
L 27.484375 54.6875 
L 45.515625 54.6875 
L 45.515625 42.1875 
L 27.484375 42.1875 
L 27.484375 19 
Q 27.484375 15.1875 29 13.84375 
Q 30.515625 12.5 35.015625 12.5 
L 44 12.5 
L 44 0 
L 29 0 
Q 18.65625 0 14.328125 4.3125 
Q 10.015625 8.640625 10.015625 19 
L 10.015625 42.1875 
L 1.3125 42.1875 
L 1.3125 54.6875 
L 10.015625 54.6875 
L 10.015625 70.21875 
z
" id="DejaVuSans-Bold-116"/>
      <path d="M 8.40625 54.6875 
L 25.875 54.6875 
L 25.875 0 
L 8.40625 0 
z
M 8.40625 75.984375 
L 25.875 75.984375 
L 25.875 61.71875 
L 8.40625 61.71875 
z
" id="DejaVuSans-Bold-105"/>
      <path d="M 59.078125 45.609375 
Q 62.40625 50.6875 66.96875 53.34375 
Q 71.53125 56 77 56 
Q 86.421875 56 91.359375 50.1875 
Q 96.296875 44.390625 96.296875 33.296875 
L 96.296875 0 
L 78.71875 0 
L 78.71875 28.515625 
Q 78.765625 29.15625 78.78125 29.828125 
Q 78.8125 30.515625 78.8125 31.78125 
Q 78.8125 37.59375 77.09375 40.203125 
Q 75.390625 42.828125 71.578125 42.828125 
Q 66.609375 42.828125 63.890625 38.71875 
Q 61.1875 34.625 61.078125 26.859375 
L 61.078125 0 
L 43.5 0 
L 43.5 28.515625 
Q 43.5 37.59375 41.9375 40.203125 
Q 40.375 42.828125 36.375 42.828125 
Q 31.34375 42.828125 28.609375 38.703125 
Q 25.875 34.578125 25.875 26.90625 
L 25.875 0 
L 8.296875 0 
L 8.296875 54.6875 
L 25.875 54.6875 
L 25.875 46.6875 
Q 29.109375 51.3125 33.28125 53.65625 
Q 37.453125 56 42.484375 56 
Q 48.140625 56 52.484375 53.265625 
Q 56.84375 50.53125 59.078125 45.609375 
z
" id="DejaVuSans-Bold-109"/>
      <path d="M 62.984375 27.484375 
L 62.984375 22.515625 
L 22.125 22.515625 
Q 22.75 16.359375 26.5625 13.28125 
Q 30.375 10.203125 37.203125 10.203125 
Q 42.71875 10.203125 48.5 11.84375 
Q 54.296875 13.484375 60.40625 16.796875 
L 60.40625 3.328125 
Q 54.203125 0.984375 48 -0.21875 
Q 41.796875 -1.421875 35.59375 -1.421875 
Q 20.75 -1.421875 12.515625 6.125 
Q 4.296875 13.671875 4.296875 27.296875 
Q 4.296875 40.671875 12.375 48.328125 
Q 20.453125 56 34.625 56 
Q 47.515625 56 55.25 48.234375 
Q 62.984375 40.484375 62.984375 27.484375 
z
M 45.015625 33.296875 
Q 45.015625 38.28125 42.109375 41.328125 
Q 39.203125 44.390625 34.515625 44.390625 
Q 29.4375 44.390625 26.265625 41.53125 
Q 23.09375 38.671875 22.3125 33.296875 
z
" id="DejaVuSans-Bold-101"/>
      <path id="DejaVuSans-Bold-32"/>
      <path d="M 8.59375 75.984375 
L 38.921875 75.984375 
L 38.921875 64.984375 
L 25.203125 64.984375 
L 25.203125 -2.203125 
L 38.921875 -2.203125 
L 38.921875 -13.1875 
L 8.59375 -13.1875 
z
" id="DejaVuSans-Bold-91"/>
      <path d="M 63.375 33.296875 
L 63.375 0 
L 45.796875 0 
L 45.796875 5.421875 
L 45.796875 25.390625 
Q 45.796875 32.5625 45.484375 35.25 
Q 45.171875 37.9375 44.390625 39.203125 
Q 43.359375 40.921875 41.59375 41.875 
Q 39.84375 42.828125 37.59375 42.828125 
Q 32.125 42.828125 29 38.59375 
Q 25.875 34.375 25.875 26.90625 
L 25.875 0 
L 8.40625 0 
L 8.40625 75.984375 
L 25.875 75.984375 
L 25.875 46.6875 
Q 29.828125 51.46875 34.265625 53.734375 
Q 38.71875 56 44.09375 56 
Q 53.5625 56 58.46875 50.1875 
Q 63.375 44.390625 63.375 33.296875 
z
" id="DejaVuSans-Bold-104"/>
      <path d="M 49.03125 39.796875 
Q 46.734375 40.875 44.453125 41.375 
Q 42.1875 41.890625 39.890625 41.890625 
Q 33.15625 41.890625 29.515625 37.5625 
Q 25.875 33.25 25.875 25.203125 
L 25.875 0 
L 8.40625 0 
L 8.40625 54.6875 
L 25.875 54.6875 
L 25.875 45.703125 
Q 29.25 51.078125 33.609375 53.53125 
Q 37.984375 56 44.09375 56 
Q 44.96875 56 45.984375 55.921875 
Q 47.015625 55.859375 48.96875 55.609375 
z
" id="DejaVuSans-Bold-114"/>
      <path d="M 37.109375 -13.1875 
L 6.78125 -13.1875 
L 6.78125 -2.203125 
L 20.515625 -2.203125 
L 20.515625 64.984375 
L 6.78125 64.984375 
L 6.78125 75.984375 
L 37.109375 75.984375 
z
" id="DejaVuSans-Bold-93"/>
     </defs>
     <g transform="translate(162.262812 284.534416)scale(0.12 -0.12)">
      <use xlink:href="#DejaVuSans-Bold-116"/>
      <use x="47.802734" xlink:href="#DejaVuSans-Bold-105"/>
      <use x="82.080078" xlink:href="#DejaVuSans-Bold-109"/>
      <use x="186.279297" xlink:href="#DejaVuSans-Bold-101"/>
      <use x="254.101562" xlink:href="#DejaVuSans-Bold-32"/>
      <use x="288.916016" xlink:href="#DejaVuSans-Bold-91"/>
      <use x="334.619141" xlink:href="#DejaVuSans-Bold-104"/>
      <use x="405.810547" xlink:href="#DejaVuSans-Bold-114"/>
      <use x="455.126953" xlink:href="#DejaVuSans-Bold-93"/>
     </g>
    </g>
   </g>
   <g id="matplotlib.axis_2">
    <g id="ytick_1">
     <g id="line2d_8">
      <defs>
       <path d="M 0 0 
L -3.5 0 
" id="m3194d0a625" style="stroke:#000000;stroke-width:0.8;"/>
      </defs>
      <g>
       <use style="stroke:#000000;stroke-width:0.8;" x="52.8125" xlink:href="#m3194d0a625" y="252.802541"/>
      </g>
     </g>
     <g id="text_9">
      <!-- 0 -->
      <g transform="translate(38.1775 257.361603)scale(0.12 -0.12)">
       <use xlink:href="#DejaVuSans-48"/>
      </g>
     </g>
    </g>
    <g id="ytick_2">
     <g id="line2d_9">
      <g>
       <use style="stroke:#000000;stroke-width:0.8;" x="52.8125" xlink:href="#m3194d0a625" y="204.593845"/>
      </g>
     </g>
     <g id="text_10">
      <!-- 100 -->
      <g transform="translate(22.9075 209.152908)scale(0.12 -0.12)">
       <use xlink:href="#DejaVuSans-49"/>
       <use x="63.623047" xlink:href="#DejaVuSans-48"/>
       <use x="127.246094" xlink:href="#DejaVuSans-48"/>
      </g>
     </g>
    </g>
    <g id="ytick_3">
     <g id="line2d_10">
      <g>
       <use style="stroke:#000000;stroke-width:0.8;" x="52.8125" xlink:href="#m3194d0a625" y="156.385149"/>
      </g>
     </g>
     <g id="text_11">
      <!-- 200 -->
      <g transform="translate(22.9075 160.944212)scale(0.12 -0.12)">
       <use xlink:href="#DejaVuSans-50"/>
       <use x="63.623047" xlink:href="#DejaVuSans-48"/>
       <use x="127.246094" xlink:href="#DejaVuSans-48"/>
      </g>
     </g>
    </g>
    <g id="ytick_4">
     <g id="line2d_11">
      <g>
       <use style="stroke:#000000;stroke-width:0.8;" x="52.8125" xlink:href="#m3194d0a625" y="108.176454"/>
      </g>
     </g>
     <g id="text_12">
      <!-- 300 -->
      <g transform="translate(22.9075 112.735516)scale(0.12 -0.12)">
       <use xlink:href="#DejaVuSans-51"/>
       <use x="63.623047" xlink:href="#DejaVuSans-48"/>
       <use x="127.246094" xlink:href="#DejaVuSans-48"/>
      </g>
     </g>
    </g>
    <g id="ytick_5">
     <g id="line2d_12">
      <g>
       <use style="stroke:#000000;stroke-width:0.8;" x="52.8125" xlink:href="#m3194d0a625" y="59.967758"/>
      </g>
     </g>
     <g id="text_13">
      <!-- 400 -->
      <g transform="translate(22.9075 64.526821)scale(0.12 -0.12)">
       <use xlink:href="#DejaVuSans-52"/>
       <use x="63.623047" xlink:href="#DejaVuSans-48"/>
       <use x="127.246094" xlink:href="#DejaVuSans-48"/>
      </g>
     </g>
    </g>
    <g id="ytick_6">
     <g id="line2d_13">
      <g>
       <use style="stroke:#000000;stroke-width:0.8;" x="52.8125" xlink:href="#m3194d0a625" y="11.759062"/>
      </g>
     </g>
     <g id="text_14">
      <!-- 500 -->
      <g transform="translate(22.9075 16.318125)scale(0.12 -0.12)">
       <use xlink:href="#DejaVuSans-53"/>
       <use x="63.623047" xlink:href="#DejaVuSans-48"/>
       <use x="127.246094" xlink:href="#DejaVuSans-48"/>
      </g>
     </g>
    </g>
    <g id="text_15">
     <!-- glycogen [mM] -->
     <defs>
      <path d="M 45.609375 9.28125 
Q 42 4.5 37.640625 2.25 
Q 33.296875 0 27.59375 0 
Q 17.578125 0 11.03125 7.875 
Q 4.5 15.765625 4.5 27.984375 
Q 4.5 40.234375 11.03125 48.0625 
Q 17.578125 55.90625 27.59375 55.90625 
Q 33.296875 55.90625 37.640625 53.65625 
Q 42 51.421875 45.609375 46.578125 
L 45.609375 54.6875 
L 63.1875 54.6875 
L 63.1875 5.515625 
Q 63.1875 -7.671875 54.859375 -14.625 
Q 46.53125 -21.578125 30.71875 -21.578125 
Q 25.59375 -21.578125 20.796875 -20.796875 
Q 16.015625 -20.015625 11.1875 -18.40625 
L 11.1875 -4.78125 
Q 15.765625 -7.421875 20.15625 -8.71875 
Q 24.5625 -10.015625 29 -10.015625 
Q 37.59375 -10.015625 41.59375 -6.25 
Q 45.609375 -2.484375 45.609375 5.515625 
z
M 34.078125 43.3125 
Q 28.65625 43.3125 25.625 39.296875 
Q 22.609375 35.296875 22.609375 27.984375 
Q 22.609375 20.453125 25.53125 16.578125 
Q 28.46875 12.703125 34.078125 12.703125 
Q 39.546875 12.703125 42.578125 16.703125 
Q 45.609375 20.703125 45.609375 27.984375 
Q 45.609375 35.296875 42.578125 39.296875 
Q 39.546875 43.3125 34.078125 43.3125 
z
" id="DejaVuSans-Bold-103"/>
      <path d="M 8.40625 75.984375 
L 25.875 75.984375 
L 25.875 0 
L 8.40625 0 
z
" id="DejaVuSans-Bold-108"/>
      <path d="M 1.21875 54.6875 
L 18.703125 54.6875 
L 33.40625 17.578125 
L 45.90625 54.6875 
L 63.375 54.6875 
L 40.375 -5.171875 
Q 36.921875 -14.3125 32.296875 -17.9375 
Q 27.6875 -21.578125 20.125 -21.578125 
L 10.015625 -21.578125 
L 10.015625 -10.109375 
L 15.484375 -10.109375 
Q 19.921875 -10.109375 21.9375 -8.6875 
Q 23.96875 -7.28125 25.09375 -3.609375 
L 25.59375 -2.09375 
z
" id="DejaVuSans-Bold-121"/>
      <path d="M 52.59375 52.984375 
L 52.59375 38.71875 
Q 49.03125 41.15625 45.4375 42.328125 
Q 41.84375 43.5 37.984375 43.5 
Q 30.671875 43.5 26.59375 39.234375 
Q 22.515625 34.96875 22.515625 27.296875 
Q 22.515625 19.625 26.59375 15.34375 
Q 30.671875 11.078125 37.984375 11.078125 
Q 42.09375 11.078125 45.78125 12.296875 
Q 49.46875 13.53125 52.59375 15.921875 
L 52.59375 1.609375 
Q 48.484375 0.09375 44.265625 -0.65625 
Q 40.046875 -1.421875 35.796875 -1.421875 
Q 21 -1.421875 12.640625 6.171875 
Q 4.296875 13.765625 4.296875 27.296875 
Q 4.296875 40.828125 12.640625 48.40625 
Q 21 56 35.796875 56 
Q 40.09375 56 44.265625 55.25 
Q 48.4375 54.5 52.59375 52.984375 
z
" id="DejaVuSans-Bold-99"/>
      <path d="M 34.421875 43.5 
Q 28.609375 43.5 25.5625 39.328125 
Q 22.515625 35.15625 22.515625 27.296875 
Q 22.515625 19.4375 25.5625 15.25 
Q 28.609375 11.078125 34.421875 11.078125 
Q 40.140625 11.078125 43.15625 15.25 
Q 46.1875 19.4375 46.1875 27.296875 
Q 46.1875 35.15625 43.15625 39.328125 
Q 40.140625 43.5 34.421875 43.5 
z
M 34.421875 56 
Q 48.53125 56 56.46875 48.375 
Q 64.40625 40.765625 64.40625 27.296875 
Q 64.40625 13.8125 56.46875 6.1875 
Q 48.53125 -1.421875 34.421875 -1.421875 
Q 20.265625 -1.421875 12.28125 6.1875 
Q 4.296875 13.8125 4.296875 27.296875 
Q 4.296875 40.765625 12.28125 48.375 
Q 20.265625 56 34.421875 56 
z
" id="DejaVuSans-Bold-111"/>
      <path d="M 63.375 33.296875 
L 63.375 0 
L 45.796875 0 
L 45.796875 5.421875 
L 45.796875 25.484375 
Q 45.796875 32.5625 45.484375 35.25 
Q 45.171875 37.9375 44.390625 39.203125 
Q 43.359375 40.921875 41.59375 41.875 
Q 39.84375 42.828125 37.59375 42.828125 
Q 32.125 42.828125 29 38.59375 
Q 25.875 34.375 25.875 26.90625 
L 25.875 0 
L 8.40625 0 
L 8.40625 54.6875 
L 25.875 54.6875 
L 25.875 46.6875 
Q 29.828125 51.46875 34.265625 53.734375 
Q 38.71875 56 44.09375 56 
Q 53.5625 56 58.46875 50.1875 
Q 63.375 44.390625 63.375 33.296875 
z
" id="DejaVuSans-Bold-110"/>
      <path d="M 9.1875 72.90625 
L 33.109375 72.90625 
L 49.703125 33.890625 
L 66.40625 72.90625 
L 90.28125 72.90625 
L 90.28125 0 
L 72.515625 0 
L 72.515625 53.328125 
L 55.71875 14.015625 
L 43.796875 14.015625 
L 27 53.328125 
L 27 0 
L 9.1875 0 
z
" id="DejaVuSans-Bold-77"/>
     </defs>
     <g transform="translate(16.318125 182.654552)rotate(-90)scale(0.12 -0.12)">
      <use xlink:href="#DejaVuSans-Bold-103"/>
      <use x="71.582031" xlink:href="#DejaVuSans-Bold-108"/>
      <use x="105.859375" xlink:href="#DejaVuSans-Bold-121"/>
      <use x="171.044922" xlink:href="#DejaVuSans-Bold-99"/>
      <use x="230.322266" xlink:href="#DejaVuSans-Bold-111"/>
      <use x="299.023438" xlink:href="#DejaVuSans-Bold-103"/>
      <use x="370.605469" xlink:href="#DejaVuSans-Bold-101"/>
      <use x="438.427734" xlink:href="#DejaVuSans-Bold-110"/>
      <use x="509.619141" xlink:href="#DejaVuSans-Bold-32"/>
      <use x="544.433594" xlink:href="#DejaVuSans-Bold-91"/>
      <use x="590.136719" xlink:href="#DejaVuSans-Bold-109"/>
      <use x="694.335938" xlink:href="#DejaVuSans-Bold-77"/>
      <use x="793.847656" xlink:href="#DejaVuSans-Bold-93"/>
     </g>
    </g>
   </g>
   <g id="LineCollection_1">
    <path clip-path="url(#pc70c9b0d14)" d="M 69.981731 145.837087 
L 69.981731 87.44093 
" style="fill:none;stroke:#000000;stroke-opacity:0.6;stroke-width:1.5;"/>
    <path clip-path="url(#pc70c9b0d14)" d="M 110.758654 194.967533 
L 110.758654 153.417422 
" style="fill:none;stroke:#000000;stroke-opacity:0.6;stroke-width:1.5;"/>
    <path clip-path="url(#pc70c9b0d14)" d="M 125.781731 214.058658 
L 125.781731 182.053869 
" style="fill:none;stroke:#000000;stroke-opacity:0.6;stroke-width:1.5;"/>
    <path clip-path="url(#pc70c9b0d14)" d="M 136.5125 205.355542 
L 136.5125 180.088401 
" style="fill:none;stroke:#000000;stroke-opacity:0.6;stroke-width:1.5;"/>
    <path clip-path="url(#pc70c9b0d14)" d="M 149.389423 217.147197 
L 149.389423 195.249072 
" style="fill:none;stroke:#000000;stroke-opacity:0.6;stroke-width:1.5;"/>
   </g>
   <g id="line2d_14">
    <path clip-path="url(#pc70c9b0d14)" d="M 52.8125 11.759062 
L 53.9285 24.695179 
L 55.6025 40.907153 
L 57.8345 60.390379 
L 60.6245 82.806406 
L 63.6935 105.691679 
L 66.7625 126.961866 
L 69.8315 146.632625 
L 72.6215 163.045987 
L 75.1325 176.521462 
L 77.3645 187.385249 
L 79.5965 197.130194 
L 81.5495 204.697339 
L 83.5025 211.348542 
L 85.1765 216.322161 
L 86.8505 220.641432 
L 88.5245 224.337381 
L 90.1985 227.453983 
L 91.8725 230.045385 
L 93.5465 232.17213 
L 95.2205 233.897091 
L 96.8945 235.281785 
L 98.5685 236.383547 
L 100.5215 237.37946 
L 102.4745 238.129619 
L 104.7065 238.758659 
L 107.4965 239.297842 
L 110.8445 239.702919 
L 115.3085 239.999643 
L 122.0045 240.189765 
L 134.5595 240.277074 
L 192.5915 240.29095 
L 331.8125 240.290952 
L 331.8125 240.290952 
" style="fill:none;stroke:#000000;stroke-linecap:square;stroke-width:2;"/>
   </g>
   <g id="line2d_15">
    <path clip-path="url(#pc70c9b0d14)" d="M 52.8125 11.759062 
L 53.6495 20.886661 
L 55.0445 33.545896 
L 56.9975 49.349083 
L 59.5085 67.939586 
L 62.5775 88.987209 
L 65.9255 110.331627 
L 69.2735 130.158405 
L 72.3425 147.004501 
L 75.1325 161.163931 
L 77.9225 174.149584 
L 80.4335 184.765934 
L 82.6655 193.303436 
L 84.8975 200.961661 
L 86.8505 206.927274 
L 88.8035 212.206573 
L 90.7565 216.813385 
L 92.4305 220.24766 
L 94.1045 223.233672 
L 95.7785 225.803078 
L 97.4525 227.992163 
L 99.1265 229.840013 
L 100.8005 231.386665 
L 102.7535 232.86275 
L 104.7065 234.041021 
L 106.6595 234.974465 
L 108.8915 235.800479 
L 111.4025 236.491154 
L 114.4715 237.082969 
L 118.0985 237.536431 
L 122.8415 237.880066 
L 129.2585 238.104099 
L 140.1395 238.230048 
L 169.7135 238.267178 
L 331.8125 238.267879 
L 331.8125 238.267879 
" style="fill:none;stroke:#000000;stroke-linecap:square;stroke-width:2;"/>
   </g>
   <g id="line2d_16">
    <path clip-path="url(#pc70c9b0d14)" d="M 52.8125 11.759062 
L 53.6495 20.023054 
L 55.0445 31.356793 
L 56.9975 45.382376 
L 59.5085 61.796505 
L 62.5775 80.344692 
L 65.9255 99.191916 
L 69.2735 116.812548 
L 72.6215 133.277249 
L 75.6905 147.350205 
L 78.7595 160.411297 
L 81.5495 171.362979 
L 84.3395 181.391243 
L 86.8505 189.593011 
L 89.3615 196.99017 
L 91.5935 202.879809 
L 93.8255 208.12525 
L 95.7785 212.196017 
L 97.7315 215.798534 
L 99.6845 218.955129 
L 101.6375 221.694033 
L 103.5905 224.048166 
L 105.5435 226.053605 
L 107.4965 227.74795 
L 109.4495 229.168773 
L 111.6815 230.504007 
L 113.9135 231.579445 
L 116.4245 232.53459 
L 119.2145 233.343826 
L 122.2835 233.999065 
L 125.9105 234.541572 
L 130.3745 234.973546 
L 136.2335 235.297554 
L 144.6035 235.511812 
L 159.1115 235.623159 
L 204.8675 235.650384 
L 331.8125 235.650548 
L 331.8125 235.650548 
" style="fill:none;stroke:#000000;stroke-linecap:square;stroke-width:2;"/>
   </g>
   <g id="line2d_17">
    <path clip-path="url(#pc70c9b0d14)" d="M 52.8125 11.759062 
L 53.6495 19.169607 
L 55.0445 29.207696 
L 56.9975 41.507651 
L 59.5085 55.806326 
L 62.5775 71.904831 
L 65.9255 88.259747 
L 69.5525 104.842161 
L 73.1795 120.3746 
L 76.8065 134.902447 
L 80.1545 147.419784 
L 83.5025 159.057588 
L 86.5715 168.92551 
L 89.3615 177.208734 
L 92.1515 184.817748 
L 94.6625 191.077692 
L 97.1735 196.77495 
L 99.6845 201.910771 
L 101.9165 206.011519 
L 104.1485 209.687004 
L 106.3805 212.95382 
L 108.6125 215.833254 
L 110.8445 218.350587 
L 113.0765 220.534149 
L 115.3085 222.414219 
L 117.5405 224.021894 
L 120.0515 225.543334 
L 122.5625 226.801265 
L 125.3525 227.937496 
L 128.4215 228.924961 
L 131.7695 229.751611 
L 135.3965 230.41896 
L 139.8605 231.000013 
L 145.1615 231.451518 
L 151.8575 231.788798 
L 161.3435 232.024267 
L 176.9675 232.156294 
L 216.8645 232.197822 
L 331.8125 232.198986 
L 331.8125 232.198986 
" style="fill:none;stroke:#000000;stroke-linecap:square;stroke-width:2;"/>
   </g>
   <g id="line2d_18">
    <path clip-path="url(#pc70c9b0d14)" d="M 52.8125 11.759062 
L 53.6495 18.352064 
L 55.0445 27.158642 
L 56.9975 37.8302 
L 59.5085 50.130329 
L 62.2985 62.690795 
L 65.6465 76.722217 
L 69.2735 90.947696 
L 73.1795 105.322838 
L 77.0855 118.816834 
L 80.9915 131.473013 
L 84.6185 142.485081 
L 88.2455 152.779161 
L 91.5935 161.633052 
L 94.9415 169.851849 
L 98.0105 176.817801 
L 101.0795 183.233553 
L 103.8695 188.58611 
L 106.6595 193.483064 
L 109.4495 197.930152 
L 112.2395 201.937744 
L 114.7505 205.181221 
L 117.2615 208.09512 
L 119.7725 210.69637 
L 122.2835 213.004171 
L 124.7945 215.039448 
L 127.5845 217.008068 
L 130.3745 218.69837 
L 133.1645 220.141045 
L 136.2335 221.477307 
L 139.5815 222.677629 
L 143.2085 223.723978 
L 147.1145 224.609726 
L 151.5785 225.380118 
L 156.6005 226.012369 
L 162.4595 226.523394 
L 169.7135 226.928168 
L 179.4785 227.232659 
L 193.7075 227.428593 
L 219.6545 227.524213 
L 320.6525 227.542515 
L 331.8125 227.542523 
L 331.8125 227.542523 
" style="fill:none;stroke:#000000;stroke-linecap:square;stroke-width:2;"/>
   </g>
   <g id="line2d_19">
    <path clip-path="url(#pc70c9b0d14)" d="M 52.8125 11.759062 
L 53.6495 17.59026 
L 55.0445 25.255184 
L 56.7185 33.188167 
L 58.9505 42.653766 
L 61.7405 53.428864 
L 64.8095 64.390346 
L 68.4365 76.478591 
L 72.3425 88.675219 
L 76.2485 100.156206 
L 80.4335 111.749775 
L 84.6185 122.66148 
L 88.5245 132.254096 
L 92.4305 141.285451 
L 96.3365 149.758291 
L 99.9635 157.125005 
L 103.5905 164.00745 
L 107.2175 170.404145 
L 110.5655 175.877695 
L 113.9135 180.939427 
L 117.2615 185.59381 
L 120.6095 189.848189 
L 123.6785 193.405532 
L 126.7475 196.645952 
L 129.8165 199.582049 
L 132.8855 202.228413 
L 135.9545 204.601324 
L 139.3025 206.898807 
L 142.6505 208.915924 
L 145.9985 210.677406 
L 149.6255 212.325885 
L 153.2525 213.734067 
L 157.1585 215.015336 
L 161.3435 216.154981 
L 165.8075 217.146269 
L 170.8295 218.033596 
L 176.4095 218.793341 
L 182.8265 219.44078 
L 190.3595 219.974595 
L 199.5665 220.399762 
L 211.5635 220.720939 
L 228.5825 220.937388 
L 257.5985 221.054127 
L 331.8125 221.08561 
L 331.8125 221.08561 
" style="fill:none;stroke:#000000;stroke-linecap:square;stroke-width:2;"/>
   </g>
   <g id="line2d_20">
    <path clip-path="url(#pc70c9b0d14)" d="M 52.8125 11.759062 
L 53.6495 16.897095 
L 55.0445 23.525546 
L 56.7185 30.296378 
L 58.9505 38.27655 
L 61.4615 46.39985 
L 64.5305 55.526101 
L 67.8785 64.767016 
L 71.5055 74.139743 
L 75.4115 83.635651 
L 79.5965 93.228524 
L 83.7815 102.291633 
L 88.2455 111.42732 
L 92.7095 120.049709 
L 97.1735 128.182389 
L 101.6375 135.840844 
L 105.8225 142.599302 
L 110.0075 148.956443 
L 114.1925 154.91743 
L 118.3775 160.487212 
L 122.5625 165.67122 
L 126.4685 170.167265 
L 130.3745 174.339288 
L 134.2805 178.195013 
L 138.1865 181.743609 
L 142.0925 184.995725 
L 145.9985 187.963443 
L 149.9045 190.660163 
L 153.8105 193.10041 
L 157.9955 195.447887 
L 162.1805 197.538401 
L 166.6445 199.50779 
L 171.1085 201.232286 
L 175.8515 202.823142 
L 180.8735 204.266689 
L 186.1745 205.555247 
L 191.7545 206.686905 
L 197.8925 207.70677 
L 204.8675 208.629946 
L 212.6795 209.426221 
L 221.6075 210.100213 
L 231.9305 210.649509 
L 244.4855 211.088755 
L 260.6675 211.422251 
L 283.2665 211.650583 
L 320.6525 211.778991 
L 331.8125 211.793218 
L 331.8125 211.793218 
" style="fill:none;stroke:#000000;stroke-linecap:square;stroke-width:2;"/>
   </g>
   <g id="line2d_21">
    <path clip-path="url(#pc70c9b0d14)" d="M 52.8125 11.759062 
L 53.6495 16.278562 
L 54.7655 20.927679 
L 56.4395 26.821954 
L 58.3925 32.798966 
L 60.6245 38.924115 
L 63.4145 45.888041 
L 66.4835 52.92685 
L 69.8315 60.058352 
L 73.4585 67.284051 
L 77.3645 74.595158 
L 81.5495 81.975476 
L 86.0135 89.402893 
L 90.7565 96.850214 
L 95.4995 103.884037 
L 100.2425 110.536852 
L 105.2645 117.19236 
L 110.2865 123.469345 
L 115.3085 129.384793 
L 120.3305 134.952549 
L 125.3525 140.184431 
L 130.3745 145.091032 
L 135.3965 149.682302 
L 140.4185 153.967976 
L 145.4405 157.957893 
L 150.4625 161.662204 
L 155.4845 165.091519 
L 160.5065 168.256968 
L 165.5285 171.170222 
L 170.8295 173.985177 
L 176.1305 176.547533 
L 181.7105 178.988598 
L 187.2905 181.184683 
L 193.1495 183.246708 
L 199.2875 185.161229 
L 205.7045 186.918839 
L 212.4005 188.514253 
L 219.3755 189.946192 
L 226.9085 191.261923 
L 234.9995 192.445024 
L 243.9275 193.516807 
L 253.6925 194.457106 
L 264.5735 195.275348 
L 276.8495 195.972337 
L 291.3575 196.565488 
L 308.6555 197.042669 
L 330.4175 197.412111 
L 331.8125 197.42958 
L 331.8125 197.42958 
" style="fill:none;stroke:#000000;stroke-linecap:square;stroke-width:2;"/>
   </g>
   <g id="line2d_22">
    <defs>
     <path d="M 3 0 
L -3 -0 
" id="m9360753f1e" style="stroke:#000000;stroke-opacity:0.6;"/>
    </defs>
    <g clip-path="url(#pc70c9b0d14)">
     <use style="fill-opacity:0.6;stroke:#000000;stroke-opacity:0.6;" x="69.981731" xlink:href="#m9360753f1e" y="145.837087"/>
     <use style="fill-opacity:0.6;stroke:#000000;stroke-opacity:0.6;" x="110.758654" xlink:href="#m9360753f1e" y="194.967533"/>
     <use style="fill-opacity:0.6;stroke:#000000;stroke-opacity:0.6;" x="125.781731" xlink:href="#m9360753f1e" y="214.058658"/>
     <use style="fill-opacity:0.6;stroke:#000000;stroke-opacity:0.6;" x="136.5125" xlink:href="#m9360753f1e" y="205.355542"/>
     <use style="fill-opacity:0.6;stroke:#000000;stroke-opacity:0.6;" x="149.389423" xlink:href="#m9360753f1e" y="217.147197"/>
    </g>
   </g>
   <g id="line2d_23">
    <g clip-path="url(#pc70c9b0d14)">
     <use style="fill-opacity:0.6;stroke:#000000;stroke-opacity:0.6;" x="69.981731" xlink:href="#m9360753f1e" y="87.44093"/>
     <use style="fill-opacity:0.6;stroke:#000000;stroke-opacity:0.6;" x="110.758654" xlink:href="#m9360753f1e" y="153.417422"/>
     <use style="fill-opacity:0.6;stroke:#000000;stroke-opacity:0.6;" x="125.781731" xlink:href="#m9360753f1e" y="182.053869"/>
     <use style="fill-opacity:0.6;stroke:#000000;stroke-opacity:0.6;" x="136.5125" xlink:href="#m9360753f1e" y="180.088401"/>
     <use style="fill-opacity:0.6;stroke:#000000;stroke-opacity:0.6;" x="149.389423" xlink:href="#m9360753f1e" y="195.249072"/>
    </g>
   </g>
   <g id="line2d_24">
    <path clip-path="url(#pc70c9b0d14)" d="M 69.877857 74.865691 
L 82.057924 114.428157 
L 95.285829 108.201522 
L 109.279525 127.485001 
L 121.076503 153.965555 
L 146.15474 219.026709 
L 173.36282 220.636108 
L 224.483775 235.305146 
L 248.740894 228.740858 
L 273.733285 222.502893 
L 327.421898 232.263563 
L 340.0125 198.424144 
" style="fill:none;stroke:#000000;stroke-dasharray:5.55,2.4;stroke-dashoffset:0;stroke-opacity:0.6;stroke-width:1.5;"/>
    <defs>
     <path d="M -3 3 
L 3 3 
L 3 -3 
L -3 -3 
z
" id="mcd9d7b3d46" style="stroke:#000000;stroke-linejoin:miter;stroke-opacity:0.6;"/>
    </defs>
    <g clip-path="url(#pc70c9b0d14)">
     <use style="fill-opacity:0.6;stroke:#000000;stroke-linejoin:miter;stroke-opacity:0.6;" x="69.877857" xlink:href="#mcd9d7b3d46" y="74.865691"/>
     <use style="fill-opacity:0.6;stroke:#000000;stroke-linejoin:miter;stroke-opacity:0.6;" x="82.057924" xlink:href="#mcd9d7b3d46" y="114.428157"/>
     <use style="fill-opacity:0.6;stroke:#000000;stroke-linejoin:miter;stroke-opacity:0.6;" x="95.285829" xlink:href="#mcd9d7b3d46" y="108.201522"/>
     <use style="fill-opacity:0.6;stroke:#000000;stroke-linejoin:miter;stroke-opacity:0.6;" x="109.279525" xlink:href="#mcd9d7b3d46" y="127.485001"/>
     <use style="fill-opacity:0.6;stroke:#000000;stroke-linejoin:miter;stroke-opacity:0.6;" x="121.076503" xlink:href="#mcd9d7b3d46" y="153.965555"/>
     <use style="fill-opacity:0.6;stroke:#000000;stroke-linejoin:miter;stroke-opacity:0.6;" x="146.15474" xlink:href="#mcd9d7b3d46" y="219.026709"/>
     <use style="fill-opacity:0.6;stroke:#000000;stroke-linejoin:miter;stroke-opacity:0.6;" x="173.36282" xlink:href="#mcd9d7b3d46" y="220.636108"/>
     <use style="fill-opacity:0.6;stroke:#000000;stroke-linejoin:miter;stroke-opacity:0.6;" x="224.483775" xlink:href="#mcd9d7b3d46" y="235.305146"/>
     <use style="fill-opacity:0.6;stroke:#000000;stroke-linejoin:miter;stroke-opacity:0.6;" x="248.740894" xlink:href="#mcd9d7b3d46" y="228.740858"/>
     <use style="fill-opacity:0.6;stroke:#000000;stroke-linejoin:miter;stroke-opacity:0.6;" x="273.733285" xlink:href="#mcd9d7b3d46" y="222.502893"/>
     <use style="fill-opacity:0.6;stroke:#000000;stroke-linejoin:miter;stroke-opacity:0.6;" x="327.421898" xlink:href="#mcd9d7b3d46" y="232.263563"/>
     <use style="fill-opacity:0.6;stroke:#000000;stroke-linejoin:miter;stroke-opacity:0.6;" x="362.602511" xlink:href="#mcd9d7b3d46" y="137.709583"/>
    </g>
   </g>
   <g id="line2d_25">
    <path clip-path="url(#pc70c9b0d14)" d="M 69.877857 72.576742 
L 82.057924 103.963496 
L 95.285829 97.082187 
L 109.279525 104.592137 
L 121.076503 172.935677 
L 146.15474 175.200521 
L 173.36282 203.957972 
L 224.483775 226.147808 
L 248.740894 220.23694 
L 273.733285 220.866546 
L 327.421898 233.900634 
L 340.0125 195.380642 
" style="fill:none;stroke:#000000;stroke-dasharray:5.55,2.4;stroke-dashoffset:0;stroke-opacity:0.6;stroke-width:1.5;"/>
    <g clip-path="url(#pc70c9b0d14)">
     <use style="fill-opacity:0.6;stroke:#000000;stroke-linejoin:miter;stroke-opacity:0.6;" x="69.877857" xlink:href="#mcd9d7b3d46" y="72.576742"/>
     <use style="fill-opacity:0.6;stroke:#000000;stroke-linejoin:miter;stroke-opacity:0.6;" x="82.057924" xlink:href="#mcd9d7b3d46" y="103.963496"/>
     <use style="fill-opacity:0.6;stroke:#000000;stroke-linejoin:miter;stroke-opacity:0.6;" x="95.285829" xlink:href="#mcd9d7b3d46" y="97.082187"/>
     <use style="fill-opacity:0.6;stroke:#000000;stroke-linejoin:miter;stroke-opacity:0.6;" x="109.279525" xlink:href="#mcd9d7b3d46" y="104.592137"/>
     <use style="fill-opacity:0.6;stroke:#000000;stroke-linejoin:miter;stroke-opacity:0.6;" x="121.076503" xlink:href="#mcd9d7b3d46" y="172.935677"/>
     <use style="fill-opacity:0.6;stroke:#000000;stroke-linejoin:miter;stroke-opacity:0.6;" x="146.15474" xlink:href="#mcd9d7b3d46" y="175.200521"/>
     <use style="fill-opacity:0.6;stroke:#000000;stroke-linejoin:miter;stroke-opacity:0.6;" x="173.36282" xlink:href="#mcd9d7b3d46" y="203.957972"/>
     <use style="fill-opacity:0.6;stroke:#000000;stroke-linejoin:miter;stroke-opacity:0.6;" x="224.483775" xlink:href="#mcd9d7b3d46" y="226.147808"/>
     <use style="fill-opacity:0.6;stroke:#000000;stroke-linejoin:miter;stroke-opacity:0.6;" x="248.740894" xlink:href="#mcd9d7b3d46" y="220.23694"/>
     <use style="fill-opacity:0.6;stroke:#000000;stroke-linejoin:miter;stroke-opacity:0.6;" x="273.733285" xlink:href="#mcd9d7b3d46" y="220.866546"/>
     <use style="fill-opacity:0.6;stroke:#000000;stroke-linejoin:miter;stroke-opacity:0.6;" x="327.421898" xlink:href="#mcd9d7b3d46" y="233.900634"/>
     <use style="fill-opacity:0.6;stroke:#000000;stroke-linejoin:miter;stroke-opacity:0.6;" x="362.602511" xlink:href="#mcd9d7b3d46" y="126.268213"/>
    </g>
   </g>
   <g id="line2d_26">
    <path clip-path="url(#pc70c9b0d14)" d="M 69.877857 19.592011 
M 95.285829 37.884801 
L 109.279525 60.11142 
L 121.076503 80.050054 
L 146.15474 119.273131 
L 173.36282 136.911247 
L 224.483775 226.148194 
L 248.740894 229.067905 
L 273.733285 211.055787 
L 327.421898 238.480509 
L 340.0125 208.387111 
" style="fill:none;stroke:#000000;stroke-dasharray:5.55,2.4;stroke-dashoffset:0;stroke-opacity:0.6;stroke-width:1.5;"/>
    <g clip-path="url(#pc70c9b0d14)">
     <use style="fill-opacity:0.6;stroke:#000000;stroke-linejoin:miter;stroke-opacity:0.6;" x="69.877857" xlink:href="#mcd9d7b3d46" y="19.592011"/>
     <use style="fill-opacity:0.6;stroke:#000000;stroke-linejoin:miter;stroke-opacity:0.6;" x="95.285829" xlink:href="#mcd9d7b3d46" y="37.884801"/>
     <use style="fill-opacity:0.6;stroke:#000000;stroke-linejoin:miter;stroke-opacity:0.6;" x="109.279525" xlink:href="#mcd9d7b3d46" y="60.11142"/>
     <use style="fill-opacity:0.6;stroke:#000000;stroke-linejoin:miter;stroke-opacity:0.6;" x="121.076503" xlink:href="#mcd9d7b3d46" y="80.050054"/>
     <use style="fill-opacity:0.6;stroke:#000000;stroke-linejoin:miter;stroke-opacity:0.6;" x="146.15474" xlink:href="#mcd9d7b3d46" y="119.273131"/>
     <use style="fill-opacity:0.6;stroke:#000000;stroke-linejoin:miter;stroke-opacity:0.6;" x="173.36282" xlink:href="#mcd9d7b3d46" y="136.911247"/>
     <use style="fill-opacity:0.6;stroke:#000000;stroke-linejoin:miter;stroke-opacity:0.6;" x="224.483775" xlink:href="#mcd9d7b3d46" y="226.148194"/>
     <use style="fill-opacity:0.6;stroke:#000000;stroke-linejoin:miter;stroke-opacity:0.6;" x="248.740894" xlink:href="#mcd9d7b3d46" y="229.067905"/>
     <use style="fill-opacity:0.6;stroke:#000000;stroke-linejoin:miter;stroke-opacity:0.6;" x="273.733285" xlink:href="#mcd9d7b3d46" y="211.055787"/>
     <use style="fill-opacity:0.6;stroke:#000000;stroke-linejoin:miter;stroke-opacity:0.6;" x="327.421898" xlink:href="#mcd9d7b3d46" y="238.480509"/>
     <use style="fill-opacity:0.6;stroke:#000000;stroke-linejoin:miter;stroke-opacity:0.6;" x="362.602511" xlink:href="#mcd9d7b3d46" y="154.393648"/>
    </g>
   </g>
   <g id="line2d_27">
    <path clip-path="url(#pc70c9b0d14)" d="M 82.057924 65.368096 
L 95.285829 111.145145 
L 109.279525 136.315869 
L 121.076503 153.966519 
L 146.15474 189.262998 
L 173.36282 199.050327 
L 224.483775 209.793731 
L 248.740894 223.507514 
L 273.733285 230.676919 
L 327.421898 238.47564 
L 340.0125 215.63928 
" style="fill:none;stroke:#000000;stroke-dasharray:5.55,2.4;stroke-dashoffset:0;stroke-opacity:0.6;stroke-width:1.5;"/>
    <g clip-path="url(#pc70c9b0d14)">
     <use style="fill-opacity:0.6;stroke:#000000;stroke-linejoin:miter;stroke-opacity:0.6;" x="82.057924" xlink:href="#mcd9d7b3d46" y="65.368096"/>
     <use style="fill-opacity:0.6;stroke:#000000;stroke-linejoin:miter;stroke-opacity:0.6;" x="95.285829" xlink:href="#mcd9d7b3d46" y="111.145145"/>
     <use style="fill-opacity:0.6;stroke:#000000;stroke-linejoin:miter;stroke-opacity:0.6;" x="109.279525" xlink:href="#mcd9d7b3d46" y="136.315869"/>
     <use style="fill-opacity:0.6;stroke:#000000;stroke-linejoin:miter;stroke-opacity:0.6;" x="121.076503" xlink:href="#mcd9d7b3d46" y="153.966519"/>
     <use style="fill-opacity:0.6;stroke:#000000;stroke-linejoin:miter;stroke-opacity:0.6;" x="146.15474" xlink:href="#mcd9d7b3d46" y="189.262998"/>
     <use style="fill-opacity:0.6;stroke:#000000;stroke-linejoin:miter;stroke-opacity:0.6;" x="173.36282" xlink:href="#mcd9d7b3d46" y="199.050327"/>
     <use style="fill-opacity:0.6;stroke:#000000;stroke-linejoin:miter;stroke-opacity:0.6;" x="224.483775" xlink:href="#mcd9d7b3d46" y="209.793731"/>
     <use style="fill-opacity:0.6;stroke:#000000;stroke-linejoin:miter;stroke-opacity:0.6;" x="248.740894" xlink:href="#mcd9d7b3d46" y="223.507514"/>
     <use style="fill-opacity:0.6;stroke:#000000;stroke-linejoin:miter;stroke-opacity:0.6;" x="273.733285" xlink:href="#mcd9d7b3d46" y="230.676919"/>
     <use style="fill-opacity:0.6;stroke:#000000;stroke-linejoin:miter;stroke-opacity:0.6;" x="327.421898" xlink:href="#mcd9d7b3d46" y="238.47564"/>
     <use style="fill-opacity:0.6;stroke:#000000;stroke-linejoin:miter;stroke-opacity:0.6;" x="362.602511" xlink:href="#mcd9d7b3d46" y="174.666369"/>
    </g>
   </g>
   <g id="line2d_28">
    <path clip-path="url(#pc70c9b0d14)" d="M 82.057924 78.449044 
L 95.285829 81.707469 
M 121.076503 100.652523 
L 146.15474 149.034288 
L 173.36282 149.336074 
L 224.483775 200.635911 
L 248.740894 205.188644 
L 273.733285 219.885017 
L 327.421898 208.060388 
L 340.0125 196.460972 
" style="fill:none;stroke:#000000;stroke-dasharray:5.55,2.4;stroke-dashoffset:0;stroke-opacity:0.6;stroke-width:1.5;"/>
    <g clip-path="url(#pc70c9b0d14)">
     <use style="fill-opacity:0.6;stroke:#000000;stroke-linejoin:miter;stroke-opacity:0.6;" x="82.057924" xlink:href="#mcd9d7b3d46" y="78.449044"/>
     <use style="fill-opacity:0.6;stroke:#000000;stroke-linejoin:miter;stroke-opacity:0.6;" x="95.285829" xlink:href="#mcd9d7b3d46" y="81.707469"/>
     <use style="fill-opacity:0.6;stroke:#000000;stroke-linejoin:miter;stroke-opacity:0.6;" x="121.076503" xlink:href="#mcd9d7b3d46" y="100.652523"/>
     <use style="fill-opacity:0.6;stroke:#000000;stroke-linejoin:miter;stroke-opacity:0.6;" x="146.15474" xlink:href="#mcd9d7b3d46" y="149.034288"/>
     <use style="fill-opacity:0.6;stroke:#000000;stroke-linejoin:miter;stroke-opacity:0.6;" x="173.36282" xlink:href="#mcd9d7b3d46" y="149.336074"/>
     <use style="fill-opacity:0.6;stroke:#000000;stroke-linejoin:miter;stroke-opacity:0.6;" x="224.483775" xlink:href="#mcd9d7b3d46" y="200.635911"/>
     <use style="fill-opacity:0.6;stroke:#000000;stroke-linejoin:miter;stroke-opacity:0.6;" x="248.740894" xlink:href="#mcd9d7b3d46" y="205.188644"/>
     <use style="fill-opacity:0.6;stroke:#000000;stroke-linejoin:miter;stroke-opacity:0.6;" x="273.733285" xlink:href="#mcd9d7b3d46" y="219.885017"/>
     <use style="fill-opacity:0.6;stroke:#000000;stroke-linejoin:miter;stroke-opacity:0.6;" x="327.421898" xlink:href="#mcd9d7b3d46" y="208.060388"/>
     <use style="fill-opacity:0.6;stroke:#000000;stroke-linejoin:miter;stroke-opacity:0.6;" x="362.602511" xlink:href="#mcd9d7b3d46" y="175.649344"/>
    </g>
   </g>
   <g id="line2d_29">
    <path clip-path="url(#pc70c9b0d14)" d="M 69.877857 73.230452 
L 82.057924 102.654148 
L 95.285829 104.931526 
L 109.279525 133.046838 
L 121.076503 138.267357 
L 146.15474 181.740513 
L 173.36282 203.957972 
L 224.483775 226.147471 
L 248.740894 229.06858 
L 273.733285 221.521364 
L 327.421898 234.88144 
L 340.0125 215.320678 
" style="fill:none;stroke:#000000;stroke-dasharray:5.55,2.4;stroke-dashoffset:0;stroke-opacity:0.6;stroke-width:1.5;"/>
    <g clip-path="url(#pc70c9b0d14)">
     <use style="fill-opacity:0.6;stroke:#000000;stroke-linejoin:miter;stroke-opacity:0.6;" x="69.877857" xlink:href="#mcd9d7b3d46" y="73.230452"/>
     <use style="fill-opacity:0.6;stroke:#000000;stroke-linejoin:miter;stroke-opacity:0.6;" x="82.057924" xlink:href="#mcd9d7b3d46" y="102.654148"/>
     <use style="fill-opacity:0.6;stroke:#000000;stroke-linejoin:miter;stroke-opacity:0.6;" x="95.285829" xlink:href="#mcd9d7b3d46" y="104.931526"/>
     <use style="fill-opacity:0.6;stroke:#000000;stroke-linejoin:miter;stroke-opacity:0.6;" x="109.279525" xlink:href="#mcd9d7b3d46" y="133.046838"/>
     <use style="fill-opacity:0.6;stroke:#000000;stroke-linejoin:miter;stroke-opacity:0.6;" x="121.076503" xlink:href="#mcd9d7b3d46" y="138.267357"/>
     <use style="fill-opacity:0.6;stroke:#000000;stroke-linejoin:miter;stroke-opacity:0.6;" x="146.15474" xlink:href="#mcd9d7b3d46" y="181.740513"/>
     <use style="fill-opacity:0.6;stroke:#000000;stroke-linejoin:miter;stroke-opacity:0.6;" x="173.36282" xlink:href="#mcd9d7b3d46" y="203.957972"/>
     <use style="fill-opacity:0.6;stroke:#000000;stroke-linejoin:miter;stroke-opacity:0.6;" x="224.483775" xlink:href="#mcd9d7b3d46" y="226.147471"/>
     <use style="fill-opacity:0.6;stroke:#000000;stroke-linejoin:miter;stroke-opacity:0.6;" x="248.740894" xlink:href="#mcd9d7b3d46" y="229.06858"/>
     <use style="fill-opacity:0.6;stroke:#000000;stroke-linejoin:miter;stroke-opacity:0.6;" x="273.733285" xlink:href="#mcd9d7b3d46" y="221.521364"/>
     <use style="fill-opacity:0.6;stroke:#000000;stroke-linejoin:miter;stroke-opacity:0.6;" x="327.421898" xlink:href="#mcd9d7b3d46" y="234.88144"/>
     <use style="fill-opacity:0.6;stroke:#000000;stroke-linejoin:miter;stroke-opacity:0.6;" x="362.602511" xlink:href="#mcd9d7b3d46" y="180.224832"/>
    </g>
   </g>
   <g id="line2d_30">
    <path clip-path="url(#pc70c9b0d14)" d="M 69.877857 81.731574 
L 82.057924 108.213574 
L 95.285829 124.880767 
M 121.076503 156.260771 
M 173.36282 180.410917 
L 224.483775 225.821484 
L 248.740894 223.83461 
L 273.733285 240.163812 
L 327.421898 244.365489 
L 340.0125 226.09459 
" style="fill:none;stroke:#000000;stroke-dasharray:5.55,2.4;stroke-dashoffset:0;stroke-opacity:0.6;stroke-width:1.5;"/>
    <g clip-path="url(#pc70c9b0d14)">
     <use style="fill-opacity:0.6;stroke:#000000;stroke-linejoin:miter;stroke-opacity:0.6;" x="69.877857" xlink:href="#mcd9d7b3d46" y="81.731574"/>
     <use style="fill-opacity:0.6;stroke:#000000;stroke-linejoin:miter;stroke-opacity:0.6;" x="82.057924" xlink:href="#mcd9d7b3d46" y="108.213574"/>
     <use style="fill-opacity:0.6;stroke:#000000;stroke-linejoin:miter;stroke-opacity:0.6;" x="95.285829" xlink:href="#mcd9d7b3d46" y="124.880767"/>
     <use style="fill-opacity:0.6;stroke:#000000;stroke-linejoin:miter;stroke-opacity:0.6;" x="121.076503" xlink:href="#mcd9d7b3d46" y="156.260771"/>
     <use style="fill-opacity:0.6;stroke:#000000;stroke-linejoin:miter;stroke-opacity:0.6;" x="173.36282" xlink:href="#mcd9d7b3d46" y="180.410917"/>
     <use style="fill-opacity:0.6;stroke:#000000;stroke-linejoin:miter;stroke-opacity:0.6;" x="224.483775" xlink:href="#mcd9d7b3d46" y="225.821484"/>
     <use style="fill-opacity:0.6;stroke:#000000;stroke-linejoin:miter;stroke-opacity:0.6;" x="248.740894" xlink:href="#mcd9d7b3d46" y="223.83461"/>
     <use style="fill-opacity:0.6;stroke:#000000;stroke-linejoin:miter;stroke-opacity:0.6;" x="273.733285" xlink:href="#mcd9d7b3d46" y="240.163812"/>
     <use style="fill-opacity:0.6;stroke:#000000;stroke-linejoin:miter;stroke-opacity:0.6;" x="327.421898" xlink:href="#mcd9d7b3d46" y="244.365489"/>
     <use style="fill-opacity:0.6;stroke:#000000;stroke-linejoin:miter;stroke-opacity:0.6;" x="362.602511" xlink:href="#mcd9d7b3d46" y="193.31301"/>
    </g>
   </g>
   <g id="line2d_31">
    <path clip-path="url(#pc70c9b0d14)" d="M 69.981731 116.639008 
L 110.758654 174.192477 
L 125.781731 198.056264 
L 136.5125 192.721972 
L 149.389423 206.198134 
" style="fill:none;stroke:#000000;stroke-dasharray:5.55,2.4;stroke-dashoffset:0;stroke-opacity:0.6;stroke-width:1.5;"/>
    <g clip-path="url(#pc70c9b0d14)">
     <use style="fill-opacity:0.6;stroke:#000000;stroke-linejoin:miter;stroke-opacity:0.6;" x="69.981731" xlink:href="#mcd9d7b3d46" y="116.639008"/>
     <use style="fill-opacity:0.6;stroke:#000000;stroke-linejoin:miter;stroke-opacity:0.6;" x="110.758654" xlink:href="#mcd9d7b3d46" y="174.192477"/>
     <use style="fill-opacity:0.6;stroke:#000000;stroke-linejoin:miter;stroke-opacity:0.6;" x="125.781731" xlink:href="#mcd9d7b3d46" y="198.056264"/>
     <use style="fill-opacity:0.6;stroke:#000000;stroke-linejoin:miter;stroke-opacity:0.6;" x="136.5125" xlink:href="#mcd9d7b3d46" y="192.721972"/>
     <use style="fill-opacity:0.6;stroke:#000000;stroke-linejoin:miter;stroke-opacity:0.6;" x="149.389423" xlink:href="#mcd9d7b3d46" y="206.198134"/>
    </g>
   </g>
   <g id="patch_3">
    <path d="M 52.8125 252.802541 
L 52.8125 11.759062 
" style="fill:none;stroke:#000000;stroke-linecap:square;stroke-linejoin:miter;stroke-width:0.8;"/>
   </g>
   <g id="patch_4">
    <path d="M 331.8125 252.802541 
L 331.8125 11.759062 
" style="fill:none;stroke:#000000;stroke-linecap:square;stroke-linejoin:miter;stroke-width:0.8;"/>
   </g>
   <g id="patch_5">
    <path d="M 52.8125 252.802541 
L 331.8125 252.802541 
" style="fill:none;stroke:#000000;stroke-linecap:square;stroke-linejoin:miter;stroke-width:0.8;"/>
   </g>
   <g id="patch_6">
    <path d="M 52.8125 11.759062 
L 331.8125 11.759062 
" style="fill:none;stroke:#000000;stroke-linecap:square;stroke-linejoin:miter;stroke-width:0.8;"/>
   </g>
  </g>
  <g id="axes_2">
   <g id="patch_7">
    <path d="M 52.8125 566.159062 
L 331.8125 566.159062 
L 331.8125 325.115584 
L 52.8125 325.115584 
z
" style="fill:#ffffff;"/>
   </g>
   <g id="matplotlib.axis_3">
    <g id="xtick_8">
     <g id="line2d_32">
      <g>
       <use style="stroke:#000000;stroke-width:0.8;" x="65.494318" xlink:href="#m628686c5d9" y="566.159062"/>
      </g>
     </g>
     <g id="text_16">
      <!-- 0 -->
      <g transform="translate(61.676818 582.277187)scale(0.12 -0.12)">
       <use xlink:href="#DejaVuSans-48"/>
      </g>
     </g>
    </g>
    <g id="xtick_9">
     <g id="line2d_33">
      <g>
       <use style="stroke:#000000;stroke-width:0.8;" x="107.767045" xlink:href="#m628686c5d9" y="566.159062"/>
      </g>
     </g>
     <g id="text_17">
      <!-- 50 -->
      <g transform="translate(100.132045 582.277187)scale(0.12 -0.12)">
       <use xlink:href="#DejaVuSans-53"/>
       <use x="63.623047" xlink:href="#DejaVuSans-48"/>
      </g>
     </g>
    </g>
    <g id="xtick_10">
     <g id="line2d_34">
      <g>
       <use style="stroke:#000000;stroke-width:0.8;" x="150.039773" xlink:href="#m628686c5d9" y="566.159062"/>
      </g>
     </g>
     <g id="text_18">
      <!-- 100 -->
      <g transform="translate(138.587273 582.277187)scale(0.12 -0.12)">
       <use xlink:href="#DejaVuSans-49"/>
       <use x="63.623047" xlink:href="#DejaVuSans-48"/>
       <use x="127.246094" xlink:href="#DejaVuSans-48"/>
      </g>
     </g>
    </g>
    <g id="xtick_11">
     <g id="line2d_35">
      <g>
       <use style="stroke:#000000;stroke-width:0.8;" x="192.3125" xlink:href="#m628686c5d9" y="566.159062"/>
      </g>
     </g>
     <g id="text_19">
      <!-- 150 -->
      <g transform="translate(180.86 582.277187)scale(0.12 -0.12)">
       <use xlink:href="#DejaVuSans-49"/>
       <use x="63.623047" xlink:href="#DejaVuSans-53"/>
       <use x="127.246094" xlink:href="#DejaVuSans-48"/>
      </g>
     </g>
    </g>
    <g id="xtick_12">
     <g id="line2d_36">
      <g>
       <use style="stroke:#000000;stroke-width:0.8;" x="234.585227" xlink:href="#m628686c5d9" y="566.159062"/>
      </g>
     </g>
     <g id="text_20">
      <!-- 200 -->
      <g transform="translate(223.132727 582.277187)scale(0.12 -0.12)">
       <use xlink:href="#DejaVuSans-50"/>
       <use x="63.623047" xlink:href="#DejaVuSans-48"/>
       <use x="127.246094" xlink:href="#DejaVuSans-48"/>
      </g>
     </g>
    </g>
    <g id="xtick_13">
     <g id="line2d_37">
      <g>
       <use style="stroke:#000000;stroke-width:0.8;" x="276.857955" xlink:href="#m628686c5d9" y="566.159062"/>
      </g>
     </g>
     <g id="text_21">
      <!-- 250 -->
      <g transform="translate(265.405455 582.277187)scale(0.12 -0.12)">
       <use xlink:href="#DejaVuSans-50"/>
       <use x="63.623047" xlink:href="#DejaVuSans-53"/>
       <use x="127.246094" xlink:href="#DejaVuSans-48"/>
      </g>
     </g>
    </g>
    <g id="xtick_14">
     <g id="line2d_38">
      <g>
       <use style="stroke:#000000;stroke-width:0.8;" x="319.130682" xlink:href="#m628686c5d9" y="566.159062"/>
      </g>
     </g>
     <g id="text_22">
      <!-- 300 -->
      <g transform="translate(307.678182 582.277187)scale(0.12 -0.12)">
       <use xlink:href="#DejaVuSans-51"/>
       <use x="63.623047" xlink:href="#DejaVuSans-48"/>
       <use x="127.246094" xlink:href="#DejaVuSans-48"/>
      </g>
     </g>
    </g>
    <g id="text_23">
     <!-- time [min] -->
     <g transform="translate(156.9125 597.890937)scale(0.12 -0.12)">
      <use xlink:href="#DejaVuSans-Bold-116"/>
      <use x="47.802734" xlink:href="#DejaVuSans-Bold-105"/>
      <use x="82.080078" xlink:href="#DejaVuSans-Bold-109"/>
      <use x="186.279297" xlink:href="#DejaVuSans-Bold-101"/>
      <use x="254.101562" xlink:href="#DejaVuSans-Bold-32"/>
      <use x="288.916016" xlink:href="#DejaVuSans-Bold-91"/>
      <use x="334.619141" xlink:href="#DejaVuSans-Bold-109"/>
      <use x="438.818359" xlink:href="#DejaVuSans-Bold-105"/>
      <use x="473.095703" xlink:href="#DejaVuSans-Bold-110"/>
      <use x="544.287109" xlink:href="#DejaVuSans-Bold-93"/>
     </g>
    </g>
   </g>
   <g id="matplotlib.axis_4">
    <g id="ytick_7">
     <g id="line2d_39">
      <g>
       <use style="stroke:#000000;stroke-width:0.8;" x="52.8125" xlink:href="#m3194d0a625" y="566.159062"/>
      </g>
     </g>
     <g id="text_24">
      <!-- 180 -->
      <defs>
       <path d="M 31.78125 34.625 
Q 24.75 34.625 20.71875 30.859375 
Q 16.703125 27.09375 16.703125 20.515625 
Q 16.703125 13.921875 20.71875 10.15625 
Q 24.75 6.390625 31.78125 6.390625 
Q 38.8125 6.390625 42.859375 10.171875 
Q 46.921875 13.96875 46.921875 20.515625 
Q 46.921875 27.09375 42.890625 30.859375 
Q 38.875 34.625 31.78125 34.625 
z
M 21.921875 38.8125 
Q 15.578125 40.375 12.03125 44.71875 
Q 8.5 49.078125 8.5 55.328125 
Q 8.5 64.0625 14.71875 69.140625 
Q 20.953125 74.21875 31.78125 74.21875 
Q 42.671875 74.21875 48.875 69.140625 
Q 55.078125 64.0625 55.078125 55.328125 
Q 55.078125 49.078125 51.53125 44.71875 
Q 48 40.375 41.703125 38.8125 
Q 48.828125 37.15625 52.796875 32.3125 
Q 56.78125 27.484375 56.78125 20.515625 
Q 56.78125 9.90625 50.3125 4.234375 
Q 43.84375 -1.421875 31.78125 -1.421875 
Q 19.734375 -1.421875 13.25 4.234375 
Q 6.78125 9.90625 6.78125 20.515625 
Q 6.78125 27.484375 10.78125 32.3125 
Q 14.796875 37.15625 21.921875 38.8125 
z
M 18.3125 54.390625 
Q 18.3125 48.734375 21.84375 45.5625 
Q 25.390625 42.390625 31.78125 42.390625 
Q 38.140625 42.390625 41.71875 45.5625 
Q 45.3125 48.734375 45.3125 54.390625 
Q 45.3125 60.0625 41.71875 63.234375 
Q 38.140625 66.40625 31.78125 66.40625 
Q 25.390625 66.40625 21.84375 63.234375 
Q 18.3125 60.0625 18.3125 54.390625 
z
" id="DejaVuSans-56"/>
      </defs>
      <g transform="translate(22.9075 570.718125)scale(0.12 -0.12)">
       <use xlink:href="#DejaVuSans-49"/>
       <use x="63.623047" xlink:href="#DejaVuSans-56"/>
       <use x="127.246094" xlink:href="#DejaVuSans-48"/>
      </g>
     </g>
    </g>
    <g id="ytick_8">
     <g id="line2d_40">
      <g>
       <use style="stroke:#000000;stroke-width:0.8;" x="52.8125" xlink:href="#m3194d0a625" y="536.028628"/>
      </g>
     </g>
     <g id="text_25">
      <!-- 200 -->
      <g transform="translate(22.9075 540.58769)scale(0.12 -0.12)">
       <use xlink:href="#DejaVuSans-50"/>
       <use x="63.623047" xlink:href="#DejaVuSans-48"/>
       <use x="127.246094" xlink:href="#DejaVuSans-48"/>
      </g>
     </g>
    </g>
    <g id="ytick_9">
     <g id="line2d_41">
      <g>
       <use style="stroke:#000000;stroke-width:0.8;" x="52.8125" xlink:href="#m3194d0a625" y="505.898193"/>
      </g>
     </g>
     <g id="text_26">
      <!-- 220 -->
      <g transform="translate(22.9075 510.457255)scale(0.12 -0.12)">
       <use xlink:href="#DejaVuSans-50"/>
       <use x="63.623047" xlink:href="#DejaVuSans-50"/>
       <use x="127.246094" xlink:href="#DejaVuSans-48"/>
      </g>
     </g>
    </g>
    <g id="ytick_10">
     <g id="line2d_42">
      <g>
       <use style="stroke:#000000;stroke-width:0.8;" x="52.8125" xlink:href="#m3194d0a625" y="475.767758"/>
      </g>
     </g>
     <g id="text_27">
      <!-- 240 -->
      <g transform="translate(22.9075 480.326821)scale(0.12 -0.12)">
       <use xlink:href="#DejaVuSans-50"/>
       <use x="63.623047" xlink:href="#DejaVuSans-52"/>
       <use x="127.246094" xlink:href="#DejaVuSans-48"/>
      </g>
     </g>
    </g>
    <g id="ytick_11">
     <g id="line2d_43">
      <g>
       <use style="stroke:#000000;stroke-width:0.8;" x="52.8125" xlink:href="#m3194d0a625" y="445.637323"/>
      </g>
     </g>
     <g id="text_28">
      <!-- 260 -->
      <g transform="translate(22.9075 450.196386)scale(0.12 -0.12)">
       <use xlink:href="#DejaVuSans-50"/>
       <use x="63.623047" xlink:href="#DejaVuSans-54"/>
       <use x="127.246094" xlink:href="#DejaVuSans-48"/>
      </g>
     </g>
    </g>
    <g id="ytick_12">
     <g id="line2d_44">
      <g>
       <use style="stroke:#000000;stroke-width:0.8;" x="52.8125" xlink:href="#m3194d0a625" y="415.506889"/>
      </g>
     </g>
     <g id="text_29">
      <!-- 280 -->
      <g transform="translate(22.9075 420.065951)scale(0.12 -0.12)">
       <use xlink:href="#DejaVuSans-50"/>
       <use x="63.623047" xlink:href="#DejaVuSans-56"/>
       <use x="127.246094" xlink:href="#DejaVuSans-48"/>
      </g>
     </g>
    </g>
    <g id="ytick_13">
     <g id="line2d_45">
      <g>
       <use style="stroke:#000000;stroke-width:0.8;" x="52.8125" xlink:href="#m3194d0a625" y="385.376454"/>
      </g>
     </g>
     <g id="text_30">
      <!-- 300 -->
      <g transform="translate(22.9075 389.935516)scale(0.12 -0.12)">
       <use xlink:href="#DejaVuSans-51"/>
       <use x="63.623047" xlink:href="#DejaVuSans-48"/>
       <use x="127.246094" xlink:href="#DejaVuSans-48"/>
      </g>
     </g>
    </g>
    <g id="ytick_14">
     <g id="line2d_46">
      <g>
       <use style="stroke:#000000;stroke-width:0.8;" x="52.8125" xlink:href="#m3194d0a625" y="355.246019"/>
      </g>
     </g>
     <g id="text_31">
      <!-- 320 -->
      <g transform="translate(22.9075 359.805082)scale(0.12 -0.12)">
       <use xlink:href="#DejaVuSans-51"/>
       <use x="63.623047" xlink:href="#DejaVuSans-50"/>
       <use x="127.246094" xlink:href="#DejaVuSans-48"/>
      </g>
     </g>
    </g>
    <g id="ytick_15">
     <g id="line2d_47">
      <g>
       <use style="stroke:#000000;stroke-width:0.8;" x="52.8125" xlink:href="#m3194d0a625" y="325.115584"/>
      </g>
     </g>
     <g id="text_32">
      <!-- 340 -->
      <g transform="translate(22.9075 329.674647)scale(0.12 -0.12)">
       <use xlink:href="#DejaVuSans-51"/>
       <use x="63.623047" xlink:href="#DejaVuSans-52"/>
       <use x="127.246094" xlink:href="#DejaVuSans-48"/>
      </g>
     </g>
    </g>
    <g id="text_33">
     <!-- glycogen [mM] -->
     <g transform="translate(16.318125 496.011073)rotate(-90)scale(0.12 -0.12)">
      <use xlink:href="#DejaVuSans-Bold-103"/>
      <use x="71.582031" xlink:href="#DejaVuSans-Bold-108"/>
      <use x="105.859375" xlink:href="#DejaVuSans-Bold-121"/>
      <use x="171.044922" xlink:href="#DejaVuSans-Bold-99"/>
      <use x="230.322266" xlink:href="#DejaVuSans-Bold-111"/>
      <use x="299.023438" xlink:href="#DejaVuSans-Bold-103"/>
      <use x="370.605469" xlink:href="#DejaVuSans-Bold-101"/>
      <use x="438.427734" xlink:href="#DejaVuSans-Bold-110"/>
      <use x="509.619141" xlink:href="#DejaVuSans-Bold-32"/>
      <use x="544.433594" xlink:href="#DejaVuSans-Bold-91"/>
      <use x="590.136719" xlink:href="#DejaVuSans-Bold-109"/>
      <use x="694.335938" xlink:href="#DejaVuSans-Bold-77"/>
      <use x="793.847656" xlink:href="#DejaVuSans-Bold-93"/>
     </g>
    </g>
   </g>
   <g id="LineCollection_2">
    <path clip-path="url(#pb07feac683)" d="M 65.494318 557.915376 
L 65.494318 494.243741 
" style="fill:none;stroke:#000000;stroke-opacity:0.6;stroke-width:1.5;"/>
    <path clip-path="url(#pb07feac683)" d="M 166.948864 490.834482 
L 166.948864 438.53106 
" style="fill:none;stroke:#000000;stroke-opacity:0.6;stroke-width:1.5;"/>
    <path clip-path="url(#pb07feac683)" d="M 192.3125 473.777643 
L 192.3125 419.202386 
" style="fill:none;stroke:#000000;stroke-opacity:0.6;stroke-width:1.5;"/>
    <path clip-path="url(#pb07feac683)" d="M 217.676136 446.488508 
L 217.676136 387.366569 
" style="fill:none;stroke:#000000;stroke-opacity:0.6;stroke-width:1.5;"/>
    <path clip-path="url(#pb07feac683)" d="M 285.3125 424.887999 
L 285.3125 358.941517 
" style="fill:none;stroke:#000000;stroke-opacity:0.6;stroke-width:1.5;"/>
   </g>
   <g id="line2d_48">
    <path clip-path="url(#pb07feac683)" d="M 65.494318 536.028628 
L 65.917045 535.735131 
L 68.453409 535.148348 
L 81.557955 533.815198 
L 131.017045 528.945558 
L 182.167045 524.134103 
L 234.585227 519.426832 
L 288.694318 514.791412 
L 319.130682 512.278971 
L 319.130682 512.278971 
" style="fill:none;stroke:#000000;stroke-linecap:square;stroke-width:2;"/>
   </g>
   <g id="line2d_49">
    <path clip-path="url(#pb07feac683)" d="M 65.494318 536.028628 
L 65.917045 535.628576 
L 66.7625 535.238843 
L 68.453409 534.455982 
L 72.680682 532.979258 
L 103.9625 522.374652 
L 135.667045 511.860527 
L 168.217045 501.30013 
L 201.6125 490.701724 
L 235.430682 480.20351 
L 269.671591 469.805558 
L 304.757955 459.384282 
L 319.130682 455.181793 
L 319.130682 455.181793 
" style="fill:none;stroke:#000000;stroke-linecap:square;stroke-width:2;"/>
   </g>
   <g id="line2d_50">
    <path clip-path="url(#pb07feac683)" d="M 65.494318 536.028628 
L 65.917045 535.552494 
L 66.7625 535.089477 
L 70.144318 533.009979 
L 76.485227 529.576552 
L 105.230682 514.291345 
L 134.398864 499.032959 
L 163.989773 483.802377 
L 194.003409 468.601895 
L 224.439773 453.435093 
L 255.298864 438.306878 
L 286.157955 423.425704 
L 317.017045 408.789198 
L 319.130682 407.79562 
L 319.130682 407.79562 
" style="fill:none;stroke:#000000;stroke-linecap:square;stroke-width:2;"/>
   </g>
   <g id="line2d_51">
    <path clip-path="url(#pb07feac683)" d="M 65.494318 536.028628 
L 65.917045 535.496726 
L 66.7625 534.985519 
L 84.517045 522.421875 
L 107.344318 506.670348 
L 135.244318 487.678716 
L 163.144318 468.953276 
L 191.044318 450.492064 
L 218.944318 432.296303 
L 246.421591 414.639829 
L 273.476136 397.517352 
L 300.107955 380.925732 
L 319.130682 369.240683 
L 319.130682 369.240683 
" style="fill:none;stroke:#000000;stroke-linecap:square;stroke-width:2;"/>
   </g>
   <g id="line2d_52">
    <path clip-path="url(#pb07feac683)" d="M 65.494318 536.028628 
L 65.917045 535.454483 
L 67.185227 534.584394 
L 102.694318 507.51467 
L 128.480682 488.189543 
L 154.267045 469.142547 
L 180.053409 450.368983 
L 205.839773 431.866702 
L 231.626136 413.636012 
L 257.4125 395.679604 
L 282.776136 378.290052 
L 307.717045 361.460781 
L 319.130682 353.851091 
L 319.130682 353.851091 
" style="fill:none;stroke:#000000;stroke-linecap:square;stroke-width:2;"/>
   </g>
   <g id="line2d_53">
    <path clip-path="url(#pb07feac683)" d="M 65.494318 536.028628 
L 65.917045 535.421322 
L 67.185227 534.501472 
L 109.880682 500.404135 
L 136.5125 479.499712 
L 163.567045 458.546842 
L 190.621591 437.878117 
L 217.253409 417.811517 
L 243.4625 398.338335 
L 269.248864 379.452419 
L 294.6125 361.149877 
L 319.130682 343.726842 
L 319.130682 343.726842 
" style="fill:none;stroke:#000000;stroke-linecap:square;stroke-width:2;"/>
   </g>
   <g id="line2d_54">
    <path clip-path="url(#pb07feac683)" d="M 66.840569 534.543197 
L 90.583266 487.068178 
L 115.741965 474.167832 
L 140.899817 460.771841 
L 166.519373 453.796645 
L 191.660655 431.510669 
L 217.255945 412.186515 
L 242.400609 391.877095 
L 267.537664 367.614562 
" style="fill:none;stroke:#000000;stroke-dasharray:5.55,2.4;stroke-dashoffset:0;stroke-opacity:0.6;stroke-width:1.5;"/>
    <g clip-path="url(#pb07feac683)">
     <use style="fill-opacity:0.6;stroke:#000000;stroke-linejoin:miter;stroke-opacity:0.6;" x="66.840569" xlink:href="#mcd9d7b3d46" y="534.543197"/>
     <use style="fill-opacity:0.6;stroke:#000000;stroke-linejoin:miter;stroke-opacity:0.6;" x="90.583266" xlink:href="#mcd9d7b3d46" y="487.068178"/>
     <use style="fill-opacity:0.6;stroke:#000000;stroke-linejoin:miter;stroke-opacity:0.6;" x="115.741965" xlink:href="#mcd9d7b3d46" y="474.167832"/>
     <use style="fill-opacity:0.6;stroke:#000000;stroke-linejoin:miter;stroke-opacity:0.6;" x="140.899817" xlink:href="#mcd9d7b3d46" y="460.771841"/>
     <use style="fill-opacity:0.6;stroke:#000000;stroke-linejoin:miter;stroke-opacity:0.6;" x="166.519373" xlink:href="#mcd9d7b3d46" y="453.796645"/>
     <use style="fill-opacity:0.6;stroke:#000000;stroke-linejoin:miter;stroke-opacity:0.6;" x="191.660655" xlink:href="#mcd9d7b3d46" y="431.510669"/>
     <use style="fill-opacity:0.6;stroke:#000000;stroke-linejoin:miter;stroke-opacity:0.6;" x="217.255945" xlink:href="#mcd9d7b3d46" y="412.186515"/>
     <use style="fill-opacity:0.6;stroke:#000000;stroke-linejoin:miter;stroke-opacity:0.6;" x="242.400609" xlink:href="#mcd9d7b3d46" y="391.877095"/>
     <use style="fill-opacity:0.6;stroke:#000000;stroke-linejoin:miter;stroke-opacity:0.6;" x="267.537664" xlink:href="#mcd9d7b3d46" y="367.614562"/>
    </g>
   </g>
   <g id="line2d_55">
    <path clip-path="url(#pb07feac683)" d="M 66.841525 535.03583 
L 166.537127 462.688136 
L 191.243 448.305373 
L 216.368218 418.116184 
L 267.129309 388.855012 
" style="fill:none;stroke:#000000;stroke-dasharray:5.55,2.4;stroke-dashoffset:0;stroke-opacity:0.6;stroke-width:1.5;"/>
    <g clip-path="url(#pb07feac683)">
     <use style="fill-opacity:0.6;stroke:#000000;stroke-linejoin:miter;stroke-opacity:0.6;" x="66.841525" xlink:href="#mcd9d7b3d46" y="535.03583"/>
     <use style="fill-opacity:0.6;stroke:#000000;stroke-linejoin:miter;stroke-opacity:0.6;" x="166.537127" xlink:href="#mcd9d7b3d46" y="462.688136"/>
     <use style="fill-opacity:0.6;stroke:#000000;stroke-linejoin:miter;stroke-opacity:0.6;" x="191.243" xlink:href="#mcd9d7b3d46" y="448.305373"/>
     <use style="fill-opacity:0.6;stroke:#000000;stroke-linejoin:miter;stroke-opacity:0.6;" x="216.368218" xlink:href="#mcd9d7b3d46" y="418.116184"/>
     <use style="fill-opacity:0.6;stroke:#000000;stroke-linejoin:miter;stroke-opacity:0.6;" x="267.129309" xlink:href="#mcd9d7b3d46" y="388.855012"/>
    </g>
   </g>
   <g id="line2d_56">
    <path clip-path="url(#pb07feac683)" d="M 66.842488 535.529969 
L 115.856777 533.440423 
L 141.892043 508.682245 
L 166.129618 484.422726 
L 191.743509 474.484202 
L 216.869573 444.787645 
L 242.0024 418.550062 
L 267.152136 400.709832 
" style="fill:none;stroke:#000000;stroke-dasharray:5.55,2.4;stroke-dashoffset:0;stroke-opacity:0.6;stroke-width:1.5;"/>
    <g clip-path="url(#pb07feac683)">
     <use style="fill-opacity:0.6;stroke:#000000;stroke-linejoin:miter;stroke-opacity:0.6;" x="66.842488" xlink:href="#mcd9d7b3d46" y="535.529969"/>
     <use style="fill-opacity:0.6;stroke:#000000;stroke-linejoin:miter;stroke-opacity:0.6;" x="115.856777" xlink:href="#mcd9d7b3d46" y="533.440423"/>
     <use style="fill-opacity:0.6;stroke:#000000;stroke-linejoin:miter;stroke-opacity:0.6;" x="141.892043" xlink:href="#mcd9d7b3d46" y="508.682245"/>
     <use style="fill-opacity:0.6;stroke:#000000;stroke-linejoin:miter;stroke-opacity:0.6;" x="166.129618" xlink:href="#mcd9d7b3d46" y="484.422726"/>
     <use style="fill-opacity:0.6;stroke:#000000;stroke-linejoin:miter;stroke-opacity:0.6;" x="191.743509" xlink:href="#mcd9d7b3d46" y="474.484202"/>
     <use style="fill-opacity:0.6;stroke:#000000;stroke-linejoin:miter;stroke-opacity:0.6;" x="216.869573" xlink:href="#mcd9d7b3d46" y="444.787645"/>
     <use style="fill-opacity:0.6;stroke:#000000;stroke-linejoin:miter;stroke-opacity:0.6;" x="242.0024" xlink:href="#mcd9d7b3d46" y="418.550062"/>
     <use style="fill-opacity:0.6;stroke:#000000;stroke-linejoin:miter;stroke-opacity:0.6;" x="267.152136" xlink:href="#mcd9d7b3d46" y="400.709832"/>
    </g>
   </g>
   <g id="line2d_57">
    <g clip-path="url(#pb07feac683)">
     <use style="fill-opacity:0.6;stroke:#000000;stroke-opacity:0.6;" x="65.494318" xlink:href="#m9360753f1e" y="557.915376"/>
     <use style="fill-opacity:0.6;stroke:#000000;stroke-opacity:0.6;" x="166.948864" xlink:href="#m9360753f1e" y="490.834482"/>
     <use style="fill-opacity:0.6;stroke:#000000;stroke-opacity:0.6;" x="192.3125" xlink:href="#m9360753f1e" y="473.777643"/>
     <use style="fill-opacity:0.6;stroke:#000000;stroke-opacity:0.6;" x="217.676136" xlink:href="#m9360753f1e" y="446.488508"/>
     <use style="fill-opacity:0.6;stroke:#000000;stroke-opacity:0.6;" x="285.3125" xlink:href="#m9360753f1e" y="424.887999"/>
    </g>
   </g>
   <g id="line2d_58">
    <g clip-path="url(#pb07feac683)">
     <use style="fill-opacity:0.6;stroke:#000000;stroke-opacity:0.6;" x="65.494318" xlink:href="#m9360753f1e" y="494.243741"/>
     <use style="fill-opacity:0.6;stroke:#000000;stroke-opacity:0.6;" x="166.948864" xlink:href="#m9360753f1e" y="438.53106"/>
     <use style="fill-opacity:0.6;stroke:#000000;stroke-opacity:0.6;" x="192.3125" xlink:href="#m9360753f1e" y="419.202386"/>
     <use style="fill-opacity:0.6;stroke:#000000;stroke-opacity:0.6;" x="217.676136" xlink:href="#m9360753f1e" y="387.366569"/>
     <use style="fill-opacity:0.6;stroke:#000000;stroke-opacity:0.6;" x="285.3125" xlink:href="#m9360753f1e" y="358.941517"/>
    </g>
   </g>
   <g id="line2d_59">
    <path clip-path="url(#pb07feac683)" d="M 65.494318 526.079558 
L 166.948864 464.682771 
L 192.3125 446.490015 
L 217.676136 416.927539 
L 285.3125 391.914758 
" style="fill:none;stroke:#000000;stroke-dasharray:5.55,2.4;stroke-dashoffset:0;stroke-opacity:0.6;stroke-width:1.5;"/>
    <g clip-path="url(#pb07feac683)">
     <use style="fill-opacity:0.6;stroke:#000000;stroke-linejoin:miter;stroke-opacity:0.6;" x="65.494318" xlink:href="#mcd9d7b3d46" y="526.079558"/>
     <use style="fill-opacity:0.6;stroke:#000000;stroke-linejoin:miter;stroke-opacity:0.6;" x="166.948864" xlink:href="#mcd9d7b3d46" y="464.682771"/>
     <use style="fill-opacity:0.6;stroke:#000000;stroke-linejoin:miter;stroke-opacity:0.6;" x="192.3125" xlink:href="#mcd9d7b3d46" y="446.490015"/>
     <use style="fill-opacity:0.6;stroke:#000000;stroke-linejoin:miter;stroke-opacity:0.6;" x="217.676136" xlink:href="#mcd9d7b3d46" y="416.927539"/>
     <use style="fill-opacity:0.6;stroke:#000000;stroke-linejoin:miter;stroke-opacity:0.6;" x="285.3125" xlink:href="#mcd9d7b3d46" y="391.914758"/>
    </g>
   </g>
   <g id="patch_8">
    <path d="M 52.8125 566.159062 
L 52.8125 325.115584 
" style="fill:none;stroke:#000000;stroke-linecap:square;stroke-linejoin:miter;stroke-width:0.8;"/>
   </g>
   <g id="patch_9">
    <path d="M 331.8125 566.159062 
L 331.8125 325.115584 
" style="fill:none;stroke:#000000;stroke-linecap:square;stroke-linejoin:miter;stroke-width:0.8;"/>
   </g>
   <g id="patch_10">
    <path d="M 52.8125 566.159062 
L 331.8125 566.159062 
" style="fill:none;stroke:#000000;stroke-linecap:square;stroke-linejoin:miter;stroke-width:0.8;"/>
   </g>
   <g id="patch_11">
    <path d="M 52.8125 325.115584 
L 331.8125 325.115584 
" style="fill:none;stroke:#000000;stroke-linecap:square;stroke-linejoin:miter;stroke-width:0.8;"/>
   </g>
  </g>
 </g>
 <defs>
  <clipPath id="pc70c9b0d14">
   <rect height="241.043478" width="279" x="52.8125" y="11.759062"/>
  </clipPath>
  <clipPath id="pb07feac683">
   <rect height="241.043478" width="279" x="52.8125" y="325.115584"/>
  </clipPath>
 </defs>
</svg>
