<?xml version="1.0" encoding="utf-8" standalone="no"?>
<!DOCTYPE svg PUBLIC "-//W3C//DTD SVG 1.1//EN"
  "http://www.w3.org/Graphics/SVG/1.1/DTD/svg11.dtd">
<!-- Created with matplotlib (https://matplotlib.org/) -->
<svg height="607.586562pt" version="1.1" viewBox="0 0 339.0125 607.586562" width="339.0125pt" xmlns="http://www.w3.org/2000/svg" xmlns:xlink="http://www.w3.org/1999/xlink">
 <defs>
  <style type="text/css">
*{stroke-linecap:butt;stroke-linejoin:round;}
  </style>
 </defs>
 <g id="figure_1">
  <g id="patch_1">
   <path d="M 0 607.586562 
L 339.0125 607.586562 
L 339.0125 0 
L 0 0 
z
" style="fill:#ffffff;"/>
  </g>
  <g id="axes_1">
   <g id="patch_2">
    <path d="M 52.8125 252.802541 
L 331.8125 252.802541 
L 331.8125 11.759062 
L 52.8125 11.759062 
z
" style="fill:#ffffff;"/>
   </g>
   <g id="matplotlib.axis_1">
    <g id="xtick_1">
     <g id="line2d_1">
      <defs>
       <path d="M 0 0 
L 0 3.5 
" id="m62278588e5" style="stroke:#000000;stroke-width:0.8;"/>
      </defs>
      <g>
       <use style="stroke:#000000;stroke-width:0.8;" x="52.8125" xlink:href="#m62278588e5" y="252.802541"/>
      </g>
     </g>
     <g id="text_1">
      <!-- 0 -->
      <defs>
       <path d="M 31.78125 66.40625 
Q 24.171875 66.40625 20.328125 58.90625 
Q 16.5 51.421875 16.5 36.375 
Q 16.5 21.390625 20.328125 13.890625 
Q 24.171875 6.390625 31.78125 6.390625 
Q 39.453125 6.390625 43.28125 13.890625 
Q 47.125 21.390625 47.125 36.375 
Q 47.125 51.421875 43.28125 58.90625 
Q 39.453125 66.40625 31.78125 66.40625 
z
M 31.78125 74.21875 
Q 44.046875 74.21875 50.515625 64.515625 
Q 56.984375 54.828125 56.984375 36.375 
Q 56.984375 17.96875 50.515625 8.265625 
Q 44.046875 -1.421875 31.78125 -1.421875 
Q 19.53125 -1.421875 13.0625 8.265625 
Q 6.59375 17.96875 6.59375 36.375 
Q 6.59375 54.828125 13.0625 64.515625 
Q 19.53125 74.21875 31.78125 74.21875 
z
" id="DejaVuSans-48"/>
      </defs>
      <g transform="translate(48.995 268.920666)scale(0.12 -0.12)">
       <use xlink:href="#DejaVuSans-48"/>
      </g>
     </g>
    </g>
    <g id="xtick_2">
     <g id="line2d_2">
      <g>
       <use style="stroke:#000000;stroke-width:0.8;" x="95.735577" xlink:href="#m62278588e5" y="252.802541"/>
      </g>
     </g>
     <g id="text_2">
      <!-- 10 -->
      <defs>
       <path d="M 12.40625 8.296875 
L 28.515625 8.296875 
L 28.515625 63.921875 
L 10.984375 60.40625 
L 10.984375 69.390625 
L 28.421875 72.90625 
L 38.28125 72.90625 
L 38.28125 8.296875 
L 54.390625 8.296875 
L 54.390625 0 
L 12.40625 0 
z
" id="DejaVuSans-49"/>
      </defs>
      <g transform="translate(88.100577 268.920666)scale(0.12 -0.12)">
       <use xlink:href="#DejaVuSans-49"/>
       <use x="63.623047" xlink:href="#DejaVuSans-48"/>
      </g>
     </g>
    </g>
    <g id="xtick_3">
     <g id="line2d_3">
      <g>
       <use style="stroke:#000000;stroke-width:0.8;" x="138.658654" xlink:href="#m62278588e5" y="252.802541"/>
      </g>
     </g>
     <g id="text_3">
      <!-- 20 -->
      <defs>
       <path d="M 19.1875 8.296875 
L 53.609375 8.296875 
L 53.609375 0 
L 7.328125 0 
L 7.328125 8.296875 
Q 12.9375 14.109375 22.625 23.890625 
Q 32.328125 33.6875 34.8125 36.53125 
Q 39.546875 41.84375 41.421875 45.53125 
Q 43.3125 49.21875 43.3125 52.78125 
Q 43.3125 58.59375 39.234375 62.25 
Q 35.15625 65.921875 28.609375 65.921875 
Q 23.96875 65.921875 18.8125 64.3125 
Q 13.671875 62.703125 7.8125 59.421875 
L 7.8125 69.390625 
Q 13.765625 71.78125 18.9375 73 
Q 24.125 74.21875 28.421875 74.21875 
Q 39.75 74.21875 46.484375 68.546875 
Q 53.21875 62.890625 53.21875 53.421875 
Q 53.21875 48.921875 51.53125 44.890625 
Q 49.859375 40.875 45.40625 35.40625 
Q 44.1875 33.984375 37.640625 27.21875 
Q 31.109375 20.453125 19.1875 8.296875 
z
" id="DejaVuSans-50"/>
      </defs>
      <g transform="translate(131.023654 268.920666)scale(0.12 -0.12)">
       <use xlink:href="#DejaVuSans-50"/>
       <use x="63.623047" xlink:href="#DejaVuSans-48"/>
      </g>
     </g>
    </g>
    <g id="xtick_4">
     <g id="line2d_4">
      <g>
       <use style="stroke:#000000;stroke-width:0.8;" x="181.581731" xlink:href="#m62278588e5" y="252.802541"/>
      </g>
     </g>
     <g id="text_4">
      <!-- 30 -->
      <defs>
       <path d="M 40.578125 39.3125 
Q 47.65625 37.796875 51.625 33 
Q 55.609375 28.21875 55.609375 21.1875 
Q 55.609375 10.40625 48.1875 4.484375 
Q 40.765625 -1.421875 27.09375 -1.421875 
Q 22.515625 -1.421875 17.65625 -0.515625 
Q 12.796875 0.390625 7.625 2.203125 
L 7.625 11.71875 
Q 11.71875 9.328125 16.59375 8.109375 
Q 21.484375 6.890625 26.8125 6.890625 
Q 36.078125 6.890625 40.9375 10.546875 
Q 45.796875 14.203125 45.796875 21.1875 
Q 45.796875 27.640625 41.28125 31.265625 
Q 36.765625 34.90625 28.71875 34.90625 
L 20.21875 34.90625 
L 20.21875 43.015625 
L 29.109375 43.015625 
Q 36.375 43.015625 40.234375 45.921875 
Q 44.09375 48.828125 44.09375 54.296875 
Q 44.09375 59.90625 40.109375 62.90625 
Q 36.140625 65.921875 28.71875 65.921875 
Q 24.65625 65.921875 20.015625 65.03125 
Q 15.375 64.15625 9.8125 62.3125 
L 9.8125 71.09375 
Q 15.4375 72.65625 20.34375 73.4375 
Q 25.25 74.21875 29.59375 74.21875 
Q 40.828125 74.21875 47.359375 69.109375 
Q 53.90625 64.015625 53.90625 55.328125 
Q 53.90625 49.265625 50.4375 45.09375 
Q 46.96875 40.921875 40.578125 39.3125 
z
" id="DejaVuSans-51"/>
      </defs>
      <g transform="translate(173.946731 268.920666)scale(0.12 -0.12)">
       <use xlink:href="#DejaVuSans-51"/>
       <use x="63.623047" xlink:href="#DejaVuSans-48"/>
      </g>
     </g>
    </g>
    <g id="xtick_5">
     <g id="line2d_5">
      <g>
       <use style="stroke:#000000;stroke-width:0.8;" x="224.504808" xlink:href="#m62278588e5" y="252.802541"/>
      </g>
     </g>
     <g id="text_5">
      <!-- 40 -->
      <defs>
       <path d="M 37.796875 64.3125 
L 12.890625 25.390625 
L 37.796875 25.390625 
z
M 35.203125 72.90625 
L 47.609375 72.90625 
L 47.609375 25.390625 
L 58.015625 25.390625 
L 58.015625 17.1875 
L 47.609375 17.1875 
L 47.609375 0 
L 37.796875 0 
L 37.796875 17.1875 
L 4.890625 17.1875 
L 4.890625 26.703125 
z
" id="DejaVuSans-52"/>
      </defs>
      <g transform="translate(216.869808 268.920666)scale(0.12 -0.12)">
       <use xlink:href="#DejaVuSans-52"/>
       <use x="63.623047" xlink:href="#DejaVuSans-48"/>
      </g>
     </g>
    </g>
    <g id="xtick_6">
     <g id="line2d_6">
      <g>
       <use style="stroke:#000000;stroke-width:0.8;" x="267.427885" xlink:href="#m62278588e5" y="252.802541"/>
      </g>
     </g>
     <g id="text_6">
      <!-- 50 -->
      <defs>
       <path d="M 10.796875 72.90625 
L 49.515625 72.90625 
L 49.515625 64.59375 
L 19.828125 64.59375 
L 19.828125 46.734375 
Q 21.96875 47.46875 24.109375 47.828125 
Q 26.265625 48.1875 28.421875 48.1875 
Q 40.625 48.1875 47.75 41.5 
Q 54.890625 34.8125 54.890625 23.390625 
Q 54.890625 11.625 47.5625 5.09375 
Q 40.234375 -1.421875 26.90625 -1.421875 
Q 22.3125 -1.421875 17.546875 -0.640625 
Q 12.796875 0.140625 7.71875 1.703125 
L 7.71875 11.625 
Q 12.109375 9.234375 16.796875 8.0625 
Q 21.484375 6.890625 26.703125 6.890625 
Q 35.15625 6.890625 40.078125 11.328125 
Q 45.015625 15.765625 45.015625 23.390625 
Q 45.015625 31 40.078125 35.4375 
Q 35.15625 39.890625 26.703125 39.890625 
Q 22.75 39.890625 18.8125 39.015625 
Q 14.890625 38.140625 10.796875 36.28125 
z
" id="DejaVuSans-53"/>
      </defs>
      <g transform="translate(259.792885 268.920666)scale(0.12 -0.12)">
       <use xlink:href="#DejaVuSans-53"/>
       <use x="63.623047" xlink:href="#DejaVuSans-48"/>
      </g>
     </g>
    </g>
    <g id="xtick_7">
     <g id="line2d_7">
      <g>
       <use style="stroke:#000000;stroke-width:0.8;" x="310.350962" xlink:href="#m62278588e5" y="252.802541"/>
      </g>
     </g>
     <g id="text_7">
      <!-- 60 -->
      <defs>
       <path d="M 33.015625 40.375 
Q 26.375 40.375 22.484375 35.828125 
Q 18.609375 31.296875 18.609375 23.390625 
Q 18.609375 15.53125 22.484375 10.953125 
Q 26.375 6.390625 33.015625 6.390625 
Q 39.65625 6.390625 43.53125 10.953125 
Q 47.40625 15.53125 47.40625 23.390625 
Q 47.40625 31.296875 43.53125 35.828125 
Q 39.65625 40.375 33.015625 40.375 
z
M 52.59375 71.296875 
L 52.59375 62.3125 
Q 48.875 64.0625 45.09375 64.984375 
Q 41.3125 65.921875 37.59375 65.921875 
Q 27.828125 65.921875 22.671875 59.328125 
Q 17.53125 52.734375 16.796875 39.40625 
Q 19.671875 43.65625 24.015625 45.921875 
Q 28.375 48.1875 33.59375 48.1875 
Q 44.578125 48.1875 50.953125 41.515625 
Q 57.328125 34.859375 57.328125 23.390625 
Q 57.328125 12.15625 50.6875 5.359375 
Q 44.046875 -1.421875 33.015625 -1.421875 
Q 20.359375 -1.421875 13.671875 8.265625 
Q 6.984375 17.96875 6.984375 36.375 
Q 6.984375 53.65625 15.1875 63.9375 
Q 23.390625 74.21875 37.203125 74.21875 
Q 40.921875 74.21875 44.703125 73.484375 
Q 48.484375 72.75 52.59375 71.296875 
z
" id="DejaVuSans-54"/>
      </defs>
      <g transform="translate(302.715962 268.920666)scale(0.12 -0.12)">
       <use xlink:href="#DejaVuSans-54"/>
       <use x="63.623047" xlink:href="#DejaVuSans-48"/>
      </g>
     </g>
    </g>
    <g id="text_8">
     <!-- time [hr] -->
     <defs>
      <path d="M 27.484375 70.21875 
L 27.484375 54.6875 
L 45.515625 54.6875 
L 45.515625 42.1875 
L 27.484375 42.1875 
L 27.484375 19 
Q 27.484375 15.1875 29 13.84375 
Q 30.515625 12.5 35.015625 12.5 
L 44 12.5 
L 44 0 
L 29 0 
Q 18.65625 0 14.328125 4.3125 
Q 10.015625 8.640625 10.015625 19 
L 10.015625 42.1875 
L 1.3125 42.1875 
L 1.3125 54.6875 
L 10.015625 54.6875 
L 10.015625 70.21875 
z
" id="DejaVuSans-Bold-116"/>
      <path d="M 8.40625 54.6875 
L 25.875 54.6875 
L 25.875 0 
L 8.40625 0 
z
M 8.40625 75.984375 
L 25.875 75.984375 
L 25.875 61.71875 
L 8.40625 61.71875 
z
" id="DejaVuSans-Bold-105"/>
      <path d="M 59.078125 45.609375 
Q 62.40625 50.6875 66.96875 53.34375 
Q 71.53125 56 77 56 
Q 86.421875 56 91.359375 50.1875 
Q 96.296875 44.390625 96.296875 33.296875 
L 96.296875 0 
L 78.71875 0 
L 78.71875 28.515625 
Q 78.765625 29.15625 78.78125 29.828125 
Q 78.8125 30.515625 78.8125 31.78125 
Q 78.8125 37.59375 77.09375 40.203125 
Q 75.390625 42.828125 71.578125 42.828125 
Q 66.609375 42.828125 63.890625 38.71875 
Q 61.1875 34.625 61.078125 26.859375 
L 61.078125 0 
L 43.5 0 
L 43.5 28.515625 
Q 43.5 37.59375 41.9375 40.203125 
Q 40.375 42.828125 36.375 42.828125 
Q 31.34375 42.828125 28.609375 38.703125 
Q 25.875 34.578125 25.875 26.90625 
L 25.875 0 
L 8.296875 0 
L 8.296875 54.6875 
L 25.875 54.6875 
L 25.875 46.6875 
Q 29.109375 51.3125 33.28125 53.65625 
Q 37.453125 56 42.484375 56 
Q 48.140625 56 52.484375 53.265625 
Q 56.84375 50.53125 59.078125 45.609375 
z
" id="DejaVuSans-Bold-109"/>
      <path d="M 62.984375 27.484375 
L 62.984375 22.515625 
L 22.125 22.515625 
Q 22.75 16.359375 26.5625 13.28125 
Q 30.375 10.203125 37.203125 10.203125 
Q 42.71875 10.203125 48.5 11.84375 
Q 54.296875 13.484375 60.40625 16.796875 
L 60.40625 3.328125 
Q 54.203125 0.984375 48 -0.21875 
Q 41.796875 -1.421875 35.59375 -1.421875 
Q 20.75 -1.421875 12.515625 6.125 
Q 4.296875 13.671875 4.296875 27.296875 
Q 4.296875 40.671875 12.375 48.328125 
Q 20.453125 56 34.625 56 
Q 47.515625 56 55.25 48.234375 
Q 62.984375 40.484375 62.984375 27.484375 
z
M 45.015625 33.296875 
Q 45.015625 38.28125 42.109375 41.328125 
Q 39.203125 44.390625 34.515625 44.390625 
Q 29.4375 44.390625 26.265625 41.53125 
Q 23.09375 38.671875 22.3125 33.296875 
z
" id="DejaVuSans-Bold-101"/>
      <path id="DejaVuSans-Bold-32"/>
      <path d="M 8.59375 75.984375 
L 38.921875 75.984375 
L 38.921875 64.984375 
L 25.203125 64.984375 
L 25.203125 -2.203125 
L 38.921875 -2.203125 
L 38.921875 -13.1875 
L 8.59375 -13.1875 
z
" id="DejaVuSans-Bold-91"/>
      <path d="M 63.375 33.296875 
L 63.375 0 
L 45.796875 0 
L 45.796875 5.421875 
L 45.796875 25.390625 
Q 45.796875 32.5625 45.484375 35.25 
Q 45.171875 37.9375 44.390625 39.203125 
Q 43.359375 40.921875 41.59375 41.875 
Q 39.84375 42.828125 37.59375 42.828125 
Q 32.125 42.828125 29 38.59375 
Q 25.875 34.375 25.875 26.90625 
L 25.875 0 
L 8.40625 0 
L 8.40625 75.984375 
L 25.875 75.984375 
L 25.875 46.6875 
Q 29.828125 51.46875 34.265625 53.734375 
Q 38.71875 56 44.09375 56 
Q 53.5625 56 58.46875 50.1875 
Q 63.375 44.390625 63.375 33.296875 
z
" id="DejaVuSans-Bold-104"/>
      <path d="M 49.03125 39.796875 
Q 46.734375 40.875 44.453125 41.375 
Q 42.1875 41.890625 39.890625 41.890625 
Q 33.15625 41.890625 29.515625 37.5625 
Q 25.875 33.25 25.875 25.203125 
L 25.875 0 
L 8.40625 0 
L 8.40625 54.6875 
L 25.875 54.6875 
L 25.875 45.703125 
Q 29.25 51.078125 33.609375 53.53125 
Q 37.984375 56 44.09375 56 
Q 44.96875 56 45.984375 55.921875 
Q 47.015625 55.859375 48.96875 55.609375 
z
" id="DejaVuSans-Bold-114"/>
      <path d="M 37.109375 -13.1875 
L 6.78125 -13.1875 
L 6.78125 -2.203125 
L 20.515625 -2.203125 
L 20.515625 64.984375 
L 6.78125 64.984375 
L 6.78125 75.984375 
L 37.109375 75.984375 
z
" id="DejaVuSans-Bold-93"/>
     </defs>
     <g transform="translate(162.262812 284.534416)scale(0.12 -0.12)">
      <use xlink:href="#DejaVuSans-Bold-116"/>
      <use x="47.802734" xlink:href="#DejaVuSans-Bold-105"/>
      <use x="82.080078" xlink:href="#DejaVuSans-Bold-109"/>
      <use x="186.279297" xlink:href="#DejaVuSans-Bold-101"/>
      <use x="254.101562" xlink:href="#DejaVuSans-Bold-32"/>
      <use x="288.916016" xlink:href="#DejaVuSans-Bold-91"/>
      <use x="334.619141" xlink:href="#DejaVuSans-Bold-104"/>
      <use x="405.810547" xlink:href="#DejaVuSans-Bold-114"/>
      <use x="455.126953" xlink:href="#DejaVuSans-Bold-93"/>
     </g>
    </g>
   </g>
   <g id="matplotlib.axis_2">
    <g id="ytick_1">
     <g id="line2d_8">
      <defs>
       <path d="M 0 0 
L -3.5 0 
" id="m6dcb966e95" style="stroke:#000000;stroke-width:0.8;"/>
      </defs>
      <g>
       <use style="stroke:#000000;stroke-width:0.8;" x="52.8125" xlink:href="#m6dcb966e95" y="252.802541"/>
      </g>
     </g>
     <g id="text_9">
      <!-- 0 -->
      <g transform="translate(38.1775 257.361603)scale(0.12 -0.12)">
       <use xlink:href="#DejaVuSans-48"/>
      </g>
     </g>
    </g>
    <g id="ytick_2">
     <g id="line2d_9">
      <g>
       <use style="stroke:#000000;stroke-width:0.8;" x="52.8125" xlink:href="#m6dcb966e95" y="204.593845"/>
      </g>
     </g>
     <g id="text_10">
      <!-- 100 -->
      <g transform="translate(22.9075 209.152908)scale(0.12 -0.12)">
       <use xlink:href="#DejaVuSans-49"/>
       <use x="63.623047" xlink:href="#DejaVuSans-48"/>
       <use x="127.246094" xlink:href="#DejaVuSans-48"/>
      </g>
     </g>
    </g>
    <g id="ytick_3">
     <g id="line2d_10">
      <g>
       <use style="stroke:#000000;stroke-width:0.8;" x="52.8125" xlink:href="#m6dcb966e95" y="156.385149"/>
      </g>
     </g>
     <g id="text_11">
      <!-- 200 -->
      <g transform="translate(22.9075 160.944212)scale(0.12 -0.12)">
       <use xlink:href="#DejaVuSans-50"/>
       <use x="63.623047" xlink:href="#DejaVuSans-48"/>
       <use x="127.246094" xlink:href="#DejaVuSans-48"/>
      </g>
     </g>
    </g>
    <g id="ytick_4">
     <g id="line2d_11">
      <g>
       <use style="stroke:#000000;stroke-width:0.8;" x="52.8125" xlink:href="#m6dcb966e95" y="108.176454"/>
      </g>
     </g>
     <g id="text_12">
      <!-- 300 -->
      <g transform="translate(22.9075 112.735516)scale(0.12 -0.12)">
       <use xlink:href="#DejaVuSans-51"/>
       <use x="63.623047" xlink:href="#DejaVuSans-48"/>
       <use x="127.246094" xlink:href="#DejaVuSans-48"/>
      </g>
     </g>
    </g>
    <g id="ytick_5">
     <g id="line2d_12">
      <g>
       <use style="stroke:#000000;stroke-width:0.8;" x="52.8125" xlink:href="#m6dcb966e95" y="59.967758"/>
      </g>
     </g>
     <g id="text_13">
      <!-- 400 -->
      <g transform="translate(22.9075 64.526821)scale(0.12 -0.12)">
       <use xlink:href="#DejaVuSans-52"/>
       <use x="63.623047" xlink:href="#DejaVuSans-48"/>
       <use x="127.246094" xlink:href="#DejaVuSans-48"/>
      </g>
     </g>
    </g>
    <g id="ytick_6">
     <g id="line2d_13">
      <g>
       <use style="stroke:#000000;stroke-width:0.8;" x="52.8125" xlink:href="#m6dcb966e95" y="11.759062"/>
      </g>
     </g>
     <g id="text_14">
      <!-- 500 -->
      <g transform="translate(22.9075 16.318125)scale(0.12 -0.12)">
       <use xlink:href="#DejaVuSans-53"/>
       <use x="63.623047" xlink:href="#DejaVuSans-48"/>
       <use x="127.246094" xlink:href="#DejaVuSans-48"/>
      </g>
     </g>
    </g>
    <g id="text_15">
     <!-- glycogen [mM] -->
     <defs>
      <path d="M 45.609375 9.28125 
Q 42 4.5 37.640625 2.25 
Q 33.296875 0 27.59375 0 
Q 17.578125 0 11.03125 7.875 
Q 4.5 15.765625 4.5 27.984375 
Q 4.5 40.234375 11.03125 48.0625 
Q 17.578125 55.90625 27.59375 55.90625 
Q 33.296875 55.90625 37.640625 53.65625 
Q 42 51.421875 45.609375 46.578125 
L 45.609375 54.6875 
L 63.1875 54.6875 
L 63.1875 5.515625 
Q 63.1875 -7.671875 54.859375 -14.625 
Q 46.53125 -21.578125 30.71875 -21.578125 
Q 25.59375 -21.578125 20.796875 -20.796875 
Q 16.015625 -20.015625 11.1875 -18.40625 
L 11.1875 -4.78125 
Q 15.765625 -7.421875 20.15625 -8.71875 
Q 24.5625 -10.015625 29 -10.015625 
Q 37.59375 -10.015625 41.59375 -6.25 
Q 45.609375 -2.484375 45.609375 5.515625 
z
M 34.078125 43.3125 
Q 28.65625 43.3125 25.625 39.296875 
Q 22.609375 35.296875 22.609375 27.984375 
Q 22.609375 20.453125 25.53125 16.578125 
Q 28.46875 12.703125 34.078125 12.703125 
Q 39.546875 12.703125 42.578125 16.703125 
Q 45.609375 20.703125 45.609375 27.984375 
Q 45.609375 35.296875 42.578125 39.296875 
Q 39.546875 43.3125 34.078125 43.3125 
z
" id="DejaVuSans-Bold-103"/>
      <path d="M 8.40625 75.984375 
L 25.875 75.984375 
L 25.875 0 
L 8.40625 0 
z
" id="DejaVuSans-Bold-108"/>
      <path d="M 1.21875 54.6875 
L 18.703125 54.6875 
L 33.40625 17.578125 
L 45.90625 54.6875 
L 63.375 54.6875 
L 40.375 -5.171875 
Q 36.921875 -14.3125 32.296875 -17.9375 
Q 27.6875 -21.578125 20.125 -21.578125 
L 10.015625 -21.578125 
L 10.015625 -10.109375 
L 15.484375 -10.109375 
Q 19.921875 -10.109375 21.9375 -8.6875 
Q 23.96875 -7.28125 25.09375 -3.609375 
L 25.59375 -2.09375 
z
" id="DejaVuSans-Bold-121"/>
      <path d="M 52.59375 52.984375 
L 52.59375 38.71875 
Q 49.03125 41.15625 45.4375 42.328125 
Q 41.84375 43.5 37.984375 43.5 
Q 30.671875 43.5 26.59375 39.234375 
Q 22.515625 34.96875 22.515625 27.296875 
Q 22.515625 19.625 26.59375 15.34375 
Q 30.671875 11.078125 37.984375 11.078125 
Q 42.09375 11.078125 45.78125 12.296875 
Q 49.46875 13.53125 52.59375 15.921875 
L 52.59375 1.609375 
Q 48.484375 0.09375 44.265625 -0.65625 
Q 40.046875 -1.421875 35.796875 -1.421875 
Q 21 -1.421875 12.640625 6.171875 
Q 4.296875 13.765625 4.296875 27.296875 
Q 4.296875 40.828125 12.640625 48.40625 
Q 21 56 35.796875 56 
Q 40.09375 56 44.265625 55.25 
Q 48.4375 54.5 52.59375 52.984375 
z
" id="DejaVuSans-Bold-99"/>
      <path d="M 34.421875 43.5 
Q 28.609375 43.5 25.5625 39.328125 
Q 22.515625 35.15625 22.515625 27.296875 
Q 22.515625 19.4375 25.5625 15.25 
Q 28.609375 11.078125 34.421875 11.078125 
Q 40.140625 11.078125 43.15625 15.25 
Q 46.1875 19.4375 46.1875 27.296875 
Q 46.1875 35.15625 43.15625 39.328125 
Q 40.140625 43.5 34.421875 43.5 
z
M 34.421875 56 
Q 48.53125 56 56.46875 48.375 
Q 64.40625 40.765625 64.40625 27.296875 
Q 64.40625 13.8125 56.46875 6.1875 
Q 48.53125 -1.421875 34.421875 -1.421875 
Q 20.265625 -1.421875 12.28125 6.1875 
Q 4.296875 13.8125 4.296875 27.296875 
Q 4.296875 40.765625 12.28125 48.375 
Q 20.265625 56 34.421875 56 
z
" id="DejaVuSans-Bold-111"/>
      <path d="M 63.375 33.296875 
L 63.375 0 
L 45.796875 0 
L 45.796875 5.421875 
L 45.796875 25.484375 
Q 45.796875 32.5625 45.484375 35.25 
Q 45.171875 37.9375 44.390625 39.203125 
Q 43.359375 40.921875 41.59375 41.875 
Q 39.84375 42.828125 37.59375 42.828125 
Q 32.125 42.828125 29 38.59375 
Q 25.875 34.375 25.875 26.90625 
L 25.875 0 
L 8.40625 0 
L 8.40625 54.6875 
L 25.875 54.6875 
L 25.875 46.6875 
Q 29.828125 51.46875 34.265625 53.734375 
Q 38.71875 56 44.09375 56 
Q 53.5625 56 58.46875 50.1875 
Q 63.375 44.390625 63.375 33.296875 
z
" id="DejaVuSans-Bold-110"/>
      <path d="M 9.1875 72.90625 
L 33.109375 72.90625 
L 49.703125 33.890625 
L 66.40625 72.90625 
L 90.28125 72.90625 
L 90.28125 0 
L 72.515625 0 
L 72.515625 53.328125 
L 55.71875 14.015625 
L 43.796875 14.015625 
L 27 53.328125 
L 27 0 
L 9.1875 0 
z
" id="DejaVuSans-Bold-77"/>
     </defs>
     <g transform="translate(16.318125 182.654552)rotate(-90)scale(0.12 -0.12)">
      <use xlink:href="#DejaVuSans-Bold-103"/>
      <use x="71.582031" xlink:href="#DejaVuSans-Bold-108"/>
      <use x="105.859375" xlink:href="#DejaVuSans-Bold-121"/>
      <use x="171.044922" xlink:href="#DejaVuSans-Bold-99"/>
      <use x="230.322266" xlink:href="#DejaVuSans-Bold-111"/>
      <use x="299.023438" xlink:href="#DejaVuSans-Bold-103"/>
      <use x="370.605469" xlink:href="#DejaVuSans-Bold-101"/>
      <use x="438.427734" xlink:href="#DejaVuSans-Bold-110"/>
      <use x="509.619141" xlink:href="#DejaVuSans-Bold-32"/>
      <use x="544.433594" xlink:href="#DejaVuSans-Bold-91"/>
      <use x="590.136719" xlink:href="#DejaVuSans-Bold-109"/>
      <use x="694.335938" xlink:href="#DejaVuSans-Bold-77"/>
      <use x="793.847656" xlink:href="#DejaVuSans-Bold-93"/>
     </g>
    </g>
   </g>
   <g id="LineCollection_1">
    <path clip-path="url(#p0ac1ff5e77)" d="M 69.981731 145.837087 
L 69.981731 87.44093 
" style="fill:none;stroke:#000000;stroke-opacity:0.6;stroke-width:1.5;"/>
    <path clip-path="url(#p0ac1ff5e77)" d="M 110.758654 194.967533 
L 110.758654 153.417422 
" style="fill:none;stroke:#000000;stroke-opacity:0.6;stroke-width:1.5;"/>
    <path clip-path="url(#p0ac1ff5e77)" d="M 125.781731 214.058658 
L 125.781731 182.053869 
" style="fill:none;stroke:#000000;stroke-opacity:0.6;stroke-width:1.5;"/>
    <path clip-path="url(#p0ac1ff5e77)" d="M 136.5125 205.355542 
L 136.5125 180.088401 
" style="fill:none;stroke:#000000;stroke-opacity:0.6;stroke-width:1.5;"/>
    <path clip-path="url(#p0ac1ff5e77)" d="M 149.389423 217.147197 
L 149.389423 195.249072 
" style="fill:none;stroke:#000000;stroke-opacity:0.6;stroke-width:1.5;"/>
   </g>
   <g id="line2d_14">
    <path clip-path="url(#p0ac1ff5e77)" d="M 52.8125 11.759062 
L 53.9285 24.695179 
L 55.6025 40.907153 
L 57.8345 60.390379 
L 60.6245 82.806406 
L 63.9725 107.690689 
L 67.3205 130.659085 
L 70.1105 148.338773 
L 72.9005 164.605862 
L 75.1325 176.521462 
L 77.3645 187.385249 
L 79.5965 197.130194 
L 81.8285 205.703777 
L 83.5025 211.348542 
L 85.1765 216.322161 
L 86.8505 220.641432 
L 88.5245 224.337381 
L 90.1985 227.453983 
L 91.8725 230.045385 
L 93.5465 232.17213 
L 95.2205 233.897091 
L 96.8945 235.281785 
L 98.5685 236.383547 
L 100.2425 237.253719 
L 102.4745 238.129619 
L 104.7065 238.758659 
L 107.4965 239.297842 
L 110.8445 239.702919 
L 115.3085 239.999643 
L 122.0045 240.189765 
L 134.8385 240.277674 
L 196.2185 240.290951 
L 331.8125 240.290952 
L 331.8125 240.290952 
" style="fill:none;stroke:#000000;stroke-linecap:square;stroke-width:2;"/>
   </g>
   <g id="line2d_15">
    <path clip-path="url(#p0ac1ff5e77)" d="M 52.8125 11.759062 
L 53.9285 23.573109 
L 55.6025 38.230019 
L 57.8345 55.716181 
L 60.6245 75.776493 
L 63.9725 98.070938 
L 67.3205 118.774381 
L 70.6685 137.97605 
L 73.4585 152.80417 
L 76.2485 166.503526 
L 79.0385 178.996999 
L 81.2705 188.068788 
L 83.5025 196.279606 
L 85.7345 203.602706 
L 87.9665 210.027491 
L 89.6405 214.261959 
L 91.3145 218.009664 
L 92.9885 221.291355 
L 94.6625 224.134717 
L 96.3365 226.573141 
L 98.0105 228.644053 
L 99.6845 230.38706 
L 101.3585 231.842126 
L 103.0325 233.048004 
L 105.2645 234.330548 
L 107.4965 235.311275 
L 109.7285 236.055501 
L 112.5185 236.733895 
L 115.8665 237.283248 
L 119.7725 237.68297 
L 124.7945 237.969463 
L 132.6065 238.163509 
L 147.1145 238.253104 
L 212.4005 238.267877 
L 331.8125 238.267879 
L 331.8125 238.267879 
" style="fill:none;stroke:#000000;stroke-linecap:square;stroke-width:2;"/>
   </g>
   <g id="line2d_16">
    <path clip-path="url(#p0ac1ff5e77)" d="M 52.8125 11.759062 
L 53.9285 22.432464 
L 55.6025 35.524375 
L 57.8345 51.011168 
L 60.6245 68.703364 
L 63.9725 88.356314 
L 67.3205 106.676504 
L 70.6685 123.812416 
L 74.0165 139.796671 
L 77.3645 154.60297 
L 80.1545 165.999805 
L 82.9445 176.495256 
L 85.7345 186.045942 
L 87.9665 192.980999 
L 90.1985 199.274588 
L 92.4305 204.921929 
L 94.6625 209.928363 
L 96.8945 214.310649 
L 99.1265 218.097201 
L 101.3585 221.327128 
L 103.0325 223.412758 
L 105.2645 225.787043 
L 107.4965 227.74795 
L 109.7285 229.351557 
L 111.9605 230.651668 
L 114.1925 231.697911 
L 116.9825 232.715655 
L 119.7725 233.47929 
L 123.1205 234.143653 
L 127.0265 234.670006 
L 132.0485 235.088308 
L 138.7445 235.38372 
L 148.7885 235.56364 
L 168.3185 235.640774 
L 282.1505 235.650548 
L 331.8125 235.650548 
L 331.8125 235.650548 
" style="fill:none;stroke:#000000;stroke-linecap:square;stroke-width:2;"/>
   </g>
   <g id="line2d_17">
    <path clip-path="url(#p0ac1ff5e77)" d="M 52.8125 11.759062 
L 53.9285 21.310715 
L 55.6025 32.873391 
L 57.8345 46.419782 
L 60.6245 61.805141 
L 63.9725 78.853831 
L 67.3205 94.767764 
L 70.6685 109.729846 
L 74.0165 123.815851 
L 77.3645 137.048633 
L 80.7125 149.421282 
L 84.0605 160.90953 
L 86.8505 169.783663 
L 89.6405 178.000252 
L 92.4305 185.540973 
L 95.2205 192.392442 
L 98.0105 198.549003 
L 100.2425 202.976545 
L 102.4745 206.969695 
L 104.7065 210.541265 
L 106.9385 213.70907 
L 109.1705 216.495471 
L 111.4025 218.926611 
L 113.6345 221.03141 
L 115.8665 222.840457 
L 118.0985 224.384888 
L 120.3305 225.69537 
L 123.1205 227.049035 
L 125.9105 228.135869 
L 128.7005 229.003 
L 132.0485 229.810572 
L 135.9545 230.50445 
L 140.4185 231.058026 
L 145.9985 231.505422 
L 153.2525 231.837112 
L 163.2965 232.052461 
L 180.5945 232.168213 
L 232.4885 232.198702 
L 331.8125 232.198986 
L 331.8125 232.198986 
" style="fill:none;stroke:#000000;stroke-linecap:square;stroke-width:2;"/>
   </g>
   <g id="line2d_18">
    <path clip-path="url(#p0ac1ff5e77)" d="M 52.8125 11.759062 
L 53.9285 20.238943 
L 55.6025 30.350405 
L 57.8345 42.066052 
L 60.6245 55.26812 
L 63.9725 69.828174 
L 67.3205 83.401243 
L 71.2265 98.24996 
L 75.1325 112.176296 
L 79.0385 125.248398 
L 82.9445 137.491245 
L 86.2925 147.326075 
L 89.6405 156.544655 
L 92.9885 165.135448 
L 96.3365 173.086042 
L 99.6845 180.385797 
L 102.4745 185.966969 
L 105.2645 191.091284 
L 108.0545 195.762304 
L 110.8445 199.98805 
L 113.6345 203.781276 
L 116.4245 207.159447 
L 119.2145 210.144382 
L 122.0045 212.761601 
L 124.7945 215.039448 
L 127.5845 217.008068 
L 130.3745 218.69837 
L 133.1645 220.141045 
L 135.9545 221.365734 
L 139.3025 222.586812 
L 142.6505 223.578245 
L 146.5565 224.49652 
L 151.0205 225.295811 
L 156.0425 225.952216 
L 162.1805 226.50342 
L 169.4345 226.916064 
L 178.9205 227.220279 
L 192.8705 227.421679 
L 217.9805 227.52192 
L 310.0505 227.542499 
L 331.8125 227.542523 
L 331.8125 227.542523 
" style="fill:none;stroke:#000000;stroke-linecap:square;stroke-width:2;"/>
   </g>
   <g id="line2d_19">
    <path clip-path="url(#p0ac1ff5e77)" d="M 52.8125 11.759062 
L 53.9285 19.241018 
L 55.6025 28.01041 
L 57.8345 38.041131 
L 60.6245 49.229071 
L 63.4145 59.503922 
L 66.7625 71.00092 
L 70.6685 83.541983 
L 74.5745 95.317469 
L 78.4805 106.426693 
L 82.3865 116.924707 
L 86.2925 126.841741 
L 90.1985 136.193126 
L 94.1045 144.985059 
L 98.0105 153.218364 
L 101.9165 160.891231 
L 105.2645 167.020173 
L 108.6125 172.735018 
L 111.9605 178.036602 
L 115.3085 182.927904 
L 118.6565 187.414551 
L 122.0045 191.505169 
L 125.3525 195.211566 
L 128.7005 198.548707 
L 132.0485 201.534509 
L 135.3965 204.189446 
L 138.7445 206.536025 
L 142.0925 208.598162 
L 145.4405 210.400525 
L 148.7885 211.967894 
L 152.6945 213.531873 
L 156.6005 214.845966 
L 161.0645 216.085755 
L 165.5285 217.090333 
L 170.5505 217.989812 
L 176.1305 218.760162 
L 182.8265 219.44078 
L 190.6385 219.990673 
L 200.1245 220.419574 
L 212.4005 220.736696 
L 230.2565 220.949983 
L 260.9465 221.059338 
L 331.8125 221.08561 
L 331.8125 221.08561 
" style="fill:none;stroke:#000000;stroke-linecap:square;stroke-width:2;"/>
   </g>
   <g id="line2d_20">
    <path clip-path="url(#p0ac1ff5e77)" d="M 52.8125 11.759062 
L 53.9285 18.333928 
L 55.6025 25.887034 
L 57.2765 32.380224 
L 59.5085 40.146247 
L 62.2985 48.963658 
L 65.6465 58.678681 
L 68.9945 67.714603 
L 72.9005 77.596554 
L 76.8065 86.895968 
L 81.2705 96.914264 
L 85.7345 106.353624 
L 90.1985 115.261151 
L 94.6625 123.666954 
L 99.1265 131.59061 
L 103.5905 139.045094 
L 108.0545 146.039376 
L 112.5185 152.580261 
L 116.4245 157.936337 
L 120.3305 162.954059 
L 124.2365 167.638211 
L 128.1425 171.994532 
L 132.0485 176.029971 
L 135.9545 179.752861 
L 139.8605 183.173004 
L 143.7665 186.301675 
L 147.6725 189.15154 
L 151.5785 191.736507 
L 155.4845 194.071514 
L 159.3905 196.172285 
L 163.8545 198.307172 
L 168.3185 200.181867 
L 172.7825 201.820773 
L 177.8045 203.412278 
L 182.8265 204.767744 
L 188.4065 206.033576 
L 194.5445 207.177251 
L 201.2405 208.178113 
L 208.4945 209.027319 
L 216.8645 209.769348 
L 226.3505 210.378496 
L 237.5105 210.870083 
L 251.4605 211.2574 
L 270.4325 211.544826 
L 298.3325 211.72424 
L 331.8125 211.793218 
L 331.8125 211.793218 
" style="fill:none;stroke:#000000;stroke-linecap:square;stroke-width:2;"/>
   </g>
   <g id="line2d_21">
    <path clip-path="url(#p0ac1ff5e77)" d="M 52.8125 11.759062 
L 53.9285 17.527131 
L 55.6025 23.994255 
L 57.2765 29.473365 
L 59.5085 35.936696 
L 62.2985 43.178012 
L 65.0885 49.795493 
L 68.4365 57.147033 
L 72.3425 65.109556 
L 76.2485 72.550976 
L 80.7125 80.533536 
L 85.1765 88.042579 
L 89.6405 95.136533 
L 94.6625 102.671257 
L 99.6845 109.7731 
L 104.7065 116.471901 
L 109.7285 122.790035 
L 114.7505 128.744924 
L 119.7725 134.350699 
L 124.7945 139.61936 
L 129.8165 144.561605 
L 134.8385 149.18743 
L 139.8605 153.506577 
L 144.8825 157.528862 
L 149.9045 161.264393 
L 154.9265 164.723723 
L 159.9485 167.917924 
L 164.9705 170.858607 
L 169.9925 173.55789 
L 175.5725 176.289256 
L 181.1525 178.755815 
L 186.7325 180.975582 
L 192.3125 182.966658 
L 198.4505 184.914124 
L 204.5885 186.629973 
L 211.2845 188.264113 
L 217.9805 189.677188 
L 225.2345 190.988571 
L 233.0465 192.179305 
L 241.4165 193.237695 
L 250.9025 194.210404 
L 261.5045 195.065938 
L 273.2225 195.787757 
L 287.1725 196.415673 
L 303.9125 196.931642 
L 324.5585 197.331639 
L 331.8125 197.42958 
L 331.8125 197.42958 
" style="fill:none;stroke:#000000;stroke-linecap:square;stroke-width:2;"/>
   </g>
   <g id="line2d_22">
    <defs>
     <path d="M 3 0 
L -3 -0 
" id="m81d25c28ac" style="stroke:#000000;stroke-opacity:0.6;"/>
    </defs>
    <g clip-path="url(#p0ac1ff5e77)">
     <use style="fill-opacity:0.6;stroke:#000000;stroke-opacity:0.6;" x="69.981731" xlink:href="#m81d25c28ac" y="145.837087"/>
     <use style="fill-opacity:0.6;stroke:#000000;stroke-opacity:0.6;" x="110.758654" xlink:href="#m81d25c28ac" y="194.967533"/>
     <use style="fill-opacity:0.6;stroke:#000000;stroke-opacity:0.6;" x="125.781731" xlink:href="#m81d25c28ac" y="214.058658"/>
     <use style="fill-opacity:0.6;stroke:#000000;stroke-opacity:0.6;" x="136.5125" xlink:href="#m81d25c28ac" y="205.355542"/>
     <use style="fill-opacity:0.6;stroke:#000000;stroke-opacity:0.6;" x="149.389423" xlink:href="#m81d25c28ac" y="217.147197"/>
    </g>
   </g>
   <g id="line2d_23">
    <g clip-path="url(#p0ac1ff5e77)">
     <use style="fill-opacity:0.6;stroke:#000000;stroke-opacity:0.6;" x="69.981731" xlink:href="#m81d25c28ac" y="87.44093"/>
     <use style="fill-opacity:0.6;stroke:#000000;stroke-opacity:0.6;" x="110.758654" xlink:href="#m81d25c28ac" y="153.417422"/>
     <use style="fill-opacity:0.6;stroke:#000000;stroke-opacity:0.6;" x="125.781731" xlink:href="#m81d25c28ac" y="182.053869"/>
     <use style="fill-opacity:0.6;stroke:#000000;stroke-opacity:0.6;" x="136.5125" xlink:href="#m81d25c28ac" y="180.088401"/>
     <use style="fill-opacity:0.6;stroke:#000000;stroke-opacity:0.6;" x="149.389423" xlink:href="#m81d25c28ac" y="195.249072"/>
    </g>
   </g>
   <g id="line2d_24">
    <path clip-path="url(#p0ac1ff5e77)" d="M 69.877857 74.865691 
L 82.057924 114.428157 
L 95.285829 108.201522 
L 109.279525 127.485001 
L 121.076503 153.965555 
L 146.15474 219.026709 
L 173.36282 220.636108 
L 224.483775 235.305146 
L 248.740894 228.740858 
L 273.733285 222.502893 
L 327.421898 232.263563 
L 340.0125 198.424144 
" style="fill:none;stroke:#000000;stroke-dasharray:5.55,2.4;stroke-dashoffset:0;stroke-opacity:0.6;stroke-width:1.5;"/>
    <defs>
     <path d="M -3 3 
L 3 3 
L 3 -3 
L -3 -3 
z
" id="maff0a6d346" style="stroke:#000000;stroke-linejoin:miter;stroke-opacity:0.6;"/>
    </defs>
    <g clip-path="url(#p0ac1ff5e77)">
     <use style="fill-opacity:0.6;stroke:#000000;stroke-linejoin:miter;stroke-opacity:0.6;" x="69.877857" xlink:href="#maff0a6d346" y="74.865691"/>
     <use style="fill-opacity:0.6;stroke:#000000;stroke-linejoin:miter;stroke-opacity:0.6;" x="82.057924" xlink:href="#maff0a6d346" y="114.428157"/>
     <use style="fill-opacity:0.6;stroke:#000000;stroke-linejoin:miter;stroke-opacity:0.6;" x="95.285829" xlink:href="#maff0a6d346" y="108.201522"/>
     <use style="fill-opacity:0.6;stroke:#000000;stroke-linejoin:miter;stroke-opacity:0.6;" x="109.279525" xlink:href="#maff0a6d346" y="127.485001"/>
     <use style="fill-opacity:0.6;stroke:#000000;stroke-linejoin:miter;stroke-opacity:0.6;" x="121.076503" xlink:href="#maff0a6d346" y="153.965555"/>
     <use style="fill-opacity:0.6;stroke:#000000;stroke-linejoin:miter;stroke-opacity:0.6;" x="146.15474" xlink:href="#maff0a6d346" y="219.026709"/>
     <use style="fill-opacity:0.6;stroke:#000000;stroke-linejoin:miter;stroke-opacity:0.6;" x="173.36282" xlink:href="#maff0a6d346" y="220.636108"/>
     <use style="fill-opacity:0.6;stroke:#000000;stroke-linejoin:miter;stroke-opacity:0.6;" x="224.483775" xlink:href="#maff0a6d346" y="235.305146"/>
     <use style="fill-opacity:0.6;stroke:#000000;stroke-linejoin:miter;stroke-opacity:0.6;" x="248.740894" xlink:href="#maff0a6d346" y="228.740858"/>
     <use style="fill-opacity:0.6;stroke:#000000;stroke-linejoin:miter;stroke-opacity:0.6;" x="273.733285" xlink:href="#maff0a6d346" y="222.502893"/>
     <use style="fill-opacity:0.6;stroke:#000000;stroke-linejoin:miter;stroke-opacity:0.6;" x="327.421898" xlink:href="#maff0a6d346" y="232.263563"/>
     <use style="fill-opacity:0.6;stroke:#000000;stroke-linejoin:miter;stroke-opacity:0.6;" x="362.602511" xlink:href="#maff0a6d346" y="137.709583"/>
    </g>
   </g>
   <g id="line2d_25">
    <path clip-path="url(#p0ac1ff5e77)" d="M 69.877857 72.576742 
L 82.057924 103.963496 
L 95.285829 97.082187 
L 109.279525 104.592137 
L 121.076503 172.935677 
L 146.15474 175.200521 
L 173.36282 203.957972 
L 224.483775 226.147808 
L 248.740894 220.23694 
L 273.733285 220.866546 
L 327.421898 233.900634 
L 340.0125 195.380642 
" style="fill:none;stroke:#000000;stroke-dasharray:5.55,2.4;stroke-dashoffset:0;stroke-opacity:0.6;stroke-width:1.5;"/>
    <g clip-path="url(#p0ac1ff5e77)">
     <use style="fill-opacity:0.6;stroke:#000000;stroke-linejoin:miter;stroke-opacity:0.6;" x="69.877857" xlink:href="#maff0a6d346" y="72.576742"/>
     <use style="fill-opacity:0.6;stroke:#000000;stroke-linejoin:miter;stroke-opacity:0.6;" x="82.057924" xlink:href="#maff0a6d346" y="103.963496"/>
     <use style="fill-opacity:0.6;stroke:#000000;stroke-linejoin:miter;stroke-opacity:0.6;" x="95.285829" xlink:href="#maff0a6d346" y="97.082187"/>
     <use style="fill-opacity:0.6;stroke:#000000;stroke-linejoin:miter;stroke-opacity:0.6;" x="109.279525" xlink:href="#maff0a6d346" y="104.592137"/>
     <use style="fill-opacity:0.6;stroke:#000000;stroke-linejoin:miter;stroke-opacity:0.6;" x="121.076503" xlink:href="#maff0a6d346" y="172.935677"/>
     <use style="fill-opacity:0.6;stroke:#000000;stroke-linejoin:miter;stroke-opacity:0.6;" x="146.15474" xlink:href="#maff0a6d346" y="175.200521"/>
     <use style="fill-opacity:0.6;stroke:#000000;stroke-linejoin:miter;stroke-opacity:0.6;" x="173.36282" xlink:href="#maff0a6d346" y="203.957972"/>
     <use style="fill-opacity:0.6;stroke:#000000;stroke-linejoin:miter;stroke-opacity:0.6;" x="224.483775" xlink:href="#maff0a6d346" y="226.147808"/>
     <use style="fill-opacity:0.6;stroke:#000000;stroke-linejoin:miter;stroke-opacity:0.6;" x="248.740894" xlink:href="#maff0a6d346" y="220.23694"/>
     <use style="fill-opacity:0.6;stroke:#000000;stroke-linejoin:miter;stroke-opacity:0.6;" x="273.733285" xlink:href="#maff0a6d346" y="220.866546"/>
     <use style="fill-opacity:0.6;stroke:#000000;stroke-linejoin:miter;stroke-opacity:0.6;" x="327.421898" xlink:href="#maff0a6d346" y="233.900634"/>
     <use style="fill-opacity:0.6;stroke:#000000;stroke-linejoin:miter;stroke-opacity:0.6;" x="362.602511" xlink:href="#maff0a6d346" y="126.268213"/>
    </g>
   </g>
   <g id="line2d_26">
    <path clip-path="url(#p0ac1ff5e77)" d="M 69.877857 19.592011 
M 95.285829 37.884801 
L 109.279525 60.11142 
L 121.076503 80.050054 
L 146.15474 119.273131 
L 173.36282 136.911247 
L 224.483775 226.148194 
L 248.740894 229.067905 
L 273.733285 211.055787 
L 327.421898 238.480509 
L 340.0125 208.387111 
" style="fill:none;stroke:#000000;stroke-dasharray:5.55,2.4;stroke-dashoffset:0;stroke-opacity:0.6;stroke-width:1.5;"/>
    <g clip-path="url(#p0ac1ff5e77)">
     <use style="fill-opacity:0.6;stroke:#000000;stroke-linejoin:miter;stroke-opacity:0.6;" x="69.877857" xlink:href="#maff0a6d346" y="19.592011"/>
     <use style="fill-opacity:0.6;stroke:#000000;stroke-linejoin:miter;stroke-opacity:0.6;" x="95.285829" xlink:href="#maff0a6d346" y="37.884801"/>
     <use style="fill-opacity:0.6;stroke:#000000;stroke-linejoin:miter;stroke-opacity:0.6;" x="109.279525" xlink:href="#maff0a6d346" y="60.11142"/>
     <use style="fill-opacity:0.6;stroke:#000000;stroke-linejoin:miter;stroke-opacity:0.6;" x="121.076503" xlink:href="#maff0a6d346" y="80.050054"/>
     <use style="fill-opacity:0.6;stroke:#000000;stroke-linejoin:miter;stroke-opacity:0.6;" x="146.15474" xlink:href="#maff0a6d346" y="119.273131"/>
     <use style="fill-opacity:0.6;stroke:#000000;stroke-linejoin:miter;stroke-opacity:0.6;" x="173.36282" xlink:href="#maff0a6d346" y="136.911247"/>
     <use style="fill-opacity:0.6;stroke:#000000;stroke-linejoin:miter;stroke-opacity:0.6;" x="224.483775" xlink:href="#maff0a6d346" y="226.148194"/>
     <use style="fill-opacity:0.6;stroke:#000000;stroke-linejoin:miter;stroke-opacity:0.6;" x="248.740894" xlink:href="#maff0a6d346" y="229.067905"/>
     <use style="fill-opacity:0.6;stroke:#000000;stroke-linejoin:miter;stroke-opacity:0.6;" x="273.733285" xlink:href="#maff0a6d346" y="211.055787"/>
     <use style="fill-opacity:0.6;stroke:#000000;stroke-linejoin:miter;stroke-opacity:0.6;" x="327.421898" xlink:href="#maff0a6d346" y="238.480509"/>
     <use style="fill-opacity:0.6;stroke:#000000;stroke-linejoin:miter;stroke-opacity:0.6;" x="362.602511" xlink:href="#maff0a6d346" y="154.393648"/>
    </g>
   </g>
   <g id="line2d_27">
    <path clip-path="url(#p0ac1ff5e77)" d="M 82.057924 65.368096 
L 95.285829 111.145145 
L 109.279525 136.315869 
L 121.076503 153.966519 
L 146.15474 189.262998 
L 173.36282 199.050327 
L 224.483775 209.793731 
L 248.740894 223.507514 
L 273.733285 230.676919 
L 327.421898 238.47564 
L 340.0125 215.63928 
" style="fill:none;stroke:#000000;stroke-dasharray:5.55,2.4;stroke-dashoffset:0;stroke-opacity:0.6;stroke-width:1.5;"/>
    <g clip-path="url(#p0ac1ff5e77)">
     <use style="fill-opacity:0.6;stroke:#000000;stroke-linejoin:miter;stroke-opacity:0.6;" x="82.057924" xlink:href="#maff0a6d346" y="65.368096"/>
     <use style="fill-opacity:0.6;stroke:#000000;stroke-linejoin:miter;stroke-opacity:0.6;" x="95.285829" xlink:href="#maff0a6d346" y="111.145145"/>
     <use style="fill-opacity:0.6;stroke:#000000;stroke-linejoin:miter;stroke-opacity:0.6;" x="109.279525" xlink:href="#maff0a6d346" y="136.315869"/>
     <use style="fill-opacity:0.6;stroke:#000000;stroke-linejoin:miter;stroke-opacity:0.6;" x="121.076503" xlink:href="#maff0a6d346" y="153.966519"/>
     <use style="fill-opacity:0.6;stroke:#000000;stroke-linejoin:miter;stroke-opacity:0.6;" x="146.15474" xlink:href="#maff0a6d346" y="189.262998"/>
     <use style="fill-opacity:0.6;stroke:#000000;stroke-linejoin:miter;stroke-opacity:0.6;" x="173.36282" xlink:href="#maff0a6d346" y="199.050327"/>
     <use style="fill-opacity:0.6;stroke:#000000;stroke-linejoin:miter;stroke-opacity:0.6;" x="224.483775" xlink:href="#maff0a6d346" y="209.793731"/>
     <use style="fill-opacity:0.6;stroke:#000000;stroke-linejoin:miter;stroke-opacity:0.6;" x="248.740894" xlink:href="#maff0a6d346" y="223.507514"/>
     <use style="fill-opacity:0.6;stroke:#000000;stroke-linejoin:miter;stroke-opacity:0.6;" x="273.733285" xlink:href="#maff0a6d346" y="230.676919"/>
     <use style="fill-opacity:0.6;stroke:#000000;stroke-linejoin:miter;stroke-opacity:0.6;" x="327.421898" xlink:href="#maff0a6d346" y="238.47564"/>
     <use style="fill-opacity:0.6;stroke:#000000;stroke-linejoin:miter;stroke-opacity:0.6;" x="362.602511" xlink:href="#maff0a6d346" y="174.666369"/>
    </g>
   </g>
   <g id="line2d_28">
    <path clip-path="url(#p0ac1ff5e77)" d="M 82.057924 78.449044 
L 95.285829 81.707469 
M 121.076503 100.652523 
L 146.15474 149.034288 
L 173.36282 149.336074 
L 224.483775 200.635911 
L 248.740894 205.188644 
L 273.733285 219.885017 
L 327.421898 208.060388 
L 340.0125 196.460972 
" style="fill:none;stroke:#000000;stroke-dasharray:5.55,2.4;stroke-dashoffset:0;stroke-opacity:0.6;stroke-width:1.5;"/>
    <g clip-path="url(#p0ac1ff5e77)">
     <use style="fill-opacity:0.6;stroke:#000000;stroke-linejoin:miter;stroke-opacity:0.6;" x="82.057924" xlink:href="#maff0a6d346" y="78.449044"/>
     <use style="fill-opacity:0.6;stroke:#000000;stroke-linejoin:miter;stroke-opacity:0.6;" x="95.285829" xlink:href="#maff0a6d346" y="81.707469"/>
     <use style="fill-opacity:0.6;stroke:#000000;stroke-linejoin:miter;stroke-opacity:0.6;" x="121.076503" xlink:href="#maff0a6d346" y="100.652523"/>
     <use style="fill-opacity:0.6;stroke:#000000;stroke-linejoin:miter;stroke-opacity:0.6;" x="146.15474" xlink:href="#maff0a6d346" y="149.034288"/>
     <use style="fill-opacity:0.6;stroke:#000000;stroke-linejoin:miter;stroke-opacity:0.6;" x="173.36282" xlink:href="#maff0a6d346" y="149.336074"/>
     <use style="fill-opacity:0.6;stroke:#000000;stroke-linejoin:miter;stroke-opacity:0.6;" x="224.483775" xlink:href="#maff0a6d346" y="200.635911"/>
     <use style="fill-opacity:0.6;stroke:#000000;stroke-linejoin:miter;stroke-opacity:0.6;" x="248.740894" xlink:href="#maff0a6d346" y="205.188644"/>
     <use style="fill-opacity:0.6;stroke:#000000;stroke-linejoin:miter;stroke-opacity:0.6;" x="273.733285" xlink:href="#maff0a6d346" y="219.885017"/>
     <use style="fill-opacity:0.6;stroke:#000000;stroke-linejoin:miter;stroke-opacity:0.6;" x="327.421898" xlink:href="#maff0a6d346" y="208.060388"/>
     <use style="fill-opacity:0.6;stroke:#000000;stroke-linejoin:miter;stroke-opacity:0.6;" x="362.602511" xlink:href="#maff0a6d346" y="175.649344"/>
    </g>
   </g>
   <g id="line2d_29">
    <path clip-path="url(#p0ac1ff5e77)" d="M 69.877857 73.230452 
L 82.057924 102.654148 
L 95.285829 104.931526 
L 109.279525 133.046838 
L 121.076503 138.267357 
L 146.15474 181.740513 
L 173.36282 203.957972 
L 224.483775 226.147471 
L 248.740894 229.06858 
L 273.733285 221.521364 
L 327.421898 234.88144 
L 340.0125 215.320678 
" style="fill:none;stroke:#000000;stroke-dasharray:5.55,2.4;stroke-dashoffset:0;stroke-opacity:0.6;stroke-width:1.5;"/>
    <g clip-path="url(#p0ac1ff5e77)">
     <use style="fill-opacity:0.6;stroke:#000000;stroke-linejoin:miter;stroke-opacity:0.6;" x="69.877857" xlink:href="#maff0a6d346" y="73.230452"/>
     <use style="fill-opacity:0.6;stroke:#000000;stroke-linejoin:miter;stroke-opacity:0.6;" x="82.057924" xlink:href="#maff0a6d346" y="102.654148"/>
     <use style="fill-opacity:0.6;stroke:#000000;stroke-linejoin:miter;stroke-opacity:0.6;" x="95.285829" xlink:href="#maff0a6d346" y="104.931526"/>
     <use style="fill-opacity:0.6;stroke:#000000;stroke-linejoin:miter;stroke-opacity:0.6;" x="109.279525" xlink:href="#maff0a6d346" y="133.046838"/>
     <use style="fill-opacity:0.6;stroke:#000000;stroke-linejoin:miter;stroke-opacity:0.6;" x="121.076503" xlink:href="#maff0a6d346" y="138.267357"/>
     <use style="fill-opacity:0.6;stroke:#000000;stroke-linejoin:miter;stroke-opacity:0.6;" x="146.15474" xlink:href="#maff0a6d346" y="181.740513"/>
     <use style="fill-opacity:0.6;stroke:#000000;stroke-linejoin:miter;stroke-opacity:0.6;" x="173.36282" xlink:href="#maff0a6d346" y="203.957972"/>
     <use style="fill-opacity:0.6;stroke:#000000;stroke-linejoin:miter;stroke-opacity:0.6;" x="224.483775" xlink:href="#maff0a6d346" y="226.147471"/>
     <use style="fill-opacity:0.6;stroke:#000000;stroke-linejoin:miter;stroke-opacity:0.6;" x="248.740894" xlink:href="#maff0a6d346" y="229.06858"/>
     <use style="fill-opacity:0.6;stroke:#000000;stroke-linejoin:miter;stroke-opacity:0.6;" x="273.733285" xlink:href="#maff0a6d346" y="221.521364"/>
     <use style="fill-opacity:0.6;stroke:#000000;stroke-linejoin:miter;stroke-opacity:0.6;" x="327.421898" xlink:href="#maff0a6d346" y="234.88144"/>
     <use style="fill-opacity:0.6;stroke:#000000;stroke-linejoin:miter;stroke-opacity:0.6;" x="362.602511" xlink:href="#maff0a6d346" y="180.224832"/>
    </g>
   </g>
   <g id="line2d_30">
    <path clip-path="url(#p0ac1ff5e77)" d="M 69.877857 81.731574 
L 82.057924 108.213574 
L 95.285829 124.880767 
M 121.076503 156.260771 
M 173.36282 180.410917 
L 224.483775 225.821484 
L 248.740894 223.83461 
L 273.733285 240.163812 
L 327.421898 244.365489 
L 340.0125 226.09459 
" style="fill:none;stroke:#000000;stroke-dasharray:5.55,2.4;stroke-dashoffset:0;stroke-opacity:0.6;stroke-width:1.5;"/>
    <g clip-path="url(#p0ac1ff5e77)">
     <use style="fill-opacity:0.6;stroke:#000000;stroke-linejoin:miter;stroke-opacity:0.6;" x="69.877857" xlink:href="#maff0a6d346" y="81.731574"/>
     <use style="fill-opacity:0.6;stroke:#000000;stroke-linejoin:miter;stroke-opacity:0.6;" x="82.057924" xlink:href="#maff0a6d346" y="108.213574"/>
     <use style="fill-opacity:0.6;stroke:#000000;stroke-linejoin:miter;stroke-opacity:0.6;" x="95.285829" xlink:href="#maff0a6d346" y="124.880767"/>
     <use style="fill-opacity:0.6;stroke:#000000;stroke-linejoin:miter;stroke-opacity:0.6;" x="121.076503" xlink:href="#maff0a6d346" y="156.260771"/>
     <use style="fill-opacity:0.6;stroke:#000000;stroke-linejoin:miter;stroke-opacity:0.6;" x="173.36282" xlink:href="#maff0a6d346" y="180.410917"/>
     <use style="fill-opacity:0.6;stroke:#000000;stroke-linejoin:miter;stroke-opacity:0.6;" x="224.483775" xlink:href="#maff0a6d346" y="225.821484"/>
     <use style="fill-opacity:0.6;stroke:#000000;stroke-linejoin:miter;stroke-opacity:0.6;" x="248.740894" xlink:href="#maff0a6d346" y="223.83461"/>
     <use style="fill-opacity:0.6;stroke:#000000;stroke-linejoin:miter;stroke-opacity:0.6;" x="273.733285" xlink:href="#maff0a6d346" y="240.163812"/>
     <use style="fill-opacity:0.6;stroke:#000000;stroke-linejoin:miter;stroke-opacity:0.6;" x="327.421898" xlink:href="#maff0a6d346" y="244.365489"/>
     <use style="fill-opacity:0.6;stroke:#000000;stroke-linejoin:miter;stroke-opacity:0.6;" x="362.602511" xlink:href="#maff0a6d346" y="193.31301"/>
    </g>
   </g>
   <g id="line2d_31">
    <path clip-path="url(#p0ac1ff5e77)" d="M 69.981731 116.639008 
L 110.758654 174.192477 
L 125.781731 198.056264 
L 136.5125 192.721972 
L 149.389423 206.198134 
" style="fill:none;stroke:#000000;stroke-dasharray:5.55,2.4;stroke-dashoffset:0;stroke-opacity:0.6;stroke-width:1.5;"/>
    <g clip-path="url(#p0ac1ff5e77)">
     <use style="fill-opacity:0.6;stroke:#000000;stroke-linejoin:miter;stroke-opacity:0.6;" x="69.981731" xlink:href="#maff0a6d346" y="116.639008"/>
     <use style="fill-opacity:0.6;stroke:#000000;stroke-linejoin:miter;stroke-opacity:0.6;" x="110.758654" xlink:href="#maff0a6d346" y="174.192477"/>
     <use style="fill-opacity:0.6;stroke:#000000;stroke-linejoin:miter;stroke-opacity:0.6;" x="125.781731" xlink:href="#maff0a6d346" y="198.056264"/>
     <use style="fill-opacity:0.6;stroke:#000000;stroke-linejoin:miter;stroke-opacity:0.6;" x="136.5125" xlink:href="#maff0a6d346" y="192.721972"/>
     <use style="fill-opacity:0.6;stroke:#000000;stroke-linejoin:miter;stroke-opacity:0.6;" x="149.389423" xlink:href="#maff0a6d346" y="206.198134"/>
    </g>
   </g>
   <g id="patch_3">
    <path d="M 52.8125 252.802541 
L 52.8125 11.759062 
" style="fill:none;stroke:#000000;stroke-linecap:square;stroke-linejoin:miter;stroke-width:0.8;"/>
   </g>
   <g id="patch_4">
    <path d="M 331.8125 252.802541 
L 331.8125 11.759062 
" style="fill:none;stroke:#000000;stroke-linecap:square;stroke-linejoin:miter;stroke-width:0.8;"/>
   </g>
   <g id="patch_5">
    <path d="M 52.8125 252.802541 
L 331.8125 252.802541 
" style="fill:none;stroke:#000000;stroke-linecap:square;stroke-linejoin:miter;stroke-width:0.8;"/>
   </g>
   <g id="patch_6">
    <path d="M 52.8125 11.759062 
L 331.8125 11.759062 
" style="fill:none;stroke:#000000;stroke-linecap:square;stroke-linejoin:miter;stroke-width:0.8;"/>
   </g>
  </g>
  <g id="axes_2">
   <g id="patch_7">
    <path d="M 52.8125 566.159062 
L 331.8125 566.159062 
L 331.8125 325.115584 
L 52.8125 325.115584 
z
" style="fill:#ffffff;"/>
   </g>
   <g id="matplotlib.axis_3">
    <g id="xtick_8">
     <g id="line2d_32">
      <g>
       <use style="stroke:#000000;stroke-width:0.8;" x="65.494318" xlink:href="#m62278588e5" y="566.159062"/>
      </g>
     </g>
     <g id="text_16">
      <!-- 0 -->
      <g transform="translate(61.676818 582.277187)scale(0.12 -0.12)">
       <use xlink:href="#DejaVuSans-48"/>
      </g>
     </g>
    </g>
    <g id="xtick_9">
     <g id="line2d_33">
      <g>
       <use style="stroke:#000000;stroke-width:0.8;" x="107.767045" xlink:href="#m62278588e5" y="566.159062"/>
      </g>
     </g>
     <g id="text_17">
      <!-- 50 -->
      <g transform="translate(100.132045 582.277187)scale(0.12 -0.12)">
       <use xlink:href="#DejaVuSans-53"/>
       <use x="63.623047" xlink:href="#DejaVuSans-48"/>
      </g>
     </g>
    </g>
    <g id="xtick_10">
     <g id="line2d_34">
      <g>
       <use style="stroke:#000000;stroke-width:0.8;" x="150.039773" xlink:href="#m62278588e5" y="566.159062"/>
      </g>
     </g>
     <g id="text_18">
      <!-- 100 -->
      <g transform="translate(138.587273 582.277187)scale(0.12 -0.12)">
       <use xlink:href="#DejaVuSans-49"/>
       <use x="63.623047" xlink:href="#DejaVuSans-48"/>
       <use x="127.246094" xlink:href="#DejaVuSans-48"/>
      </g>
     </g>
    </g>
    <g id="xtick_11">
     <g id="line2d_35">
      <g>
       <use style="stroke:#000000;stroke-width:0.8;" x="192.3125" xlink:href="#m62278588e5" y="566.159062"/>
      </g>
     </g>
     <g id="text_19">
      <!-- 150 -->
      <g transform="translate(180.86 582.277187)scale(0.12 -0.12)">
       <use xlink:href="#DejaVuSans-49"/>
       <use x="63.623047" xlink:href="#DejaVuSans-53"/>
       <use x="127.246094" xlink:href="#DejaVuSans-48"/>
      </g>
     </g>
    </g>
    <g id="xtick_12">
     <g id="line2d_36">
      <g>
       <use style="stroke:#000000;stroke-width:0.8;" x="234.585227" xlink:href="#m62278588e5" y="566.159062"/>
      </g>
     </g>
     <g id="text_20">
      <!-- 200 -->
      <g transform="translate(223.132727 582.277187)scale(0.12 -0.12)">
       <use xlink:href="#DejaVuSans-50"/>
       <use x="63.623047" xlink:href="#DejaVuSans-48"/>
       <use x="127.246094" xlink:href="#DejaVuSans-48"/>
      </g>
     </g>
    </g>
    <g id="xtick_13">
     <g id="line2d_37">
      <g>
       <use style="stroke:#000000;stroke-width:0.8;" x="276.857955" xlink:href="#m62278588e5" y="566.159062"/>
      </g>
     </g>
     <g id="text_21">
      <!-- 250 -->
      <g transform="translate(265.405455 582.277187)scale(0.12 -0.12)">
       <use xlink:href="#DejaVuSans-50"/>
       <use x="63.623047" xlink:href="#DejaVuSans-53"/>
       <use x="127.246094" xlink:href="#DejaVuSans-48"/>
      </g>
     </g>
    </g>
    <g id="xtick_14">
     <g id="line2d_38">
      <g>
       <use style="stroke:#000000;stroke-width:0.8;" x="319.130682" xlink:href="#m62278588e5" y="566.159062"/>
      </g>
     </g>
     <g id="text_22">
      <!-- 300 -->
      <g transform="translate(307.678182 582.277187)scale(0.12 -0.12)">
       <use xlink:href="#DejaVuSans-51"/>
       <use x="63.623047" xlink:href="#DejaVuSans-48"/>
       <use x="127.246094" xlink:href="#DejaVuSans-48"/>
      </g>
     </g>
    </g>
    <g id="text_23">
     <!-- time [min] -->
     <g transform="translate(156.9125 597.890937)scale(0.12 -0.12)">
      <use xlink:href="#DejaVuSans-Bold-116"/>
      <use x="47.802734" xlink:href="#DejaVuSans-Bold-105"/>
      <use x="82.080078" xlink:href="#DejaVuSans-Bold-109"/>
      <use x="186.279297" xlink:href="#DejaVuSans-Bold-101"/>
      <use x="254.101562" xlink:href="#DejaVuSans-Bold-32"/>
      <use x="288.916016" xlink:href="#DejaVuSans-Bold-91"/>
      <use x="334.619141" xlink:href="#DejaVuSans-Bold-109"/>
      <use x="438.818359" xlink:href="#DejaVuSans-Bold-105"/>
      <use x="473.095703" xlink:href="#DejaVuSans-Bold-110"/>
      <use x="544.287109" xlink:href="#DejaVuSans-Bold-93"/>
     </g>
    </g>
   </g>
   <g id="matplotlib.axis_4">
    <g id="ytick_7">
     <g id="line2d_39">
      <g>
       <use style="stroke:#000000;stroke-width:0.8;" x="52.8125" xlink:href="#m6dcb966e95" y="566.159062"/>
      </g>
     </g>
     <g id="text_24">
      <!-- 180 -->
      <defs>
       <path d="M 31.78125 34.625 
Q 24.75 34.625 20.71875 30.859375 
Q 16.703125 27.09375 16.703125 20.515625 
Q 16.703125 13.921875 20.71875 10.15625 
Q 24.75 6.390625 31.78125 6.390625 
Q 38.8125 6.390625 42.859375 10.171875 
Q 46.921875 13.96875 46.921875 20.515625 
Q 46.921875 27.09375 42.890625 30.859375 
Q 38.875 34.625 31.78125 34.625 
z
M 21.921875 38.8125 
Q 15.578125 40.375 12.03125 44.71875 
Q 8.5 49.078125 8.5 55.328125 
Q 8.5 64.0625 14.71875 69.140625 
Q 20.953125 74.21875 31.78125 74.21875 
Q 42.671875 74.21875 48.875 69.140625 
Q 55.078125 64.0625 55.078125 55.328125 
Q 55.078125 49.078125 51.53125 44.71875 
Q 48 40.375 41.703125 38.8125 
Q 48.828125 37.15625 52.796875 32.3125 
Q 56.78125 27.484375 56.78125 20.515625 
Q 56.78125 9.90625 50.3125 4.234375 
Q 43.84375 -1.421875 31.78125 -1.421875 
Q 19.734375 -1.421875 13.25 4.234375 
Q 6.78125 9.90625 6.78125 20.515625 
Q 6.78125 27.484375 10.78125 32.3125 
Q 14.796875 37.15625 21.921875 38.8125 
z
M 18.3125 54.390625 
Q 18.3125 48.734375 21.84375 45.5625 
Q 25.390625 42.390625 31.78125 42.390625 
Q 38.140625 42.390625 41.71875 45.5625 
Q 45.3125 48.734375 45.3125 54.390625 
Q 45.3125 60.0625 41.71875 63.234375 
Q 38.140625 66.40625 31.78125 66.40625 
Q 25.390625 66.40625 21.84375 63.234375 
Q 18.3125 60.0625 18.3125 54.390625 
z
" id="DejaVuSans-56"/>
      </defs>
      <g transform="translate(22.9075 570.718125)scale(0.12 -0.12)">
       <use xlink:href="#DejaVuSans-49"/>
       <use x="63.623047" xlink:href="#DejaVuSans-56"/>
       <use x="127.246094" xlink:href="#DejaVuSans-48"/>
      </g>
     </g>
    </g>
    <g id="ytick_8">
     <g id="line2d_40">
      <g>
       <use style="stroke:#000000;stroke-width:0.8;" x="52.8125" xlink:href="#m6dcb966e95" y="536.028628"/>
      </g>
     </g>
     <g id="text_25">
      <!-- 200 -->
      <g transform="translate(22.9075 540.58769)scale(0.12 -0.12)">
       <use xlink:href="#DejaVuSans-50"/>
       <use x="63.623047" xlink:href="#DejaVuSans-48"/>
       <use x="127.246094" xlink:href="#DejaVuSans-48"/>
      </g>
     </g>
    </g>
    <g id="ytick_9">
     <g id="line2d_41">
      <g>
       <use style="stroke:#000000;stroke-width:0.8;" x="52.8125" xlink:href="#m6dcb966e95" y="505.898193"/>
      </g>
     </g>
     <g id="text_26">
      <!-- 220 -->
      <g transform="translate(22.9075 510.457255)scale(0.12 -0.12)">
       <use xlink:href="#DejaVuSans-50"/>
       <use x="63.623047" xlink:href="#DejaVuSans-50"/>
       <use x="127.246094" xlink:href="#DejaVuSans-48"/>
      </g>
     </g>
    </g>
    <g id="ytick_10">
     <g id="line2d_42">
      <g>
       <use style="stroke:#000000;stroke-width:0.8;" x="52.8125" xlink:href="#m6dcb966e95" y="475.767758"/>
      </g>
     </g>
     <g id="text_27">
      <!-- 240 -->
      <g transform="translate(22.9075 480.326821)scale(0.12 -0.12)">
       <use xlink:href="#DejaVuSans-50"/>
       <use x="63.623047" xlink:href="#DejaVuSans-52"/>
       <use x="127.246094" xlink:href="#DejaVuSans-48"/>
      </g>
     </g>
    </g>
    <g id="ytick_11">
     <g id="line2d_43">
      <g>
       <use style="stroke:#000000;stroke-width:0.8;" x="52.8125" xlink:href="#m6dcb966e95" y="445.637323"/>
      </g>
     </g>
     <g id="text_28">
      <!-- 260 -->
      <g transform="translate(22.9075 450.196386)scale(0.12 -0.12)">
       <use xlink:href="#DejaVuSans-50"/>
       <use x="63.623047" xlink:href="#DejaVuSans-54"/>
       <use x="127.246094" xlink:href="#DejaVuSans-48"/>
      </g>
     </g>
    </g>
    <g id="ytick_12">
     <g id="line2d_44">
      <g>
       <use style="stroke:#000000;stroke-width:0.8;" x="52.8125" xlink:href="#m6dcb966e95" y="415.506889"/>
      </g>
     </g>
     <g id="text_29">
      <!-- 280 -->
      <g transform="translate(22.9075 420.065951)scale(0.12 -0.12)">
       <use xlink:href="#DejaVuSans-50"/>
       <use x="63.623047" xlink:href="#DejaVuSans-56"/>
       <use x="127.246094" xlink:href="#DejaVuSans-48"/>
      </g>
     </g>
    </g>
    <g id="ytick_13">
     <g id="line2d_45">
      <g>
       <use style="stroke:#000000;stroke-width:0.8;" x="52.8125" xlink:href="#m6dcb966e95" y="385.376454"/>
      </g>
     </g>
     <g id="text_30">
      <!-- 300 -->
      <g transform="translate(22.9075 389.935516)scale(0.12 -0.12)">
       <use xlink:href="#DejaVuSans-51"/>
       <use x="63.623047" xlink:href="#DejaVuSans-48"/>
       <use x="127.246094" xlink:href="#DejaVuSans-48"/>
      </g>
     </g>
    </g>
    <g id="ytick_14">
     <g id="line2d_46">
      <g>
       <use style="stroke:#000000;stroke-width:0.8;" x="52.8125" xlink:href="#m6dcb966e95" y="355.246019"/>
      </g>
     </g>
     <g id="text_31">
      <!-- 320 -->
      <g transform="translate(22.9075 359.805082)scale(0.12 -0.12)">
       <use xlink:href="#DejaVuSans-51"/>
       <use x="63.623047" xlink:href="#DejaVuSans-50"/>
       <use x="127.246094" xlink:href="#DejaVuSans-48"/>
      </g>
     </g>
    </g>
    <g id="ytick_15">
     <g id="line2d_47">
      <g>
       <use style="stroke:#000000;stroke-width:0.8;" x="52.8125" xlink:href="#m6dcb966e95" y="325.115584"/>
      </g>
     </g>
     <g id="text_32">
      <!-- 340 -->
      <g transform="translate(22.9075 329.674647)scale(0.12 -0.12)">
       <use xlink:href="#DejaVuSans-51"/>
       <use x="63.623047" xlink:href="#DejaVuSans-52"/>
       <use x="127.246094" xlink:href="#DejaVuSans-48"/>
      </g>
     </g>
    </g>
    <g id="text_33">
     <!-- glycogen [mM] -->
     <g transform="translate(16.318125 496.011073)rotate(-90)scale(0.12 -0.12)">
      <use xlink:href="#DejaVuSans-Bold-103"/>
      <use x="71.582031" xlink:href="#DejaVuSans-Bold-108"/>
      <use x="105.859375" xlink:href="#DejaVuSans-Bold-121"/>
      <use x="171.044922" xlink:href="#DejaVuSans-Bold-99"/>
      <use x="230.322266" xlink:href="#DejaVuSans-Bold-111"/>
      <use x="299.023438" xlink:href="#DejaVuSans-Bold-103"/>
      <use x="370.605469" xlink:href="#DejaVuSans-Bold-101"/>
      <use x="438.427734" xlink:href="#DejaVuSans-Bold-110"/>
      <use x="509.619141" xlink:href="#DejaVuSans-Bold-32"/>
      <use x="544.433594" xlink:href="#DejaVuSans-Bold-91"/>
      <use x="590.136719" xlink:href="#DejaVuSans-Bold-109"/>
      <use x="694.335938" xlink:href="#DejaVuSans-Bold-77"/>
      <use x="793.847656" xlink:href="#DejaVuSans-Bold-93"/>
     </g>
    </g>
   </g>
   <g id="LineCollection_2">
    <path clip-path="url(#p3a039aa6e5)" d="M 65.494318 557.915376 
L 65.494318 494.243741 
" style="fill:none;stroke:#000000;stroke-opacity:0.6;stroke-width:1.5;"/>
    <path clip-path="url(#p3a039aa6e5)" d="M 166.948864 490.834482 
L 166.948864 438.53106 
" style="fill:none;stroke:#000000;stroke-opacity:0.6;stroke-width:1.5;"/>
    <path clip-path="url(#p3a039aa6e5)" d="M 192.3125 473.777643 
L 192.3125 419.202386 
" style="fill:none;stroke:#000000;stroke-opacity:0.6;stroke-width:1.5;"/>
    <path clip-path="url(#p3a039aa6e5)" d="M 217.676136 446.488508 
L 217.676136 387.366569 
" style="fill:none;stroke:#000000;stroke-opacity:0.6;stroke-width:1.5;"/>
    <path clip-path="url(#p3a039aa6e5)" d="M 285.3125 424.887999 
L 285.3125 358.941517 
" style="fill:none;stroke:#000000;stroke-opacity:0.6;stroke-width:1.5;"/>
   </g>
   <g id="line2d_48">
    <path clip-path="url(#p3a039aa6e5)" d="M 65.494318 536.028628 
L 66.001591 535.72694 
L 67.523409 535.280021 
L 70.059773 534.979381 
L 117.743409 530.230954 
L 168.470682 525.400811 
L 220.719773 520.650713 
L 274.490682 515.98695 
L 319.130682 512.278971 
L 319.130682 512.278971 
" style="fill:none;stroke:#000000;stroke-linecap:square;stroke-width:2;"/>
   </g>
   <g id="line2d_49">
    <path clip-path="url(#p3a039aa6e5)" d="M 65.494318 536.028628 
L 66.001591 535.608473 
L 69.5525 534.05657 
L 87.307045 527.991679 
L 118.757955 517.439422 
L 150.716136 506.949191 
L 183.688864 496.360816 
L 217.168864 485.843797 
L 251.156136 475.399727 
L 285.650682 465.030649 
L 319.130682 455.181793 
L 319.130682 455.181793 
" style="fill:none;stroke:#000000;stroke-linecap:square;stroke-width:2;"/>
   </g>
   <g id="line2d_50">
    <path clip-path="url(#p3a039aa6e5)" d="M 65.494318 536.028628 
L 66.001591 535.52328 
L 67.523409 534.596638 
L 70.567045 532.773173 
L 79.697955 527.855619 
L 108.6125 512.509472 
L 138.034318 497.148445 
L 167.963409 481.775757 
L 198.399773 466.395861 
L 228.836136 451.264618 
L 259.779773 436.130792 
L 290.723409 421.24492 
L 319.130682 407.79562 
L 319.130682 407.79562 
" style="fill:none;stroke:#000000;stroke-linecap:square;stroke-width:2;"/>
   </g>
   <g id="line2d_51">
    <path clip-path="url(#p3a039aa6e5)" d="M 65.494318 536.028628 
L 66.001591 535.459992 
L 67.523409 534.43984 
L 80.7125 525.076442 
L 100.496136 511.373413 
L 128.396136 492.315494 
L 156.296136 473.525033 
L 184.196136 454.99897 
L 212.096136 436.737774 
L 239.488864 419.069684 
L 266.881591 401.6665 
L 293.767045 384.851856 
L 319.130682 369.240683 
L 319.130682 369.240683 
" style="fill:none;stroke:#000000;stroke-linecap:square;stroke-width:2;"/>
   </g>
   <g id="line2d_52">
    <path clip-path="url(#p3a039aa6e5)" d="M 65.494318 536.028628 
L 66.001591 535.411271 
L 67.523409 534.325372 
L 97.4525 511.477658 
L 122.816136 492.410684 
L 148.687045 473.240888 
L 174.557955 454.347125 
L 200.428864 435.726679 
L 226.299773 417.379343 
L 252.170682 399.307337 
L 277.534318 381.861422 
L 302.390682 365.031888 
L 319.130682 353.851091 
L 319.130682 353.851091 
" style="fill:none;stroke:#000000;stroke-linecap:square;stroke-width:2;"/>
   </g>
   <g id="line2d_53">
    <path clip-path="url(#p3a039aa6e5)" d="M 65.494318 536.028628 
L 66.001591 535.372357 
L 67.523409 534.230465 
L 99.481591 508.642826 
L 126.367045 487.430492 
L 153.2525 466.5016 
L 180.137955 445.853488 
L 207.023409 425.486647 
L 233.401591 405.780874 
L 259.2725 386.726405 
L 284.636136 368.315773 
L 309.4925 350.543483 
L 319.130682 343.726842 
L 319.130682 343.726842 
" style="fill:none;stroke:#000000;stroke-linecap:square;stroke-width:2;"/>
   </g>
   <g id="line2d_54">
    <path clip-path="url(#p3a039aa6e5)" d="M 66.840569 534.543197 
L 90.583266 487.068178 
L 115.741965 474.167832 
L 140.899817 460.771841 
L 166.519373 453.796645 
L 191.660655 431.510669 
L 217.255945 412.186515 
L 242.400609 391.877095 
L 267.537664 367.614562 
" style="fill:none;stroke:#000000;stroke-dasharray:5.55,2.4;stroke-dashoffset:0;stroke-opacity:0.6;stroke-width:1.5;"/>
    <g clip-path="url(#p3a039aa6e5)">
     <use style="fill-opacity:0.6;stroke:#000000;stroke-linejoin:miter;stroke-opacity:0.6;" x="66.840569" xlink:href="#maff0a6d346" y="534.543197"/>
     <use style="fill-opacity:0.6;stroke:#000000;stroke-linejoin:miter;stroke-opacity:0.6;" x="90.583266" xlink:href="#maff0a6d346" y="487.068178"/>
     <use style="fill-opacity:0.6;stroke:#000000;stroke-linejoin:miter;stroke-opacity:0.6;" x="115.741965" xlink:href="#maff0a6d346" y="474.167832"/>
     <use style="fill-opacity:0.6;stroke:#000000;stroke-linejoin:miter;stroke-opacity:0.6;" x="140.899817" xlink:href="#maff0a6d346" y="460.771841"/>
     <use style="fill-opacity:0.6;stroke:#000000;stroke-linejoin:miter;stroke-opacity:0.6;" x="166.519373" xlink:href="#maff0a6d346" y="453.796645"/>
     <use style="fill-opacity:0.6;stroke:#000000;stroke-linejoin:miter;stroke-opacity:0.6;" x="191.660655" xlink:href="#maff0a6d346" y="431.510669"/>
     <use style="fill-opacity:0.6;stroke:#000000;stroke-linejoin:miter;stroke-opacity:0.6;" x="217.255945" xlink:href="#maff0a6d346" y="412.186515"/>
     <use style="fill-opacity:0.6;stroke:#000000;stroke-linejoin:miter;stroke-opacity:0.6;" x="242.400609" xlink:href="#maff0a6d346" y="391.877095"/>
     <use style="fill-opacity:0.6;stroke:#000000;stroke-linejoin:miter;stroke-opacity:0.6;" x="267.537664" xlink:href="#maff0a6d346" y="367.614562"/>
    </g>
   </g>
   <g id="line2d_55">
    <path clip-path="url(#p3a039aa6e5)" d="M 66.841525 535.03583 
L 166.537127 462.688136 
L 191.243 448.305373 
L 216.368218 418.116184 
L 267.129309 388.855012 
" style="fill:none;stroke:#000000;stroke-dasharray:5.55,2.4;stroke-dashoffset:0;stroke-opacity:0.6;stroke-width:1.5;"/>
    <g clip-path="url(#p3a039aa6e5)">
     <use style="fill-opacity:0.6;stroke:#000000;stroke-linejoin:miter;stroke-opacity:0.6;" x="66.841525" xlink:href="#maff0a6d346" y="535.03583"/>
     <use style="fill-opacity:0.6;stroke:#000000;stroke-linejoin:miter;stroke-opacity:0.6;" x="166.537127" xlink:href="#maff0a6d346" y="462.688136"/>
     <use style="fill-opacity:0.6;stroke:#000000;stroke-linejoin:miter;stroke-opacity:0.6;" x="191.243" xlink:href="#maff0a6d346" y="448.305373"/>
     <use style="fill-opacity:0.6;stroke:#000000;stroke-linejoin:miter;stroke-opacity:0.6;" x="216.368218" xlink:href="#maff0a6d346" y="418.116184"/>
     <use style="fill-opacity:0.6;stroke:#000000;stroke-linejoin:miter;stroke-opacity:0.6;" x="267.129309" xlink:href="#maff0a6d346" y="388.855012"/>
    </g>
   </g>
   <g id="line2d_56">
    <path clip-path="url(#p3a039aa6e5)" d="M 66.842488 535.529969 
L 115.856777 533.440423 
L 141.892043 508.682245 
L 166.129618 484.422726 
L 191.743509 474.484202 
L 216.869573 444.787645 
L 242.0024 418.550062 
L 267.152136 400.709832 
" style="fill:none;stroke:#000000;stroke-dasharray:5.55,2.4;stroke-dashoffset:0;stroke-opacity:0.6;stroke-width:1.5;"/>
    <g clip-path="url(#p3a039aa6e5)">
     <use style="fill-opacity:0.6;stroke:#000000;stroke-linejoin:miter;stroke-opacity:0.6;" x="66.842488" xlink:href="#maff0a6d346" y="535.529969"/>
     <use style="fill-opacity:0.6;stroke:#000000;stroke-linejoin:miter;stroke-opacity:0.6;" x="115.856777" xlink:href="#maff0a6d346" y="533.440423"/>
     <use style="fill-opacity:0.6;stroke:#000000;stroke-linejoin:miter;stroke-opacity:0.6;" x="141.892043" xlink:href="#maff0a6d346" y="508.682245"/>
     <use style="fill-opacity:0.6;stroke:#000000;stroke-linejoin:miter;stroke-opacity:0.6;" x="166.129618" xlink:href="#maff0a6d346" y="484.422726"/>
     <use style="fill-opacity:0.6;stroke:#000000;stroke-linejoin:miter;stroke-opacity:0.6;" x="191.743509" xlink:href="#maff0a6d346" y="474.484202"/>
     <use style="fill-opacity:0.6;stroke:#000000;stroke-linejoin:miter;stroke-opacity:0.6;" x="216.869573" xlink:href="#maff0a6d346" y="444.787645"/>
     <use style="fill-opacity:0.6;stroke:#000000;stroke-linejoin:miter;stroke-opacity:0.6;" x="242.0024" xlink:href="#maff0a6d346" y="418.550062"/>
     <use style="fill-opacity:0.6;stroke:#000000;stroke-linejoin:miter;stroke-opacity:0.6;" x="267.152136" xlink:href="#maff0a6d346" y="400.709832"/>
    </g>
   </g>
   <g id="line2d_57">
    <g clip-path="url(#p3a039aa6e5)">
     <use style="fill-opacity:0.6;stroke:#000000;stroke-opacity:0.6;" x="65.494318" xlink:href="#m81d25c28ac" y="557.915376"/>
     <use style="fill-opacity:0.6;stroke:#000000;stroke-opacity:0.6;" x="166.948864" xlink:href="#m81d25c28ac" y="490.834482"/>
     <use style="fill-opacity:0.6;stroke:#000000;stroke-opacity:0.6;" x="192.3125" xlink:href="#m81d25c28ac" y="473.777643"/>
     <use style="fill-opacity:0.6;stroke:#000000;stroke-opacity:0.6;" x="217.676136" xlink:href="#m81d25c28ac" y="446.488508"/>
     <use style="fill-opacity:0.6;stroke:#000000;stroke-opacity:0.6;" x="285.3125" xlink:href="#m81d25c28ac" y="424.887999"/>
    </g>
   </g>
   <g id="line2d_58">
    <g clip-path="url(#p3a039aa6e5)">
     <use style="fill-opacity:0.6;stroke:#000000;stroke-opacity:0.6;" x="65.494318" xlink:href="#m81d25c28ac" y="494.243741"/>
     <use style="fill-opacity:0.6;stroke:#000000;stroke-opacity:0.6;" x="166.948864" xlink:href="#m81d25c28ac" y="438.53106"/>
     <use style="fill-opacity:0.6;stroke:#000000;stroke-opacity:0.6;" x="192.3125" xlink:href="#m81d25c28ac" y="419.202386"/>
     <use style="fill-opacity:0.6;stroke:#000000;stroke-opacity:0.6;" x="217.676136" xlink:href="#m81d25c28ac" y="387.366569"/>
     <use style="fill-opacity:0.6;stroke:#000000;stroke-opacity:0.6;" x="285.3125" xlink:href="#m81d25c28ac" y="358.941517"/>
    </g>
   </g>
   <g id="line2d_59">
    <path clip-path="url(#p3a039aa6e5)" d="M 65.494318 526.079558 
L 166.948864 464.682771 
L 192.3125 446.490015 
L 217.676136 416.927539 
L 285.3125 391.914758 
" style="fill:none;stroke:#000000;stroke-dasharray:5.55,2.4;stroke-dashoffset:0;stroke-opacity:0.6;stroke-width:1.5;"/>
    <g clip-path="url(#p3a039aa6e5)">
     <use style="fill-opacity:0.6;stroke:#000000;stroke-linejoin:miter;stroke-opacity:0.6;" x="65.494318" xlink:href="#maff0a6d346" y="526.079558"/>
     <use style="fill-opacity:0.6;stroke:#000000;stroke-linejoin:miter;stroke-opacity:0.6;" x="166.948864" xlink:href="#maff0a6d346" y="464.682771"/>
     <use style="fill-opacity:0.6;stroke:#000000;stroke-linejoin:miter;stroke-opacity:0.6;" x="192.3125" xlink:href="#maff0a6d346" y="446.490015"/>
     <use style="fill-opacity:0.6;stroke:#000000;stroke-linejoin:miter;stroke-opacity:0.6;" x="217.676136" xlink:href="#maff0a6d346" y="416.927539"/>
     <use style="fill-opacity:0.6;stroke:#000000;stroke-linejoin:miter;stroke-opacity:0.6;" x="285.3125" xlink:href="#maff0a6d346" y="391.914758"/>
    </g>
   </g>
   <g id="patch_8">
    <path d="M 52.8125 566.159062 
L 52.8125 325.115584 
" style="fill:none;stroke:#000000;stroke-linecap:square;stroke-linejoin:miter;stroke-width:0.8;"/>
   </g>
   <g id="patch_9">
    <path d="M 331.8125 566.159062 
L 331.8125 325.115584 
" style="fill:none;stroke:#000000;stroke-linecap:square;stroke-linejoin:miter;stroke-width:0.8;"/>
   </g>
   <g id="patch_10">
    <path d="M 52.8125 566.159062 
L 331.8125 566.159062 
" style="fill:none;stroke:#000000;stroke-linecap:square;stroke-linejoin:miter;stroke-width:0.8;"/>
   </g>
   <g id="patch_11">
    <path d="M 52.8125 325.115584 
L 331.8125 325.115584 
" style="fill:none;stroke:#000000;stroke-linecap:square;stroke-linejoin:miter;stroke-width:0.8;"/>
   </g>
  </g>
 </g>
 <defs>
  <clipPath id="p0ac1ff5e77">
   <rect height="241.043478" width="279" x="52.8125" y="11.759062"/>
  </clipPath>
  <clipPath id="p3a039aa6e5">
   <rect height="241.043478" width="279" x="52.8125" y="325.115584"/>
  </clipPath>
 </defs>
</svg>
