<?xml version="1.0" encoding="utf-8" standalone="no"?>
<!DOCTYPE svg PUBLIC "-//W3C//DTD SVG 1.1//EN"
  "http://www.w3.org/Graphics/SVG/1.1/DTD/svg11.dtd">
<!-- Created with matplotlib (https://matplotlib.org/) -->
<svg height="607.586562pt" version="1.1" viewBox="0 0 621.82625 607.586562" width="621.82625pt" xmlns="http://www.w3.org/2000/svg" xmlns:xlink="http://www.w3.org/1999/xlink">
 <defs>
  <style type="text/css">
*{stroke-linecap:butt;stroke-linejoin:round;}
  </style>
 </defs>
 <g id="figure_1">
  <g id="patch_1">
   <path d="M 0 607.586562 
L 621.82625 607.586562 
L 621.82625 0 
L 0 0 
z
" style="fill:#ffffff;"/>
  </g>
  <g id="axes_1">
   <g id="patch_2">
    <path d="M 56.62625 252.802541 
L 299.234946 252.802541 
L 299.234946 11.759062 
L 56.62625 11.759062 
z
" style="fill:#ffffff;"/>
   </g>
   <g id="matplotlib.axis_1">
    <g id="xtick_1">
     <g id="line2d_1">
      <defs>
       <path d="M 0 0 
L 0 3.5 
" id="m6770e32354" style="stroke:#000000;stroke-width:0.8;"/>
      </defs>
      <g>
       <use style="stroke:#000000;stroke-width:0.8;" x="89.634236" xlink:href="#m6770e32354" y="252.802541"/>
      </g>
     </g>
     <g id="text_1">
      <!-- 20 -->
      <defs>
       <path d="M 19.1875 8.296875 
L 53.609375 8.296875 
L 53.609375 0 
L 7.328125 0 
L 7.328125 8.296875 
Q 12.9375 14.109375 22.625 23.890625 
Q 32.328125 33.6875 34.8125 36.53125 
Q 39.546875 41.84375 41.421875 45.53125 
Q 43.3125 49.21875 43.3125 52.78125 
Q 43.3125 58.59375 39.234375 62.25 
Q 35.15625 65.921875 28.609375 65.921875 
Q 23.96875 65.921875 18.8125 64.3125 
Q 13.671875 62.703125 7.8125 59.421875 
L 7.8125 69.390625 
Q 13.765625 71.78125 18.9375 73 
Q 24.125 74.21875 28.421875 74.21875 
Q 39.75 74.21875 46.484375 68.546875 
Q 53.21875 62.890625 53.21875 53.421875 
Q 53.21875 48.921875 51.53125 44.890625 
Q 49.859375 40.875 45.40625 35.40625 
Q 44.1875 33.984375 37.640625 27.21875 
Q 31.109375 20.453125 19.1875 8.296875 
z
" id="DejaVuSans-50"/>
       <path d="M 31.78125 66.40625 
Q 24.171875 66.40625 20.328125 58.90625 
Q 16.5 51.421875 16.5 36.375 
Q 16.5 21.390625 20.328125 13.890625 
Q 24.171875 6.390625 31.78125 6.390625 
Q 39.453125 6.390625 43.28125 13.890625 
Q 47.125 21.390625 47.125 36.375 
Q 47.125 51.421875 43.28125 58.90625 
Q 39.453125 66.40625 31.78125 66.40625 
z
M 31.78125 74.21875 
Q 44.046875 74.21875 50.515625 64.515625 
Q 56.984375 54.828125 56.984375 36.375 
Q 56.984375 17.96875 50.515625 8.265625 
Q 44.046875 -1.421875 31.78125 -1.421875 
Q 19.53125 -1.421875 13.0625 8.265625 
Q 6.59375 17.96875 6.59375 36.375 
Q 6.59375 54.828125 13.0625 64.515625 
Q 19.53125 74.21875 31.78125 74.21875 
z
" id="DejaVuSans-48"/>
      </defs>
      <g transform="translate(81.999236 268.920666)scale(0.12 -0.12)">
       <use xlink:href="#DejaVuSans-50"/>
       <use x="63.623047" xlink:href="#DejaVuSans-48"/>
      </g>
     </g>
    </g>
    <g id="xtick_2">
     <g id="line2d_2">
      <g>
       <use style="stroke:#000000;stroke-width:0.8;" x="155.650207" xlink:href="#m6770e32354" y="252.802541"/>
      </g>
     </g>
     <g id="text_2">
      <!-- 40 -->
      <defs>
       <path d="M 37.796875 64.3125 
L 12.890625 25.390625 
L 37.796875 25.390625 
z
M 35.203125 72.90625 
L 47.609375 72.90625 
L 47.609375 25.390625 
L 58.015625 25.390625 
L 58.015625 17.1875 
L 47.609375 17.1875 
L 47.609375 0 
L 37.796875 0 
L 37.796875 17.1875 
L 4.890625 17.1875 
L 4.890625 26.703125 
z
" id="DejaVuSans-52"/>
      </defs>
      <g transform="translate(148.015207 268.920666)scale(0.12 -0.12)">
       <use xlink:href="#DejaVuSans-52"/>
       <use x="63.623047" xlink:href="#DejaVuSans-48"/>
      </g>
     </g>
    </g>
    <g id="xtick_3">
     <g id="line2d_3">
      <g>
       <use style="stroke:#000000;stroke-width:0.8;" x="221.666179" xlink:href="#m6770e32354" y="252.802541"/>
      </g>
     </g>
     <g id="text_3">
      <!-- 60 -->
      <defs>
       <path d="M 33.015625 40.375 
Q 26.375 40.375 22.484375 35.828125 
Q 18.609375 31.296875 18.609375 23.390625 
Q 18.609375 15.53125 22.484375 10.953125 
Q 26.375 6.390625 33.015625 6.390625 
Q 39.65625 6.390625 43.53125 10.953125 
Q 47.40625 15.53125 47.40625 23.390625 
Q 47.40625 31.296875 43.53125 35.828125 
Q 39.65625 40.375 33.015625 40.375 
z
M 52.59375 71.296875 
L 52.59375 62.3125 
Q 48.875 64.0625 45.09375 64.984375 
Q 41.3125 65.921875 37.59375 65.921875 
Q 27.828125 65.921875 22.671875 59.328125 
Q 17.53125 52.734375 16.796875 39.40625 
Q 19.671875 43.65625 24.015625 45.921875 
Q 28.375 48.1875 33.59375 48.1875 
Q 44.578125 48.1875 50.953125 41.515625 
Q 57.328125 34.859375 57.328125 23.390625 
Q 57.328125 12.15625 50.6875 5.359375 
Q 44.046875 -1.421875 33.015625 -1.421875 
Q 20.359375 -1.421875 13.671875 8.265625 
Q 6.984375 17.96875 6.984375 36.375 
Q 6.984375 53.65625 15.1875 63.9375 
Q 23.390625 74.21875 37.203125 74.21875 
Q 40.921875 74.21875 44.703125 73.484375 
Q 48.484375 72.75 52.59375 71.296875 
z
" id="DejaVuSans-54"/>
      </defs>
      <g transform="translate(214.031179 268.920666)scale(0.12 -0.12)">
       <use xlink:href="#DejaVuSans-54"/>
       <use x="63.623047" xlink:href="#DejaVuSans-48"/>
      </g>
     </g>
    </g>
    <g id="xtick_4">
     <g id="line2d_4">
      <g>
       <use style="stroke:#000000;stroke-width:0.8;" x="287.682151" xlink:href="#m6770e32354" y="252.802541"/>
      </g>
     </g>
     <g id="text_4">
      <!-- 80 -->
      <defs>
       <path d="M 31.78125 34.625 
Q 24.75 34.625 20.71875 30.859375 
Q 16.703125 27.09375 16.703125 20.515625 
Q 16.703125 13.921875 20.71875 10.15625 
Q 24.75 6.390625 31.78125 6.390625 
Q 38.8125 6.390625 42.859375 10.171875 
Q 46.921875 13.96875 46.921875 20.515625 
Q 46.921875 27.09375 42.890625 30.859375 
Q 38.875 34.625 31.78125 34.625 
z
M 21.921875 38.8125 
Q 15.578125 40.375 12.03125 44.71875 
Q 8.5 49.078125 8.5 55.328125 
Q 8.5 64.0625 14.71875 69.140625 
Q 20.953125 74.21875 31.78125 74.21875 
Q 42.671875 74.21875 48.875 69.140625 
Q 55.078125 64.0625 55.078125 55.328125 
Q 55.078125 49.078125 51.53125 44.71875 
Q 48 40.375 41.703125 38.8125 
Q 48.828125 37.15625 52.796875 32.3125 
Q 56.78125 27.484375 56.78125 20.515625 
Q 56.78125 9.90625 50.3125 4.234375 
Q 43.84375 -1.421875 31.78125 -1.421875 
Q 19.734375 -1.421875 13.25 4.234375 
Q 6.78125 9.90625 6.78125 20.515625 
Q 6.78125 27.484375 10.78125 32.3125 
Q 14.796875 37.15625 21.921875 38.8125 
z
M 18.3125 54.390625 
Q 18.3125 48.734375 21.84375 45.5625 
Q 25.390625 42.390625 31.78125 42.390625 
Q 38.140625 42.390625 41.71875 45.5625 
Q 45.3125 48.734375 45.3125 54.390625 
Q 45.3125 60.0625 41.71875 63.234375 
Q 38.140625 66.40625 31.78125 66.40625 
Q 25.390625 66.40625 21.84375 63.234375 
Q 18.3125 60.0625 18.3125 54.390625 
z
" id="DejaVuSans-56"/>
      </defs>
      <g transform="translate(280.047151 268.920666)scale(0.12 -0.12)">
       <use xlink:href="#DejaVuSans-56"/>
       <use x="63.623047" xlink:href="#DejaVuSans-48"/>
      </g>
     </g>
    </g>
    <g id="text_5">
     <!-- time [hr] -->
     <defs>
      <path d="M 27.484375 70.21875 
L 27.484375 54.6875 
L 45.515625 54.6875 
L 45.515625 42.1875 
L 27.484375 42.1875 
L 27.484375 19 
Q 27.484375 15.1875 29 13.84375 
Q 30.515625 12.5 35.015625 12.5 
L 44 12.5 
L 44 0 
L 29 0 
Q 18.65625 0 14.328125 4.3125 
Q 10.015625 8.640625 10.015625 19 
L 10.015625 42.1875 
L 1.3125 42.1875 
L 1.3125 54.6875 
L 10.015625 54.6875 
L 10.015625 70.21875 
z
" id="DejaVuSans-Bold-116"/>
      <path d="M 8.40625 54.6875 
L 25.875 54.6875 
L 25.875 0 
L 8.40625 0 
z
M 8.40625 75.984375 
L 25.875 75.984375 
L 25.875 61.71875 
L 8.40625 61.71875 
z
" id="DejaVuSans-Bold-105"/>
      <path d="M 59.078125 45.609375 
Q 62.40625 50.6875 66.96875 53.34375 
Q 71.53125 56 77 56 
Q 86.421875 56 91.359375 50.1875 
Q 96.296875 44.390625 96.296875 33.296875 
L 96.296875 0 
L 78.71875 0 
L 78.71875 28.515625 
Q 78.765625 29.15625 78.78125 29.828125 
Q 78.8125 30.515625 78.8125 31.78125 
Q 78.8125 37.59375 77.09375 40.203125 
Q 75.390625 42.828125 71.578125 42.828125 
Q 66.609375 42.828125 63.890625 38.71875 
Q 61.1875 34.625 61.078125 26.859375 
L 61.078125 0 
L 43.5 0 
L 43.5 28.515625 
Q 43.5 37.59375 41.9375 40.203125 
Q 40.375 42.828125 36.375 42.828125 
Q 31.34375 42.828125 28.609375 38.703125 
Q 25.875 34.578125 25.875 26.90625 
L 25.875 0 
L 8.296875 0 
L 8.296875 54.6875 
L 25.875 54.6875 
L 25.875 46.6875 
Q 29.109375 51.3125 33.28125 53.65625 
Q 37.453125 56 42.484375 56 
Q 48.140625 56 52.484375 53.265625 
Q 56.84375 50.53125 59.078125 45.609375 
z
" id="DejaVuSans-Bold-109"/>
      <path d="M 62.984375 27.484375 
L 62.984375 22.515625 
L 22.125 22.515625 
Q 22.75 16.359375 26.5625 13.28125 
Q 30.375 10.203125 37.203125 10.203125 
Q 42.71875 10.203125 48.5 11.84375 
Q 54.296875 13.484375 60.40625 16.796875 
L 60.40625 3.328125 
Q 54.203125 0.984375 48 -0.21875 
Q 41.796875 -1.421875 35.59375 -1.421875 
Q 20.75 -1.421875 12.515625 6.125 
Q 4.296875 13.671875 4.296875 27.296875 
Q 4.296875 40.671875 12.375 48.328125 
Q 20.453125 56 34.625 56 
Q 47.515625 56 55.25 48.234375 
Q 62.984375 40.484375 62.984375 27.484375 
z
M 45.015625 33.296875 
Q 45.015625 38.28125 42.109375 41.328125 
Q 39.203125 44.390625 34.515625 44.390625 
Q 29.4375 44.390625 26.265625 41.53125 
Q 23.09375 38.671875 22.3125 33.296875 
z
" id="DejaVuSans-Bold-101"/>
      <path id="DejaVuSans-Bold-32"/>
      <path d="M 8.59375 75.984375 
L 38.921875 75.984375 
L 38.921875 64.984375 
L 25.203125 64.984375 
L 25.203125 -2.203125 
L 38.921875 -2.203125 
L 38.921875 -13.1875 
L 8.59375 -13.1875 
z
" id="DejaVuSans-Bold-91"/>
      <path d="M 63.375 33.296875 
L 63.375 0 
L 45.796875 0 
L 45.796875 5.421875 
L 45.796875 25.390625 
Q 45.796875 32.5625 45.484375 35.25 
Q 45.171875 37.9375 44.390625 39.203125 
Q 43.359375 40.921875 41.59375 41.875 
Q 39.84375 42.828125 37.59375 42.828125 
Q 32.125 42.828125 29 38.59375 
Q 25.875 34.375 25.875 26.90625 
L 25.875 0 
L 8.40625 0 
L 8.40625 75.984375 
L 25.875 75.984375 
L 25.875 46.6875 
Q 29.828125 51.46875 34.265625 53.734375 
Q 38.71875 56 44.09375 56 
Q 53.5625 56 58.46875 50.1875 
Q 63.375 44.390625 63.375 33.296875 
z
" id="DejaVuSans-Bold-104"/>
      <path d="M 49.03125 39.796875 
Q 46.734375 40.875 44.453125 41.375 
Q 42.1875 41.890625 39.890625 41.890625 
Q 33.15625 41.890625 29.515625 37.5625 
Q 25.875 33.25 25.875 25.203125 
L 25.875 0 
L 8.40625 0 
L 8.40625 54.6875 
L 25.875 54.6875 
L 25.875 45.703125 
Q 29.25 51.078125 33.609375 53.53125 
Q 37.984375 56 44.09375 56 
Q 44.96875 56 45.984375 55.921875 
Q 47.015625 55.859375 48.96875 55.609375 
z
" id="DejaVuSans-Bold-114"/>
      <path d="M 37.109375 -13.1875 
L 6.78125 -13.1875 
L 6.78125 -2.203125 
L 20.515625 -2.203125 
L 20.515625 64.984375 
L 6.78125 64.984375 
L 6.78125 75.984375 
L 37.109375 75.984375 
z
" id="DejaVuSans-Bold-93"/>
     </defs>
     <g transform="translate(147.88091 284.534416)scale(0.12 -0.12)">
      <use xlink:href="#DejaVuSans-Bold-116"/>
      <use x="47.802734" xlink:href="#DejaVuSans-Bold-105"/>
      <use x="82.080078" xlink:href="#DejaVuSans-Bold-109"/>
      <use x="186.279297" xlink:href="#DejaVuSans-Bold-101"/>
      <use x="254.101562" xlink:href="#DejaVuSans-Bold-32"/>
      <use x="288.916016" xlink:href="#DejaVuSans-Bold-91"/>
      <use x="334.619141" xlink:href="#DejaVuSans-Bold-104"/>
      <use x="405.810547" xlink:href="#DejaVuSans-Bold-114"/>
      <use x="455.126953" xlink:href="#DejaVuSans-Bold-93"/>
     </g>
    </g>
   </g>
   <g id="matplotlib.axis_2">
    <g id="ytick_1">
     <g id="line2d_5">
      <defs>
       <path d="M 0 0 
L -3.5 0 
" id="m93fca65212" style="stroke:#000000;stroke-width:0.8;"/>
      </defs>
      <g>
       <use style="stroke:#000000;stroke-width:0.8;" x="56.62625" xlink:href="#m93fca65212" y="252.802541"/>
      </g>
     </g>
     <g id="text_6">
      <!-- 0 -->
      <g transform="translate(41.99125 257.361603)scale(0.12 -0.12)">
       <use xlink:href="#DejaVuSans-48"/>
      </g>
     </g>
    </g>
    <g id="ytick_2">
     <g id="line2d_6">
      <g>
       <use style="stroke:#000000;stroke-width:0.8;" x="56.62625" xlink:href="#m93fca65212" y="212.628628"/>
      </g>
     </g>
     <g id="text_7">
      <!-- 5 -->
      <defs>
       <path d="M 10.796875 72.90625 
L 49.515625 72.90625 
L 49.515625 64.59375 
L 19.828125 64.59375 
L 19.828125 46.734375 
Q 21.96875 47.46875 24.109375 47.828125 
Q 26.265625 48.1875 28.421875 48.1875 
Q 40.625 48.1875 47.75 41.5 
Q 54.890625 34.8125 54.890625 23.390625 
Q 54.890625 11.625 47.5625 5.09375 
Q 40.234375 -1.421875 26.90625 -1.421875 
Q 22.3125 -1.421875 17.546875 -0.640625 
Q 12.796875 0.140625 7.71875 1.703125 
L 7.71875 11.625 
Q 12.109375 9.234375 16.796875 8.0625 
Q 21.484375 6.890625 26.703125 6.890625 
Q 35.15625 6.890625 40.078125 11.328125 
Q 45.015625 15.765625 45.015625 23.390625 
Q 45.015625 31 40.078125 35.4375 
Q 35.15625 39.890625 26.703125 39.890625 
Q 22.75 39.890625 18.8125 39.015625 
Q 14.890625 38.140625 10.796875 36.28125 
z
" id="DejaVuSans-53"/>
      </defs>
      <g transform="translate(41.99125 217.18769)scale(0.12 -0.12)">
       <use xlink:href="#DejaVuSans-53"/>
      </g>
     </g>
    </g>
    <g id="ytick_3">
     <g id="line2d_7">
      <g>
       <use style="stroke:#000000;stroke-width:0.8;" x="56.62625" xlink:href="#m93fca65212" y="172.454715"/>
      </g>
     </g>
     <g id="text_8">
      <!-- 10 -->
      <defs>
       <path d="M 12.40625 8.296875 
L 28.515625 8.296875 
L 28.515625 63.921875 
L 10.984375 60.40625 
L 10.984375 69.390625 
L 28.421875 72.90625 
L 38.28125 72.90625 
L 38.28125 8.296875 
L 54.390625 8.296875 
L 54.390625 0 
L 12.40625 0 
z
" id="DejaVuSans-49"/>
      </defs>
      <g transform="translate(34.35625 177.013777)scale(0.12 -0.12)">
       <use xlink:href="#DejaVuSans-49"/>
       <use x="63.623047" xlink:href="#DejaVuSans-48"/>
      </g>
     </g>
    </g>
    <g id="ytick_4">
     <g id="line2d_8">
      <g>
       <use style="stroke:#000000;stroke-width:0.8;" x="56.62625" xlink:href="#m93fca65212" y="132.280802"/>
      </g>
     </g>
     <g id="text_9">
      <!-- 15 -->
      <g transform="translate(34.35625 136.839864)scale(0.12 -0.12)">
       <use xlink:href="#DejaVuSans-49"/>
       <use x="63.623047" xlink:href="#DejaVuSans-53"/>
      </g>
     </g>
    </g>
    <g id="ytick_5">
     <g id="line2d_9">
      <g>
       <use style="stroke:#000000;stroke-width:0.8;" x="56.62625" xlink:href="#m93fca65212" y="92.106889"/>
      </g>
     </g>
     <g id="text_10">
      <!-- 20 -->
      <g transform="translate(34.35625 96.665951)scale(0.12 -0.12)">
       <use xlink:href="#DejaVuSans-50"/>
       <use x="63.623047" xlink:href="#DejaVuSans-48"/>
      </g>
     </g>
    </g>
    <g id="ytick_6">
     <g id="line2d_10">
      <g>
       <use style="stroke:#000000;stroke-width:0.8;" x="56.62625" xlink:href="#m93fca65212" y="51.932976"/>
      </g>
     </g>
     <g id="text_11">
      <!-- 25 -->
      <g transform="translate(34.35625 56.492038)scale(0.12 -0.12)">
       <use xlink:href="#DejaVuSans-50"/>
       <use x="63.623047" xlink:href="#DejaVuSans-53"/>
      </g>
     </g>
    </g>
    <g id="ytick_7">
     <g id="line2d_11">
      <g>
       <use style="stroke:#000000;stroke-width:0.8;" x="56.62625" xlink:href="#m93fca65212" y="11.759062"/>
      </g>
     </g>
     <g id="text_12">
      <!-- 30 -->
      <defs>
       <path d="M 40.578125 39.3125 
Q 47.65625 37.796875 51.625 33 
Q 55.609375 28.21875 55.609375 21.1875 
Q 55.609375 10.40625 48.1875 4.484375 
Q 40.765625 -1.421875 27.09375 -1.421875 
Q 22.515625 -1.421875 17.65625 -0.515625 
Q 12.796875 0.390625 7.625 2.203125 
L 7.625 11.71875 
Q 11.71875 9.328125 16.59375 8.109375 
Q 21.484375 6.890625 26.8125 6.890625 
Q 36.078125 6.890625 40.9375 10.546875 
Q 45.796875 14.203125 45.796875 21.1875 
Q 45.796875 27.640625 41.28125 31.265625 
Q 36.765625 34.90625 28.71875 34.90625 
L 20.21875 34.90625 
L 20.21875 43.015625 
L 29.109375 43.015625 
Q 36.375 43.015625 40.234375 45.921875 
Q 44.09375 48.828125 44.09375 54.296875 
Q 44.09375 59.90625 40.109375 62.90625 
Q 36.140625 65.921875 28.71875 65.921875 
Q 24.65625 65.921875 20.015625 65.03125 
Q 15.375 64.15625 9.8125 62.3125 
L 9.8125 71.09375 
Q 15.4375 72.65625 20.34375 73.4375 
Q 25.25 74.21875 29.59375 74.21875 
Q 40.828125 74.21875 47.359375 69.109375 
Q 53.90625 64.015625 53.90625 55.328125 
Q 53.90625 49.265625 50.4375 45.09375 
Q 46.96875 40.921875 40.578125 39.3125 
z
" id="DejaVuSans-51"/>
      </defs>
      <g transform="translate(34.35625 16.318125)scale(0.12 -0.12)">
       <use xlink:href="#DejaVuSans-51"/>
       <use x="63.623047" xlink:href="#DejaVuSans-48"/>
      </g>
     </g>
    </g>
    <g id="text_13">
     <!-- HGP [µmol/kg/min] -->
     <defs>
      <path d="M 9.1875 72.90625 
L 27.984375 72.90625 
L 27.984375 45.125 
L 55.71875 45.125 
L 55.71875 72.90625 
L 74.515625 72.90625 
L 74.515625 0 
L 55.71875 0 
L 55.71875 30.90625 
L 27.984375 30.90625 
L 27.984375 0 
L 9.1875 0 
z
" id="DejaVuSans-Bold-72"/>
      <path d="M 74.703125 5.421875 
Q 67.671875 2 60.109375 0.28125 
Q 52.546875 -1.421875 44.484375 -1.421875 
Q 26.265625 -1.421875 15.625 8.765625 
Q 4.984375 18.953125 4.984375 36.375 
Q 4.984375 54 15.8125 64.109375 
Q 26.65625 74.21875 45.515625 74.21875 
Q 52.78125 74.21875 59.4375 72.84375 
Q 66.109375 71.484375 72.015625 68.796875 
L 72.015625 53.71875 
Q 65.921875 57.171875 59.890625 58.875 
Q 53.859375 60.59375 47.796875 60.59375 
Q 36.578125 60.59375 30.5 54.3125 
Q 24.421875 48.046875 24.421875 36.375 
Q 24.421875 24.8125 30.28125 18.5 
Q 36.140625 12.203125 46.921875 12.203125 
Q 49.859375 12.203125 52.375 12.5625 
Q 54.890625 12.9375 56.890625 13.71875 
L 56.890625 27.875 
L 45.40625 27.875 
L 45.40625 40.484375 
L 74.703125 40.484375 
z
" id="DejaVuSans-Bold-71"/>
      <path d="M 9.1875 72.90625 
L 40.375 72.90625 
Q 54.296875 72.90625 61.734375 66.71875 
Q 69.1875 60.546875 69.1875 49.125 
Q 69.1875 37.640625 61.734375 31.46875 
Q 54.296875 25.296875 40.375 25.296875 
L 27.984375 25.296875 
L 27.984375 0 
L 9.1875 0 
z
M 27.984375 59.28125 
L 27.984375 38.921875 
L 38.375 38.921875 
Q 43.84375 38.921875 46.828125 41.578125 
Q 49.8125 44.234375 49.8125 49.125 
Q 49.8125 54 46.828125 56.640625 
Q 43.84375 59.28125 38.375 59.28125 
z
" id="DejaVuSans-Bold-80"/>
      <path d="M 8.5 -20.90625 
L 8.5 54.6875 
L 26.125 54.6875 
L 26.125 22.90625 
Q 26.125 17.234375 28.5625 14.46875 
Q 31 11.71875 35.984375 11.71875 
Q 41.015625 11.71875 43.453125 14.46875 
Q 45.90625 17.234375 45.90625 22.90625 
L 45.90625 54.6875 
L 63.484375 54.6875 
L 63.484375 18.109375 
Q 63.484375 14.65625 64.28125 13.28125 
Q 65.09375 11.921875 67 11.921875 
Q 67.875 11.921875 68.671875 12.15625 
Q 69.484375 12.40625 70.40625 12.984375 
L 70.40625 0.78125 
Q 67.828125 -0.34375 65.546875 -0.875 
Q 63.28125 -1.421875 61.078125 -1.421875 
Q 56.734375 -1.421875 53.96875 0.40625 
Q 51.21875 2.25 49.515625 6.296875 
Q 47.21875 2.4375 43.921875 0.5 
Q 40.625 -1.421875 36.28125 -1.421875 
Q 32.671875 -1.421875 30.125 -0.265625 
Q 27.59375 0.875 26.125 3.21875 
L 26.125 -20.90625 
z
" id="DejaVuSans-Bold-181"/>
      <path d="M 34.421875 43.5 
Q 28.609375 43.5 25.5625 39.328125 
Q 22.515625 35.15625 22.515625 27.296875 
Q 22.515625 19.4375 25.5625 15.25 
Q 28.609375 11.078125 34.421875 11.078125 
Q 40.140625 11.078125 43.15625 15.25 
Q 46.1875 19.4375 46.1875 27.296875 
Q 46.1875 35.15625 43.15625 39.328125 
Q 40.140625 43.5 34.421875 43.5 
z
M 34.421875 56 
Q 48.53125 56 56.46875 48.375 
Q 64.40625 40.765625 64.40625 27.296875 
Q 64.40625 13.8125 56.46875 6.1875 
Q 48.53125 -1.421875 34.421875 -1.421875 
Q 20.265625 -1.421875 12.28125 6.1875 
Q 4.296875 13.8125 4.296875 27.296875 
Q 4.296875 40.765625 12.28125 48.375 
Q 20.265625 56 34.421875 56 
z
" id="DejaVuSans-Bold-111"/>
      <path d="M 8.40625 75.984375 
L 25.875 75.984375 
L 25.875 0 
L 8.40625 0 
z
" id="DejaVuSans-Bold-108"/>
      <path d="M 25.6875 72.90625 
L 36.53125 72.90625 
L 10.796875 -9.28125 
L 0 -9.28125 
z
" id="DejaVuSans-Bold-47"/>
      <path d="M 8.40625 75.984375 
L 25.875 75.984375 
L 25.875 34.625 
L 46 54.6875 
L 66.3125 54.6875 
L 39.59375 29.59375 
L 68.40625 0 
L 47.21875 0 
L 25.875 22.796875 
L 25.875 0 
L 8.40625 0 
z
" id="DejaVuSans-Bold-107"/>
      <path d="M 45.609375 9.28125 
Q 42 4.5 37.640625 2.25 
Q 33.296875 0 27.59375 0 
Q 17.578125 0 11.03125 7.875 
Q 4.5 15.765625 4.5 27.984375 
Q 4.5 40.234375 11.03125 48.0625 
Q 17.578125 55.90625 27.59375 55.90625 
Q 33.296875 55.90625 37.640625 53.65625 
Q 42 51.421875 45.609375 46.578125 
L 45.609375 54.6875 
L 63.1875 54.6875 
L 63.1875 5.515625 
Q 63.1875 -7.671875 54.859375 -14.625 
Q 46.53125 -21.578125 30.71875 -21.578125 
Q 25.59375 -21.578125 20.796875 -20.796875 
Q 16.015625 -20.015625 11.1875 -18.40625 
L 11.1875 -4.78125 
Q 15.765625 -7.421875 20.15625 -8.71875 
Q 24.5625 -10.015625 29 -10.015625 
Q 37.59375 -10.015625 41.59375 -6.25 
Q 45.609375 -2.484375 45.609375 5.515625 
z
M 34.078125 43.3125 
Q 28.65625 43.3125 25.625 39.296875 
Q 22.609375 35.296875 22.609375 27.984375 
Q 22.609375 20.453125 25.53125 16.578125 
Q 28.46875 12.703125 34.078125 12.703125 
Q 39.546875 12.703125 42.578125 16.703125 
Q 45.609375 20.703125 45.609375 27.984375 
Q 45.609375 35.296875 42.578125 39.296875 
Q 39.546875 43.3125 34.078125 43.3125 
z
" id="DejaVuSans-Bold-103"/>
      <path d="M 63.375 33.296875 
L 63.375 0 
L 45.796875 0 
L 45.796875 5.421875 
L 45.796875 25.484375 
Q 45.796875 32.5625 45.484375 35.25 
Q 45.171875 37.9375 44.390625 39.203125 
Q 43.359375 40.921875 41.59375 41.875 
Q 39.84375 42.828125 37.59375 42.828125 
Q 32.125 42.828125 29 38.59375 
Q 25.875 34.375 25.875 26.90625 
L 25.875 0 
L 8.40625 0 
L 8.40625 54.6875 
L 25.875 54.6875 
L 25.875 46.6875 
Q 29.828125 51.46875 34.265625 53.734375 
Q 38.71875 56 44.09375 56 
Q 53.5625 56 58.46875 50.1875 
Q 63.375 44.390625 63.375 33.296875 
z
" id="DejaVuSans-Bold-110"/>
     </defs>
     <g transform="translate(27.766875 196.292364)rotate(-90)scale(0.12 -0.12)">
      <use xlink:href="#DejaVuSans-Bold-72"/>
      <use x="83.691406" xlink:href="#DejaVuSans-Bold-71"/>
      <use x="165.771484" xlink:href="#DejaVuSans-Bold-80"/>
      <use x="239.0625" xlink:href="#DejaVuSans-Bold-32"/>
      <use x="273.876953" xlink:href="#DejaVuSans-Bold-91"/>
      <use x="319.580078" xlink:href="#DejaVuSans-Bold-181"/>
      <use x="393.164062" xlink:href="#DejaVuSans-Bold-109"/>
      <use x="497.363281" xlink:href="#DejaVuSans-Bold-111"/>
      <use x="566.064453" xlink:href="#DejaVuSans-Bold-108"/>
      <use x="600.341797" xlink:href="#DejaVuSans-Bold-47"/>
      <use x="636.865234" xlink:href="#DejaVuSans-Bold-107"/>
      <use x="703.369141" xlink:href="#DejaVuSans-Bold-103"/>
      <use x="774.951172" xlink:href="#DejaVuSans-Bold-47"/>
      <use x="811.474609" xlink:href="#DejaVuSans-Bold-109"/>
      <use x="915.673828" xlink:href="#DejaVuSans-Bold-105"/>
      <use x="949.951172" xlink:href="#DejaVuSans-Bold-110"/>
      <use x="1021.142578" xlink:href="#DejaVuSans-Bold-93"/>
     </g>
    </g>
   </g>
   <g id="line2d_12">
    <path clip-path="url(#pd49bcb806e)" d="M 57.0718 -1 
L 57.088362 39.146565 
L 59.398921 48.043273 
L 63.557927 63.739102 
L 65.868486 73.30253 
L 68.179045 83.802452 
L 70.951716 97.634055 
L 77.883393 133.362998 
L 79.73184 141.326177 
L 81.118175 146.484357 
L 82.504511 150.900692 
L 83.890846 154.591365 
L 85.277182 157.611188 
L 86.663517 160.038435 
L 88.049852 161.960963 
L 89.436188 163.465816 
L 90.822523 164.632743 
L 92.208859 165.531015 
L 94.057306 166.409356 
L 95.905753 167.019869 
L 98.216312 167.525196 
L 100.988983 167.889529 
L 104.685877 168.143463 
L 110.693331 168.302162 
L 124.094573 168.363104 
L 265.962896 168.367227 
L 287.682151 168.367227 
L 287.682151 168.367227 
" style="fill:none;stroke:#000000;stroke-linecap:square;stroke-width:2;"/>
   </g>
   <g id="line2d_13">
    <path clip-path="url(#pd49bcb806e)" d="M 57.058606 -1 
L 57.088362 59.907052 
L 59.398921 67.115334 
L 65.868486 86.668694 
L 68.641157 96.015736 
L 71.413828 106.190876 
L 75.110722 120.717217 
L 79.269728 136.919743 
L 81.580287 144.989494 
L 83.428734 150.647351 
L 85.277182 155.487377 
L 86.663517 158.568102 
L 88.049852 161.196467 
L 89.436188 163.406247 
L 90.822523 165.240724 
L 92.208859 166.747372 
L 93.595194 167.973728 
L 94.98153 168.964583 
L 96.829977 169.988499 
L 98.678424 170.74659 
L 100.988983 171.418752 
L 103.761654 171.944987 
L 106.996436 172.313073 
L 111.617554 172.583041 
L 118.549231 172.735962 
L 134.261033 172.7965 
L 287.682151 172.800616 
L 287.682151 172.800616 
" style="fill:none;stroke:#000000;stroke-linecap:square;stroke-width:2;"/>
   </g>
   <g id="line2d_14">
    <path clip-path="url(#pd49bcb806e)" d="M 57.039639 -1 
L 57.088362 80.496766 
L 59.398921 86.175319 
L 69.56538 110.04061 
L 72.800163 118.600873 
L 76.959169 130.323316 
L 82.042399 144.65146 
L 84.81507 151.752884 
L 87.125629 156.980385 
L 88.974076 160.627538 
L 90.822523 163.776625 
L 92.67097 166.438403 
L 94.519418 168.646444 
L 96.367865 170.448831 
L 98.216312 171.900362 
L 100.064759 173.05643 
L 101.913207 173.968944 
L 104.223766 174.83678 
L 106.534325 175.471271 
L 109.306995 176.007821 
L 113.00389 176.463744 
L 117.625008 176.780619 
L 124.094573 176.983682 
L 135.647368 177.089822 
L 174.926871 177.114052 
L 287.682151 177.114132 
L 287.682151 177.114132 
" style="fill:none;stroke:#000000;stroke-linecap:square;stroke-width:2;"/>
   </g>
   <g id="line2d_15">
    <path clip-path="url(#pd49bcb806e)" d="M 57.010448 -1 
L 57.088362 100.287933 
L 59.398921 104.638315 
L 63.095815 110.993315 
L 70.027492 122.83405 
L 74.186498 130.449978 
L 79.269728 140.307513 
L 85.739293 152.882075 
L 88.974076 158.643547 
L 91.284635 162.36482 
L 93.595194 165.690433 
L 95.905753 168.590886 
L 97.7542 170.602858 
L 99.602648 172.350629 
L 101.451095 173.851108 
L 103.761654 175.412234 
L 106.072213 176.668344 
L 108.382772 177.667557 
L 111.155443 178.590852 
L 113.928113 179.277635 
L 117.162896 179.854788 
L 121.321902 180.346843 
L 126.405132 180.7035 
L 133.336809 180.9494 
L 144.427492 181.092839 
L 170.767865 181.144146 
L 287.682151 181.146586 
L 287.682151 181.146586 
" style="fill:none;stroke:#000000;stroke-linecap:square;stroke-width:2;"/>
   </g>
   <g id="line2d_16">
    <path clip-path="url(#pd49bcb806e)" d="M 56.959232 -1 
L 57.088362 118.807837 
L 59.398921 122.047873 
L 62.633703 126.169936 
L 70.027492 135.064659 
L 76.497057 143.047349 
L 84.352958 153.173464 
L 90.360411 160.791477 
L 94.057306 165.143599 
L 97.292089 168.610672 
L 100.064759 171.275252 
L 102.83743 173.630953 
L 105.610101 175.672081 
L 108.382772 177.408459 
L 111.155443 178.861711 
L 113.928113 180.060957 
L 116.700784 181.038816 
L 119.935567 181.943716 
L 123.632461 182.726278 
L 127.791467 183.360869 
L 132.874697 183.883279 
L 138.882151 184.263387 
L 147.200163 184.543481 
L 159.677182 184.711992 
L 185.093331 184.783493 
L 287.682151 184.791213 
L 287.682151 184.791213 
" style="fill:none;stroke:#000000;stroke-linecap:square;stroke-width:2;"/>
   </g>
   <g id="line2d_17">
    <path clip-path="url(#pd49bcb806e)" d="M 56.842129 -1 
L 57.088362 135.768124 
L 59.861033 138.55071 
L 63.557927 141.88634 
L 68.641157 146.139259 
L 92.208859 165.246757 
L 97.7542 169.501589 
L 102.375318 172.776343 
L 106.534325 175.441407 
L 110.231219 177.551531 
L 113.928113 179.403673 
L 117.625008 180.998155 
L 121.321902 182.346894 
L 125.018797 183.4702 
L 129.177803 184.495989 
L 133.798921 185.385609 
L 138.882151 186.119118 
L 144.427492 186.694962 
L 151.359169 187.178804 
L 160.139293 187.546102 
L 172.1542 187.799311 
L 191.100784 187.944318 
L 235.001405 187.99602 
L 287.682151 187.998606 
L 287.682151 187.998606 
" style="fill:none;stroke:#000000;stroke-linecap:square;stroke-width:2;"/>
   </g>
   <g id="line2d_18">
    <defs>
     <path d="M -3 3 
L 3 3 
L 3 -3 
L -3 -3 
z
" id="md9770ce6ad" style="stroke:#000000;stroke-linejoin:miter;stroke-opacity:0.6;"/>
    </defs>
    <g clip-path="url(#pd49bcb806e)">
     <use style="fill-opacity:0.6;stroke:#000000;stroke-linejoin:miter;stroke-opacity:0.6;" x="241.47097" xlink:href="#md9770ce6ad" y="192.059584"/>
     <use style="fill-opacity:0.6;stroke:#000000;stroke-linejoin:miter;stroke-opacity:0.6;" x="198.560589" xlink:href="#md9770ce6ad" y="182.899932"/>
     <use style="fill-opacity:0.6;stroke:#000000;stroke-linejoin:miter;stroke-opacity:0.6;" x="221.666179" xlink:href="#md9770ce6ad" y="189.568802"/>
     <use style="fill-opacity:0.6;stroke:#000000;stroke-linejoin:miter;stroke-opacity:0.6;" x="155.650207" xlink:href="#md9770ce6ad" y="174.061671"/>
     <use style="fill-opacity:0.6;stroke:#000000;stroke-linejoin:miter;stroke-opacity:0.6;" x="155.650207" xlink:href="#md9770ce6ad" y="189.086715"/>
     <use style="fill-opacity:0.6;stroke:#000000;stroke-linejoin:miter;stroke-opacity:0.6;" x="69.829444" xlink:href="#md9770ce6ad" y="152.367758"/>
     <use style="fill-opacity:0.6;stroke:#000000;stroke-linejoin:miter;stroke-opacity:0.6;" x="59.927049" xlink:href="#md9770ce6ad" y="195.353845"/>
     <use style="fill-opacity:0.6;stroke:#000000;stroke-linejoin:miter;stroke-opacity:0.6;" x="66.528646" xlink:href="#md9770ce6ad" y="186.113845"/>
     <use style="fill-opacity:0.6;stroke:#000000;stroke-linejoin:miter;stroke-opacity:0.6;" x="63.227847" xlink:href="#md9770ce6ad" y="182.096454"/>
     <use style="fill-opacity:0.6;stroke:#000000;stroke-linejoin:miter;stroke-opacity:0.6;" x="96.235833" xlink:href="#md9770ce6ad" y="154.778193"/>
     <use style="fill-opacity:0.6;stroke:#000000;stroke-linejoin:miter;stroke-opacity:0.6;" x="99.536632" xlink:href="#md9770ce6ad" y="181.292976"/>
     <use style="fill-opacity:0.6;stroke:#000000;stroke-linejoin:miter;stroke-opacity:0.6;" x="59.927049" xlink:href="#md9770ce6ad" y="155.581671"/>
     <use style="fill-opacity:0.6;stroke:#000000;stroke-linejoin:miter;stroke-opacity:0.6;" x="56.62625" xlink:href="#md9770ce6ad" y="158.795584"/>
     <use style="fill-opacity:0.6;stroke:#000000;stroke-linejoin:miter;stroke-opacity:0.6;" x="63.227847" xlink:href="#md9770ce6ad" y="149.153845"/>
     <use style="fill-opacity:0.6;stroke:#000000;stroke-linejoin:miter;stroke-opacity:0.6;" x="83.032639" xlink:href="#md9770ce6ad" y="184.506889"/>
     <use style="fill-opacity:0.6;stroke:#000000;stroke-linejoin:miter;stroke-opacity:0.6;" x="83.032639" xlink:href="#md9770ce6ad" y="184.506889"/>
     <use style="fill-opacity:0.6;stroke:#000000;stroke-linejoin:miter;stroke-opacity:0.6;" x="63.227847" xlink:href="#md9770ce6ad" y="149.153845"/>
     <use style="fill-opacity:0.6;stroke:#000000;stroke-linejoin:miter;stroke-opacity:0.6;" x="76.431041" xlink:href="#md9770ce6ad" y="160.402541"/>
     <use style="fill-opacity:0.6;stroke:#000000;stroke-linejoin:miter;stroke-opacity:0.6;" x="89.634236" xlink:href="#md9770ce6ad" y="172.454715"/>
     <use style="fill-opacity:0.6;stroke:#000000;stroke-linejoin:miter;stroke-opacity:0.6;" x="69.829444" xlink:href="#md9770ce6ad" y="170.847758"/>
     <use style="fill-opacity:0.6;stroke:#000000;stroke-linejoin:miter;stroke-opacity:0.6;" x="96.235833" xlink:href="#md9770ce6ad" y="183.70341"/>
     <use style="fill-opacity:0.6;stroke:#000000;stroke-linejoin:miter;stroke-opacity:0.6;" x="76.431041" xlink:href="#md9770ce6ad" y="172.454715"/>
     <use style="fill-opacity:0.6;stroke:#000000;stroke-linejoin:miter;stroke-opacity:0.6;" x="89.634236" xlink:href="#md9770ce6ad" y="180.489497"/>
     <use style="fill-opacity:0.6;stroke:#000000;stroke-linejoin:miter;stroke-opacity:0.6;" x="102.83743" xlink:href="#md9770ce6ad" y="184.506889"/>
     <use style="fill-opacity:0.6;stroke:#000000;stroke-linejoin:miter;stroke-opacity:0.6;" x="56.62625" xlink:href="#md9770ce6ad" y="161.206019"/>
     <use style="fill-opacity:0.6;stroke:#000000;stroke-linejoin:miter;stroke-opacity:0.6;" x="76.431041" xlink:href="#md9770ce6ad" y="154.778193"/>
     <use style="fill-opacity:0.6;stroke:#000000;stroke-linejoin:miter;stroke-opacity:0.6;" x="73.130243" xlink:href="#md9770ce6ad" y="153.171236"/>
     <use style="fill-opacity:0.6;stroke:#000000;stroke-linejoin:miter;stroke-opacity:0.6;" x="56.62625" xlink:href="#md9770ce6ad" y="154.778193"/>
     <use style="fill-opacity:0.6;stroke:#000000;stroke-linejoin:miter;stroke-opacity:0.6;" x="59.927049" xlink:href="#md9770ce6ad" y="169.240802"/>
     <use style="fill-opacity:0.6;stroke:#000000;stroke-linejoin:miter;stroke-opacity:0.6;" x="76.431041" xlink:href="#md9770ce6ad" y="174.061671"/>
     <use style="fill-opacity:0.6;stroke:#000000;stroke-linejoin:miter;stroke-opacity:0.6;" x="73.130243" xlink:href="#md9770ce6ad" y="110.586889"/>
     <use style="fill-opacity:0.6;stroke:#000000;stroke-linejoin:miter;stroke-opacity:0.6;" x="76.431041" xlink:href="#md9770ce6ad" y="112.193845"/>
     <use style="fill-opacity:0.6;stroke:#000000;stroke-linejoin:miter;stroke-opacity:0.6;" x="79.73184" xlink:href="#md9770ce6ad" y="157.188628"/>
    </g>
   </g>
   <g id="patch_3">
    <path d="M 56.62625 252.802541 
L 56.62625 11.759062 
" style="fill:none;stroke:#000000;stroke-linecap:square;stroke-linejoin:miter;stroke-width:0.8;"/>
   </g>
   <g id="patch_4">
    <path d="M 299.234946 252.802541 
L 299.234946 11.759062 
" style="fill:none;stroke:#000000;stroke-linecap:square;stroke-linejoin:miter;stroke-width:0.8;"/>
   </g>
   <g id="patch_5">
    <path d="M 56.62625 252.802541 
L 299.234946 252.802541 
" style="fill:none;stroke:#000000;stroke-linecap:square;stroke-linejoin:miter;stroke-width:0.8;"/>
   </g>
   <g id="patch_6">
    <path d="M 56.62625 11.759062 
L 299.234946 11.759062 
" style="fill:none;stroke:#000000;stroke-linecap:square;stroke-linejoin:miter;stroke-width:0.8;"/>
   </g>
   <g id="legend_1">
    <g id="patch_7">
     <path d="M 249.006347 30.649941 
L 293.403946 30.649941 
Q 295.069946 30.649941 295.069946 28.983941 
L 295.069946 17.590062 
Q 295.069946 15.924062 293.403946 15.924062 
L 249.006347 15.924062 
Q 247.340347 15.924062 247.340347 17.590062 
L 247.340347 28.983941 
Q 247.340347 30.649941 249.006347 30.649941 
z
" style="fill:#ffffff;opacity:0.8;stroke:#cccccc;stroke-linejoin:miter;"/>
    </g>
    <g id="line2d_19"/>
    <g id="line2d_20">
     <g>
      <use style="fill-opacity:0.6;stroke:#000000;stroke-linejoin:miter;stroke-opacity:0.6;" x="259.002347" xlink:href="#md9770ce6ad" y="22.670061"/>
     </g>
    </g>
    <g id="text_14">
     <!-- HGP -->
     <defs>
      <path d="M 9.8125 72.90625 
L 19.671875 72.90625 
L 19.671875 43.015625 
L 55.515625 43.015625 
L 55.515625 72.90625 
L 65.375 72.90625 
L 65.375 0 
L 55.515625 0 
L 55.515625 34.71875 
L 19.671875 34.71875 
L 19.671875 0 
L 9.8125 0 
z
" id="DejaVuSans-72"/>
      <path d="M 59.515625 10.40625 
L 59.515625 29.984375 
L 43.40625 29.984375 
L 43.40625 38.09375 
L 69.28125 38.09375 
L 69.28125 6.78125 
Q 63.578125 2.734375 56.6875 0.65625 
Q 49.8125 -1.421875 42 -1.421875 
Q 24.90625 -1.421875 15.25 8.5625 
Q 5.609375 18.5625 5.609375 36.375 
Q 5.609375 54.25 15.25 64.234375 
Q 24.90625 74.21875 42 74.21875 
Q 49.125 74.21875 55.546875 72.453125 
Q 61.96875 70.703125 67.390625 67.28125 
L 67.390625 56.78125 
Q 61.921875 61.421875 55.765625 63.765625 
Q 49.609375 66.109375 42.828125 66.109375 
Q 29.4375 66.109375 22.71875 58.640625 
Q 16.015625 51.171875 16.015625 36.375 
Q 16.015625 21.625 22.71875 14.15625 
Q 29.4375 6.6875 42.828125 6.6875 
Q 48.046875 6.6875 52.140625 7.59375 
Q 56.25 8.5 59.515625 10.40625 
z
" id="DejaVuSans-71"/>
      <path d="M 19.671875 64.796875 
L 19.671875 37.40625 
L 32.078125 37.40625 
Q 38.96875 37.40625 42.71875 40.96875 
Q 46.484375 44.53125 46.484375 51.125 
Q 46.484375 57.671875 42.71875 61.234375 
Q 38.96875 64.796875 32.078125 64.796875 
z
M 9.8125 72.90625 
L 32.078125 72.90625 
Q 44.34375 72.90625 50.609375 67.359375 
Q 56.890625 61.8125 56.890625 51.125 
Q 56.890625 40.328125 50.609375 34.8125 
Q 44.34375 29.296875 32.078125 29.296875 
L 19.671875 29.296875 
L 19.671875 0 
L 9.8125 0 
z
" id="DejaVuSans-80"/>
     </defs>
     <g transform="translate(273.996347 25.585561)scale(0.0833 -0.0833)">
      <use xlink:href="#DejaVuSans-72"/>
      <use x="75.195312" xlink:href="#DejaVuSans-71"/>
      <use x="152.685547" xlink:href="#DejaVuSans-80"/>
     </g>
    </g>
   </g>
  </g>
  <g id="axes_2">
   <g id="patch_8">
    <path d="M 372.017554 252.802541 
L 614.62625 252.802541 
L 614.62625 11.759062 
L 372.017554 11.759062 
z
" style="fill:#ffffff;"/>
   </g>
   <g id="matplotlib.axis_3">
    <g id="xtick_5">
     <g id="line2d_21">
      <g>
       <use style="stroke:#000000;stroke-width:0.8;" x="405.02554" xlink:href="#m6770e32354" y="252.802541"/>
      </g>
     </g>
     <g id="text_15">
      <!-- 20 -->
      <g transform="translate(397.39054 268.920666)scale(0.12 -0.12)">
       <use xlink:href="#DejaVuSans-50"/>
       <use x="63.623047" xlink:href="#DejaVuSans-48"/>
      </g>
     </g>
    </g>
    <g id="xtick_6">
     <g id="line2d_22">
      <g>
       <use style="stroke:#000000;stroke-width:0.8;" x="471.041512" xlink:href="#m6770e32354" y="252.802541"/>
      </g>
     </g>
     <g id="text_16">
      <!-- 40 -->
      <g transform="translate(463.406512 268.920666)scale(0.12 -0.12)">
       <use xlink:href="#DejaVuSans-52"/>
       <use x="63.623047" xlink:href="#DejaVuSans-48"/>
      </g>
     </g>
    </g>
    <g id="xtick_7">
     <g id="line2d_23">
      <g>
       <use style="stroke:#000000;stroke-width:0.8;" x="537.057483" xlink:href="#m6770e32354" y="252.802541"/>
      </g>
     </g>
     <g id="text_17">
      <!-- 60 -->
      <g transform="translate(529.422483 268.920666)scale(0.12 -0.12)">
       <use xlink:href="#DejaVuSans-54"/>
       <use x="63.623047" xlink:href="#DejaVuSans-48"/>
      </g>
     </g>
    </g>
    <g id="xtick_8">
     <g id="line2d_24">
      <g>
       <use style="stroke:#000000;stroke-width:0.8;" x="603.073455" xlink:href="#m6770e32354" y="252.802541"/>
      </g>
     </g>
     <g id="text_18">
      <!-- 80 -->
      <g transform="translate(595.438455 268.920666)scale(0.12 -0.12)">
       <use xlink:href="#DejaVuSans-56"/>
       <use x="63.623047" xlink:href="#DejaVuSans-48"/>
      </g>
     </g>
    </g>
    <g id="text_19">
     <!-- time [hr] -->
     <g transform="translate(463.272215 284.534416)scale(0.12 -0.12)">
      <use xlink:href="#DejaVuSans-Bold-116"/>
      <use x="47.802734" xlink:href="#DejaVuSans-Bold-105"/>
      <use x="82.080078" xlink:href="#DejaVuSans-Bold-109"/>
      <use x="186.279297" xlink:href="#DejaVuSans-Bold-101"/>
      <use x="254.101562" xlink:href="#DejaVuSans-Bold-32"/>
      <use x="288.916016" xlink:href="#DejaVuSans-Bold-91"/>
      <use x="334.619141" xlink:href="#DejaVuSans-Bold-104"/>
      <use x="405.810547" xlink:href="#DejaVuSans-Bold-114"/>
      <use x="455.126953" xlink:href="#DejaVuSans-Bold-93"/>
     </g>
    </g>
   </g>
   <g id="matplotlib.axis_4">
    <g id="ytick_8">
     <g id="line2d_25">
      <g>
       <use style="stroke:#000000;stroke-width:0.8;" x="372.017554" xlink:href="#m93fca65212" y="252.802541"/>
      </g>
     </g>
     <g id="text_20">
      <!-- 0 -->
      <g transform="translate(357.382554 257.361603)scale(0.12 -0.12)">
       <use xlink:href="#DejaVuSans-48"/>
      </g>
     </g>
    </g>
    <g id="ytick_9">
     <g id="line2d_26">
      <g>
       <use style="stroke:#000000;stroke-width:0.8;" x="372.017554" xlink:href="#m93fca65212" y="218.367758"/>
      </g>
     </g>
     <g id="text_21">
      <!-- 2 -->
      <g transform="translate(357.382554 222.926821)scale(0.12 -0.12)">
       <use xlink:href="#DejaVuSans-50"/>
      </g>
     </g>
    </g>
    <g id="ytick_10">
     <g id="line2d_27">
      <g>
       <use style="stroke:#000000;stroke-width:0.8;" x="372.017554" xlink:href="#m93fca65212" y="183.932976"/>
      </g>
     </g>
     <g id="text_22">
      <!-- 4 -->
      <g transform="translate(357.382554 188.492038)scale(0.12 -0.12)">
       <use xlink:href="#DejaVuSans-52"/>
      </g>
     </g>
    </g>
    <g id="ytick_11">
     <g id="line2d_28">
      <g>
       <use style="stroke:#000000;stroke-width:0.8;" x="372.017554" xlink:href="#m93fca65212" y="149.498193"/>
      </g>
     </g>
     <g id="text_23">
      <!-- 6 -->
      <g transform="translate(357.382554 154.057255)scale(0.12 -0.12)">
       <use xlink:href="#DejaVuSans-54"/>
      </g>
     </g>
    </g>
    <g id="ytick_12">
     <g id="line2d_29">
      <g>
       <use style="stroke:#000000;stroke-width:0.8;" x="372.017554" xlink:href="#m93fca65212" y="115.06341"/>
      </g>
     </g>
     <g id="text_24">
      <!-- 8 -->
      <g transform="translate(357.382554 119.622473)scale(0.12 -0.12)">
       <use xlink:href="#DejaVuSans-56"/>
      </g>
     </g>
    </g>
    <g id="ytick_13">
     <g id="line2d_30">
      <g>
       <use style="stroke:#000000;stroke-width:0.8;" x="372.017554" xlink:href="#m93fca65212" y="80.628628"/>
      </g>
     </g>
     <g id="text_25">
      <!-- 10 -->
      <g transform="translate(349.747554 85.18769)scale(0.12 -0.12)">
       <use xlink:href="#DejaVuSans-49"/>
       <use x="63.623047" xlink:href="#DejaVuSans-48"/>
      </g>
     </g>
    </g>
    <g id="ytick_14">
     <g id="line2d_31">
      <g>
       <use style="stroke:#000000;stroke-width:0.8;" x="372.017554" xlink:href="#m93fca65212" y="46.193845"/>
      </g>
     </g>
     <g id="text_26">
      <!-- 12 -->
      <g transform="translate(349.747554 50.752908)scale(0.12 -0.12)">
       <use xlink:href="#DejaVuSans-49"/>
       <use x="63.623047" xlink:href="#DejaVuSans-50"/>
      </g>
     </g>
    </g>
    <g id="ytick_15">
     <g id="line2d_32">
      <g>
       <use style="stroke:#000000;stroke-width:0.8;" x="372.017554" xlink:href="#m93fca65212" y="11.759062"/>
      </g>
     </g>
     <g id="text_27">
      <!-- 14 -->
      <g transform="translate(349.747554 16.318125)scale(0.12 -0.12)">
       <use xlink:href="#DejaVuSans-49"/>
       <use x="63.623047" xlink:href="#DejaVuSans-52"/>
      </g>
     </g>
    </g>
    <g id="text_28">
     <!-- GNG [µmol/kg/min] -->
     <defs>
      <path d="M 9.1875 72.90625 
L 30.171875 72.90625 
L 56.6875 22.90625 
L 56.6875 72.90625 
L 74.515625 72.90625 
L 74.515625 0 
L 53.515625 0 
L 27 50 
L 27 0 
L 9.1875 0 
z
" id="DejaVuSans-Bold-78"/>
     </defs>
     <g transform="translate(343.158179 196.819239)rotate(-90)scale(0.12 -0.12)">
      <use xlink:href="#DejaVuSans-Bold-71"/>
      <use x="82.080078" xlink:href="#DejaVuSans-Bold-78"/>
      <use x="165.771484" xlink:href="#DejaVuSans-Bold-71"/>
      <use x="247.851562" xlink:href="#DejaVuSans-Bold-32"/>
      <use x="282.666016" xlink:href="#DejaVuSans-Bold-91"/>
      <use x="328.369141" xlink:href="#DejaVuSans-Bold-181"/>
      <use x="401.953125" xlink:href="#DejaVuSans-Bold-109"/>
      <use x="506.152344" xlink:href="#DejaVuSans-Bold-111"/>
      <use x="574.853516" xlink:href="#DejaVuSans-Bold-108"/>
      <use x="609.130859" xlink:href="#DejaVuSans-Bold-47"/>
      <use x="645.654297" xlink:href="#DejaVuSans-Bold-107"/>
      <use x="712.158203" xlink:href="#DejaVuSans-Bold-103"/>
      <use x="783.740234" xlink:href="#DejaVuSans-Bold-47"/>
      <use x="820.263672" xlink:href="#DejaVuSans-Bold-109"/>
      <use x="924.462891" xlink:href="#DejaVuSans-Bold-105"/>
      <use x="958.740234" xlink:href="#DejaVuSans-Bold-110"/>
      <use x="1029.931641" xlink:href="#DejaVuSans-Bold-93"/>
     </g>
    </g>
   </g>
   <g id="line2d_33">
    <path clip-path="url(#pcc76ae8298)" d="M 372.436765 608.586562 
L 372.479666 72.38566 
L 376.638672 72.264035 
L 391.42625 71.908237 
L 404.827492 71.868425 
L 603.073455 71.869725 
L 603.073455 71.869725 
" style="fill:none;stroke:#000000;stroke-linecap:square;stroke-width:2;"/>
   </g>
   <g id="line2d_34">
    <path clip-path="url(#pcc76ae8298)" d="M 372.437451 608.586562 
L 372.479666 81.812618 
L 409.910722 81.37038 
L 603.073455 81.369845 
L 603.073455 81.369845 
" style="fill:none;stroke:#000000;stroke-linecap:square;stroke-width:2;"/>
   </g>
   <g id="line2d_35">
    <path clip-path="url(#pcc76ae8298)" d="M 372.43812 608.586562 
L 372.479666 90.992371 
L 407.138051 90.623001 
L 479.227492 90.613094 
L 603.073455 90.613094 
L 603.073455 90.613094 
" style="fill:none;stroke:#000000;stroke-linecap:square;stroke-width:2;"/>
   </g>
   <g id="line2d_36">
    <path clip-path="url(#pcc76ae8298)" d="M 372.438749 608.586562 
L 372.479666 99.580428 
L 410.372834 99.273584 
L 466.750474 99.254088 
L 603.073455 99.254065 
L 603.073455 99.254065 
" style="fill:none;stroke:#000000;stroke-linecap:square;stroke-width:2;"/>
   </g>
   <g id="line2d_37">
    <path clip-path="url(#pcc76ae8298)" d="M 372.439318 608.586562 
L 372.479666 107.345865 
L 416.380287 107.089678 
L 479.689604 107.064063 
L 603.073455 107.063983 
L 603.073455 107.063983 
" style="fill:none;stroke:#000000;stroke-linecap:square;stroke-width:2;"/>
   </g>
   <g id="line2d_38">
    <path clip-path="url(#pcc76ae8298)" d="M 372.439821 608.586562 
L 372.479666 114.180413 
L 425.160411 113.965933 
L 506.492089 113.937239 
L 603.073455 113.937118 
L 603.073455 113.937118 
" style="fill:none;stroke:#000000;stroke-linecap:square;stroke-width:2;"/>
   </g>
   <g id="line2d_39">
    <g clip-path="url(#pcc76ae8298)">
     <use style="fill-opacity:0.6;stroke:#000000;stroke-linejoin:miter;stroke-opacity:0.6;" x="556.862275" xlink:href="#md9770ce6ad" y="125.566019"/>
     <use style="fill-opacity:0.6;stroke:#000000;stroke-linejoin:miter;stroke-opacity:0.6;" x="513.951893" xlink:href="#md9770ce6ad" y="109.898193"/>
     <use style="fill-opacity:0.6;stroke:#000000;stroke-linejoin:miter;stroke-opacity:0.6;" x="537.057483" xlink:href="#md9770ce6ad" y="120.056454"/>
     <use style="fill-opacity:0.6;stroke:#000000;stroke-linejoin:miter;stroke-opacity:0.6;" x="471.041512" xlink:href="#md9770ce6ad" y="96.12428"/>
     <use style="fill-opacity:0.6;stroke:#000000;stroke-linejoin:miter;stroke-opacity:0.6;" x="471.041512" xlink:href="#md9770ce6ad" y="130.042541"/>
     <use style="fill-opacity:0.6;stroke:#000000;stroke-linejoin:miter;stroke-opacity:0.6;" x="385.220749" xlink:href="#md9770ce6ad" y="190.819932"/>
     <use style="fill-opacity:0.6;stroke:#000000;stroke-linejoin:miter;stroke-opacity:0.6;" x="375.318353" xlink:href="#md9770ce6ad" y="214.92428"/>
     <use style="fill-opacity:0.6;stroke:#000000;stroke-linejoin:miter;stroke-opacity:0.6;" x="381.91995" xlink:href="#md9770ce6ad" y="208.037323"/>
     <use style="fill-opacity:0.6;stroke:#000000;stroke-linejoin:miter;stroke-opacity:0.6;" x="378.619152" xlink:href="#md9770ce6ad" y="175.32428"/>
     <use style="fill-opacity:0.6;stroke:#000000;stroke-linejoin:miter;stroke-opacity:0.6;" x="411.627137" xlink:href="#md9770ce6ad" y="116.785149"/>
     <use style="fill-opacity:0.6;stroke:#000000;stroke-linejoin:miter;stroke-opacity:0.6;" x="414.927936" xlink:href="#md9770ce6ad" y="147.776454"/>
     <use style="fill-opacity:0.6;stroke:#000000;stroke-linejoin:miter;stroke-opacity:0.6;" x="375.318353" xlink:href="#md9770ce6ad" y="151.219932"/>
     <use style="fill-opacity:0.6;stroke:#000000;stroke-linejoin:miter;stroke-opacity:0.6;" x="372.017554" xlink:href="#md9770ce6ad" y="168.437323"/>
     <use style="fill-opacity:0.6;stroke:#000000;stroke-linejoin:miter;stroke-opacity:0.6;" x="378.619152" xlink:href="#md9770ce6ad" y="161.550367"/>
     <use style="fill-opacity:0.6;stroke:#000000;stroke-linejoin:miter;stroke-opacity:0.6;" x="398.423943" xlink:href="#md9770ce6ad" y="151.219932"/>
     <use style="fill-opacity:0.6;stroke:#000000;stroke-linejoin:miter;stroke-opacity:0.6;" x="398.423943" xlink:href="#md9770ce6ad" y="189.098193"/>
     <use style="fill-opacity:0.6;stroke:#000000;stroke-linejoin:miter;stroke-opacity:0.6;" x="378.619152" xlink:href="#md9770ce6ad" y="161.550367"/>
     <use style="fill-opacity:0.6;stroke:#000000;stroke-linejoin:miter;stroke-opacity:0.6;" x="391.822346" xlink:href="#md9770ce6ad" y="139.167758"/>
     <use style="fill-opacity:0.6;stroke:#000000;stroke-linejoin:miter;stroke-opacity:0.6;" x="405.02554" xlink:href="#md9770ce6ad" y="130.559062"/>
     <use style="fill-opacity:0.6;stroke:#000000;stroke-linejoin:miter;stroke-opacity:0.6;" x="385.220749" xlink:href="#md9770ce6ad" y="158.106889"/>
     <use style="fill-opacity:0.6;stroke:#000000;stroke-linejoin:miter;stroke-opacity:0.6;" x="411.627137" xlink:href="#md9770ce6ad" y="158.106889"/>
     <use style="fill-opacity:0.6;stroke:#000000;stroke-linejoin:miter;stroke-opacity:0.6;" x="391.822346" xlink:href="#md9770ce6ad" y="158.106889"/>
     <use style="fill-opacity:0.6;stroke:#000000;stroke-linejoin:miter;stroke-opacity:0.6;" x="405.02554" xlink:href="#md9770ce6ad" y="159.828628"/>
     <use style="fill-opacity:0.6;stroke:#000000;stroke-linejoin:miter;stroke-opacity:0.6;" x="418.228734" xlink:href="#md9770ce6ad" y="163.272106"/>
     <use style="fill-opacity:0.6;stroke:#000000;stroke-linejoin:miter;stroke-opacity:0.6;" x="372.017554" xlink:href="#md9770ce6ad" y="158.106889"/>
     <use style="fill-opacity:0.6;stroke:#000000;stroke-linejoin:miter;stroke-opacity:0.6;" x="391.822346" xlink:href="#md9770ce6ad" y="137.446019"/>
     <use style="fill-opacity:0.6;stroke:#000000;stroke-linejoin:miter;stroke-opacity:0.6;" x="388.521547" xlink:href="#md9770ce6ad" y="156.385149"/>
     <use style="fill-opacity:0.6;stroke:#000000;stroke-linejoin:miter;stroke-opacity:0.6;" x="372.017554" xlink:href="#md9770ce6ad" y="125.393845"/>
     <use style="fill-opacity:0.6;stroke:#000000;stroke-linejoin:miter;stroke-opacity:0.6;" x="375.318353" xlink:href="#md9770ce6ad" y="152.941671"/>
     <use style="fill-opacity:0.6;stroke:#000000;stroke-linejoin:miter;stroke-opacity:0.6;" x="391.822346" xlink:href="#md9770ce6ad" y="166.715584"/>
     <use style="fill-opacity:0.6;stroke:#000000;stroke-linejoin:miter;stroke-opacity:0.6;" x="388.521547" xlink:href="#md9770ce6ad" y="34.141671"/>
     <use style="fill-opacity:0.6;stroke:#000000;stroke-linejoin:miter;stroke-opacity:0.6;" x="391.822346" xlink:href="#md9770ce6ad" y="99.567758"/>
     <use style="fill-opacity:0.6;stroke:#000000;stroke-linejoin:miter;stroke-opacity:0.6;" x="395.123144" xlink:href="#md9770ce6ad" y="173.602541"/>
    </g>
   </g>
   <g id="patch_9">
    <path d="M 372.017554 252.802541 
L 372.017554 11.759062 
" style="fill:none;stroke:#000000;stroke-linecap:square;stroke-linejoin:miter;stroke-width:0.8;"/>
   </g>
   <g id="patch_10">
    <path d="M 614.62625 252.802541 
L 614.62625 11.759062 
" style="fill:none;stroke:#000000;stroke-linecap:square;stroke-linejoin:miter;stroke-width:0.8;"/>
   </g>
   <g id="patch_11">
    <path d="M 372.017554 252.802541 
L 614.62625 252.802541 
" style="fill:none;stroke:#000000;stroke-linecap:square;stroke-linejoin:miter;stroke-width:0.8;"/>
   </g>
   <g id="patch_12">
    <path d="M 372.017554 11.759062 
L 614.62625 11.759062 
" style="fill:none;stroke:#000000;stroke-linecap:square;stroke-linejoin:miter;stroke-width:0.8;"/>
   </g>
   <g id="legend_2">
    <g id="patch_13">
     <path d="M 562.998472 30.649941 
L 608.79525 30.649941 
Q 610.46125 30.649941 610.46125 28.983941 
L 610.46125 17.590062 
Q 610.46125 15.924062 608.79525 15.924062 
L 562.998472 15.924062 
Q 561.332472 15.924062 561.332472 17.590062 
L 561.332472 28.983941 
Q 561.332472 30.649941 562.998472 30.649941 
z
" style="fill:#ffffff;opacity:0.8;stroke:#cccccc;stroke-linejoin:miter;"/>
    </g>
    <g id="line2d_40"/>
    <g id="line2d_41">
     <g>
      <use style="fill-opacity:0.6;stroke:#000000;stroke-linejoin:miter;stroke-opacity:0.6;" x="572.994472" xlink:href="#md9770ce6ad" y="22.670061"/>
     </g>
    </g>
    <g id="text_29">
     <!-- GNG -->
     <defs>
      <path d="M 9.8125 72.90625 
L 23.09375 72.90625 
L 55.421875 11.921875 
L 55.421875 72.90625 
L 64.984375 72.90625 
L 64.984375 0 
L 51.703125 0 
L 19.390625 60.984375 
L 19.390625 0 
L 9.8125 0 
z
" id="DejaVuSans-78"/>
     </defs>
     <g transform="translate(587.988472 25.585561)scale(0.0833 -0.0833)">
      <use xlink:href="#DejaVuSans-71"/>
      <use x="77.490234" xlink:href="#DejaVuSans-78"/>
      <use x="152.294922" xlink:href="#DejaVuSans-71"/>
     </g>
    </g>
   </g>
  </g>
  <g id="axes_3">
   <g id="patch_14">
    <path d="M 56.62625 566.159062 
L 299.234946 566.159062 
L 299.234946 325.115584 
L 56.62625 325.115584 
z
" style="fill:#ffffff;"/>
   </g>
   <g id="matplotlib.axis_5">
    <g id="xtick_9">
     <g id="line2d_42">
      <g>
       <use style="stroke:#000000;stroke-width:0.8;" x="89.634236" xlink:href="#m6770e32354" y="566.159062"/>
      </g>
     </g>
     <g id="text_30">
      <!-- 20 -->
      <g transform="translate(81.999236 582.277187)scale(0.12 -0.12)">
       <use xlink:href="#DejaVuSans-50"/>
       <use x="63.623047" xlink:href="#DejaVuSans-48"/>
      </g>
     </g>
    </g>
    <g id="xtick_10">
     <g id="line2d_43">
      <g>
       <use style="stroke:#000000;stroke-width:0.8;" x="155.650207" xlink:href="#m6770e32354" y="566.159062"/>
      </g>
     </g>
     <g id="text_31">
      <!-- 40 -->
      <g transform="translate(148.015207 582.277187)scale(0.12 -0.12)">
       <use xlink:href="#DejaVuSans-52"/>
       <use x="63.623047" xlink:href="#DejaVuSans-48"/>
      </g>
     </g>
    </g>
    <g id="xtick_11">
     <g id="line2d_44">
      <g>
       <use style="stroke:#000000;stroke-width:0.8;" x="221.666179" xlink:href="#m6770e32354" y="566.159062"/>
      </g>
     </g>
     <g id="text_32">
      <!-- 60 -->
      <g transform="translate(214.031179 582.277187)scale(0.12 -0.12)">
       <use xlink:href="#DejaVuSans-54"/>
       <use x="63.623047" xlink:href="#DejaVuSans-48"/>
      </g>
     </g>
    </g>
    <g id="xtick_12">
     <g id="line2d_45">
      <g>
       <use style="stroke:#000000;stroke-width:0.8;" x="287.682151" xlink:href="#m6770e32354" y="566.159062"/>
      </g>
     </g>
     <g id="text_33">
      <!-- 80 -->
      <g transform="translate(280.047151 582.277187)scale(0.12 -0.12)">
       <use xlink:href="#DejaVuSans-56"/>
       <use x="63.623047" xlink:href="#DejaVuSans-48"/>
      </g>
     </g>
    </g>
    <g id="text_34">
     <!-- time [hr] -->
     <g transform="translate(147.88091 597.890937)scale(0.12 -0.12)">
      <use xlink:href="#DejaVuSans-Bold-116"/>
      <use x="47.802734" xlink:href="#DejaVuSans-Bold-105"/>
      <use x="82.080078" xlink:href="#DejaVuSans-Bold-109"/>
      <use x="186.279297" xlink:href="#DejaVuSans-Bold-101"/>
      <use x="254.101562" xlink:href="#DejaVuSans-Bold-32"/>
      <use x="288.916016" xlink:href="#DejaVuSans-Bold-91"/>
      <use x="334.619141" xlink:href="#DejaVuSans-Bold-104"/>
      <use x="405.810547" xlink:href="#DejaVuSans-Bold-114"/>
      <use x="455.126953" xlink:href="#DejaVuSans-Bold-93"/>
     </g>
    </g>
   </g>
   <g id="matplotlib.axis_6">
    <g id="ytick_16">
     <g id="line2d_46">
      <g>
       <use style="stroke:#000000;stroke-width:0.8;" x="56.62625" xlink:href="#m93fca65212" y="566.159062"/>
      </g>
     </g>
     <g id="text_35">
      <!-- 0.0 -->
      <defs>
       <path d="M 10.6875 12.40625 
L 21 12.40625 
L 21 0 
L 10.6875 0 
z
" id="DejaVuSans-46"/>
      </defs>
      <g transform="translate(30.5425 570.718125)scale(0.12 -0.12)">
       <use xlink:href="#DejaVuSans-48"/>
       <use x="63.623047" xlink:href="#DejaVuSans-46"/>
       <use x="95.410156" xlink:href="#DejaVuSans-48"/>
      </g>
     </g>
    </g>
    <g id="ytick_17">
     <g id="line2d_47">
      <g>
       <use style="stroke:#000000;stroke-width:0.8;" x="56.62625" xlink:href="#m93fca65212" y="536.028628"/>
      </g>
     </g>
     <g id="text_36">
      <!-- 2.5 -->
      <g transform="translate(30.5425 540.58769)scale(0.12 -0.12)">
       <use xlink:href="#DejaVuSans-50"/>
       <use x="63.623047" xlink:href="#DejaVuSans-46"/>
       <use x="95.410156" xlink:href="#DejaVuSans-53"/>
      </g>
     </g>
    </g>
    <g id="ytick_18">
     <g id="line2d_48">
      <g>
       <use style="stroke:#000000;stroke-width:0.8;" x="56.62625" xlink:href="#m93fca65212" y="505.898193"/>
      </g>
     </g>
     <g id="text_37">
      <!-- 5.0 -->
      <g transform="translate(30.5425 510.457255)scale(0.12 -0.12)">
       <use xlink:href="#DejaVuSans-53"/>
       <use x="63.623047" xlink:href="#DejaVuSans-46"/>
       <use x="95.410156" xlink:href="#DejaVuSans-48"/>
      </g>
     </g>
    </g>
    <g id="ytick_19">
     <g id="line2d_49">
      <g>
       <use style="stroke:#000000;stroke-width:0.8;" x="56.62625" xlink:href="#m93fca65212" y="475.767758"/>
      </g>
     </g>
     <g id="text_38">
      <!-- 7.5 -->
      <defs>
       <path d="M 8.203125 72.90625 
L 55.078125 72.90625 
L 55.078125 68.703125 
L 28.609375 0 
L 18.3125 0 
L 43.21875 64.59375 
L 8.203125 64.59375 
z
" id="DejaVuSans-55"/>
      </defs>
      <g transform="translate(30.5425 480.326821)scale(0.12 -0.12)">
       <use xlink:href="#DejaVuSans-55"/>
       <use x="63.623047" xlink:href="#DejaVuSans-46"/>
       <use x="95.410156" xlink:href="#DejaVuSans-53"/>
      </g>
     </g>
    </g>
    <g id="ytick_20">
     <g id="line2d_50">
      <g>
       <use style="stroke:#000000;stroke-width:0.8;" x="56.62625" xlink:href="#m93fca65212" y="445.637323"/>
      </g>
     </g>
     <g id="text_39">
      <!-- 10.0 -->
      <g transform="translate(22.9075 450.196386)scale(0.12 -0.12)">
       <use xlink:href="#DejaVuSans-49"/>
       <use x="63.623047" xlink:href="#DejaVuSans-48"/>
       <use x="127.246094" xlink:href="#DejaVuSans-46"/>
       <use x="159.033203" xlink:href="#DejaVuSans-48"/>
      </g>
     </g>
    </g>
    <g id="ytick_21">
     <g id="line2d_51">
      <g>
       <use style="stroke:#000000;stroke-width:0.8;" x="56.62625" xlink:href="#m93fca65212" y="415.506889"/>
      </g>
     </g>
     <g id="text_40">
      <!-- 12.5 -->
      <g transform="translate(22.9075 420.065951)scale(0.12 -0.12)">
       <use xlink:href="#DejaVuSans-49"/>
       <use x="63.623047" xlink:href="#DejaVuSans-50"/>
       <use x="127.246094" xlink:href="#DejaVuSans-46"/>
       <use x="159.033203" xlink:href="#DejaVuSans-53"/>
      </g>
     </g>
    </g>
    <g id="ytick_22">
     <g id="line2d_52">
      <g>
       <use style="stroke:#000000;stroke-width:0.8;" x="56.62625" xlink:href="#m93fca65212" y="385.376454"/>
      </g>
     </g>
     <g id="text_41">
      <!-- 15.0 -->
      <g transform="translate(22.9075 389.935516)scale(0.12 -0.12)">
       <use xlink:href="#DejaVuSans-49"/>
       <use x="63.623047" xlink:href="#DejaVuSans-53"/>
       <use x="127.246094" xlink:href="#DejaVuSans-46"/>
       <use x="159.033203" xlink:href="#DejaVuSans-48"/>
      </g>
     </g>
    </g>
    <g id="ytick_23">
     <g id="line2d_53">
      <g>
       <use style="stroke:#000000;stroke-width:0.8;" x="56.62625" xlink:href="#m93fca65212" y="355.246019"/>
      </g>
     </g>
     <g id="text_42">
      <!-- 17.5 -->
      <g transform="translate(22.9075 359.805082)scale(0.12 -0.12)">
       <use xlink:href="#DejaVuSans-49"/>
       <use x="63.623047" xlink:href="#DejaVuSans-55"/>
       <use x="127.246094" xlink:href="#DejaVuSans-46"/>
       <use x="159.033203" xlink:href="#DejaVuSans-53"/>
      </g>
     </g>
    </g>
    <g id="ytick_24">
     <g id="line2d_54">
      <g>
       <use style="stroke:#000000;stroke-width:0.8;" x="56.62625" xlink:href="#m93fca65212" y="325.115584"/>
      </g>
     </g>
     <g id="text_43">
      <!-- 20.0 -->
      <g transform="translate(22.9075 329.674647)scale(0.12 -0.12)">
       <use xlink:href="#DejaVuSans-50"/>
       <use x="63.623047" xlink:href="#DejaVuSans-48"/>
       <use x="127.246094" xlink:href="#DejaVuSans-46"/>
       <use x="159.033203" xlink:href="#DejaVuSans-48"/>
      </g>
     </g>
    </g>
    <g id="text_44">
     <!-- GLY [µmol/kg/min] -->
     <defs>
      <path d="M 9.1875 72.90625 
L 27.984375 72.90625 
L 27.984375 14.203125 
L 60.984375 14.203125 
L 60.984375 0 
L 9.1875 0 
z
" id="DejaVuSans-Bold-76"/>
      <path d="M -0.984375 72.90625 
L 19.578125 72.90625 
L 36.1875 46.921875 
L 52.78125 72.90625 
L 73.390625 72.90625 
L 45.609375 30.71875 
L 45.609375 0 
L 26.8125 0 
L 26.8125 30.71875 
z
" id="DejaVuSans-Bold-89"/>
     </defs>
     <g transform="translate(16.318125 508.383261)rotate(-90)scale(0.12 -0.12)">
      <use xlink:href="#DejaVuSans-Bold-71"/>
      <use x="82.080078" xlink:href="#DejaVuSans-Bold-76"/>
      <use x="145.566406" xlink:href="#DejaVuSans-Bold-89"/>
      <use x="217.978516" xlink:href="#DejaVuSans-Bold-32"/>
      <use x="252.792969" xlink:href="#DejaVuSans-Bold-91"/>
      <use x="298.496094" xlink:href="#DejaVuSans-Bold-181"/>
      <use x="372.080078" xlink:href="#DejaVuSans-Bold-109"/>
      <use x="476.279297" xlink:href="#DejaVuSans-Bold-111"/>
      <use x="544.980469" xlink:href="#DejaVuSans-Bold-108"/>
      <use x="579.257812" xlink:href="#DejaVuSans-Bold-47"/>
      <use x="615.78125" xlink:href="#DejaVuSans-Bold-107"/>
      <use x="682.285156" xlink:href="#DejaVuSans-Bold-103"/>
      <use x="753.867188" xlink:href="#DejaVuSans-Bold-47"/>
      <use x="790.390625" xlink:href="#DejaVuSans-Bold-109"/>
      <use x="894.589844" xlink:href="#DejaVuSans-Bold-105"/>
      <use x="928.867188" xlink:href="#DejaVuSans-Bold-110"/>
      <use x="1000.058594" xlink:href="#DejaVuSans-Bold-93"/>
     </g>
    </g>
   </g>
   <g id="line2d_55">
    <path clip-path="url(#pb45d06e1a9)" d="M 56.908993 -1 
L 57.088362 372.054779 
L 59.398921 385.432302 
L 63.557927 409.070938 
L 65.868486 423.470232 
L 68.179045 439.272356 
L 70.951716 460.074968 
L 77.883393 513.728209 
L 79.73184 525.668179 
L 81.118175 533.39853 
L 82.504511 540.01468 
L 83.890846 545.541966 
L 85.277182 550.063375 
L 86.663517 553.696776 
L 88.049852 556.574158 
L 89.436188 558.826117 
L 90.822523 560.572198 
L 92.208859 561.91618 
L 93.595194 562.944817 
L 94.98153 563.72868 
L 96.829977 564.488531 
L 98.678424 565.012864 
L 100.988983 565.444507 
L 104.223766 565.79103 
L 108.844884 566.016707 
L 116.700784 566.130799 
L 141.654821 566.158897 
L 287.682151 566.159063 
L 287.682151 566.159063 
" style="fill:none;stroke:#000000;stroke-linecap:square;stroke-width:2;"/>
   </g>
   <g id="line2d_56">
    <path clip-path="url(#pb45d06e1a9)" d="M 56.901958 -1 
L 57.088362 396.578061 
L 59.398921 407.41701 
L 65.868486 436.849356 
L 68.641157 450.914644 
L 71.413828 466.218973 
L 75.110722 488.052794 
L 79.269728 512.382362 
L 81.580287 524.489666 
L 83.428734 532.974062 
L 85.277182 540.229183 
L 86.663517 544.845732 
L 88.049852 548.783534 
L 89.436188 552.093588 
L 90.822523 554.841032 
L 92.208859 557.097198 
L 93.595194 558.933436 
L 94.98153 560.416926 
L 96.367865 561.608242 
L 97.7542 562.560282 
L 99.602648 563.534314 
L 101.451095 564.249123 
L 103.761654 564.878426 
L 106.534325 565.368185 
L 109.769107 565.70924 
L 114.390225 565.958589 
L 121.784014 566.104167 
L 139.344262 566.156536 
L 287.682151 566.159063 
L 287.682151 566.159063 
" style="fill:none;stroke:#000000;stroke-linecap:square;stroke-width:2;"/>
   </g>
   <g id="line2d_57">
    <path clip-path="url(#pb45d06e1a9)" d="M 56.895286 -1 
L 57.088362 421.021276 
L 59.398921 429.558778 
L 69.56538 465.46742 
L 72.800163 478.341969 
L 76.959169 495.962844 
L 82.042399 517.483206 
L 84.352958 526.450526 
L 86.663517 534.501669 
L 88.511964 540.155912 
L 90.360411 545.064449 
L 92.208859 549.233633 
L 93.595194 551.90036 
L 94.98153 554.203115 
L 96.367865 556.1748 
L 97.7542 557.850588 
L 99.602648 559.685627 
L 101.451095 561.136937 
L 103.299542 562.276089 
L 105.147989 563.164867 
L 107.458548 564.001697 
L 109.769107 564.608354 
L 112.541778 565.117982 
L 116.238672 565.548604 
L 120.85979 565.846587 
L 127.791467 566.044915 
L 140.730598 566.141689 
L 192.949231 566.159054 
L 287.682151 566.159063 
L 287.682151 566.159063 
" style="fill:none;stroke:#000000;stroke-linecap:square;stroke-width:2;"/>
   </g>
   <g id="line2d_58">
    <path clip-path="url(#pb45d06e1a9)" d="M 56.889128 -1 
L 57.088362 444.683324 
L 59.398921 451.223417 
L 62.633703 459.613691 
L 70.027492 478.595985 
L 74.186498 490.050178 
L 78.807616 503.499052 
L 85.739293 523.759758 
L 88.511964 531.22818 
L 90.822523 536.92328 
L 93.133082 542.037099 
L 94.98153 545.673051 
L 96.829977 548.895304 
L 98.678424 551.711963 
L 100.526871 554.143629 
L 102.375318 556.219812 
L 104.223766 557.975387 
L 106.072213 559.447503 
L 107.92066 560.673158 
L 110.231219 561.911906 
L 112.541778 562.882301 
L 115.314449 563.767259 
L 118.08712 564.418292 
L 121.321902 564.960663 
L 125.480908 565.419666 
L 130.564138 565.750422 
L 137.957927 565.987085 
L 149.972834 566.117052 
L 181.396436 566.158013 
L 287.682151 566.159062 
L 287.682151 566.159062 
" style="fill:none;stroke:#000000;stroke-linecap:square;stroke-width:2;"/>
   </g>
   <g id="line2d_59">
    <path clip-path="url(#pb45d06e1a9)" d="M 56.883569 -1 
L 57.088362 467.016648 
L 59.398921 471.887607 
L 62.633703 478.087186 
L 69.103269 489.794346 
L 75.110722 500.850448 
L 81.118175 512.384065 
L 89.8983 529.289563 
L 93.595194 535.891705 
L 96.367865 540.45217 
L 99.140536 544.600348 
L 101.451095 547.710057 
L 103.761654 550.491771 
L 106.072213 552.946714 
L 108.382772 555.086573 
L 110.693331 556.931056 
L 113.00389 558.50526 
L 115.314449 559.837209 
L 118.08712 561.15642 
L 120.85979 562.216773 
L 124.094573 563.185796 
L 127.329356 563.924532 
L 131.02625 564.55212 
L 135.647368 565.098629 
L 141.19271 565.517334 
L 148.586498 565.831746 
L 159.21507 566.035152 
L 178.161654 566.137212 
L 245.629977 566.159017 
L 287.682151 566.159062 
L 287.682151 566.159062 
" style="fill:none;stroke:#000000;stroke-linecap:square;stroke-width:2;"/>
   </g>
   <g id="line2d_60">
    <path clip-path="url(#pb45d06e1a9)" d="M 56.878634 -1 
L 57.088362 487.664335 
L 59.398921 491.182883 
L 62.633703 495.65221 
L 66.79271 500.975264 
L 75.110722 511.149921 
L 95.905753 536.306279 
L 100.064759 540.903748 
L 103.761654 544.6906 
L 106.996436 547.727244 
L 110.231219 550.479077 
L 113.466002 552.933667 
L 116.700784 555.090696 
L 119.935567 556.960378 
L 123.170349 558.561061 
L 126.405132 559.916539 
L 130.102026 561.199701 
L 133.798921 562.238403 
L 137.957927 563.163525 
L 142.579045 563.948029 
L 147.662275 564.582602 
L 153.669728 565.10646 
L 161.063517 565.521438 
L 170.767865 565.830206 
L 184.631219 566.031897 
L 209.585256 566.136173 
L 287.682151 566.158956 
L 287.682151 566.158956 
" style="fill:none;stroke:#000000;stroke-linecap:square;stroke-width:2;"/>
   </g>
   <g id="line2d_61">
    <g clip-path="url(#pb45d06e1a9)">
     <use style="fill-opacity:0.6;stroke:#000000;stroke-linejoin:miter;stroke-opacity:0.6;" x="241.47097" xlink:href="#md9770ce6ad" y="562.061323"/>
     <use style="fill-opacity:0.6;stroke:#000000;stroke-linejoin:miter;stroke-opacity:0.6;" x="198.560589" xlink:href="#md9770ce6ad" y="562.54341"/>
     <use style="fill-opacity:0.6;stroke:#000000;stroke-linejoin:miter;stroke-opacity:0.6;" x="221.666179" xlink:href="#md9770ce6ad" y="547.116628"/>
     <use style="fill-opacity:0.6;stroke:#000000;stroke-linejoin:miter;stroke-opacity:0.6;" x="155.650207" xlink:href="#md9770ce6ad" y="552.901671"/>
     <use style="fill-opacity:0.6;stroke:#000000;stroke-linejoin:miter;stroke-opacity:0.6;" x="155.650207" xlink:href="#md9770ce6ad" y="556.517323"/>
     <use style="fill-opacity:0.6;stroke:#000000;stroke-linejoin:miter;stroke-opacity:0.6;" x="69.829444" xlink:href="#md9770ce6ad" y="457.689497"/>
     <use style="fill-opacity:0.6;stroke:#000000;stroke-linejoin:miter;stroke-opacity:0.6;" x="59.927049" xlink:href="#md9770ce6ad" y="507.10341"/>
     <use style="fill-opacity:0.6;stroke:#000000;stroke-linejoin:miter;stroke-opacity:0.6;" x="66.528646" xlink:href="#md9770ce6ad" y="499.872106"/>
     <use style="fill-opacity:0.6;stroke:#000000;stroke-linejoin:miter;stroke-opacity:0.6;" x="63.227847" xlink:href="#md9770ce6ad" y="514.334715"/>
     <use style="fill-opacity:0.6;stroke:#000000;stroke-linejoin:miter;stroke-opacity:0.6;" x="96.235833" xlink:href="#md9770ce6ad" y="514.334715"/>
     <use style="fill-opacity:0.6;stroke:#000000;stroke-linejoin:miter;stroke-opacity:0.6;" x="99.536632" xlink:href="#md9770ce6ad" y="532.412976"/>
     <use style="fill-opacity:0.6;stroke:#000000;stroke-linejoin:miter;stroke-opacity:0.6;" x="59.927049" xlink:href="#md9770ce6ad" y="491.435584"/>
     <use style="fill-opacity:0.6;stroke:#000000;stroke-linejoin:miter;stroke-opacity:0.6;" x="56.62625" xlink:href="#md9770ce6ad" y="484.20428"/>
     <use style="fill-opacity:0.6;stroke:#000000;stroke-linejoin:miter;stroke-opacity:0.6;" x="63.227847" xlink:href="#md9770ce6ad" y="473.357323"/>
     <use style="fill-opacity:0.6;stroke:#000000;stroke-linejoin:miter;stroke-opacity:0.6;" x="83.032639" xlink:href="#md9770ce6ad" y="534.82341"/>
     <use style="fill-opacity:0.6;stroke:#000000;stroke-linejoin:miter;stroke-opacity:0.6;" x="83.032639" xlink:href="#md9770ce6ad" y="508.308628"/>
     <use style="fill-opacity:0.6;stroke:#000000;stroke-linejoin:miter;stroke-opacity:0.6;" x="63.227847" xlink:href="#md9770ce6ad" y="474.562541"/>
     <use style="fill-opacity:0.6;stroke:#000000;stroke-linejoin:miter;stroke-opacity:0.6;" x="76.431041" xlink:href="#md9770ce6ad" y="508.308628"/>
     <use style="fill-opacity:0.6;stroke:#000000;stroke-linejoin:miter;stroke-opacity:0.6;" x="89.634236" xlink:href="#md9770ce6ad" y="531.207758"/>
     <use style="fill-opacity:0.6;stroke:#000000;stroke-linejoin:miter;stroke-opacity:0.6;" x="69.829444" xlink:href="#md9770ce6ad" y="509.513845"/>
     <use style="fill-opacity:0.6;stroke:#000000;stroke-linejoin:miter;stroke-opacity:0.6;" x="96.235833" xlink:href="#md9770ce6ad" y="528.797323"/>
     <use style="fill-opacity:0.6;stroke:#000000;stroke-linejoin:miter;stroke-opacity:0.6;" x="76.431041" xlink:href="#md9770ce6ad" y="511.92428"/>
     <use style="fill-opacity:0.6;stroke:#000000;stroke-linejoin:miter;stroke-opacity:0.6;" x="89.634236" xlink:href="#md9770ce6ad" y="522.771236"/>
     <use style="fill-opacity:0.6;stroke:#000000;stroke-linejoin:miter;stroke-opacity:0.6;" x="102.83743" xlink:href="#md9770ce6ad" y="526.386889"/>
     <use style="fill-opacity:0.6;stroke:#000000;stroke-linejoin:miter;stroke-opacity:0.6;" x="56.62625" xlink:href="#md9770ce6ad" y="495.051236"/>
     <use style="fill-opacity:0.6;stroke:#000000;stroke-linejoin:miter;stroke-opacity:0.6;" x="76.431041" xlink:href="#md9770ce6ad" y="499.872106"/>
     <use style="fill-opacity:0.6;stroke:#000000;stroke-linejoin:miter;stroke-opacity:0.6;" x="73.130243" xlink:href="#md9770ce6ad" y="485.409497"/>
     <use style="fill-opacity:0.6;stroke:#000000;stroke-linejoin:miter;stroke-opacity:0.6;" x="56.62625" xlink:href="#md9770ce6ad" y="520.360802"/>
     <use style="fill-opacity:0.6;stroke:#000000;stroke-linejoin:miter;stroke-opacity:0.6;" x="59.927049" xlink:href="#md9770ce6ad" y="510.116454"/>
     <use style="fill-opacity:0.6;stroke:#000000;stroke-linejoin:miter;stroke-opacity:0.6;" x="76.431041" xlink:href="#md9770ce6ad" y="508.308628"/>
     <use style="fill-opacity:0.6;stroke:#000000;stroke-linejoin:miter;stroke-opacity:0.6;" x="73.130243" xlink:href="#md9770ce6ad" y="505.898193"/>
     <use style="fill-opacity:0.6;stroke:#000000;stroke-linejoin:miter;stroke-opacity:0.6;" x="76.431041" xlink:href="#md9770ce6ad" y="467.331236"/>
     <use style="fill-opacity:0.6;stroke:#000000;stroke-linejoin:miter;stroke-opacity:0.6;" x="79.73184" xlink:href="#md9770ce6ad" y="478.178193"/>
    </g>
   </g>
   <g id="patch_15">
    <path d="M 56.62625 566.159062 
L 56.62625 325.115584 
" style="fill:none;stroke:#000000;stroke-linecap:square;stroke-linejoin:miter;stroke-width:0.8;"/>
   </g>
   <g id="patch_16">
    <path d="M 299.234946 566.159062 
L 299.234946 325.115584 
" style="fill:none;stroke:#000000;stroke-linecap:square;stroke-linejoin:miter;stroke-width:0.8;"/>
   </g>
   <g id="patch_17">
    <path d="M 56.62625 566.159062 
L 299.234946 566.159062 
" style="fill:none;stroke:#000000;stroke-linecap:square;stroke-linejoin:miter;stroke-width:0.8;"/>
   </g>
   <g id="patch_18">
    <path d="M 56.62625 325.115584 
L 299.234946 325.115584 
" style="fill:none;stroke:#000000;stroke-linecap:square;stroke-linejoin:miter;stroke-width:0.8;"/>
   </g>
   <g id="legend_3">
    <g id="patch_19">
     <path d="M 250.581238 344.006462 
L 293.403946 344.006462 
Q 295.069946 344.006462 295.069946 342.340462 
L 295.069946 330.946584 
Q 295.069946 329.280584 293.403946 329.280584 
L 250.581238 329.280584 
Q 248.915238 329.280584 248.915238 330.946584 
L 248.915238 342.340462 
Q 248.915238 344.006462 250.581238 344.006462 
z
" style="fill:#ffffff;opacity:0.8;stroke:#cccccc;stroke-linejoin:miter;"/>
    </g>
    <g id="line2d_62"/>
    <g id="line2d_63">
     <g>
      <use style="fill-opacity:0.6;stroke:#000000;stroke-linejoin:miter;stroke-opacity:0.6;" x="260.577238" xlink:href="#md9770ce6ad" y="336.026583"/>
     </g>
    </g>
    <g id="text_45">
     <!-- GLY -->
     <defs>
      <path d="M 9.8125 72.90625 
L 19.671875 72.90625 
L 19.671875 8.296875 
L 55.171875 8.296875 
L 55.171875 0 
L 9.8125 0 
z
" id="DejaVuSans-76"/>
      <path d="M -0.203125 72.90625 
L 10.40625 72.90625 
L 30.609375 42.921875 
L 50.6875 72.90625 
L 61.28125 72.90625 
L 35.5 34.71875 
L 35.5 0 
L 25.59375 0 
L 25.59375 34.71875 
z
" id="DejaVuSans-89"/>
     </defs>
     <g transform="translate(275.571238 338.942083)scale(0.0833 -0.0833)">
      <use xlink:href="#DejaVuSans-71"/>
      <use x="77.490234" xlink:href="#DejaVuSans-76"/>
      <use x="133" xlink:href="#DejaVuSans-89"/>
     </g>
    </g>
   </g>
  </g>
  <g id="axes_4">
   <g id="patch_20">
    <path d="M 372.017554 566.159062 
L 614.62625 566.159062 
L 614.62625 325.115584 
L 372.017554 325.115584 
z
" style="fill:#ffffff;"/>
   </g>
   <g id="matplotlib.axis_7">
    <g id="xtick_13">
     <g id="line2d_64">
      <g>
       <use style="stroke:#000000;stroke-width:0.8;" x="405.02554" xlink:href="#m6770e32354" y="566.159062"/>
      </g>
     </g>
     <g id="text_46">
      <!-- 20 -->
      <g transform="translate(397.39054 582.277187)scale(0.12 -0.12)">
       <use xlink:href="#DejaVuSans-50"/>
       <use x="63.623047" xlink:href="#DejaVuSans-48"/>
      </g>
     </g>
    </g>
    <g id="xtick_14">
     <g id="line2d_65">
      <g>
       <use style="stroke:#000000;stroke-width:0.8;" x="471.041512" xlink:href="#m6770e32354" y="566.159062"/>
      </g>
     </g>
     <g id="text_47">
      <!-- 40 -->
      <g transform="translate(463.406512 582.277187)scale(0.12 -0.12)">
       <use xlink:href="#DejaVuSans-52"/>
       <use x="63.623047" xlink:href="#DejaVuSans-48"/>
      </g>
     </g>
    </g>
    <g id="xtick_15">
     <g id="line2d_66">
      <g>
       <use style="stroke:#000000;stroke-width:0.8;" x="537.057483" xlink:href="#m6770e32354" y="566.159062"/>
      </g>
     </g>
     <g id="text_48">
      <!-- 60 -->
      <g transform="translate(529.422483 582.277187)scale(0.12 -0.12)">
       <use xlink:href="#DejaVuSans-54"/>
       <use x="63.623047" xlink:href="#DejaVuSans-48"/>
      </g>
     </g>
    </g>
    <g id="xtick_16">
     <g id="line2d_67">
      <g>
       <use style="stroke:#000000;stroke-width:0.8;" x="603.073455" xlink:href="#m6770e32354" y="566.159062"/>
      </g>
     </g>
     <g id="text_49">
      <!-- 80 -->
      <g transform="translate(595.438455 582.277187)scale(0.12 -0.12)">
       <use xlink:href="#DejaVuSans-56"/>
       <use x="63.623047" xlink:href="#DejaVuSans-48"/>
      </g>
     </g>
    </g>
    <g id="text_50">
     <!-- time [hr] -->
     <g transform="translate(463.272215 597.890937)scale(0.12 -0.12)">
      <use xlink:href="#DejaVuSans-Bold-116"/>
      <use x="47.802734" xlink:href="#DejaVuSans-Bold-105"/>
      <use x="82.080078" xlink:href="#DejaVuSans-Bold-109"/>
      <use x="186.279297" xlink:href="#DejaVuSans-Bold-101"/>
      <use x="254.101562" xlink:href="#DejaVuSans-Bold-32"/>
      <use x="288.916016" xlink:href="#DejaVuSans-Bold-91"/>
      <use x="334.619141" xlink:href="#DejaVuSans-Bold-104"/>
      <use x="405.810547" xlink:href="#DejaVuSans-Bold-114"/>
      <use x="455.126953" xlink:href="#DejaVuSans-Bold-93"/>
     </g>
    </g>
   </g>
   <g id="matplotlib.axis_8">
    <g id="ytick_25">
     <g id="line2d_68">
      <g>
       <use style="stroke:#000000;stroke-width:0.8;" x="372.017554" xlink:href="#m93fca65212" y="566.159062"/>
      </g>
     </g>
     <g id="text_51">
      <!-- 0 -->
      <g transform="translate(357.382554 570.718125)scale(0.12 -0.12)">
       <use xlink:href="#DejaVuSans-48"/>
      </g>
     </g>
    </g>
    <g id="ytick_26">
     <g id="line2d_69">
      <g>
       <use style="stroke:#000000;stroke-width:0.8;" x="372.017554" xlink:href="#m93fca65212" y="517.950367"/>
      </g>
     </g>
     <g id="text_52">
      <!-- 20 -->
      <g transform="translate(349.747554 522.509429)scale(0.12 -0.12)">
       <use xlink:href="#DejaVuSans-50"/>
       <use x="63.623047" xlink:href="#DejaVuSans-48"/>
      </g>
     </g>
    </g>
    <g id="ytick_27">
     <g id="line2d_70">
      <g>
       <use style="stroke:#000000;stroke-width:0.8;" x="372.017554" xlink:href="#m93fca65212" y="469.741671"/>
      </g>
     </g>
     <g id="text_53">
      <!-- 40 -->
      <g transform="translate(349.747554 474.300734)scale(0.12 -0.12)">
       <use xlink:href="#DejaVuSans-52"/>
       <use x="63.623047" xlink:href="#DejaVuSans-48"/>
      </g>
     </g>
    </g>
    <g id="ytick_28">
     <g id="line2d_71">
      <g>
       <use style="stroke:#000000;stroke-width:0.8;" x="372.017554" xlink:href="#m93fca65212" y="421.532976"/>
      </g>
     </g>
     <g id="text_54">
      <!-- 60 -->
      <g transform="translate(349.747554 426.092038)scale(0.12 -0.12)">
       <use xlink:href="#DejaVuSans-54"/>
       <use x="63.623047" xlink:href="#DejaVuSans-48"/>
      </g>
     </g>
    </g>
    <g id="ytick_29">
     <g id="line2d_72">
      <g>
       <use style="stroke:#000000;stroke-width:0.8;" x="372.017554" xlink:href="#m93fca65212" y="373.32428"/>
      </g>
     </g>
     <g id="text_55">
      <!-- 80 -->
      <g transform="translate(349.747554 377.883342)scale(0.12 -0.12)">
       <use xlink:href="#DejaVuSans-56"/>
       <use x="63.623047" xlink:href="#DejaVuSans-48"/>
      </g>
     </g>
    </g>
    <g id="ytick_30">
     <g id="line2d_73">
      <g>
       <use style="stroke:#000000;stroke-width:0.8;" x="372.017554" xlink:href="#m93fca65212" y="325.115584"/>
      </g>
     </g>
     <g id="text_56">
      <!-- 100 -->
      <g transform="translate(342.112554 329.674647)scale(0.12 -0.12)">
       <use xlink:href="#DejaVuSans-49"/>
       <use x="63.623047" xlink:href="#DejaVuSans-48"/>
       <use x="127.246094" xlink:href="#DejaVuSans-48"/>
      </g>
     </g>
    </g>
    <g id="text_57">
     <!-- GNG/HGP [percent] -->
     <defs>
      <path d="M 25.875 7.90625 
L 25.875 -20.796875 
L 8.40625 -20.796875 
L 8.40625 54.6875 
L 25.875 54.6875 
L 25.875 46.6875 
Q 29.5 51.46875 33.890625 53.734375 
Q 38.28125 56 44 56 
Q 54.109375 56 60.59375 47.96875 
Q 67.09375 39.9375 67.09375 27.296875 
Q 67.09375 14.65625 60.59375 6.609375 
Q 54.109375 -1.421875 44 -1.421875 
Q 38.28125 -1.421875 33.890625 0.84375 
Q 29.5 3.125 25.875 7.90625 
z
M 37.5 43.3125 
Q 31.890625 43.3125 28.875 39.1875 
Q 25.875 35.0625 25.875 27.296875 
Q 25.875 19.53125 28.875 15.40625 
Q 31.890625 11.28125 37.5 11.28125 
Q 43.109375 11.28125 46.0625 15.375 
Q 49.03125 19.484375 49.03125 27.296875 
Q 49.03125 35.109375 46.0625 39.203125 
Q 43.109375 43.3125 37.5 43.3125 
z
" id="DejaVuSans-Bold-112"/>
      <path d="M 52.59375 52.984375 
L 52.59375 38.71875 
Q 49.03125 41.15625 45.4375 42.328125 
Q 41.84375 43.5 37.984375 43.5 
Q 30.671875 43.5 26.59375 39.234375 
Q 22.515625 34.96875 22.515625 27.296875 
Q 22.515625 19.625 26.59375 15.34375 
Q 30.671875 11.078125 37.984375 11.078125 
Q 42.09375 11.078125 45.78125 12.296875 
Q 49.46875 13.53125 52.59375 15.921875 
L 52.59375 1.609375 
Q 48.484375 0.09375 44.265625 -0.65625 
Q 40.046875 -1.421875 35.796875 -1.421875 
Q 21 -1.421875 12.640625 6.171875 
Q 4.296875 13.765625 4.296875 27.296875 
Q 4.296875 40.828125 12.640625 48.40625 
Q 21 56 35.796875 56 
Q 40.09375 56 44.265625 55.25 
Q 48.4375 54.5 52.59375 52.984375 
z
" id="DejaVuSans-Bold-99"/>
     </defs>
     <g transform="translate(335.616929 510.705448)rotate(-90)scale(0.12 -0.12)">
      <use xlink:href="#DejaVuSans-Bold-71"/>
      <use x="82.080078" xlink:href="#DejaVuSans-Bold-78"/>
      <use x="165.771484" xlink:href="#DejaVuSans-Bold-71"/>
      <use x="247.851562" xlink:href="#DejaVuSans-Bold-47"/>
      <use x="284.375" xlink:href="#DejaVuSans-Bold-72"/>
      <use x="368.066406" xlink:href="#DejaVuSans-Bold-71"/>
      <use x="450.146484" xlink:href="#DejaVuSans-Bold-80"/>
      <use x="523.4375" xlink:href="#DejaVuSans-Bold-32"/>
      <use x="558.251953" xlink:href="#DejaVuSans-Bold-91"/>
      <use x="603.955078" xlink:href="#DejaVuSans-Bold-112"/>
      <use x="675.537109" xlink:href="#DejaVuSans-Bold-101"/>
      <use x="743.359375" xlink:href="#DejaVuSans-Bold-114"/>
      <use x="792.675781" xlink:href="#DejaVuSans-Bold-99"/>
      <use x="851.953125" xlink:href="#DejaVuSans-Bold-101"/>
      <use x="919.775391" xlink:href="#DejaVuSans-Bold-110"/>
      <use x="990.966797" xlink:href="#DejaVuSans-Bold-116"/>
      <use x="1038.769531" xlink:href="#DejaVuSans-Bold-93"/>
     </g>
    </g>
   </g>
   <g id="line2d_74">
    <path clip-path="url(#ped59cb792a)" d="M 372.367644 608.586562 
L 372.479666 471.172036 
L 377.100784 462.634036 
L 378.949231 458.702242 
L 380.797679 454.180468 
L 382.184014 450.283842 
L 383.570349 445.858339 
L 384.956685 440.818178 
L 386.34302 435.085765 
L 387.729356 428.604208 
L 389.577803 418.772291 
L 391.42625 407.706493 
L 394.661033 386.625433 
L 397.433703 369.121367 
L 399.282151 358.925777 
L 400.668486 352.350616 
L 402.054821 346.755814 
L 403.441157 342.112484 
L 404.827492 338.338666 
L 406.213828 335.323716 
L 407.600163 332.948024 
L 408.986498 331.09637 
L 410.372834 329.665424 
L 411.759169 328.566885 
L 413.145505 327.727812 
L 414.993952 326.91284 
L 416.842399 326.349552 
L 419.152958 325.885277 
L 421.925629 325.551642 
L 426.084635 325.301153 
L 432.5542 325.164612 
L 448.728113 325.117339 
L 603.073455 325.115584 
L 603.073455 325.115584 
" style="fill:none;stroke:#000000;stroke-linecap:square;stroke-width:2;"/>
   </g>
   <g id="line2d_75">
    <path clip-path="url(#ped59cb792a)" d="M 372.378986 608.586562 
L 372.479666 466.446331 
L 378.48712 456.005585 
L 380.335567 452.284634 
L 382.184014 448.093122 
L 384.032461 443.305656 
L 385.880908 437.798678 
L 387.729356 431.460532 
L 389.577803 424.211419 
L 391.42625 416.033089 
L 393.736809 404.633577 
L 397.433703 384.814483 
L 400.206374 370.287773 
L 402.054821 361.528251 
L 403.903269 353.843512 
L 405.289604 348.86683 
L 406.675939 344.571549 
L 408.062275 340.926744 
L 409.44861 337.878547 
L 410.834946 335.360343 
L 412.221281 333.301051 
L 413.607616 331.631066 
L 414.993952 330.285975 
L 416.380287 329.208508 
L 418.228734 328.103842 
L 420.077182 327.291687 
L 422.387741 326.575658 
L 424.6983 326.093263 
L 427.933082 325.672005 
L 432.092089 325.384573 
L 438.561654 325.202225 
L 451.500784 325.124551 
L 530.984014 325.115584 
L 603.073455 325.115584 
L 603.073455 325.115584 
" style="fill:none;stroke:#000000;stroke-linecap:square;stroke-width:2;"/>
   </g>
   <g id="line2d_76">
    <path clip-path="url(#ped59cb792a)" d="M 372.390978 608.586562 
L 372.479666 460.523987 
L 380.797679 447.016797 
L 383.108238 442.532831 
L 384.956685 438.513549 
L 386.805132 434.034199 
L 388.653579 429.03214 
L 390.502026 423.458683 
L 392.812585 415.653837 
L 395.123144 406.95456 
L 397.895815 395.566641 
L 404.827492 366.440115 
L 407.138051 357.989699 
L 408.986498 352.050232 
L 410.834946 346.904741 
L 412.683393 342.549416 
L 414.069728 339.773517 
L 415.456064 337.38388 
L 416.842399 335.343868 
L 418.228734 333.61477 
L 419.61507 332.158118 
L 421.463517 330.576844 
L 423.311964 329.33654 
L 425.160411 328.369426 
L 427.47097 327.459341 
L 429.78153 326.7999 
L 432.5542 326.246149 
L 435.788983 325.824237 
L 439.947989 325.503508 
L 445.955443 325.277704 
L 456.121902 325.152534 
L 484.310722 325.116195 
L 603.073455 325.115584 
L 603.073455 325.115584 
" style="fill:none;stroke:#000000;stroke-linecap:square;stroke-width:2;"/>
   </g>
   <g id="line2d_77">
    <path clip-path="url(#ped59cb792a)" d="M 372.403944 608.586562 
L 372.479666 453.150286 
L 376.176561 447.856368 
L 380.335567 441.829995 
L 383.108238 437.440402 
L 385.418797 433.424071 
L 387.729356 429.000766 
L 390.039915 424.105211 
L 392.350474 418.687543 
L 394.661033 412.721874 
L 397.433703 404.855699 
L 400.668486 394.847377 
L 410.834946 362.399234 
L 413.145505 356.053181 
L 415.456064 350.417928 
L 417.304511 346.457749 
L 419.152958 342.985672 
L 421.001405 339.98239 
L 422.849852 337.415139 
L 424.6983 335.242893 
L 426.546747 333.420794 
L 428.395194 331.903583 
L 430.243641 330.647982 
L 432.5542 329.386109 
L 434.864759 328.402681 
L 437.63743 327.509778 
L 440.410101 326.855322 
L 443.644884 326.311676 
L 447.80389 325.85272 
L 452.88712 325.522642 
L 460.280908 325.286795 
L 472.295815 325.157394 
L 503.719418 325.116628 
L 603.073455 325.115584 
L 603.073455 325.115584 
" style="fill:none;stroke:#000000;stroke-linecap:square;stroke-width:2;"/>
   </g>
   <g id="line2d_78">
    <path clip-path="url(#ped59cb792a)" d="M 372.418376 608.586562 
L 372.479666 444.049917 
L 376.176561 439.241928 
L 383.108238 430.307327 
L 386.34302 425.753184 
L 389.577803 420.784387 
L 392.350474 416.129418 
L 395.123144 411.06991 
L 397.895815 405.591538 
L 401.130598 398.691517 
L 404.827492 390.242905 
L 417.304511 361.070881 
L 420.077182 355.405781 
L 422.387741 351.112628 
L 424.6983 347.243437 
L 427.008859 343.80918 
L 429.319418 340.802755 
L 431.629977 338.202952 
L 433.940536 335.97879 
L 436.251095 334.093571 
L 438.561654 332.508266 
L 440.872213 331.184083 
L 443.644884 329.888151 
L 446.417554 328.857798 
L 449.652337 327.925009 
L 452.88712 327.219561 
L 457.046126 326.562463 
L 461.667244 326.067683 
L 467.674697 325.666789 
L 475.530598 325.384627 
L 487.545505 325.205182 
L 511.113207 325.125921 
L 603.073455 325.115586 
L 603.073455 325.115586 
" style="fill:none;stroke:#000000;stroke-linecap:square;stroke-width:2;"/>
   </g>
   <g id="line2d_79">
    <path clip-path="url(#ped59cb792a)" d="M 372.435001 608.586562 
L 372.479666 432.923202 
L 375.714449 429.135436 
L 390.502026 412.300686 
L 394.661033 406.984703 
L 398.357927 401.916242 
L 402.516933 395.816879 
L 407.138051 388.591832 
L 413.145505 378.715946 
L 421.463517 365.025516 
L 425.622523 358.621695 
L 428.857306 354.005076 
L 432.092089 349.775266 
L 434.864759 346.486907 
L 437.63743 343.521223 
L 440.410101 340.877228 
L 443.182772 338.544561 
L 445.955443 336.505742 
L 448.728113 334.738451 
L 451.500784 333.217592 
L 454.735567 331.719829 
L 457.970349 330.48095 
L 461.667244 329.3328 
L 465.364138 328.420761 
L 469.523144 327.621415 
L 474.144262 326.953055 
L 479.689604 326.378551 
L 486.621281 325.903789 
L 495.401405 325.548167 
L 507.416312 325.305386 
L 526.825008 325.165603 
L 573.4983 325.117602 
L 603.073455 325.115848 
L 603.073455 325.115848 
" style="fill:none;stroke:#000000;stroke-linecap:square;stroke-width:2;"/>
   </g>
   <g id="line2d_80">
    <g clip-path="url(#ped59cb792a)">
     <use style="fill-opacity:0.6;stroke:#000000;stroke-linejoin:miter;stroke-opacity:0.6;" x="556.862275" xlink:href="#md9770ce6ad" y="332.346889"/>
     <use style="fill-opacity:0.6;stroke:#000000;stroke-linejoin:miter;stroke-opacity:0.6;" x="513.951893" xlink:href="#md9770ce6ad" y="334.757323"/>
     <use style="fill-opacity:0.6;stroke:#000000;stroke-linejoin:miter;stroke-opacity:0.6;" x="537.057483" xlink:href="#md9770ce6ad" y="329.936454"/>
     <use style="fill-opacity:0.6;stroke:#000000;stroke-linejoin:miter;stroke-opacity:0.6;" x="471.041512" xlink:href="#md9770ce6ad" y="344.399062"/>
     <use style="fill-opacity:0.6;stroke:#000000;stroke-linejoin:miter;stroke-opacity:0.6;" x="477.643109" xlink:href="#md9770ce6ad" y="341.988628"/>
     <use style="fill-opacity:0.6;stroke:#000000;stroke-linejoin:miter;stroke-opacity:0.6;" x="471.041512" xlink:href="#md9770ce6ad" y="349.219932"/>
     <use style="fill-opacity:0.6;stroke:#000000;stroke-linejoin:miter;stroke-opacity:0.6;" x="385.220749" xlink:href="#md9770ce6ad" y="498.666889"/>
     <use style="fill-opacity:0.6;stroke:#000000;stroke-linejoin:miter;stroke-opacity:0.6;" x="375.318353" xlink:href="#md9770ce6ad" y="491.435584"/>
     <use style="fill-opacity:0.6;stroke:#000000;stroke-linejoin:miter;stroke-opacity:0.6;" x="381.91995" xlink:href="#md9770ce6ad" y="491.435584"/>
     <use style="fill-opacity:0.6;stroke:#000000;stroke-linejoin:miter;stroke-opacity:0.6;" x="378.619152" xlink:href="#md9770ce6ad" y="443.226889"/>
     <use style="fill-opacity:0.6;stroke:#000000;stroke-linejoin:miter;stroke-opacity:0.6;" x="411.627137" xlink:href="#md9770ce6ad" y="411.891236"/>
     <use style="fill-opacity:0.6;stroke:#000000;stroke-linejoin:miter;stroke-opacity:0.6;" x="414.927936" xlink:href="#md9770ce6ad" y="397.428628"/>
     <use style="fill-opacity:0.6;stroke:#000000;stroke-linejoin:miter;stroke-opacity:0.6;" x="375.318353" xlink:href="#md9770ce6ad" y="448.047758"/>
     <use style="fill-opacity:0.6;stroke:#000000;stroke-linejoin:miter;stroke-opacity:0.6;" x="372.017554" xlink:href="#md9770ce6ad" y="467.331236"/>
     <use style="fill-opacity:0.6;stroke:#000000;stroke-linejoin:miter;stroke-opacity:0.6;" x="378.619152" xlink:href="#md9770ce6ad" y="467.331236"/>
     <use style="fill-opacity:0.6;stroke:#000000;stroke-linejoin:miter;stroke-opacity:0.6;" x="398.423943" xlink:href="#md9770ce6ad" y="423.94341"/>
     <use style="fill-opacity:0.6;stroke:#000000;stroke-linejoin:miter;stroke-opacity:0.6;" x="398.423943" xlink:href="#md9770ce6ad" y="460.099932"/>
     <use style="fill-opacity:0.6;stroke:#000000;stroke-linejoin:miter;stroke-opacity:0.6;" x="378.619152" xlink:href="#md9770ce6ad" y="467.331236"/>
     <use style="fill-opacity:0.6;stroke:#000000;stroke-linejoin:miter;stroke-opacity:0.6;" x="391.822346" xlink:href="#md9770ce6ad" y="428.76428"/>
     <use style="fill-opacity:0.6;stroke:#000000;stroke-linejoin:miter;stroke-opacity:0.6;" x="405.02554" xlink:href="#md9770ce6ad" y="395.018193"/>
     <use style="fill-opacity:0.6;stroke:#000000;stroke-linejoin:miter;stroke-opacity:0.6;" x="385.220749" xlink:href="#md9770ce6ad" y="435.995584"/>
     <use style="fill-opacity:0.6;stroke:#000000;stroke-linejoin:miter;stroke-opacity:0.6;" x="411.627137" xlink:href="#md9770ce6ad" y="411.891236"/>
     <use style="fill-opacity:0.6;stroke:#000000;stroke-linejoin:miter;stroke-opacity:0.6;" x="391.822346" xlink:href="#md9770ce6ad" y="433.585149"/>
     <use style="fill-opacity:0.6;stroke:#000000;stroke-linejoin:miter;stroke-opacity:0.6;" x="405.02554" xlink:href="#md9770ce6ad" y="421.532976"/>
     <use style="fill-opacity:0.6;stroke:#000000;stroke-linejoin:miter;stroke-opacity:0.6;" x="418.228734" xlink:href="#md9770ce6ad" y="419.122541"/>
     <use style="fill-opacity:0.6;stroke:#000000;stroke-linejoin:miter;stroke-opacity:0.6;" x="372.017554" xlink:href="#md9770ce6ad" y="450.458193"/>
     <use style="fill-opacity:0.6;stroke:#000000;stroke-linejoin:miter;stroke-opacity:0.6;" x="391.822346" xlink:href="#md9770ce6ad" y="433.585149"/>
     <use style="fill-opacity:0.6;stroke:#000000;stroke-linejoin:miter;stroke-opacity:0.6;" x="388.521547" xlink:href="#md9770ce6ad" y="457.689497"/>
     <use style="fill-opacity:0.6;stroke:#000000;stroke-linejoin:miter;stroke-opacity:0.6;" x="372.017554" xlink:href="#md9770ce6ad" y="421.532976"/>
     <use style="fill-opacity:0.6;stroke:#000000;stroke-linejoin:miter;stroke-opacity:0.6;" x="375.318353" xlink:href="#md9770ce6ad" y="433.585149"/>
     <use style="fill-opacity:0.6;stroke:#000000;stroke-linejoin:miter;stroke-opacity:0.6;" x="391.822346" xlink:href="#md9770ce6ad" y="443.226889"/>
     <use style="fill-opacity:0.6;stroke:#000000;stroke-linejoin:miter;stroke-opacity:0.6;" x="388.521547" xlink:href="#md9770ce6ad" y="395.018193"/>
     <use style="fill-opacity:0.6;stroke:#000000;stroke-linejoin:miter;stroke-opacity:0.6;" x="391.822346" xlink:href="#md9770ce6ad" y="443.226889"/>
     <use style="fill-opacity:0.6;stroke:#000000;stroke-linejoin:miter;stroke-opacity:0.6;" x="395.123144" xlink:href="#md9770ce6ad" y="474.562541"/>
    </g>
   </g>
   <g id="patch_21">
    <path d="M 372.017554 566.159062 
L 372.017554 325.115584 
" style="fill:none;stroke:#000000;stroke-linecap:square;stroke-linejoin:miter;stroke-width:0.8;"/>
   </g>
   <g id="patch_22">
    <path d="M 614.62625 566.159062 
L 614.62625 325.115584 
" style="fill:none;stroke:#000000;stroke-linecap:square;stroke-linejoin:miter;stroke-width:0.8;"/>
   </g>
   <g id="patch_23">
    <path d="M 372.017554 566.159062 
L 614.62625 566.159062 
" style="fill:none;stroke:#000000;stroke-linecap:square;stroke-linejoin:miter;stroke-width:0.8;"/>
   </g>
   <g id="patch_24">
    <path d="M 372.017554 325.115584 
L 614.62625 325.115584 
" style="fill:none;stroke:#000000;stroke-linecap:square;stroke-linejoin:miter;stroke-width:0.8;"/>
   </g>
   <g id="legend_4">
    <g id="patch_25">
     <path d="M 377.848554 561.994062 
L 444.1931 561.994062 
Q 445.8591 561.994062 445.8591 560.328062 
L 445.8591 548.934184 
Q 445.8591 547.268184 444.1931 547.268184 
L 377.848554 547.268184 
Q 376.182554 547.268184 376.182554 548.934184 
L 376.182554 560.328062 
Q 376.182554 561.994062 377.848554 561.994062 
z
" style="fill:#ffffff;opacity:0.8;stroke:#cccccc;stroke-linejoin:miter;"/>
    </g>
    <g id="line2d_81"/>
    <g id="line2d_82">
     <g>
      <use style="fill-opacity:0.6;stroke:#000000;stroke-linejoin:miter;stroke-opacity:0.6;" x="387.844554" xlink:href="#md9770ce6ad" y="554.014183"/>
     </g>
    </g>
    <g id="text_58">
     <!-- GNG/HGP -->
     <defs>
      <path d="M 25.390625 72.90625 
L 33.6875 72.90625 
L 8.296875 -9.28125 
L 0 -9.28125 
z
" id="DejaVuSans-47"/>
     </defs>
     <g transform="translate(402.838554 556.929683)scale(0.0833 -0.0833)">
      <use xlink:href="#DejaVuSans-71"/>
      <use x="77.490234" xlink:href="#DejaVuSans-78"/>
      <use x="152.294922" xlink:href="#DejaVuSans-71"/>
      <use x="229.785156" xlink:href="#DejaVuSans-47"/>
      <use x="263.476562" xlink:href="#DejaVuSans-72"/>
      <use x="338.671875" xlink:href="#DejaVuSans-71"/>
      <use x="416.162109" xlink:href="#DejaVuSans-80"/>
     </g>
    </g>
   </g>
  </g>
 </g>
 <defs>
  <clipPath id="pd49bcb806e">
   <rect height="241.043478" width="242.608696" x="56.62625" y="11.759062"/>
  </clipPath>
  <clipPath id="pcc76ae8298">
   <rect height="241.043478" width="242.608696" x="372.017554" y="11.759062"/>
  </clipPath>
  <clipPath id="pb45d06e1a9">
   <rect height="241.043478" width="242.608696" x="56.62625" y="325.115584"/>
  </clipPath>
  <clipPath id="ped59cb792a">
   <rect height="241.043478" width="242.608696" x="372.017554" y="325.115584"/>
  </clipPath>
 </defs>
</svg>
