<?xml version="1.0" encoding="utf-8" standalone="no"?>
<!DOCTYPE svg PUBLIC "-//W3C//DTD SVG 1.1//EN"
  "http://www.w3.org/Graphics/SVG/1.1/DTD/svg11.dtd">
<!-- Created with matplotlib (https://matplotlib.org/) -->
<svg height="607.586562pt" version="1.1" viewBox="0 0 621.82625 607.586562" width="621.82625pt" xmlns="http://www.w3.org/2000/svg" xmlns:xlink="http://www.w3.org/1999/xlink">
 <defs>
  <style type="text/css">
*{stroke-linecap:butt;stroke-linejoin:round;}
  </style>
 </defs>
 <g id="figure_1">
  <g id="patch_1">
   <path d="M 0 607.586562 
L 621.82625 607.586562 
L 621.82625 0 
L 0 0 
z
" style="fill:#ffffff;"/>
  </g>
  <g id="axes_1">
   <g id="patch_2">
    <path d="M 56.62625 252.802541 
L 299.234946 252.802541 
L 299.234946 11.759062 
L 56.62625 11.759062 
z
" style="fill:#ffffff;"/>
   </g>
   <g id="matplotlib.axis_1">
    <g id="xtick_1">
     <g id="line2d_1">
      <defs>
       <path d="M 0 0 
L 0 3.5 
" id="m4ccad5e641" style="stroke:#000000;stroke-width:0.8;"/>
      </defs>
      <g>
       <use style="stroke:#000000;stroke-width:0.8;" x="89.634236" xlink:href="#m4ccad5e641" y="252.802541"/>
      </g>
     </g>
     <g id="text_1">
      <!-- 20 -->
      <defs>
       <path d="M 19.1875 8.296875 
L 53.609375 8.296875 
L 53.609375 0 
L 7.328125 0 
L 7.328125 8.296875 
Q 12.9375 14.109375 22.625 23.890625 
Q 32.328125 33.6875 34.8125 36.53125 
Q 39.546875 41.84375 41.421875 45.53125 
Q 43.3125 49.21875 43.3125 52.78125 
Q 43.3125 58.59375 39.234375 62.25 
Q 35.15625 65.921875 28.609375 65.921875 
Q 23.96875 65.921875 18.8125 64.3125 
Q 13.671875 62.703125 7.8125 59.421875 
L 7.8125 69.390625 
Q 13.765625 71.78125 18.9375 73 
Q 24.125 74.21875 28.421875 74.21875 
Q 39.75 74.21875 46.484375 68.546875 
Q 53.21875 62.890625 53.21875 53.421875 
Q 53.21875 48.921875 51.53125 44.890625 
Q 49.859375 40.875 45.40625 35.40625 
Q 44.1875 33.984375 37.640625 27.21875 
Q 31.109375 20.453125 19.1875 8.296875 
z
" id="DejaVuSans-50"/>
       <path d="M 31.78125 66.40625 
Q 24.171875 66.40625 20.328125 58.90625 
Q 16.5 51.421875 16.5 36.375 
Q 16.5 21.390625 20.328125 13.890625 
Q 24.171875 6.390625 31.78125 6.390625 
Q 39.453125 6.390625 43.28125 13.890625 
Q 47.125 21.390625 47.125 36.375 
Q 47.125 51.421875 43.28125 58.90625 
Q 39.453125 66.40625 31.78125 66.40625 
z
M 31.78125 74.21875 
Q 44.046875 74.21875 50.515625 64.515625 
Q 56.984375 54.828125 56.984375 36.375 
Q 56.984375 17.96875 50.515625 8.265625 
Q 44.046875 -1.421875 31.78125 -1.421875 
Q 19.53125 -1.421875 13.0625 8.265625 
Q 6.59375 17.96875 6.59375 36.375 
Q 6.59375 54.828125 13.0625 64.515625 
Q 19.53125 74.21875 31.78125 74.21875 
z
" id="DejaVuSans-48"/>
      </defs>
      <g transform="translate(81.999236 268.920666)scale(0.12 -0.12)">
       <use xlink:href="#DejaVuSans-50"/>
       <use x="63.623047" xlink:href="#DejaVuSans-48"/>
      </g>
     </g>
    </g>
    <g id="xtick_2">
     <g id="line2d_2">
      <g>
       <use style="stroke:#000000;stroke-width:0.8;" x="155.650207" xlink:href="#m4ccad5e641" y="252.802541"/>
      </g>
     </g>
     <g id="text_2">
      <!-- 40 -->
      <defs>
       <path d="M 37.796875 64.3125 
L 12.890625 25.390625 
L 37.796875 25.390625 
z
M 35.203125 72.90625 
L 47.609375 72.90625 
L 47.609375 25.390625 
L 58.015625 25.390625 
L 58.015625 17.1875 
L 47.609375 17.1875 
L 47.609375 0 
L 37.796875 0 
L 37.796875 17.1875 
L 4.890625 17.1875 
L 4.890625 26.703125 
z
" id="DejaVuSans-52"/>
      </defs>
      <g transform="translate(148.015207 268.920666)scale(0.12 -0.12)">
       <use xlink:href="#DejaVuSans-52"/>
       <use x="63.623047" xlink:href="#DejaVuSans-48"/>
      </g>
     </g>
    </g>
    <g id="xtick_3">
     <g id="line2d_3">
      <g>
       <use style="stroke:#000000;stroke-width:0.8;" x="221.666179" xlink:href="#m4ccad5e641" y="252.802541"/>
      </g>
     </g>
     <g id="text_3">
      <!-- 60 -->
      <defs>
       <path d="M 33.015625 40.375 
Q 26.375 40.375 22.484375 35.828125 
Q 18.609375 31.296875 18.609375 23.390625 
Q 18.609375 15.53125 22.484375 10.953125 
Q 26.375 6.390625 33.015625 6.390625 
Q 39.65625 6.390625 43.53125 10.953125 
Q 47.40625 15.53125 47.40625 23.390625 
Q 47.40625 31.296875 43.53125 35.828125 
Q 39.65625 40.375 33.015625 40.375 
z
M 52.59375 71.296875 
L 52.59375 62.3125 
Q 48.875 64.0625 45.09375 64.984375 
Q 41.3125 65.921875 37.59375 65.921875 
Q 27.828125 65.921875 22.671875 59.328125 
Q 17.53125 52.734375 16.796875 39.40625 
Q 19.671875 43.65625 24.015625 45.921875 
Q 28.375 48.1875 33.59375 48.1875 
Q 44.578125 48.1875 50.953125 41.515625 
Q 57.328125 34.859375 57.328125 23.390625 
Q 57.328125 12.15625 50.6875 5.359375 
Q 44.046875 -1.421875 33.015625 -1.421875 
Q 20.359375 -1.421875 13.671875 8.265625 
Q 6.984375 17.96875 6.984375 36.375 
Q 6.984375 53.65625 15.1875 63.9375 
Q 23.390625 74.21875 37.203125 74.21875 
Q 40.921875 74.21875 44.703125 73.484375 
Q 48.484375 72.75 52.59375 71.296875 
z
" id="DejaVuSans-54"/>
      </defs>
      <g transform="translate(214.031179 268.920666)scale(0.12 -0.12)">
       <use xlink:href="#DejaVuSans-54"/>
       <use x="63.623047" xlink:href="#DejaVuSans-48"/>
      </g>
     </g>
    </g>
    <g id="xtick_4">
     <g id="line2d_4">
      <g>
       <use style="stroke:#000000;stroke-width:0.8;" x="287.682151" xlink:href="#m4ccad5e641" y="252.802541"/>
      </g>
     </g>
     <g id="text_4">
      <!-- 80 -->
      <defs>
       <path d="M 31.78125 34.625 
Q 24.75 34.625 20.71875 30.859375 
Q 16.703125 27.09375 16.703125 20.515625 
Q 16.703125 13.921875 20.71875 10.15625 
Q 24.75 6.390625 31.78125 6.390625 
Q 38.8125 6.390625 42.859375 10.171875 
Q 46.921875 13.96875 46.921875 20.515625 
Q 46.921875 27.09375 42.890625 30.859375 
Q 38.875 34.625 31.78125 34.625 
z
M 21.921875 38.8125 
Q 15.578125 40.375 12.03125 44.71875 
Q 8.5 49.078125 8.5 55.328125 
Q 8.5 64.0625 14.71875 69.140625 
Q 20.953125 74.21875 31.78125 74.21875 
Q 42.671875 74.21875 48.875 69.140625 
Q 55.078125 64.0625 55.078125 55.328125 
Q 55.078125 49.078125 51.53125 44.71875 
Q 48 40.375 41.703125 38.8125 
Q 48.828125 37.15625 52.796875 32.3125 
Q 56.78125 27.484375 56.78125 20.515625 
Q 56.78125 9.90625 50.3125 4.234375 
Q 43.84375 -1.421875 31.78125 -1.421875 
Q 19.734375 -1.421875 13.25 4.234375 
Q 6.78125 9.90625 6.78125 20.515625 
Q 6.78125 27.484375 10.78125 32.3125 
Q 14.796875 37.15625 21.921875 38.8125 
z
M 18.3125 54.390625 
Q 18.3125 48.734375 21.84375 45.5625 
Q 25.390625 42.390625 31.78125 42.390625 
Q 38.140625 42.390625 41.71875 45.5625 
Q 45.3125 48.734375 45.3125 54.390625 
Q 45.3125 60.0625 41.71875 63.234375 
Q 38.140625 66.40625 31.78125 66.40625 
Q 25.390625 66.40625 21.84375 63.234375 
Q 18.3125 60.0625 18.3125 54.390625 
z
" id="DejaVuSans-56"/>
      </defs>
      <g transform="translate(280.047151 268.920666)scale(0.12 -0.12)">
       <use xlink:href="#DejaVuSans-56"/>
       <use x="63.623047" xlink:href="#DejaVuSans-48"/>
      </g>
     </g>
    </g>
    <g id="text_5">
     <!-- time [hr] -->
     <defs>
      <path d="M 27.484375 70.21875 
L 27.484375 54.6875 
L 45.515625 54.6875 
L 45.515625 42.1875 
L 27.484375 42.1875 
L 27.484375 19 
Q 27.484375 15.1875 29 13.84375 
Q 30.515625 12.5 35.015625 12.5 
L 44 12.5 
L 44 0 
L 29 0 
Q 18.65625 0 14.328125 4.3125 
Q 10.015625 8.640625 10.015625 19 
L 10.015625 42.1875 
L 1.3125 42.1875 
L 1.3125 54.6875 
L 10.015625 54.6875 
L 10.015625 70.21875 
z
" id="DejaVuSans-Bold-116"/>
      <path d="M 8.40625 54.6875 
L 25.875 54.6875 
L 25.875 0 
L 8.40625 0 
z
M 8.40625 75.984375 
L 25.875 75.984375 
L 25.875 61.71875 
L 8.40625 61.71875 
z
" id="DejaVuSans-Bold-105"/>
      <path d="M 59.078125 45.609375 
Q 62.40625 50.6875 66.96875 53.34375 
Q 71.53125 56 77 56 
Q 86.421875 56 91.359375 50.1875 
Q 96.296875 44.390625 96.296875 33.296875 
L 96.296875 0 
L 78.71875 0 
L 78.71875 28.515625 
Q 78.765625 29.15625 78.78125 29.828125 
Q 78.8125 30.515625 78.8125 31.78125 
Q 78.8125 37.59375 77.09375 40.203125 
Q 75.390625 42.828125 71.578125 42.828125 
Q 66.609375 42.828125 63.890625 38.71875 
Q 61.1875 34.625 61.078125 26.859375 
L 61.078125 0 
L 43.5 0 
L 43.5 28.515625 
Q 43.5 37.59375 41.9375 40.203125 
Q 40.375 42.828125 36.375 42.828125 
Q 31.34375 42.828125 28.609375 38.703125 
Q 25.875 34.578125 25.875 26.90625 
L 25.875 0 
L 8.296875 0 
L 8.296875 54.6875 
L 25.875 54.6875 
L 25.875 46.6875 
Q 29.109375 51.3125 33.28125 53.65625 
Q 37.453125 56 42.484375 56 
Q 48.140625 56 52.484375 53.265625 
Q 56.84375 50.53125 59.078125 45.609375 
z
" id="DejaVuSans-Bold-109"/>
      <path d="M 62.984375 27.484375 
L 62.984375 22.515625 
L 22.125 22.515625 
Q 22.75 16.359375 26.5625 13.28125 
Q 30.375 10.203125 37.203125 10.203125 
Q 42.71875 10.203125 48.5 11.84375 
Q 54.296875 13.484375 60.40625 16.796875 
L 60.40625 3.328125 
Q 54.203125 0.984375 48 -0.21875 
Q 41.796875 -1.421875 35.59375 -1.421875 
Q 20.75 -1.421875 12.515625 6.125 
Q 4.296875 13.671875 4.296875 27.296875 
Q 4.296875 40.671875 12.375 48.328125 
Q 20.453125 56 34.625 56 
Q 47.515625 56 55.25 48.234375 
Q 62.984375 40.484375 62.984375 27.484375 
z
M 45.015625 33.296875 
Q 45.015625 38.28125 42.109375 41.328125 
Q 39.203125 44.390625 34.515625 44.390625 
Q 29.4375 44.390625 26.265625 41.53125 
Q 23.09375 38.671875 22.3125 33.296875 
z
" id="DejaVuSans-Bold-101"/>
      <path id="DejaVuSans-Bold-32"/>
      <path d="M 8.59375 75.984375 
L 38.921875 75.984375 
L 38.921875 64.984375 
L 25.203125 64.984375 
L 25.203125 -2.203125 
L 38.921875 -2.203125 
L 38.921875 -13.1875 
L 8.59375 -13.1875 
z
" id="DejaVuSans-Bold-91"/>
      <path d="M 63.375 33.296875 
L 63.375 0 
L 45.796875 0 
L 45.796875 5.421875 
L 45.796875 25.390625 
Q 45.796875 32.5625 45.484375 35.25 
Q 45.171875 37.9375 44.390625 39.203125 
Q 43.359375 40.921875 41.59375 41.875 
Q 39.84375 42.828125 37.59375 42.828125 
Q 32.125 42.828125 29 38.59375 
Q 25.875 34.375 25.875 26.90625 
L 25.875 0 
L 8.40625 0 
L 8.40625 75.984375 
L 25.875 75.984375 
L 25.875 46.6875 
Q 29.828125 51.46875 34.265625 53.734375 
Q 38.71875 56 44.09375 56 
Q 53.5625 56 58.46875 50.1875 
Q 63.375 44.390625 63.375 33.296875 
z
" id="DejaVuSans-Bold-104"/>
      <path d="M 49.03125 39.796875 
Q 46.734375 40.875 44.453125 41.375 
Q 42.1875 41.890625 39.890625 41.890625 
Q 33.15625 41.890625 29.515625 37.5625 
Q 25.875 33.25 25.875 25.203125 
L 25.875 0 
L 8.40625 0 
L 8.40625 54.6875 
L 25.875 54.6875 
L 25.875 45.703125 
Q 29.25 51.078125 33.609375 53.53125 
Q 37.984375 56 44.09375 56 
Q 44.96875 56 45.984375 55.921875 
Q 47.015625 55.859375 48.96875 55.609375 
z
" id="DejaVuSans-Bold-114"/>
      <path d="M 37.109375 -13.1875 
L 6.78125 -13.1875 
L 6.78125 -2.203125 
L 20.515625 -2.203125 
L 20.515625 64.984375 
L 6.78125 64.984375 
L 6.78125 75.984375 
L 37.109375 75.984375 
z
" id="DejaVuSans-Bold-93"/>
     </defs>
     <g transform="translate(147.88091 284.534416)scale(0.12 -0.12)">
      <use xlink:href="#DejaVuSans-Bold-116"/>
      <use x="47.802734" xlink:href="#DejaVuSans-Bold-105"/>
      <use x="82.080078" xlink:href="#DejaVuSans-Bold-109"/>
      <use x="186.279297" xlink:href="#DejaVuSans-Bold-101"/>
      <use x="254.101562" xlink:href="#DejaVuSans-Bold-32"/>
      <use x="288.916016" xlink:href="#DejaVuSans-Bold-91"/>
      <use x="334.619141" xlink:href="#DejaVuSans-Bold-104"/>
      <use x="405.810547" xlink:href="#DejaVuSans-Bold-114"/>
      <use x="455.126953" xlink:href="#DejaVuSans-Bold-93"/>
     </g>
    </g>
   </g>
   <g id="matplotlib.axis_2">
    <g id="ytick_1">
     <g id="line2d_5">
      <defs>
       <path d="M 0 0 
L -3.5 0 
" id="mfe9b7eb407" style="stroke:#000000;stroke-width:0.8;"/>
      </defs>
      <g>
       <use style="stroke:#000000;stroke-width:0.8;" x="56.62625" xlink:href="#mfe9b7eb407" y="252.802541"/>
      </g>
     </g>
     <g id="text_6">
      <!-- 0 -->
      <g transform="translate(41.99125 257.361603)scale(0.12 -0.12)">
       <use xlink:href="#DejaVuSans-48"/>
      </g>
     </g>
    </g>
    <g id="ytick_2">
     <g id="line2d_6">
      <g>
       <use style="stroke:#000000;stroke-width:0.8;" x="56.62625" xlink:href="#mfe9b7eb407" y="212.628628"/>
      </g>
     </g>
     <g id="text_7">
      <!-- 5 -->
      <defs>
       <path d="M 10.796875 72.90625 
L 49.515625 72.90625 
L 49.515625 64.59375 
L 19.828125 64.59375 
L 19.828125 46.734375 
Q 21.96875 47.46875 24.109375 47.828125 
Q 26.265625 48.1875 28.421875 48.1875 
Q 40.625 48.1875 47.75 41.5 
Q 54.890625 34.8125 54.890625 23.390625 
Q 54.890625 11.625 47.5625 5.09375 
Q 40.234375 -1.421875 26.90625 -1.421875 
Q 22.3125 -1.421875 17.546875 -0.640625 
Q 12.796875 0.140625 7.71875 1.703125 
L 7.71875 11.625 
Q 12.109375 9.234375 16.796875 8.0625 
Q 21.484375 6.890625 26.703125 6.890625 
Q 35.15625 6.890625 40.078125 11.328125 
Q 45.015625 15.765625 45.015625 23.390625 
Q 45.015625 31 40.078125 35.4375 
Q 35.15625 39.890625 26.703125 39.890625 
Q 22.75 39.890625 18.8125 39.015625 
Q 14.890625 38.140625 10.796875 36.28125 
z
" id="DejaVuSans-53"/>
      </defs>
      <g transform="translate(41.99125 217.18769)scale(0.12 -0.12)">
       <use xlink:href="#DejaVuSans-53"/>
      </g>
     </g>
    </g>
    <g id="ytick_3">
     <g id="line2d_7">
      <g>
       <use style="stroke:#000000;stroke-width:0.8;" x="56.62625" xlink:href="#mfe9b7eb407" y="172.454715"/>
      </g>
     </g>
     <g id="text_8">
      <!-- 10 -->
      <defs>
       <path d="M 12.40625 8.296875 
L 28.515625 8.296875 
L 28.515625 63.921875 
L 10.984375 60.40625 
L 10.984375 69.390625 
L 28.421875 72.90625 
L 38.28125 72.90625 
L 38.28125 8.296875 
L 54.390625 8.296875 
L 54.390625 0 
L 12.40625 0 
z
" id="DejaVuSans-49"/>
      </defs>
      <g transform="translate(34.35625 177.013777)scale(0.12 -0.12)">
       <use xlink:href="#DejaVuSans-49"/>
       <use x="63.623047" xlink:href="#DejaVuSans-48"/>
      </g>
     </g>
    </g>
    <g id="ytick_4">
     <g id="line2d_8">
      <g>
       <use style="stroke:#000000;stroke-width:0.8;" x="56.62625" xlink:href="#mfe9b7eb407" y="132.280802"/>
      </g>
     </g>
     <g id="text_9">
      <!-- 15 -->
      <g transform="translate(34.35625 136.839864)scale(0.12 -0.12)">
       <use xlink:href="#DejaVuSans-49"/>
       <use x="63.623047" xlink:href="#DejaVuSans-53"/>
      </g>
     </g>
    </g>
    <g id="ytick_5">
     <g id="line2d_9">
      <g>
       <use style="stroke:#000000;stroke-width:0.8;" x="56.62625" xlink:href="#mfe9b7eb407" y="92.106889"/>
      </g>
     </g>
     <g id="text_10">
      <!-- 20 -->
      <g transform="translate(34.35625 96.665951)scale(0.12 -0.12)">
       <use xlink:href="#DejaVuSans-50"/>
       <use x="63.623047" xlink:href="#DejaVuSans-48"/>
      </g>
     </g>
    </g>
    <g id="ytick_6">
     <g id="line2d_10">
      <g>
       <use style="stroke:#000000;stroke-width:0.8;" x="56.62625" xlink:href="#mfe9b7eb407" y="51.932976"/>
      </g>
     </g>
     <g id="text_11">
      <!-- 25 -->
      <g transform="translate(34.35625 56.492038)scale(0.12 -0.12)">
       <use xlink:href="#DejaVuSans-50"/>
       <use x="63.623047" xlink:href="#DejaVuSans-53"/>
      </g>
     </g>
    </g>
    <g id="ytick_7">
     <g id="line2d_11">
      <g>
       <use style="stroke:#000000;stroke-width:0.8;" x="56.62625" xlink:href="#mfe9b7eb407" y="11.759062"/>
      </g>
     </g>
     <g id="text_12">
      <!-- 30 -->
      <defs>
       <path d="M 40.578125 39.3125 
Q 47.65625 37.796875 51.625 33 
Q 55.609375 28.21875 55.609375 21.1875 
Q 55.609375 10.40625 48.1875 4.484375 
Q 40.765625 -1.421875 27.09375 -1.421875 
Q 22.515625 -1.421875 17.65625 -0.515625 
Q 12.796875 0.390625 7.625 2.203125 
L 7.625 11.71875 
Q 11.71875 9.328125 16.59375 8.109375 
Q 21.484375 6.890625 26.8125 6.890625 
Q 36.078125 6.890625 40.9375 10.546875 
Q 45.796875 14.203125 45.796875 21.1875 
Q 45.796875 27.640625 41.28125 31.265625 
Q 36.765625 34.90625 28.71875 34.90625 
L 20.21875 34.90625 
L 20.21875 43.015625 
L 29.109375 43.015625 
Q 36.375 43.015625 40.234375 45.921875 
Q 44.09375 48.828125 44.09375 54.296875 
Q 44.09375 59.90625 40.109375 62.90625 
Q 36.140625 65.921875 28.71875 65.921875 
Q 24.65625 65.921875 20.015625 65.03125 
Q 15.375 64.15625 9.8125 62.3125 
L 9.8125 71.09375 
Q 15.4375 72.65625 20.34375 73.4375 
Q 25.25 74.21875 29.59375 74.21875 
Q 40.828125 74.21875 47.359375 69.109375 
Q 53.90625 64.015625 53.90625 55.328125 
Q 53.90625 49.265625 50.4375 45.09375 
Q 46.96875 40.921875 40.578125 39.3125 
z
" id="DejaVuSans-51"/>
      </defs>
      <g transform="translate(34.35625 16.318125)scale(0.12 -0.12)">
       <use xlink:href="#DejaVuSans-51"/>
       <use x="63.623047" xlink:href="#DejaVuSans-48"/>
      </g>
     </g>
    </g>
    <g id="text_13">
     <!-- HGP [µmol/kg/min] -->
     <defs>
      <path d="M 9.1875 72.90625 
L 27.984375 72.90625 
L 27.984375 45.125 
L 55.71875 45.125 
L 55.71875 72.90625 
L 74.515625 72.90625 
L 74.515625 0 
L 55.71875 0 
L 55.71875 30.90625 
L 27.984375 30.90625 
L 27.984375 0 
L 9.1875 0 
z
" id="DejaVuSans-Bold-72"/>
      <path d="M 74.703125 5.421875 
Q 67.671875 2 60.109375 0.28125 
Q 52.546875 -1.421875 44.484375 -1.421875 
Q 26.265625 -1.421875 15.625 8.765625 
Q 4.984375 18.953125 4.984375 36.375 
Q 4.984375 54 15.8125 64.109375 
Q 26.65625 74.21875 45.515625 74.21875 
Q 52.78125 74.21875 59.4375 72.84375 
Q 66.109375 71.484375 72.015625 68.796875 
L 72.015625 53.71875 
Q 65.921875 57.171875 59.890625 58.875 
Q 53.859375 60.59375 47.796875 60.59375 
Q 36.578125 60.59375 30.5 54.3125 
Q 24.421875 48.046875 24.421875 36.375 
Q 24.421875 24.8125 30.28125 18.5 
Q 36.140625 12.203125 46.921875 12.203125 
Q 49.859375 12.203125 52.375 12.5625 
Q 54.890625 12.9375 56.890625 13.71875 
L 56.890625 27.875 
L 45.40625 27.875 
L 45.40625 40.484375 
L 74.703125 40.484375 
z
" id="DejaVuSans-Bold-71"/>
      <path d="M 9.1875 72.90625 
L 40.375 72.90625 
Q 54.296875 72.90625 61.734375 66.71875 
Q 69.1875 60.546875 69.1875 49.125 
Q 69.1875 37.640625 61.734375 31.46875 
Q 54.296875 25.296875 40.375 25.296875 
L 27.984375 25.296875 
L 27.984375 0 
L 9.1875 0 
z
M 27.984375 59.28125 
L 27.984375 38.921875 
L 38.375 38.921875 
Q 43.84375 38.921875 46.828125 41.578125 
Q 49.8125 44.234375 49.8125 49.125 
Q 49.8125 54 46.828125 56.640625 
Q 43.84375 59.28125 38.375 59.28125 
z
" id="DejaVuSans-Bold-80"/>
      <path d="M 8.5 -20.90625 
L 8.5 54.6875 
L 26.125 54.6875 
L 26.125 22.90625 
Q 26.125 17.234375 28.5625 14.46875 
Q 31 11.71875 35.984375 11.71875 
Q 41.015625 11.71875 43.453125 14.46875 
Q 45.90625 17.234375 45.90625 22.90625 
L 45.90625 54.6875 
L 63.484375 54.6875 
L 63.484375 18.109375 
Q 63.484375 14.65625 64.28125 13.28125 
Q 65.09375 11.921875 67 11.921875 
Q 67.875 11.921875 68.671875 12.15625 
Q 69.484375 12.40625 70.40625 12.984375 
L 70.40625 0.78125 
Q 67.828125 -0.34375 65.546875 -0.875 
Q 63.28125 -1.421875 61.078125 -1.421875 
Q 56.734375 -1.421875 53.96875 0.40625 
Q 51.21875 2.25 49.515625 6.296875 
Q 47.21875 2.4375 43.921875 0.5 
Q 40.625 -1.421875 36.28125 -1.421875 
Q 32.671875 -1.421875 30.125 -0.265625 
Q 27.59375 0.875 26.125 3.21875 
L 26.125 -20.90625 
z
" id="DejaVuSans-Bold-181"/>
      <path d="M 34.421875 43.5 
Q 28.609375 43.5 25.5625 39.328125 
Q 22.515625 35.15625 22.515625 27.296875 
Q 22.515625 19.4375 25.5625 15.25 
Q 28.609375 11.078125 34.421875 11.078125 
Q 40.140625 11.078125 43.15625 15.25 
Q 46.1875 19.4375 46.1875 27.296875 
Q 46.1875 35.15625 43.15625 39.328125 
Q 40.140625 43.5 34.421875 43.5 
z
M 34.421875 56 
Q 48.53125 56 56.46875 48.375 
Q 64.40625 40.765625 64.40625 27.296875 
Q 64.40625 13.8125 56.46875 6.1875 
Q 48.53125 -1.421875 34.421875 -1.421875 
Q 20.265625 -1.421875 12.28125 6.1875 
Q 4.296875 13.8125 4.296875 27.296875 
Q 4.296875 40.765625 12.28125 48.375 
Q 20.265625 56 34.421875 56 
z
" id="DejaVuSans-Bold-111"/>
      <path d="M 8.40625 75.984375 
L 25.875 75.984375 
L 25.875 0 
L 8.40625 0 
z
" id="DejaVuSans-Bold-108"/>
      <path d="M 25.6875 72.90625 
L 36.53125 72.90625 
L 10.796875 -9.28125 
L 0 -9.28125 
z
" id="DejaVuSans-Bold-47"/>
      <path d="M 8.40625 75.984375 
L 25.875 75.984375 
L 25.875 34.625 
L 46 54.6875 
L 66.3125 54.6875 
L 39.59375 29.59375 
L 68.40625 0 
L 47.21875 0 
L 25.875 22.796875 
L 25.875 0 
L 8.40625 0 
z
" id="DejaVuSans-Bold-107"/>
      <path d="M 45.609375 9.28125 
Q 42 4.5 37.640625 2.25 
Q 33.296875 0 27.59375 0 
Q 17.578125 0 11.03125 7.875 
Q 4.5 15.765625 4.5 27.984375 
Q 4.5 40.234375 11.03125 48.0625 
Q 17.578125 55.90625 27.59375 55.90625 
Q 33.296875 55.90625 37.640625 53.65625 
Q 42 51.421875 45.609375 46.578125 
L 45.609375 54.6875 
L 63.1875 54.6875 
L 63.1875 5.515625 
Q 63.1875 -7.671875 54.859375 -14.625 
Q 46.53125 -21.578125 30.71875 -21.578125 
Q 25.59375 -21.578125 20.796875 -20.796875 
Q 16.015625 -20.015625 11.1875 -18.40625 
L 11.1875 -4.78125 
Q 15.765625 -7.421875 20.15625 -8.71875 
Q 24.5625 -10.015625 29 -10.015625 
Q 37.59375 -10.015625 41.59375 -6.25 
Q 45.609375 -2.484375 45.609375 5.515625 
z
M 34.078125 43.3125 
Q 28.65625 43.3125 25.625 39.296875 
Q 22.609375 35.296875 22.609375 27.984375 
Q 22.609375 20.453125 25.53125 16.578125 
Q 28.46875 12.703125 34.078125 12.703125 
Q 39.546875 12.703125 42.578125 16.703125 
Q 45.609375 20.703125 45.609375 27.984375 
Q 45.609375 35.296875 42.578125 39.296875 
Q 39.546875 43.3125 34.078125 43.3125 
z
" id="DejaVuSans-Bold-103"/>
      <path d="M 63.375 33.296875 
L 63.375 0 
L 45.796875 0 
L 45.796875 5.421875 
L 45.796875 25.484375 
Q 45.796875 32.5625 45.484375 35.25 
Q 45.171875 37.9375 44.390625 39.203125 
Q 43.359375 40.921875 41.59375 41.875 
Q 39.84375 42.828125 37.59375 42.828125 
Q 32.125 42.828125 29 38.59375 
Q 25.875 34.375 25.875 26.90625 
L 25.875 0 
L 8.40625 0 
L 8.40625 54.6875 
L 25.875 54.6875 
L 25.875 46.6875 
Q 29.828125 51.46875 34.265625 53.734375 
Q 38.71875 56 44.09375 56 
Q 53.5625 56 58.46875 50.1875 
Q 63.375 44.390625 63.375 33.296875 
z
" id="DejaVuSans-Bold-110"/>
     </defs>
     <g transform="translate(27.766875 196.292364)rotate(-90)scale(0.12 -0.12)">
      <use xlink:href="#DejaVuSans-Bold-72"/>
      <use x="83.691406" xlink:href="#DejaVuSans-Bold-71"/>
      <use x="165.771484" xlink:href="#DejaVuSans-Bold-80"/>
      <use x="239.0625" xlink:href="#DejaVuSans-Bold-32"/>
      <use x="273.876953" xlink:href="#DejaVuSans-Bold-91"/>
      <use x="319.580078" xlink:href="#DejaVuSans-Bold-181"/>
      <use x="393.164062" xlink:href="#DejaVuSans-Bold-109"/>
      <use x="497.363281" xlink:href="#DejaVuSans-Bold-111"/>
      <use x="566.064453" xlink:href="#DejaVuSans-Bold-108"/>
      <use x="600.341797" xlink:href="#DejaVuSans-Bold-47"/>
      <use x="636.865234" xlink:href="#DejaVuSans-Bold-107"/>
      <use x="703.369141" xlink:href="#DejaVuSans-Bold-103"/>
      <use x="774.951172" xlink:href="#DejaVuSans-Bold-47"/>
      <use x="811.474609" xlink:href="#DejaVuSans-Bold-109"/>
      <use x="915.673828" xlink:href="#DejaVuSans-Bold-105"/>
      <use x="949.951172" xlink:href="#DejaVuSans-Bold-110"/>
      <use x="1021.142578" xlink:href="#DejaVuSans-Bold-93"/>
     </g>
    </g>
   </g>
   <g id="line2d_12">
    <path clip-path="url(#pa6ec277f05)" d="M 56.73992 -1 
L 56.741778 16.651937 
L 56.972834 38.544402 
L 57.550474 41.010185 
L 60.092089 50.608236 
L 63.788983 64.658147 
L 66.21507 74.814937 
L 68.525629 85.462079 
L 71.182772 98.836225 
L 77.998921 133.893718 
L 79.73184 141.326177 
L 81.233703 146.880806 
L 82.620039 151.235423 
L 84.006374 154.867673 
L 85.277182 157.611188 
L 86.547989 159.856672 
L 87.818797 161.671833 
L 89.089604 163.124234 
L 90.475939 164.36871 
L 91.977803 165.397362 
L 93.595194 166.218563 
L 95.443641 166.887575 
L 97.523144 167.397405 
L 100.180287 167.80352 
L 103.646126 168.090206 
L 108.844884 168.272058 
L 118.780287 168.354912 
L 167.995194 168.367226 
L 287.682151 168.367227 
L 287.682151 168.367227 
" style="fill:none;stroke:#000000;stroke-linecap:square;stroke-width:2;"/>
   </g>
   <g id="line2d_13">
    <path clip-path="url(#pa6ec277f05)" d="M 56.736953 -1 
L 56.741778 37.574504 
L 56.972834 59.464439 
L 57.78153 62.156831 
L 60.323144 69.854689 
L 65.290846 84.821128 
L 67.947989 93.600985 
L 70.605132 103.141833 
L 73.839915 115.650734 
L 79.73184 138.609209 
L 81.811343 145.738962 
L 83.65979 151.298152 
L 85.277182 155.487377 
L 86.779045 158.804029 
L 88.280908 161.59275 
L 89.782772 163.898232 
L 91.284635 165.776987 
L 92.786498 167.289761 
L 94.288362 168.495953 
L 95.905753 169.514482 
L 97.638672 170.348654 
L 99.602648 171.047009 
L 101.913207 171.622377 
L 104.685877 172.071804 
L 108.267244 172.409974 
L 113.234946 172.636656 
L 121.552958 172.762422 
L 143.96538 172.799865 
L 287.682151 172.800616 
L 287.682151 172.800616 
" style="fill:none;stroke:#000000;stroke-linecap:square;stroke-width:2;"/>
   </g>
   <g id="line2d_14">
    <path clip-path="url(#pa6ec277f05)" d="M 56.732565 -1 
L 56.741778 58.923301 
L 56.972834 80.164312 
L 58.012585 82.845982 
L 60.669728 89.108473 
L 67.832461 105.706083 
L 71.067244 113.940143 
L 74.533082 123.413258 
L 84.006374 149.764611 
L 86.201405 154.974655 
L 88.16538 159.092821 
L 90.013828 162.460111 
L 91.746747 165.166769 
L 93.479666 167.457657 
L 95.212585 169.367008 
L 96.945505 170.937487 
L 98.678424 172.214968 
L 100.526871 173.30548 
L 102.490846 174.211632 
L 104.685877 174.980214 
L 107.227492 175.625439 
L 110.231219 176.14506 
L 113.928113 176.544915 
L 118.780287 176.832025 
L 126.058548 177.016071 
L 139.921902 177.101082 
L 205.772834 177.114131 
L 287.682151 177.114132 
L 287.682151 177.114132 
" style="fill:none;stroke:#000000;stroke-linecap:square;stroke-width:2;"/>
   </g>
   <g id="line2d_15">
    <path clip-path="url(#pa6ec277f05)" d="M 56.725729 -1 
L 56.741778 79.575355 
L 56.972834 100.038806 
L 58.243641 102.523578 
L 60.900784 107.270769 
L 73.493331 129.148097 
L 77.998921 137.804969 
L 86.663517 154.583621 
L 89.551716 159.608282 
L 91.977803 163.405942 
L 94.172834 166.455935 
L 96.252337 168.98882 
L 98.33184 171.176743 
L 100.411343 173.036322 
L 102.490846 174.594462 
L 104.570349 175.884077 
L 106.76538 176.992944 
L 109.191467 177.965096 
L 111.84861 178.782303 
L 114.852337 179.46413 
L 118.318175 180.015384 
L 122.59271 180.456353 
L 128.022523 180.779648 
L 135.762896 180.998156 
L 148.933082 181.11491 
L 187.40389 181.14624 
L 287.682151 181.146586 
L 287.682151 181.146586 
" style="fill:none;stroke:#000000;stroke-linecap:square;stroke-width:2;"/>
   </g>
   <g id="line2d_16">
    <path clip-path="url(#pa6ec277f05)" d="M 56.713588 -1 
L 56.857306 117.830332 
L 57.088362 118.807837 
L 59.398921 122.047873 
L 62.633703 126.169936 
L 69.218797 134.091335 
L 75.80389 142.173073 
L 82.735567 151.073802 
L 90.244884 160.650095 
L 94.057306 165.143599 
L 97.176561 168.493226 
L 100.064759 171.275252 
L 102.721902 173.539097 
L 105.379045 175.513852 
L 108.036188 177.207428 
L 110.693331 178.637991 
L 113.466002 179.877356 
L 116.3542 180.927553 
L 119.473455 181.82824 
L 122.939293 182.597139 
L 126.867244 183.238602 
L 131.488362 183.762956 
L 137.149231 184.173719 
L 144.54302 184.47562 
L 155.28712 184.672841 
L 174.695815 184.771192 
L 246.438672 184.791186 
L 287.682151 184.791213 
L 287.682151 184.791213 
" style="fill:none;stroke:#000000;stroke-linecap:square;stroke-width:2;"/>
   </g>
   <g id="line2d_17">
    <path clip-path="url(#pa6ec277f05)" d="M 56.68475 -1 
L 56.857306 134.932422 
L 57.088362 135.768124 
L 59.745505 138.440772 
L 63.211343 141.58561 
L 68.179045 145.760923 
L 88.974076 162.660293 
L 95.905753 168.115935 
L 100.757927 171.664331 
L 104.916933 174.440009 
L 108.729356 176.724972 
L 112.42625 178.682625 
L 116.007616 180.331742 
L 119.704511 181.785909 
L 123.516933 183.039501 
L 127.444884 184.096899 
L 131.719418 185.014709 
L 136.456064 185.797251 
L 141.770349 186.444092 
L 148.008859 186.972009 
L 155.633703 187.384311 
L 165.569107 187.686009 
L 180.010101 187.88229 
L 206.119418 187.979313 
L 287.682151 187.998606 
L 287.682151 187.998606 
" style="fill:none;stroke:#000000;stroke-linecap:square;stroke-width:2;"/>
   </g>
   <g id="line2d_18">
    <defs>
     <path d="M -3 3 
L 3 3 
L 3 -3 
L -3 -3 
z
" id="m215308d126" style="stroke:#000000;stroke-linejoin:miter;stroke-opacity:0.6;"/>
    </defs>
    <g clip-path="url(#pa6ec277f05)">
     <use style="fill-opacity:0.6;stroke:#000000;stroke-linejoin:miter;stroke-opacity:0.6;" x="241.47097" xlink:href="#m215308d126" y="192.059584"/>
     <use style="fill-opacity:0.6;stroke:#000000;stroke-linejoin:miter;stroke-opacity:0.6;" x="198.560589" xlink:href="#m215308d126" y="182.899932"/>
     <use style="fill-opacity:0.6;stroke:#000000;stroke-linejoin:miter;stroke-opacity:0.6;" x="221.666179" xlink:href="#m215308d126" y="189.568802"/>
     <use style="fill-opacity:0.6;stroke:#000000;stroke-linejoin:miter;stroke-opacity:0.6;" x="155.650207" xlink:href="#m215308d126" y="174.061671"/>
     <use style="fill-opacity:0.6;stroke:#000000;stroke-linejoin:miter;stroke-opacity:0.6;" x="155.650207" xlink:href="#m215308d126" y="189.086715"/>
     <use style="fill-opacity:0.6;stroke:#000000;stroke-linejoin:miter;stroke-opacity:0.6;" x="69.829444" xlink:href="#m215308d126" y="152.367758"/>
     <use style="fill-opacity:0.6;stroke:#000000;stroke-linejoin:miter;stroke-opacity:0.6;" x="59.927049" xlink:href="#m215308d126" y="195.353845"/>
     <use style="fill-opacity:0.6;stroke:#000000;stroke-linejoin:miter;stroke-opacity:0.6;" x="66.528646" xlink:href="#m215308d126" y="186.113845"/>
     <use style="fill-opacity:0.6;stroke:#000000;stroke-linejoin:miter;stroke-opacity:0.6;" x="63.227847" xlink:href="#m215308d126" y="182.096454"/>
     <use style="fill-opacity:0.6;stroke:#000000;stroke-linejoin:miter;stroke-opacity:0.6;" x="96.235833" xlink:href="#m215308d126" y="154.778193"/>
     <use style="fill-opacity:0.6;stroke:#000000;stroke-linejoin:miter;stroke-opacity:0.6;" x="99.536632" xlink:href="#m215308d126" y="181.292976"/>
     <use style="fill-opacity:0.6;stroke:#000000;stroke-linejoin:miter;stroke-opacity:0.6;" x="59.927049" xlink:href="#m215308d126" y="155.581671"/>
     <use style="fill-opacity:0.6;stroke:#000000;stroke-linejoin:miter;stroke-opacity:0.6;" x="56.62625" xlink:href="#m215308d126" y="158.795584"/>
     <use style="fill-opacity:0.6;stroke:#000000;stroke-linejoin:miter;stroke-opacity:0.6;" x="63.227847" xlink:href="#m215308d126" y="149.153845"/>
     <use style="fill-opacity:0.6;stroke:#000000;stroke-linejoin:miter;stroke-opacity:0.6;" x="83.032639" xlink:href="#m215308d126" y="184.506889"/>
     <use style="fill-opacity:0.6;stroke:#000000;stroke-linejoin:miter;stroke-opacity:0.6;" x="83.032639" xlink:href="#m215308d126" y="184.506889"/>
     <use style="fill-opacity:0.6;stroke:#000000;stroke-linejoin:miter;stroke-opacity:0.6;" x="63.227847" xlink:href="#m215308d126" y="149.153845"/>
     <use style="fill-opacity:0.6;stroke:#000000;stroke-linejoin:miter;stroke-opacity:0.6;" x="76.431041" xlink:href="#m215308d126" y="160.402541"/>
     <use style="fill-opacity:0.6;stroke:#000000;stroke-linejoin:miter;stroke-opacity:0.6;" x="89.634236" xlink:href="#m215308d126" y="172.454715"/>
     <use style="fill-opacity:0.6;stroke:#000000;stroke-linejoin:miter;stroke-opacity:0.6;" x="69.829444" xlink:href="#m215308d126" y="170.847758"/>
     <use style="fill-opacity:0.6;stroke:#000000;stroke-linejoin:miter;stroke-opacity:0.6;" x="96.235833" xlink:href="#m215308d126" y="183.70341"/>
     <use style="fill-opacity:0.6;stroke:#000000;stroke-linejoin:miter;stroke-opacity:0.6;" x="76.431041" xlink:href="#m215308d126" y="172.454715"/>
     <use style="fill-opacity:0.6;stroke:#000000;stroke-linejoin:miter;stroke-opacity:0.6;" x="89.634236" xlink:href="#m215308d126" y="180.489497"/>
     <use style="fill-opacity:0.6;stroke:#000000;stroke-linejoin:miter;stroke-opacity:0.6;" x="102.83743" xlink:href="#m215308d126" y="184.506889"/>
     <use style="fill-opacity:0.6;stroke:#000000;stroke-linejoin:miter;stroke-opacity:0.6;" x="56.62625" xlink:href="#m215308d126" y="161.206019"/>
     <use style="fill-opacity:0.6;stroke:#000000;stroke-linejoin:miter;stroke-opacity:0.6;" x="76.431041" xlink:href="#m215308d126" y="154.778193"/>
     <use style="fill-opacity:0.6;stroke:#000000;stroke-linejoin:miter;stroke-opacity:0.6;" x="73.130243" xlink:href="#m215308d126" y="153.171236"/>
     <use style="fill-opacity:0.6;stroke:#000000;stroke-linejoin:miter;stroke-opacity:0.6;" x="56.62625" xlink:href="#m215308d126" y="154.778193"/>
     <use style="fill-opacity:0.6;stroke:#000000;stroke-linejoin:miter;stroke-opacity:0.6;" x="59.927049" xlink:href="#m215308d126" y="169.240802"/>
     <use style="fill-opacity:0.6;stroke:#000000;stroke-linejoin:miter;stroke-opacity:0.6;" x="76.431041" xlink:href="#m215308d126" y="174.061671"/>
     <use style="fill-opacity:0.6;stroke:#000000;stroke-linejoin:miter;stroke-opacity:0.6;" x="73.130243" xlink:href="#m215308d126" y="110.586889"/>
     <use style="fill-opacity:0.6;stroke:#000000;stroke-linejoin:miter;stroke-opacity:0.6;" x="76.431041" xlink:href="#m215308d126" y="112.193845"/>
     <use style="fill-opacity:0.6;stroke:#000000;stroke-linejoin:miter;stroke-opacity:0.6;" x="79.73184" xlink:href="#m215308d126" y="157.188628"/>
    </g>
   </g>
   <g id="patch_3">
    <path d="M 56.62625 252.802541 
L 56.62625 11.759062 
" style="fill:none;stroke:#000000;stroke-linecap:square;stroke-linejoin:miter;stroke-width:0.8;"/>
   </g>
   <g id="patch_4">
    <path d="M 299.234946 252.802541 
L 299.234946 11.759062 
" style="fill:none;stroke:#000000;stroke-linecap:square;stroke-linejoin:miter;stroke-width:0.8;"/>
   </g>
   <g id="patch_5">
    <path d="M 56.62625 252.802541 
L 299.234946 252.802541 
" style="fill:none;stroke:#000000;stroke-linecap:square;stroke-linejoin:miter;stroke-width:0.8;"/>
   </g>
   <g id="patch_6">
    <path d="M 56.62625 11.759062 
L 299.234946 11.759062 
" style="fill:none;stroke:#000000;stroke-linecap:square;stroke-linejoin:miter;stroke-width:0.8;"/>
   </g>
   <g id="legend_1">
    <g id="patch_7">
     <path d="M 249.006347 30.649941 
L 293.403946 30.649941 
Q 295.069946 30.649941 295.069946 28.983941 
L 295.069946 17.590062 
Q 295.069946 15.924062 293.403946 15.924062 
L 249.006347 15.924062 
Q 247.340347 15.924062 247.340347 17.590062 
L 247.340347 28.983941 
Q 247.340347 30.649941 249.006347 30.649941 
z
" style="fill:#ffffff;opacity:0.8;stroke:#cccccc;stroke-linejoin:miter;"/>
    </g>
    <g id="line2d_19"/>
    <g id="line2d_20">
     <g>
      <use style="fill-opacity:0.6;stroke:#000000;stroke-linejoin:miter;stroke-opacity:0.6;" x="259.002347" xlink:href="#m215308d126" y="22.670061"/>
     </g>
    </g>
    <g id="text_14">
     <!-- HGP -->
     <defs>
      <path d="M 9.8125 72.90625 
L 19.671875 72.90625 
L 19.671875 43.015625 
L 55.515625 43.015625 
L 55.515625 72.90625 
L 65.375 72.90625 
L 65.375 0 
L 55.515625 0 
L 55.515625 34.71875 
L 19.671875 34.71875 
L 19.671875 0 
L 9.8125 0 
z
" id="DejaVuSans-72"/>
      <path d="M 59.515625 10.40625 
L 59.515625 29.984375 
L 43.40625 29.984375 
L 43.40625 38.09375 
L 69.28125 38.09375 
L 69.28125 6.78125 
Q 63.578125 2.734375 56.6875 0.65625 
Q 49.8125 -1.421875 42 -1.421875 
Q 24.90625 -1.421875 15.25 8.5625 
Q 5.609375 18.5625 5.609375 36.375 
Q 5.609375 54.25 15.25 64.234375 
Q 24.90625 74.21875 42 74.21875 
Q 49.125 74.21875 55.546875 72.453125 
Q 61.96875 70.703125 67.390625 67.28125 
L 67.390625 56.78125 
Q 61.921875 61.421875 55.765625 63.765625 
Q 49.609375 66.109375 42.828125 66.109375 
Q 29.4375 66.109375 22.71875 58.640625 
Q 16.015625 51.171875 16.015625 36.375 
Q 16.015625 21.625 22.71875 14.15625 
Q 29.4375 6.6875 42.828125 6.6875 
Q 48.046875 6.6875 52.140625 7.59375 
Q 56.25 8.5 59.515625 10.40625 
z
" id="DejaVuSans-71"/>
      <path d="M 19.671875 64.796875 
L 19.671875 37.40625 
L 32.078125 37.40625 
Q 38.96875 37.40625 42.71875 40.96875 
Q 46.484375 44.53125 46.484375 51.125 
Q 46.484375 57.671875 42.71875 61.234375 
Q 38.96875 64.796875 32.078125 64.796875 
z
M 9.8125 72.90625 
L 32.078125 72.90625 
Q 44.34375 72.90625 50.609375 67.359375 
Q 56.890625 61.8125 56.890625 51.125 
Q 56.890625 40.328125 50.609375 34.8125 
Q 44.34375 29.296875 32.078125 29.296875 
L 19.671875 29.296875 
L 19.671875 0 
L 9.8125 0 
z
" id="DejaVuSans-80"/>
     </defs>
     <g transform="translate(273.996347 25.585561)scale(0.0833 -0.0833)">
      <use xlink:href="#DejaVuSans-72"/>
      <use x="75.195312" xlink:href="#DejaVuSans-71"/>
      <use x="152.685547" xlink:href="#DejaVuSans-80"/>
     </g>
    </g>
   </g>
  </g>
  <g id="axes_2">
   <g id="patch_8">
    <path d="M 372.017554 252.802541 
L 614.62625 252.802541 
L 614.62625 11.759062 
L 372.017554 11.759062 
z
" style="fill:#ffffff;"/>
   </g>
   <g id="matplotlib.axis_3">
    <g id="xtick_5">
     <g id="line2d_21">
      <g>
       <use style="stroke:#000000;stroke-width:0.8;" x="405.02554" xlink:href="#m4ccad5e641" y="252.802541"/>
      </g>
     </g>
     <g id="text_15">
      <!-- 20 -->
      <g transform="translate(397.39054 268.920666)scale(0.12 -0.12)">
       <use xlink:href="#DejaVuSans-50"/>
       <use x="63.623047" xlink:href="#DejaVuSans-48"/>
      </g>
     </g>
    </g>
    <g id="xtick_6">
     <g id="line2d_22">
      <g>
       <use style="stroke:#000000;stroke-width:0.8;" x="471.041512" xlink:href="#m4ccad5e641" y="252.802541"/>
      </g>
     </g>
     <g id="text_16">
      <!-- 40 -->
      <g transform="translate(463.406512 268.920666)scale(0.12 -0.12)">
       <use xlink:href="#DejaVuSans-52"/>
       <use x="63.623047" xlink:href="#DejaVuSans-48"/>
      </g>
     </g>
    </g>
    <g id="xtick_7">
     <g id="line2d_23">
      <g>
       <use style="stroke:#000000;stroke-width:0.8;" x="537.057483" xlink:href="#m4ccad5e641" y="252.802541"/>
      </g>
     </g>
     <g id="text_17">
      <!-- 60 -->
      <g transform="translate(529.422483 268.920666)scale(0.12 -0.12)">
       <use xlink:href="#DejaVuSans-54"/>
       <use x="63.623047" xlink:href="#DejaVuSans-48"/>
      </g>
     </g>
    </g>
    <g id="xtick_8">
     <g id="line2d_24">
      <g>
       <use style="stroke:#000000;stroke-width:0.8;" x="603.073455" xlink:href="#m4ccad5e641" y="252.802541"/>
      </g>
     </g>
     <g id="text_18">
      <!-- 80 -->
      <g transform="translate(595.438455 268.920666)scale(0.12 -0.12)">
       <use xlink:href="#DejaVuSans-56"/>
       <use x="63.623047" xlink:href="#DejaVuSans-48"/>
      </g>
     </g>
    </g>
    <g id="text_19">
     <!-- time [hr] -->
     <g transform="translate(463.272215 284.534416)scale(0.12 -0.12)">
      <use xlink:href="#DejaVuSans-Bold-116"/>
      <use x="47.802734" xlink:href="#DejaVuSans-Bold-105"/>
      <use x="82.080078" xlink:href="#DejaVuSans-Bold-109"/>
      <use x="186.279297" xlink:href="#DejaVuSans-Bold-101"/>
      <use x="254.101562" xlink:href="#DejaVuSans-Bold-32"/>
      <use x="288.916016" xlink:href="#DejaVuSans-Bold-91"/>
      <use x="334.619141" xlink:href="#DejaVuSans-Bold-104"/>
      <use x="405.810547" xlink:href="#DejaVuSans-Bold-114"/>
      <use x="455.126953" xlink:href="#DejaVuSans-Bold-93"/>
     </g>
    </g>
   </g>
   <g id="matplotlib.axis_4">
    <g id="ytick_8">
     <g id="line2d_25">
      <g>
       <use style="stroke:#000000;stroke-width:0.8;" x="372.017554" xlink:href="#mfe9b7eb407" y="252.802541"/>
      </g>
     </g>
     <g id="text_20">
      <!-- 0 -->
      <g transform="translate(357.382554 257.361603)scale(0.12 -0.12)">
       <use xlink:href="#DejaVuSans-48"/>
      </g>
     </g>
    </g>
    <g id="ytick_9">
     <g id="line2d_26">
      <g>
       <use style="stroke:#000000;stroke-width:0.8;" x="372.017554" xlink:href="#mfe9b7eb407" y="218.367758"/>
      </g>
     </g>
     <g id="text_21">
      <!-- 2 -->
      <g transform="translate(357.382554 222.926821)scale(0.12 -0.12)">
       <use xlink:href="#DejaVuSans-50"/>
      </g>
     </g>
    </g>
    <g id="ytick_10">
     <g id="line2d_27">
      <g>
       <use style="stroke:#000000;stroke-width:0.8;" x="372.017554" xlink:href="#mfe9b7eb407" y="183.932976"/>
      </g>
     </g>
     <g id="text_22">
      <!-- 4 -->
      <g transform="translate(357.382554 188.492038)scale(0.12 -0.12)">
       <use xlink:href="#DejaVuSans-52"/>
      </g>
     </g>
    </g>
    <g id="ytick_11">
     <g id="line2d_28">
      <g>
       <use style="stroke:#000000;stroke-width:0.8;" x="372.017554" xlink:href="#mfe9b7eb407" y="149.498193"/>
      </g>
     </g>
     <g id="text_23">
      <!-- 6 -->
      <g transform="translate(357.382554 154.057255)scale(0.12 -0.12)">
       <use xlink:href="#DejaVuSans-54"/>
      </g>
     </g>
    </g>
    <g id="ytick_12">
     <g id="line2d_29">
      <g>
       <use style="stroke:#000000;stroke-width:0.8;" x="372.017554" xlink:href="#mfe9b7eb407" y="115.06341"/>
      </g>
     </g>
     <g id="text_24">
      <!-- 8 -->
      <g transform="translate(357.382554 119.622473)scale(0.12 -0.12)">
       <use xlink:href="#DejaVuSans-56"/>
      </g>
     </g>
    </g>
    <g id="ytick_13">
     <g id="line2d_30">
      <g>
       <use style="stroke:#000000;stroke-width:0.8;" x="372.017554" xlink:href="#mfe9b7eb407" y="80.628628"/>
      </g>
     </g>
     <g id="text_25">
      <!-- 10 -->
      <g transform="translate(349.747554 85.18769)scale(0.12 -0.12)">
       <use xlink:href="#DejaVuSans-49"/>
       <use x="63.623047" xlink:href="#DejaVuSans-48"/>
      </g>
     </g>
    </g>
    <g id="ytick_14">
     <g id="line2d_31">
      <g>
       <use style="stroke:#000000;stroke-width:0.8;" x="372.017554" xlink:href="#mfe9b7eb407" y="46.193845"/>
      </g>
     </g>
     <g id="text_26">
      <!-- 12 -->
      <g transform="translate(349.747554 50.752908)scale(0.12 -0.12)">
       <use xlink:href="#DejaVuSans-49"/>
       <use x="63.623047" xlink:href="#DejaVuSans-50"/>
      </g>
     </g>
    </g>
    <g id="ytick_15">
     <g id="line2d_32">
      <g>
       <use style="stroke:#000000;stroke-width:0.8;" x="372.017554" xlink:href="#mfe9b7eb407" y="11.759062"/>
      </g>
     </g>
     <g id="text_27">
      <!-- 14 -->
      <g transform="translate(349.747554 16.318125)scale(0.12 -0.12)">
       <use xlink:href="#DejaVuSans-49"/>
       <use x="63.623047" xlink:href="#DejaVuSans-52"/>
      </g>
     </g>
    </g>
    <g id="text_28">
     <!-- GNG [µmol/kg/min] -->
     <defs>
      <path d="M 9.1875 72.90625 
L 30.171875 72.90625 
L 56.6875 22.90625 
L 56.6875 72.90625 
L 74.515625 72.90625 
L 74.515625 0 
L 53.515625 0 
L 27 50 
L 27 0 
L 9.1875 0 
z
" id="DejaVuSans-Bold-78"/>
     </defs>
     <g transform="translate(343.158179 196.819239)rotate(-90)scale(0.12 -0.12)">
      <use xlink:href="#DejaVuSans-Bold-71"/>
      <use x="82.080078" xlink:href="#DejaVuSans-Bold-78"/>
      <use x="165.771484" xlink:href="#DejaVuSans-Bold-71"/>
      <use x="247.851562" xlink:href="#DejaVuSans-Bold-32"/>
      <use x="282.666016" xlink:href="#DejaVuSans-Bold-91"/>
      <use x="328.369141" xlink:href="#DejaVuSans-Bold-181"/>
      <use x="401.953125" xlink:href="#DejaVuSans-Bold-109"/>
      <use x="506.152344" xlink:href="#DejaVuSans-Bold-111"/>
      <use x="574.853516" xlink:href="#DejaVuSans-Bold-108"/>
      <use x="609.130859" xlink:href="#DejaVuSans-Bold-47"/>
      <use x="645.654297" xlink:href="#DejaVuSans-Bold-107"/>
      <use x="712.158203" xlink:href="#DejaVuSans-Bold-103"/>
      <use x="783.740234" xlink:href="#DejaVuSans-Bold-47"/>
      <use x="820.263672" xlink:href="#DejaVuSans-Bold-109"/>
      <use x="924.462891" xlink:href="#DejaVuSans-Bold-105"/>
      <use x="958.740234" xlink:href="#DejaVuSans-Bold-110"/>
      <use x="1029.931641" xlink:href="#DejaVuSans-Bold-93"/>
     </g>
    </g>
   </g>
   <g id="line2d_33">
    <path clip-path="url(#pf883480f87)" d="M 372.121464 608.586562 
L 372.133082 22.761769 
L 372.364138 72.142782 
L 372.595194 72.39469 
L 395.238672 71.878752 
L 422.734325 71.869675 
L 603.073455 71.869725 
L 603.073455 71.869725 
" style="fill:none;stroke:#000000;stroke-linecap:square;stroke-width:2;"/>
   </g>
   <g id="line2d_34">
    <path clip-path="url(#pf883480f87)" d="M 372.121654 608.586562 
L 372.133082 33.385781 
L 372.364138 81.707574 
L 372.595194 81.813867 
L 396.162896 81.398088 
L 417.535567 81.369898 
L 603.073455 81.369845 
L 603.073455 81.369845 
" style="fill:none;stroke:#000000;stroke-linecap:square;stroke-width:2;"/>
   </g>
   <g id="line2d_35">
    <path clip-path="url(#pf883480f87)" d="M 372.121859 608.586562 
L 372.133082 44.820697 
L 372.364138 90.940998 
L 372.710722 90.989951 
L 399.282151 90.650406 
L 424.929356 90.613622 
L 603.073455 90.613094 
L 603.073455 90.613094 
" style="fill:none;stroke:#000000;stroke-linecap:square;stroke-width:2;"/>
   </g>
   <g id="line2d_36">
    <path clip-path="url(#pf883480f87)" d="M 372.12205 608.586562 
L 372.133082 55.415077 
L 372.24861 98.168794 
L 372.364138 99.550745 
L 372.82625 99.576809 
L 404.827492 99.291449 
L 440.294573 99.254582 
L 603.073455 99.254065 
L 603.073455 99.254065 
" style="fill:none;stroke:#000000;stroke-linecap:square;stroke-width:2;"/>
   </g>
   <g id="line2d_37">
    <path clip-path="url(#pf883480f87)" d="M 372.122208 608.586562 
L 372.133082 64.173399 
L 372.24861 106.183405 
L 372.364138 107.324985 
L 373.057306 107.340967 
L 411.412585 107.102781 
L 459.587741 107.064487 
L 603.073455 107.063983 
L 603.073455 107.063983 
" style="fill:none;stroke:#000000;stroke-linecap:square;stroke-width:2;"/>
   </g>
   <g id="line2d_38">
    <path clip-path="url(#pf883480f87)" d="M 372.122325 608.586562 
L 372.133082 70.636502 
L 372.24861 113.090883 
L 372.364138 114.162243 
L 373.057306 114.176784 
L 418.575318 113.979356 
L 483.502026 113.937705 
L 603.073455 113.937118 
L 603.073455 113.937118 
" style="fill:none;stroke:#000000;stroke-linecap:square;stroke-width:2;"/>
   </g>
   <g id="line2d_39">
    <g clip-path="url(#pf883480f87)">
     <use style="fill-opacity:0.6;stroke:#000000;stroke-linejoin:miter;stroke-opacity:0.6;" x="556.862275" xlink:href="#m215308d126" y="125.566019"/>
     <use style="fill-opacity:0.6;stroke:#000000;stroke-linejoin:miter;stroke-opacity:0.6;" x="513.951893" xlink:href="#m215308d126" y="109.898193"/>
     <use style="fill-opacity:0.6;stroke:#000000;stroke-linejoin:miter;stroke-opacity:0.6;" x="537.057483" xlink:href="#m215308d126" y="120.056454"/>
     <use style="fill-opacity:0.6;stroke:#000000;stroke-linejoin:miter;stroke-opacity:0.6;" x="471.041512" xlink:href="#m215308d126" y="96.12428"/>
     <use style="fill-opacity:0.6;stroke:#000000;stroke-linejoin:miter;stroke-opacity:0.6;" x="471.041512" xlink:href="#m215308d126" y="130.042541"/>
     <use style="fill-opacity:0.6;stroke:#000000;stroke-linejoin:miter;stroke-opacity:0.6;" x="385.220749" xlink:href="#m215308d126" y="190.819932"/>
     <use style="fill-opacity:0.6;stroke:#000000;stroke-linejoin:miter;stroke-opacity:0.6;" x="375.318353" xlink:href="#m215308d126" y="214.92428"/>
     <use style="fill-opacity:0.6;stroke:#000000;stroke-linejoin:miter;stroke-opacity:0.6;" x="381.91995" xlink:href="#m215308d126" y="208.037323"/>
     <use style="fill-opacity:0.6;stroke:#000000;stroke-linejoin:miter;stroke-opacity:0.6;" x="378.619152" xlink:href="#m215308d126" y="175.32428"/>
     <use style="fill-opacity:0.6;stroke:#000000;stroke-linejoin:miter;stroke-opacity:0.6;" x="411.627137" xlink:href="#m215308d126" y="116.785149"/>
     <use style="fill-opacity:0.6;stroke:#000000;stroke-linejoin:miter;stroke-opacity:0.6;" x="414.927936" xlink:href="#m215308d126" y="147.776454"/>
     <use style="fill-opacity:0.6;stroke:#000000;stroke-linejoin:miter;stroke-opacity:0.6;" x="375.318353" xlink:href="#m215308d126" y="151.219932"/>
     <use style="fill-opacity:0.6;stroke:#000000;stroke-linejoin:miter;stroke-opacity:0.6;" x="372.017554" xlink:href="#m215308d126" y="168.437323"/>
     <use style="fill-opacity:0.6;stroke:#000000;stroke-linejoin:miter;stroke-opacity:0.6;" x="378.619152" xlink:href="#m215308d126" y="161.550367"/>
     <use style="fill-opacity:0.6;stroke:#000000;stroke-linejoin:miter;stroke-opacity:0.6;" x="398.423943" xlink:href="#m215308d126" y="151.219932"/>
     <use style="fill-opacity:0.6;stroke:#000000;stroke-linejoin:miter;stroke-opacity:0.6;" x="398.423943" xlink:href="#m215308d126" y="189.098193"/>
     <use style="fill-opacity:0.6;stroke:#000000;stroke-linejoin:miter;stroke-opacity:0.6;" x="378.619152" xlink:href="#m215308d126" y="161.550367"/>
     <use style="fill-opacity:0.6;stroke:#000000;stroke-linejoin:miter;stroke-opacity:0.6;" x="391.822346" xlink:href="#m215308d126" y="139.167758"/>
     <use style="fill-opacity:0.6;stroke:#000000;stroke-linejoin:miter;stroke-opacity:0.6;" x="405.02554" xlink:href="#m215308d126" y="130.559062"/>
     <use style="fill-opacity:0.6;stroke:#000000;stroke-linejoin:miter;stroke-opacity:0.6;" x="385.220749" xlink:href="#m215308d126" y="158.106889"/>
     <use style="fill-opacity:0.6;stroke:#000000;stroke-linejoin:miter;stroke-opacity:0.6;" x="411.627137" xlink:href="#m215308d126" y="158.106889"/>
     <use style="fill-opacity:0.6;stroke:#000000;stroke-linejoin:miter;stroke-opacity:0.6;" x="391.822346" xlink:href="#m215308d126" y="158.106889"/>
     <use style="fill-opacity:0.6;stroke:#000000;stroke-linejoin:miter;stroke-opacity:0.6;" x="405.02554" xlink:href="#m215308d126" y="159.828628"/>
     <use style="fill-opacity:0.6;stroke:#000000;stroke-linejoin:miter;stroke-opacity:0.6;" x="418.228734" xlink:href="#m215308d126" y="163.272106"/>
     <use style="fill-opacity:0.6;stroke:#000000;stroke-linejoin:miter;stroke-opacity:0.6;" x="372.017554" xlink:href="#m215308d126" y="158.106889"/>
     <use style="fill-opacity:0.6;stroke:#000000;stroke-linejoin:miter;stroke-opacity:0.6;" x="391.822346" xlink:href="#m215308d126" y="137.446019"/>
     <use style="fill-opacity:0.6;stroke:#000000;stroke-linejoin:miter;stroke-opacity:0.6;" x="388.521547" xlink:href="#m215308d126" y="156.385149"/>
     <use style="fill-opacity:0.6;stroke:#000000;stroke-linejoin:miter;stroke-opacity:0.6;" x="372.017554" xlink:href="#m215308d126" y="125.393845"/>
     <use style="fill-opacity:0.6;stroke:#000000;stroke-linejoin:miter;stroke-opacity:0.6;" x="375.318353" xlink:href="#m215308d126" y="152.941671"/>
     <use style="fill-opacity:0.6;stroke:#000000;stroke-linejoin:miter;stroke-opacity:0.6;" x="391.822346" xlink:href="#m215308d126" y="166.715584"/>
     <use style="fill-opacity:0.6;stroke:#000000;stroke-linejoin:miter;stroke-opacity:0.6;" x="388.521547" xlink:href="#m215308d126" y="34.141671"/>
     <use style="fill-opacity:0.6;stroke:#000000;stroke-linejoin:miter;stroke-opacity:0.6;" x="391.822346" xlink:href="#m215308d126" y="99.567758"/>
     <use style="fill-opacity:0.6;stroke:#000000;stroke-linejoin:miter;stroke-opacity:0.6;" x="395.123144" xlink:href="#m215308d126" y="173.602541"/>
    </g>
   </g>
   <g id="patch_9">
    <path d="M 372.017554 252.802541 
L 372.017554 11.759062 
" style="fill:none;stroke:#000000;stroke-linecap:square;stroke-linejoin:miter;stroke-width:0.8;"/>
   </g>
   <g id="patch_10">
    <path d="M 614.62625 252.802541 
L 614.62625 11.759062 
" style="fill:none;stroke:#000000;stroke-linecap:square;stroke-linejoin:miter;stroke-width:0.8;"/>
   </g>
   <g id="patch_11">
    <path d="M 372.017554 252.802541 
L 614.62625 252.802541 
" style="fill:none;stroke:#000000;stroke-linecap:square;stroke-linejoin:miter;stroke-width:0.8;"/>
   </g>
   <g id="patch_12">
    <path d="M 372.017554 11.759062 
L 614.62625 11.759062 
" style="fill:none;stroke:#000000;stroke-linecap:square;stroke-linejoin:miter;stroke-width:0.8;"/>
   </g>
   <g id="legend_2">
    <g id="patch_13">
     <path d="M 562.998472 30.649941 
L 608.79525 30.649941 
Q 610.46125 30.649941 610.46125 28.983941 
L 610.46125 17.590062 
Q 610.46125 15.924062 608.79525 15.924062 
L 562.998472 15.924062 
Q 561.332472 15.924062 561.332472 17.590062 
L 561.332472 28.983941 
Q 561.332472 30.649941 562.998472 30.649941 
z
" style="fill:#ffffff;opacity:0.8;stroke:#cccccc;stroke-linejoin:miter;"/>
    </g>
    <g id="line2d_40"/>
    <g id="line2d_41">
     <g>
      <use style="fill-opacity:0.6;stroke:#000000;stroke-linejoin:miter;stroke-opacity:0.6;" x="572.994472" xlink:href="#m215308d126" y="22.670061"/>
     </g>
    </g>
    <g id="text_29">
     <!-- GNG -->
     <defs>
      <path d="M 9.8125 72.90625 
L 23.09375 72.90625 
L 55.421875 11.921875 
L 55.421875 72.90625 
L 64.984375 72.90625 
L 64.984375 0 
L 51.703125 0 
L 19.390625 60.984375 
L 19.390625 0 
L 9.8125 0 
z
" id="DejaVuSans-78"/>
     </defs>
     <g transform="translate(587.988472 25.585561)scale(0.0833 -0.0833)">
      <use xlink:href="#DejaVuSans-71"/>
      <use x="77.490234" xlink:href="#DejaVuSans-78"/>
      <use x="152.294922" xlink:href="#DejaVuSans-71"/>
     </g>
    </g>
   </g>
  </g>
  <g id="axes_3">
   <g id="patch_14">
    <path d="M 56.62625 566.159062 
L 299.234946 566.159062 
L 299.234946 325.115584 
L 56.62625 325.115584 
z
" style="fill:#ffffff;"/>
   </g>
   <g id="matplotlib.axis_5">
    <g id="xtick_9">
     <g id="line2d_42">
      <g>
       <use style="stroke:#000000;stroke-width:0.8;" x="89.634236" xlink:href="#m4ccad5e641" y="566.159062"/>
      </g>
     </g>
     <g id="text_30">
      <!-- 20 -->
      <g transform="translate(81.999236 582.277187)scale(0.12 -0.12)">
       <use xlink:href="#DejaVuSans-50"/>
       <use x="63.623047" xlink:href="#DejaVuSans-48"/>
      </g>
     </g>
    </g>
    <g id="xtick_10">
     <g id="line2d_43">
      <g>
       <use style="stroke:#000000;stroke-width:0.8;" x="155.650207" xlink:href="#m4ccad5e641" y="566.159062"/>
      </g>
     </g>
     <g id="text_31">
      <!-- 40 -->
      <g transform="translate(148.015207 582.277187)scale(0.12 -0.12)">
       <use xlink:href="#DejaVuSans-52"/>
       <use x="63.623047" xlink:href="#DejaVuSans-48"/>
      </g>
     </g>
    </g>
    <g id="xtick_11">
     <g id="line2d_44">
      <g>
       <use style="stroke:#000000;stroke-width:0.8;" x="221.666179" xlink:href="#m4ccad5e641" y="566.159062"/>
      </g>
     </g>
     <g id="text_32">
      <!-- 60 -->
      <g transform="translate(214.031179 582.277187)scale(0.12 -0.12)">
       <use xlink:href="#DejaVuSans-54"/>
       <use x="63.623047" xlink:href="#DejaVuSans-48"/>
      </g>
     </g>
    </g>
    <g id="xtick_12">
     <g id="line2d_45">
      <g>
       <use style="stroke:#000000;stroke-width:0.8;" x="287.682151" xlink:href="#m4ccad5e641" y="566.159062"/>
      </g>
     </g>
     <g id="text_33">
      <!-- 80 -->
      <g transform="translate(280.047151 582.277187)scale(0.12 -0.12)">
       <use xlink:href="#DejaVuSans-56"/>
       <use x="63.623047" xlink:href="#DejaVuSans-48"/>
      </g>
     </g>
    </g>
    <g id="text_34">
     <!-- time [hr] -->
     <g transform="translate(147.88091 597.890937)scale(0.12 -0.12)">
      <use xlink:href="#DejaVuSans-Bold-116"/>
      <use x="47.802734" xlink:href="#DejaVuSans-Bold-105"/>
      <use x="82.080078" xlink:href="#DejaVuSans-Bold-109"/>
      <use x="186.279297" xlink:href="#DejaVuSans-Bold-101"/>
      <use x="254.101562" xlink:href="#DejaVuSans-Bold-32"/>
      <use x="288.916016" xlink:href="#DejaVuSans-Bold-91"/>
      <use x="334.619141" xlink:href="#DejaVuSans-Bold-104"/>
      <use x="405.810547" xlink:href="#DejaVuSans-Bold-114"/>
      <use x="455.126953" xlink:href="#DejaVuSans-Bold-93"/>
     </g>
    </g>
   </g>
   <g id="matplotlib.axis_6">
    <g id="ytick_16">
     <g id="line2d_46">
      <g>
       <use style="stroke:#000000;stroke-width:0.8;" x="56.62625" xlink:href="#mfe9b7eb407" y="566.159062"/>
      </g>
     </g>
     <g id="text_35">
      <!-- 0.0 -->
      <defs>
       <path d="M 10.6875 12.40625 
L 21 12.40625 
L 21 0 
L 10.6875 0 
z
" id="DejaVuSans-46"/>
      </defs>
      <g transform="translate(30.5425 570.718125)scale(0.12 -0.12)">
       <use xlink:href="#DejaVuSans-48"/>
       <use x="63.623047" xlink:href="#DejaVuSans-46"/>
       <use x="95.410156" xlink:href="#DejaVuSans-48"/>
      </g>
     </g>
    </g>
    <g id="ytick_17">
     <g id="line2d_47">
      <g>
       <use style="stroke:#000000;stroke-width:0.8;" x="56.62625" xlink:href="#mfe9b7eb407" y="536.028628"/>
      </g>
     </g>
     <g id="text_36">
      <!-- 2.5 -->
      <g transform="translate(30.5425 540.58769)scale(0.12 -0.12)">
       <use xlink:href="#DejaVuSans-50"/>
       <use x="63.623047" xlink:href="#DejaVuSans-46"/>
       <use x="95.410156" xlink:href="#DejaVuSans-53"/>
      </g>
     </g>
    </g>
    <g id="ytick_18">
     <g id="line2d_48">
      <g>
       <use style="stroke:#000000;stroke-width:0.8;" x="56.62625" xlink:href="#mfe9b7eb407" y="505.898193"/>
      </g>
     </g>
     <g id="text_37">
      <!-- 5.0 -->
      <g transform="translate(30.5425 510.457255)scale(0.12 -0.12)">
       <use xlink:href="#DejaVuSans-53"/>
       <use x="63.623047" xlink:href="#DejaVuSans-46"/>
       <use x="95.410156" xlink:href="#DejaVuSans-48"/>
      </g>
     </g>
    </g>
    <g id="ytick_19">
     <g id="line2d_49">
      <g>
       <use style="stroke:#000000;stroke-width:0.8;" x="56.62625" xlink:href="#mfe9b7eb407" y="475.767758"/>
      </g>
     </g>
     <g id="text_38">
      <!-- 7.5 -->
      <defs>
       <path d="M 8.203125 72.90625 
L 55.078125 72.90625 
L 55.078125 68.703125 
L 28.609375 0 
L 18.3125 0 
L 43.21875 64.59375 
L 8.203125 64.59375 
z
" id="DejaVuSans-55"/>
      </defs>
      <g transform="translate(30.5425 480.326821)scale(0.12 -0.12)">
       <use xlink:href="#DejaVuSans-55"/>
       <use x="63.623047" xlink:href="#DejaVuSans-46"/>
       <use x="95.410156" xlink:href="#DejaVuSans-53"/>
      </g>
     </g>
    </g>
    <g id="ytick_20">
     <g id="line2d_50">
      <g>
       <use style="stroke:#000000;stroke-width:0.8;" x="56.62625" xlink:href="#mfe9b7eb407" y="445.637323"/>
      </g>
     </g>
     <g id="text_39">
      <!-- 10.0 -->
      <g transform="translate(22.9075 450.196386)scale(0.12 -0.12)">
       <use xlink:href="#DejaVuSans-49"/>
       <use x="63.623047" xlink:href="#DejaVuSans-48"/>
       <use x="127.246094" xlink:href="#DejaVuSans-46"/>
       <use x="159.033203" xlink:href="#DejaVuSans-48"/>
      </g>
     </g>
    </g>
    <g id="ytick_21">
     <g id="line2d_51">
      <g>
       <use style="stroke:#000000;stroke-width:0.8;" x="56.62625" xlink:href="#mfe9b7eb407" y="415.506889"/>
      </g>
     </g>
     <g id="text_40">
      <!-- 12.5 -->
      <g transform="translate(22.9075 420.065951)scale(0.12 -0.12)">
       <use xlink:href="#DejaVuSans-49"/>
       <use x="63.623047" xlink:href="#DejaVuSans-50"/>
       <use x="127.246094" xlink:href="#DejaVuSans-46"/>
       <use x="159.033203" xlink:href="#DejaVuSans-53"/>
      </g>
     </g>
    </g>
    <g id="ytick_22">
     <g id="line2d_52">
      <g>
       <use style="stroke:#000000;stroke-width:0.8;" x="56.62625" xlink:href="#mfe9b7eb407" y="385.376454"/>
      </g>
     </g>
     <g id="text_41">
      <!-- 15.0 -->
      <g transform="translate(22.9075 389.935516)scale(0.12 -0.12)">
       <use xlink:href="#DejaVuSans-49"/>
       <use x="63.623047" xlink:href="#DejaVuSans-53"/>
       <use x="127.246094" xlink:href="#DejaVuSans-46"/>
       <use x="159.033203" xlink:href="#DejaVuSans-48"/>
      </g>
     </g>
    </g>
    <g id="ytick_23">
     <g id="line2d_53">
      <g>
       <use style="stroke:#000000;stroke-width:0.8;" x="56.62625" xlink:href="#mfe9b7eb407" y="355.246019"/>
      </g>
     </g>
     <g id="text_42">
      <!-- 17.5 -->
      <g transform="translate(22.9075 359.805082)scale(0.12 -0.12)">
       <use xlink:href="#DejaVuSans-49"/>
       <use x="63.623047" xlink:href="#DejaVuSans-55"/>
       <use x="127.246094" xlink:href="#DejaVuSans-46"/>
       <use x="159.033203" xlink:href="#DejaVuSans-53"/>
      </g>
     </g>
    </g>
    <g id="ytick_24">
     <g id="line2d_54">
      <g>
       <use style="stroke:#000000;stroke-width:0.8;" x="56.62625" xlink:href="#mfe9b7eb407" y="325.115584"/>
      </g>
     </g>
     <g id="text_43">
      <!-- 20.0 -->
      <g transform="translate(22.9075 329.674647)scale(0.12 -0.12)">
       <use xlink:href="#DejaVuSans-50"/>
       <use x="63.623047" xlink:href="#DejaVuSans-48"/>
       <use x="127.246094" xlink:href="#DejaVuSans-46"/>
       <use x="159.033203" xlink:href="#DejaVuSans-48"/>
      </g>
     </g>
    </g>
    <g id="text_44">
     <!-- GLY [µmol/kg/min] -->
     <defs>
      <path d="M 9.1875 72.90625 
L 27.984375 72.90625 
L 27.984375 14.203125 
L 60.984375 14.203125 
L 60.984375 0 
L 9.1875 0 
z
" id="DejaVuSans-Bold-76"/>
      <path d="M -0.984375 72.90625 
L 19.578125 72.90625 
L 36.1875 46.921875 
L 52.78125 72.90625 
L 73.390625 72.90625 
L 45.609375 30.71875 
L 45.609375 0 
L 26.8125 0 
L 26.8125 30.71875 
z
" id="DejaVuSans-Bold-89"/>
     </defs>
     <g transform="translate(16.318125 508.383261)rotate(-90)scale(0.12 -0.12)">
      <use xlink:href="#DejaVuSans-Bold-71"/>
      <use x="82.080078" xlink:href="#DejaVuSans-Bold-76"/>
      <use x="145.566406" xlink:href="#DejaVuSans-Bold-89"/>
      <use x="217.978516" xlink:href="#DejaVuSans-Bold-32"/>
      <use x="252.792969" xlink:href="#DejaVuSans-Bold-91"/>
      <use x="298.496094" xlink:href="#DejaVuSans-Bold-181"/>
      <use x="372.080078" xlink:href="#DejaVuSans-Bold-109"/>
      <use x="476.279297" xlink:href="#DejaVuSans-Bold-111"/>
      <use x="544.980469" xlink:href="#DejaVuSans-Bold-108"/>
      <use x="579.257812" xlink:href="#DejaVuSans-Bold-47"/>
      <use x="615.78125" xlink:href="#DejaVuSans-Bold-107"/>
      <use x="682.285156" xlink:href="#DejaVuSans-Bold-103"/>
      <use x="753.867188" xlink:href="#DejaVuSans-Bold-47"/>
      <use x="790.390625" xlink:href="#DejaVuSans-Bold-109"/>
      <use x="894.589844" xlink:href="#DejaVuSans-Bold-105"/>
      <use x="928.867188" xlink:href="#DejaVuSans-Bold-110"/>
      <use x="1000.058594" xlink:href="#DejaVuSans-Bold-93"/>
     </g>
    </g>
   </g>
   <g id="line2d_55">
    <path clip-path="url(#pbe7c6c2d59)" d="M 56.696503 -1 
L 56.741778 377.970105 
L 56.857306 371.416269 
L 56.972834 371.383894 
L 66.099542 424.984383 
L 68.410101 440.933383 
L 70.951716 460.074968 
L 78.229977 516.097526 
L 79.962896 527.032815 
L 81.464759 535.157224 
L 82.851095 541.496153 
L 84.121902 546.362514 
L 85.39271 550.398298 
L 86.663517 553.696776 
L 87.934325 556.360011 
L 89.205132 558.488969 
L 90.475939 560.177138 
L 91.746747 561.507161 
L 93.133082 562.632305 
L 94.634946 563.552361 
L 96.252337 564.280468 
L 98.100784 564.869477 
L 100.295815 565.335551 
L 103.068486 565.692534 
L 106.880908 565.94587 
L 112.888362 566.097112 
L 126.289604 566.155138 
L 270.23743 566.159062 
L 287.682151 566.159063 
L 287.682151 566.159063 
" style="fill:none;stroke:#000000;stroke-linecap:square;stroke-width:2;"/>
   </g>
   <g id="line2d_56">
    <path clip-path="url(#pbe7c6c2d59)" d="M 56.694712 -1 
L 56.741778 403.267988 
L 56.857306 395.943197 
L 56.972834 396.018638 
L 59.861033 409.485221 
L 65.521902 435.175197 
L 68.179045 448.483716 
L 70.836188 462.934324 
L 74.186498 482.510677 
L 79.500784 513.656305 
L 81.695815 525.053878 
L 83.544262 533.46434 
L 85.161654 539.812751 
L 86.663517 544.845732 
L 88.049852 548.783534 
L 89.436188 552.093588 
L 90.822523 554.841032 
L 92.208859 557.097198 
L 93.595194 558.933436 
L 94.98153 560.416926 
L 96.483393 561.696045 
L 98.100784 562.766356 
L 99.833703 563.636292 
L 101.797679 564.360013 
L 103.99271 564.928741 
L 106.649852 565.38394 
L 110.115691 565.735667 
L 114.852337 565.974169 
L 122.59271 566.111422 
L 141.539293 566.157343 
L 287.682151 566.159063 
L 287.682151 566.159063 
" style="fill:none;stroke:#000000;stroke-linecap:square;stroke-width:2;"/>
   </g>
   <g id="line2d_57">
    <path clip-path="url(#pbe7c6c2d59)" d="M 56.693032 -1 
L 56.741778 428.228993 
L 56.857306 420.47817 
L 56.972834 420.575383 
L 59.514449 429.965202 
L 65.175318 449.413256 
L 68.525629 461.523672 
L 71.644884 473.641532 
L 75.110722 488.029412 
L 83.313207 522.513716 
L 85.623766 531.006364 
L 87.587741 537.420668 
L 89.436188 542.703995 
L 91.169107 546.977606 
L 92.786498 550.390944 
L 94.40389 553.285834 
L 96.021281 555.711011 
L 97.638672 557.721372 
L 99.256064 559.373094 
L 100.873455 560.720113 
L 102.606374 561.881345 
L 104.454821 562.857417 
L 106.534325 563.698639 
L 108.844884 564.388987 
L 111.502026 564.949916 
L 114.736809 565.400564 
L 118.895815 565.743605 
L 124.672213 565.979433 
L 134.145505 566.113765 
L 157.828734 566.15762 
L 287.682151 566.159062 
L 287.682151 566.159062 
" style="fill:none;stroke:#000000;stroke-linecap:square;stroke-width:2;"/>
   </g>
   <g id="line2d_58">
    <path clip-path="url(#pbe7c6c2d59)" d="M 56.691487 -1 
L 56.741778 452.321441 
L 56.857306 444.27137 
L 56.972834 444.340832 
L 59.514449 451.533922 
L 62.864759 460.198573 
L 70.14302 478.904663 
L 74.07097 489.722598 
L 78.692089 503.156882 
L 86.085877 524.724693 
L 88.974076 532.409782 
L 91.400163 538.259002 
L 93.595194 542.984755 
L 95.674697 546.929752 
L 97.638672 550.176533 
L 99.48712 552.821613 
L 101.335567 555.09373 
L 103.184014 557.025157 
L 105.032461 558.652109 
L 106.996436 560.088883 
L 109.075939 561.329764 
L 111.27097 562.378387 
L 113.697057 563.283932 
L 116.3542 564.035282 
L 119.473455 564.675236 
L 123.170349 565.191824 
L 127.675939 565.586538 
L 133.683393 565.875335 
L 142.579045 566.059026 
L 159.446126 566.145247 
L 236.96538 566.159061 
L 287.682151 566.159062 
L 287.682151 566.159062 
" style="fill:none;stroke:#000000;stroke-linecap:square;stroke-width:2;"/>
   </g>
   <g id="line2d_59">
    <path clip-path="url(#pbe7c6c2d59)" d="M 56.690089 -1 
L 56.741778 475.135807 
L 56.857306 466.745748 
L 56.972834 466.762461 
L 59.629977 472.349101 
L 62.749231 478.300832 
L 68.987741 489.585741 
L 75.341778 501.285619 
L 81.580287 513.284948 
L 90.013828 529.503166 
L 93.595194 535.891705 
L 96.598921 540.814371 
L 99.256064 544.763505 
L 101.797679 548.148326 
L 104.223766 551.008664 
L 106.534325 553.399361 
L 108.844884 555.478358 
L 111.155443 557.26665 
L 113.58153 558.859831 
L 116.123144 560.251513 
L 118.780287 561.443957 
L 121.552958 562.44674 
L 124.672213 563.33299 
L 128.138051 564.079466 
L 132.066002 564.695158 
L 136.802648 565.203734 
L 142.694573 565.599209 
L 150.434946 565.882561 
L 161.987741 566.062924 
L 184.169107 566.146463 
L 287.682151 566.159062 
L 287.682151 566.159062 
" style="fill:none;stroke:#000000;stroke-linecap:square;stroke-width:2;"/>
   </g>
   <g id="line2d_60">
    <path clip-path="url(#pbe7c6c2d59)" d="M 56.688838 -1 
L 56.741778 496.407625 
L 56.857306 487.532677 
L 56.972834 487.48249 
L 59.976561 492.01294 
L 63.095815 496.261494 
L 67.485877 501.836733 
L 77.190225 513.683176 
L 95.443641 535.777274 
L 99.949231 540.780494 
L 103.761654 544.6906 
L 107.227492 547.933468 
L 110.462275 550.664333 
L 113.58153 553.015795 
L 116.700784 555.090696 
L 119.820039 556.898364 
L 122.939293 558.455163 
L 126.174076 559.827291 
L 129.639915 561.053508 
L 133.336809 562.120563 
L 137.380287 563.048623 
L 141.885877 563.84438 
L 146.969107 564.507821 
L 152.861033 565.047411 
L 160.139293 565.480079 
L 169.497057 565.800352 
L 182.782772 566.014698 
L 205.541778 566.128836 
L 273.587741 566.158782 
L 287.682151 566.158956 
L 287.682151 566.158956 
" style="fill:none;stroke:#000000;stroke-linecap:square;stroke-width:2;"/>
   </g>
   <g id="line2d_61">
    <g clip-path="url(#pbe7c6c2d59)">
     <use style="fill-opacity:0.6;stroke:#000000;stroke-linejoin:miter;stroke-opacity:0.6;" x="241.47097" xlink:href="#m215308d126" y="562.061323"/>
     <use style="fill-opacity:0.6;stroke:#000000;stroke-linejoin:miter;stroke-opacity:0.6;" x="198.560589" xlink:href="#m215308d126" y="562.54341"/>
     <use style="fill-opacity:0.6;stroke:#000000;stroke-linejoin:miter;stroke-opacity:0.6;" x="221.666179" xlink:href="#m215308d126" y="547.116628"/>
     <use style="fill-opacity:0.6;stroke:#000000;stroke-linejoin:miter;stroke-opacity:0.6;" x="155.650207" xlink:href="#m215308d126" y="552.901671"/>
     <use style="fill-opacity:0.6;stroke:#000000;stroke-linejoin:miter;stroke-opacity:0.6;" x="155.650207" xlink:href="#m215308d126" y="556.517323"/>
     <use style="fill-opacity:0.6;stroke:#000000;stroke-linejoin:miter;stroke-opacity:0.6;" x="69.829444" xlink:href="#m215308d126" y="457.689497"/>
     <use style="fill-opacity:0.6;stroke:#000000;stroke-linejoin:miter;stroke-opacity:0.6;" x="59.927049" xlink:href="#m215308d126" y="507.10341"/>
     <use style="fill-opacity:0.6;stroke:#000000;stroke-linejoin:miter;stroke-opacity:0.6;" x="66.528646" xlink:href="#m215308d126" y="499.872106"/>
     <use style="fill-opacity:0.6;stroke:#000000;stroke-linejoin:miter;stroke-opacity:0.6;" x="63.227847" xlink:href="#m215308d126" y="514.334715"/>
     <use style="fill-opacity:0.6;stroke:#000000;stroke-linejoin:miter;stroke-opacity:0.6;" x="96.235833" xlink:href="#m215308d126" y="514.334715"/>
     <use style="fill-opacity:0.6;stroke:#000000;stroke-linejoin:miter;stroke-opacity:0.6;" x="99.536632" xlink:href="#m215308d126" y="532.412976"/>
     <use style="fill-opacity:0.6;stroke:#000000;stroke-linejoin:miter;stroke-opacity:0.6;" x="59.927049" xlink:href="#m215308d126" y="491.435584"/>
     <use style="fill-opacity:0.6;stroke:#000000;stroke-linejoin:miter;stroke-opacity:0.6;" x="56.62625" xlink:href="#m215308d126" y="484.20428"/>
     <use style="fill-opacity:0.6;stroke:#000000;stroke-linejoin:miter;stroke-opacity:0.6;" x="63.227847" xlink:href="#m215308d126" y="473.357323"/>
     <use style="fill-opacity:0.6;stroke:#000000;stroke-linejoin:miter;stroke-opacity:0.6;" x="83.032639" xlink:href="#m215308d126" y="534.82341"/>
     <use style="fill-opacity:0.6;stroke:#000000;stroke-linejoin:miter;stroke-opacity:0.6;" x="83.032639" xlink:href="#m215308d126" y="508.308628"/>
     <use style="fill-opacity:0.6;stroke:#000000;stroke-linejoin:miter;stroke-opacity:0.6;" x="63.227847" xlink:href="#m215308d126" y="474.562541"/>
     <use style="fill-opacity:0.6;stroke:#000000;stroke-linejoin:miter;stroke-opacity:0.6;" x="76.431041" xlink:href="#m215308d126" y="508.308628"/>
     <use style="fill-opacity:0.6;stroke:#000000;stroke-linejoin:miter;stroke-opacity:0.6;" x="89.634236" xlink:href="#m215308d126" y="531.207758"/>
     <use style="fill-opacity:0.6;stroke:#000000;stroke-linejoin:miter;stroke-opacity:0.6;" x="69.829444" xlink:href="#m215308d126" y="509.513845"/>
     <use style="fill-opacity:0.6;stroke:#000000;stroke-linejoin:miter;stroke-opacity:0.6;" x="96.235833" xlink:href="#m215308d126" y="528.797323"/>
     <use style="fill-opacity:0.6;stroke:#000000;stroke-linejoin:miter;stroke-opacity:0.6;" x="76.431041" xlink:href="#m215308d126" y="511.92428"/>
     <use style="fill-opacity:0.6;stroke:#000000;stroke-linejoin:miter;stroke-opacity:0.6;" x="89.634236" xlink:href="#m215308d126" y="522.771236"/>
     <use style="fill-opacity:0.6;stroke:#000000;stroke-linejoin:miter;stroke-opacity:0.6;" x="102.83743" xlink:href="#m215308d126" y="526.386889"/>
     <use style="fill-opacity:0.6;stroke:#000000;stroke-linejoin:miter;stroke-opacity:0.6;" x="56.62625" xlink:href="#m215308d126" y="495.051236"/>
     <use style="fill-opacity:0.6;stroke:#000000;stroke-linejoin:miter;stroke-opacity:0.6;" x="76.431041" xlink:href="#m215308d126" y="499.872106"/>
     <use style="fill-opacity:0.6;stroke:#000000;stroke-linejoin:miter;stroke-opacity:0.6;" x="73.130243" xlink:href="#m215308d126" y="485.409497"/>
     <use style="fill-opacity:0.6;stroke:#000000;stroke-linejoin:miter;stroke-opacity:0.6;" x="56.62625" xlink:href="#m215308d126" y="520.360802"/>
     <use style="fill-opacity:0.6;stroke:#000000;stroke-linejoin:miter;stroke-opacity:0.6;" x="59.927049" xlink:href="#m215308d126" y="510.116454"/>
     <use style="fill-opacity:0.6;stroke:#000000;stroke-linejoin:miter;stroke-opacity:0.6;" x="76.431041" xlink:href="#m215308d126" y="508.308628"/>
     <use style="fill-opacity:0.6;stroke:#000000;stroke-linejoin:miter;stroke-opacity:0.6;" x="73.130243" xlink:href="#m215308d126" y="505.898193"/>
     <use style="fill-opacity:0.6;stroke:#000000;stroke-linejoin:miter;stroke-opacity:0.6;" x="76.431041" xlink:href="#m215308d126" y="467.331236"/>
     <use style="fill-opacity:0.6;stroke:#000000;stroke-linejoin:miter;stroke-opacity:0.6;" x="79.73184" xlink:href="#m215308d126" y="478.178193"/>
    </g>
   </g>
   <g id="patch_15">
    <path d="M 56.62625 566.159062 
L 56.62625 325.115584 
" style="fill:none;stroke:#000000;stroke-linecap:square;stroke-linejoin:miter;stroke-width:0.8;"/>
   </g>
   <g id="patch_16">
    <path d="M 299.234946 566.159062 
L 299.234946 325.115584 
" style="fill:none;stroke:#000000;stroke-linecap:square;stroke-linejoin:miter;stroke-width:0.8;"/>
   </g>
   <g id="patch_17">
    <path d="M 56.62625 566.159062 
L 299.234946 566.159062 
" style="fill:none;stroke:#000000;stroke-linecap:square;stroke-linejoin:miter;stroke-width:0.8;"/>
   </g>
   <g id="patch_18">
    <path d="M 56.62625 325.115584 
L 299.234946 325.115584 
" style="fill:none;stroke:#000000;stroke-linecap:square;stroke-linejoin:miter;stroke-width:0.8;"/>
   </g>
   <g id="legend_3">
    <g id="patch_19">
     <path d="M 250.581238 344.006462 
L 293.403946 344.006462 
Q 295.069946 344.006462 295.069946 342.340462 
L 295.069946 330.946584 
Q 295.069946 329.280584 293.403946 329.280584 
L 250.581238 329.280584 
Q 248.915238 329.280584 248.915238 330.946584 
L 248.915238 342.340462 
Q 248.915238 344.006462 250.581238 344.006462 
z
" style="fill:#ffffff;opacity:0.8;stroke:#cccccc;stroke-linejoin:miter;"/>
    </g>
    <g id="line2d_62"/>
    <g id="line2d_63">
     <g>
      <use style="fill-opacity:0.6;stroke:#000000;stroke-linejoin:miter;stroke-opacity:0.6;" x="260.577238" xlink:href="#m215308d126" y="336.026583"/>
     </g>
    </g>
    <g id="text_45">
     <!-- GLY -->
     <defs>
      <path d="M 9.8125 72.90625 
L 19.671875 72.90625 
L 19.671875 8.296875 
L 55.171875 8.296875 
L 55.171875 0 
L 9.8125 0 
z
" id="DejaVuSans-76"/>
      <path d="M -0.203125 72.90625 
L 10.40625 72.90625 
L 30.609375 42.921875 
L 50.6875 72.90625 
L 61.28125 72.90625 
L 35.5 34.71875 
L 35.5 0 
L 25.59375 0 
L 25.59375 34.71875 
z
" id="DejaVuSans-89"/>
     </defs>
     <g transform="translate(275.571238 338.942083)scale(0.0833 -0.0833)">
      <use xlink:href="#DejaVuSans-71"/>
      <use x="77.490234" xlink:href="#DejaVuSans-76"/>
      <use x="133" xlink:href="#DejaVuSans-89"/>
     </g>
    </g>
   </g>
  </g>
  <g id="axes_4">
   <g id="patch_20">
    <path d="M 372.017554 566.159062 
L 614.62625 566.159062 
L 614.62625 325.115584 
L 372.017554 325.115584 
z
" style="fill:#ffffff;"/>
   </g>
   <g id="matplotlib.axis_7">
    <g id="xtick_13">
     <g id="line2d_64">
      <g>
       <use style="stroke:#000000;stroke-width:0.8;" x="405.02554" xlink:href="#m4ccad5e641" y="566.159062"/>
      </g>
     </g>
     <g id="text_46">
      <!-- 20 -->
      <g transform="translate(397.39054 582.277187)scale(0.12 -0.12)">
       <use xlink:href="#DejaVuSans-50"/>
       <use x="63.623047" xlink:href="#DejaVuSans-48"/>
      </g>
     </g>
    </g>
    <g id="xtick_14">
     <g id="line2d_65">
      <g>
       <use style="stroke:#000000;stroke-width:0.8;" x="471.041512" xlink:href="#m4ccad5e641" y="566.159062"/>
      </g>
     </g>
     <g id="text_47">
      <!-- 40 -->
      <g transform="translate(463.406512 582.277187)scale(0.12 -0.12)">
       <use xlink:href="#DejaVuSans-52"/>
       <use x="63.623047" xlink:href="#DejaVuSans-48"/>
      </g>
     </g>
    </g>
    <g id="xtick_15">
     <g id="line2d_66">
      <g>
       <use style="stroke:#000000;stroke-width:0.8;" x="537.057483" xlink:href="#m4ccad5e641" y="566.159062"/>
      </g>
     </g>
     <g id="text_48">
      <!-- 60 -->
      <g transform="translate(529.422483 582.277187)scale(0.12 -0.12)">
       <use xlink:href="#DejaVuSans-54"/>
       <use x="63.623047" xlink:href="#DejaVuSans-48"/>
      </g>
     </g>
    </g>
    <g id="xtick_16">
     <g id="line2d_67">
      <g>
       <use style="stroke:#000000;stroke-width:0.8;" x="603.073455" xlink:href="#m4ccad5e641" y="566.159062"/>
      </g>
     </g>
     <g id="text_49">
      <!-- 80 -->
      <g transform="translate(595.438455 582.277187)scale(0.12 -0.12)">
       <use xlink:href="#DejaVuSans-56"/>
       <use x="63.623047" xlink:href="#DejaVuSans-48"/>
      </g>
     </g>
    </g>
    <g id="text_50">
     <!-- time [hr] -->
     <g transform="translate(463.272215 597.890937)scale(0.12 -0.12)">
      <use xlink:href="#DejaVuSans-Bold-116"/>
      <use x="47.802734" xlink:href="#DejaVuSans-Bold-105"/>
      <use x="82.080078" xlink:href="#DejaVuSans-Bold-109"/>
      <use x="186.279297" xlink:href="#DejaVuSans-Bold-101"/>
      <use x="254.101562" xlink:href="#DejaVuSans-Bold-32"/>
      <use x="288.916016" xlink:href="#DejaVuSans-Bold-91"/>
      <use x="334.619141" xlink:href="#DejaVuSans-Bold-104"/>
      <use x="405.810547" xlink:href="#DejaVuSans-Bold-114"/>
      <use x="455.126953" xlink:href="#DejaVuSans-Bold-93"/>
     </g>
    </g>
   </g>
   <g id="matplotlib.axis_8">
    <g id="ytick_25">
     <g id="line2d_68">
      <g>
       <use style="stroke:#000000;stroke-width:0.8;" x="372.017554" xlink:href="#mfe9b7eb407" y="566.159062"/>
      </g>
     </g>
     <g id="text_51">
      <!-- 0 -->
      <g transform="translate(357.382554 570.718125)scale(0.12 -0.12)">
       <use xlink:href="#DejaVuSans-48"/>
      </g>
     </g>
    </g>
    <g id="ytick_26">
     <g id="line2d_69">
      <g>
       <use style="stroke:#000000;stroke-width:0.8;" x="372.017554" xlink:href="#mfe9b7eb407" y="517.950367"/>
      </g>
     </g>
     <g id="text_52">
      <!-- 20 -->
      <g transform="translate(349.747554 522.509429)scale(0.12 -0.12)">
       <use xlink:href="#DejaVuSans-50"/>
       <use x="63.623047" xlink:href="#DejaVuSans-48"/>
      </g>
     </g>
    </g>
    <g id="ytick_27">
     <g id="line2d_70">
      <g>
       <use style="stroke:#000000;stroke-width:0.8;" x="372.017554" xlink:href="#mfe9b7eb407" y="469.741671"/>
      </g>
     </g>
     <g id="text_53">
      <!-- 40 -->
      <g transform="translate(349.747554 474.300734)scale(0.12 -0.12)">
       <use xlink:href="#DejaVuSans-52"/>
       <use x="63.623047" xlink:href="#DejaVuSans-48"/>
      </g>
     </g>
    </g>
    <g id="ytick_28">
     <g id="line2d_71">
      <g>
       <use style="stroke:#000000;stroke-width:0.8;" x="372.017554" xlink:href="#mfe9b7eb407" y="421.532976"/>
      </g>
     </g>
     <g id="text_54">
      <!-- 60 -->
      <g transform="translate(349.747554 426.092038)scale(0.12 -0.12)">
       <use xlink:href="#DejaVuSans-54"/>
       <use x="63.623047" xlink:href="#DejaVuSans-48"/>
      </g>
     </g>
    </g>
    <g id="ytick_29">
     <g id="line2d_72">
      <g>
       <use style="stroke:#000000;stroke-width:0.8;" x="372.017554" xlink:href="#mfe9b7eb407" y="373.32428"/>
      </g>
     </g>
     <g id="text_55">
      <!-- 80 -->
      <g transform="translate(349.747554 377.883342)scale(0.12 -0.12)">
       <use xlink:href="#DejaVuSans-56"/>
       <use x="63.623047" xlink:href="#DejaVuSans-48"/>
      </g>
     </g>
    </g>
    <g id="ytick_30">
     <g id="line2d_73">
      <g>
       <use style="stroke:#000000;stroke-width:0.8;" x="372.017554" xlink:href="#mfe9b7eb407" y="325.115584"/>
      </g>
     </g>
     <g id="text_56">
      <!-- 100 -->
      <g transform="translate(342.112554 329.674647)scale(0.12 -0.12)">
       <use xlink:href="#DejaVuSans-49"/>
       <use x="63.623047" xlink:href="#DejaVuSans-48"/>
       <use x="127.246094" xlink:href="#DejaVuSans-48"/>
      </g>
     </g>
    </g>
    <g id="text_57">
     <!-- GNG/HGP [percent] -->
     <defs>
      <path d="M 25.875 7.90625 
L 25.875 -20.796875 
L 8.40625 -20.796875 
L 8.40625 54.6875 
L 25.875 54.6875 
L 25.875 46.6875 
Q 29.5 51.46875 33.890625 53.734375 
Q 38.28125 56 44 56 
Q 54.109375 56 60.59375 47.96875 
Q 67.09375 39.9375 67.09375 27.296875 
Q 67.09375 14.65625 60.59375 6.609375 
Q 54.109375 -1.421875 44 -1.421875 
Q 38.28125 -1.421875 33.890625 0.84375 
Q 29.5 3.125 25.875 7.90625 
z
M 37.5 43.3125 
Q 31.890625 43.3125 28.875 39.1875 
Q 25.875 35.0625 25.875 27.296875 
Q 25.875 19.53125 28.875 15.40625 
Q 31.890625 11.28125 37.5 11.28125 
Q 43.109375 11.28125 46.0625 15.375 
Q 49.03125 19.484375 49.03125 27.296875 
Q 49.03125 35.109375 46.0625 39.203125 
Q 43.109375 43.3125 37.5 43.3125 
z
" id="DejaVuSans-Bold-112"/>
      <path d="M 52.59375 52.984375 
L 52.59375 38.71875 
Q 49.03125 41.15625 45.4375 42.328125 
Q 41.84375 43.5 37.984375 43.5 
Q 30.671875 43.5 26.59375 39.234375 
Q 22.515625 34.96875 22.515625 27.296875 
Q 22.515625 19.625 26.59375 15.34375 
Q 30.671875 11.078125 37.984375 11.078125 
Q 42.09375 11.078125 45.78125 12.296875 
Q 49.46875 13.53125 52.59375 15.921875 
L 52.59375 1.609375 
Q 48.484375 0.09375 44.265625 -0.65625 
Q 40.046875 -1.421875 35.796875 -1.421875 
Q 21 -1.421875 12.640625 6.171875 
Q 4.296875 13.765625 4.296875 27.296875 
Q 4.296875 40.828125 12.640625 48.40625 
Q 21 56 35.796875 56 
Q 40.09375 56 44.265625 55.25 
Q 48.4375 54.5 52.59375 52.984375 
z
" id="DejaVuSans-Bold-99"/>
     </defs>
     <g transform="translate(335.616929 510.705448)rotate(-90)scale(0.12 -0.12)">
      <use xlink:href="#DejaVuSans-Bold-71"/>
      <use x="82.080078" xlink:href="#DejaVuSans-Bold-78"/>
      <use x="165.771484" xlink:href="#DejaVuSans-Bold-71"/>
      <use x="247.851562" xlink:href="#DejaVuSans-Bold-47"/>
      <use x="284.375" xlink:href="#DejaVuSans-Bold-72"/>
      <use x="368.066406" xlink:href="#DejaVuSans-Bold-71"/>
      <use x="450.146484" xlink:href="#DejaVuSans-Bold-80"/>
      <use x="523.4375" xlink:href="#DejaVuSans-Bold-32"/>
      <use x="558.251953" xlink:href="#DejaVuSans-Bold-91"/>
      <use x="603.955078" xlink:href="#DejaVuSans-Bold-112"/>
      <use x="675.537109" xlink:href="#DejaVuSans-Bold-101"/>
      <use x="743.359375" xlink:href="#DejaVuSans-Bold-114"/>
      <use x="792.675781" xlink:href="#DejaVuSans-Bold-99"/>
      <use x="851.953125" xlink:href="#DejaVuSans-Bold-101"/>
      <use x="919.775391" xlink:href="#DejaVuSans-Bold-110"/>
      <use x="990.966797" xlink:href="#DejaVuSans-Bold-116"/>
      <use x="1038.769531" xlink:href="#DejaVuSans-Bold-93"/>
     </g>
    </g>
   </g>
   <g id="line2d_74">
    <path clip-path="url(#pa7a4209427)" d="M 372.102881 608.586562 
L 372.133082 456.582437 
L 372.364138 471.31148 
L 372.710722 470.75417 
L 377.447368 461.932991 
L 379.295815 457.905149 
L 380.913207 453.873827 
L 382.530598 449.230452 
L 384.032461 444.250678 
L 385.534325 438.517706 
L 387.151716 431.398203 
L 388.769107 423.2381 
L 390.617554 412.681879 
L 392.928113 398.0549 
L 397.549231 368.441396 
L 399.282151 358.925777 
L 400.784014 351.846888 
L 402.170349 346.333379 
L 403.441157 342.112484 
L 404.711964 338.622535 
L 405.982772 335.778583 
L 407.253579 333.488481 
L 408.524387 331.662034 
L 409.795194 330.216543 
L 411.18153 328.989231 
L 412.567865 328.049965 
L 414.185256 327.232932 
L 415.918175 326.605117 
L 417.997679 326.090364 
L 420.539293 325.69503 
L 424.005132 325.400106 
L 429.088362 325.21563 
L 438.79271 325.129158 
L 483.84861 325.115586 
L 603.073455 325.115584 
L 603.073455 325.115584 
" style="fill:none;stroke:#000000;stroke-linecap:square;stroke-width:2;"/>
   </g>
   <g id="line2d_75">
    <path clip-path="url(#pa7a4209427)" d="M 372.105886 608.586562 
L 372.133082 451.482908 
L 372.364138 466.61349 
L 373.172834 465.262435 
L 378.140536 456.661033 
L 380.220039 452.529682 
L 382.068486 448.371248 
L 383.801405 443.940959 
L 385.534325 438.891468 
L 387.267244 433.128148 
L 389.000163 426.577316 
L 390.84861 418.686193 
L 392.928113 408.753839 
L 395.585256 394.837394 
L 400.552958 368.574119 
L 402.516933 359.498838 
L 404.249852 352.534939 
L 405.751716 347.360293 
L 407.253579 342.976518 
L 408.639915 339.587793 
L 410.02625 336.768941 
L 411.412585 334.450612 
L 412.798921 332.561756 
L 414.185256 331.034589 
L 415.68712 329.717064 
L 417.304511 328.614137 
L 419.03743 327.717396 
L 420.885877 327.00856 
L 423.080908 326.410369 
L 425.738051 325.931434 
L 429.088362 325.570361 
L 433.70948 325.318262 
L 440.987741 325.172218 
L 457.739293 325.118587 
L 603.073455 325.115584 
L 603.073455 325.115584 
" style="fill:none;stroke:#000000;stroke-linecap:square;stroke-width:2;"/>
   </g>
   <g id="line2d_76">
    <path clip-path="url(#pa7a4209427)" d="M 372.109126 608.586562 
L 372.133082 445.489904 
L 372.24861 460.275662 
L 372.364138 460.693938 
L 374.328113 457.614381 
L 378.949231 450.2622 
L 381.375318 445.945156 
L 383.570349 441.567401 
L 385.649852 436.891284 
L 387.613828 431.913405 
L 389.577803 426.319082 
L 391.541778 420.061877 
L 393.621281 412.705645 
L 396.047368 403.255038 
L 399.282151 389.633858 
L 404.249852 368.706218 
L 406.560411 360.001659 
L 408.524387 353.461724 
L 410.257306 348.42661 
L 411.874697 344.359918 
L 413.492089 340.881237 
L 415.10948 337.947024 
L 416.611343 335.661226 
L 418.113207 333.747934 
L 419.730598 332.047863 
L 421.347989 330.664921 
L 423.080908 329.475357 
L 424.929356 328.477417 
L 427.008859 327.618811 
L 429.319418 326.91523 
L 431.976561 326.344245 
L 435.211343 325.885977 
L 439.370349 325.53741 
L 445.146747 325.297924 
L 454.504511 325.162338 
L 477.610101 325.117203 
L 603.073455 325.115584 
L 603.073455 325.115584 
" style="fill:none;stroke:#000000;stroke-linecap:square;stroke-width:2;"/>
   </g>
   <g id="line2d_77">
    <path clip-path="url(#pa7a4209427)" d="M 372.112631 608.586562 
L 372.133082 437.983367 
L 372.24861 453.023431 
L 372.364138 453.312724 
L 379.411343 443.212411 
L 382.41507 438.57702 
L 384.956685 434.257605 
L 387.382772 429.692913 
L 389.693331 424.871832 
L 392.00389 419.534834 
L 394.429977 413.343169 
L 396.971592 406.217325 
L 399.85979 397.418222 
L 403.903269 384.292383 
L 408.986498 367.913301 
L 411.643641 360.103064 
L 413.9542 353.99607 
L 416.033703 349.127481 
L 417.997679 345.099202 
L 419.846126 341.806027 
L 421.694573 338.970647 
L 423.54302 336.556623 
L 425.391467 334.521024 
L 427.239915 332.818497 
L 429.20389 331.324506 
L 431.167865 330.105683 
L 433.362896 329.01341 
L 435.673455 328.113289 
L 438.330598 327.32651 
L 441.334325 326.679023 
L 444.915691 326.14747 
L 449.305753 325.734226 
L 455.082151 325.430421 
L 463.515691 325.232743 
L 478.76538 325.135146 
L 535.951716 325.115608 
L 603.073455 325.115584 
L 603.073455 325.115584 
" style="fill:none;stroke:#000000;stroke-linecap:square;stroke-width:2;"/>
   </g>
   <g id="line2d_78">
    <path clip-path="url(#pa7a4209427)" d="M 372.116516 608.586562 
L 372.133082 428.454586 
L 372.24861 443.965461 
L 372.364138 444.200072 
L 385.649852 426.760541 
L 388.769107 422.070636 
L 391.657306 417.329998 
L 394.545505 412.158419 
L 397.433703 406.533487 
L 400.552958 399.96118 
L 404.134325 391.863939 
L 409.333082 379.478397 
L 414.878424 366.416014 
L 418.113207 359.365152 
L 420.770349 354.074792 
L 423.196436 349.709204 
L 425.506995 345.991991 
L 427.702026 342.863061 
L 429.897057 340.115759 
L 432.092089 337.729184 
L 434.28712 335.675341 
L 436.482151 333.922193 
L 438.79271 332.364724 
L 441.218797 331.005666 
L 443.760411 329.840291 
L 446.533082 328.819863 
L 449.536809 327.954054 
L 452.88712 327.219561 
L 456.81507 326.592968 
L 461.436188 326.087862 
L 467.212585 325.690499 
L 474.83743 325.402225 
L 486.159169 325.217311 
L 507.53184 325.129938 
L 603.073455 325.115586 
L 603.073455 325.115586 
" style="fill:none;stroke:#000000;stroke-linecap:square;stroke-width:2;"/>
   </g>
   <g id="line2d_79">
    <path clip-path="url(#pa7a4209427)" d="M 372.120981 608.586562 
L 372.133082 416.491815 
L 372.24861 432.828077 
L 372.364138 433.058178 
L 378.949231 425.533444 
L 387.036188 416.455789 
L 391.310722 411.297124 
L 395.238672 406.214697 
L 399.166623 400.762843 
L 403.210101 394.761126 
L 407.715691 387.66094 
L 413.9542 377.367001 
L 421.694573 364.658445 
L 425.738051 358.450778 
L 429.20389 353.532515 
L 432.323144 349.489083 
L 435.211343 346.098469 
L 437.984014 343.173262 
L 440.756685 340.568918 
L 443.529356 338.274059 
L 446.302026 336.270477 
L 449.074697 334.535399 
L 451.962896 332.986239 
L 454.966623 331.623226 
L 458.201405 330.401327 
L 461.667244 329.3328 
L 465.479666 328.395556 
L 469.7542 327.582991 
L 474.606374 326.896708 
L 480.267244 326.330018 
L 487.083393 325.879338 
L 495.863517 325.534695 
L 507.993952 325.298007 
L 527.749231 325.162523 
L 576.386498 325.117239 
L 603.073455 325.115848 
L 603.073455 325.115848 
" style="fill:none;stroke:#000000;stroke-linecap:square;stroke-width:2;"/>
   </g>
   <g id="line2d_80">
    <g clip-path="url(#pa7a4209427)">
     <use style="fill-opacity:0.6;stroke:#000000;stroke-linejoin:miter;stroke-opacity:0.6;" x="556.862275" xlink:href="#m215308d126" y="332.346889"/>
     <use style="fill-opacity:0.6;stroke:#000000;stroke-linejoin:miter;stroke-opacity:0.6;" x="513.951893" xlink:href="#m215308d126" y="334.757323"/>
     <use style="fill-opacity:0.6;stroke:#000000;stroke-linejoin:miter;stroke-opacity:0.6;" x="537.057483" xlink:href="#m215308d126" y="329.936454"/>
     <use style="fill-opacity:0.6;stroke:#000000;stroke-linejoin:miter;stroke-opacity:0.6;" x="471.041512" xlink:href="#m215308d126" y="344.399062"/>
     <use style="fill-opacity:0.6;stroke:#000000;stroke-linejoin:miter;stroke-opacity:0.6;" x="477.643109" xlink:href="#m215308d126" y="341.988628"/>
     <use style="fill-opacity:0.6;stroke:#000000;stroke-linejoin:miter;stroke-opacity:0.6;" x="471.041512" xlink:href="#m215308d126" y="349.219932"/>
     <use style="fill-opacity:0.6;stroke:#000000;stroke-linejoin:miter;stroke-opacity:0.6;" x="385.220749" xlink:href="#m215308d126" y="498.666889"/>
     <use style="fill-opacity:0.6;stroke:#000000;stroke-linejoin:miter;stroke-opacity:0.6;" x="375.318353" xlink:href="#m215308d126" y="491.435584"/>
     <use style="fill-opacity:0.6;stroke:#000000;stroke-linejoin:miter;stroke-opacity:0.6;" x="381.91995" xlink:href="#m215308d126" y="491.435584"/>
     <use style="fill-opacity:0.6;stroke:#000000;stroke-linejoin:miter;stroke-opacity:0.6;" x="378.619152" xlink:href="#m215308d126" y="443.226889"/>
     <use style="fill-opacity:0.6;stroke:#000000;stroke-linejoin:miter;stroke-opacity:0.6;" x="411.627137" xlink:href="#m215308d126" y="411.891236"/>
     <use style="fill-opacity:0.6;stroke:#000000;stroke-linejoin:miter;stroke-opacity:0.6;" x="414.927936" xlink:href="#m215308d126" y="397.428628"/>
     <use style="fill-opacity:0.6;stroke:#000000;stroke-linejoin:miter;stroke-opacity:0.6;" x="375.318353" xlink:href="#m215308d126" y="448.047758"/>
     <use style="fill-opacity:0.6;stroke:#000000;stroke-linejoin:miter;stroke-opacity:0.6;" x="372.017554" xlink:href="#m215308d126" y="467.331236"/>
     <use style="fill-opacity:0.6;stroke:#000000;stroke-linejoin:miter;stroke-opacity:0.6;" x="378.619152" xlink:href="#m215308d126" y="467.331236"/>
     <use style="fill-opacity:0.6;stroke:#000000;stroke-linejoin:miter;stroke-opacity:0.6;" x="398.423943" xlink:href="#m215308d126" y="423.94341"/>
     <use style="fill-opacity:0.6;stroke:#000000;stroke-linejoin:miter;stroke-opacity:0.6;" x="398.423943" xlink:href="#m215308d126" y="460.099932"/>
     <use style="fill-opacity:0.6;stroke:#000000;stroke-linejoin:miter;stroke-opacity:0.6;" x="378.619152" xlink:href="#m215308d126" y="467.331236"/>
     <use style="fill-opacity:0.6;stroke:#000000;stroke-linejoin:miter;stroke-opacity:0.6;" x="391.822346" xlink:href="#m215308d126" y="428.76428"/>
     <use style="fill-opacity:0.6;stroke:#000000;stroke-linejoin:miter;stroke-opacity:0.6;" x="405.02554" xlink:href="#m215308d126" y="395.018193"/>
     <use style="fill-opacity:0.6;stroke:#000000;stroke-linejoin:miter;stroke-opacity:0.6;" x="385.220749" xlink:href="#m215308d126" y="435.995584"/>
     <use style="fill-opacity:0.6;stroke:#000000;stroke-linejoin:miter;stroke-opacity:0.6;" x="411.627137" xlink:href="#m215308d126" y="411.891236"/>
     <use style="fill-opacity:0.6;stroke:#000000;stroke-linejoin:miter;stroke-opacity:0.6;" x="391.822346" xlink:href="#m215308d126" y="433.585149"/>
     <use style="fill-opacity:0.6;stroke:#000000;stroke-linejoin:miter;stroke-opacity:0.6;" x="405.02554" xlink:href="#m215308d126" y="421.532976"/>
     <use style="fill-opacity:0.6;stroke:#000000;stroke-linejoin:miter;stroke-opacity:0.6;" x="418.228734" xlink:href="#m215308d126" y="419.122541"/>
     <use style="fill-opacity:0.6;stroke:#000000;stroke-linejoin:miter;stroke-opacity:0.6;" x="372.017554" xlink:href="#m215308d126" y="450.458193"/>
     <use style="fill-opacity:0.6;stroke:#000000;stroke-linejoin:miter;stroke-opacity:0.6;" x="391.822346" xlink:href="#m215308d126" y="433.585149"/>
     <use style="fill-opacity:0.6;stroke:#000000;stroke-linejoin:miter;stroke-opacity:0.6;" x="388.521547" xlink:href="#m215308d126" y="457.689497"/>
     <use style="fill-opacity:0.6;stroke:#000000;stroke-linejoin:miter;stroke-opacity:0.6;" x="372.017554" xlink:href="#m215308d126" y="421.532976"/>
     <use style="fill-opacity:0.6;stroke:#000000;stroke-linejoin:miter;stroke-opacity:0.6;" x="375.318353" xlink:href="#m215308d126" y="433.585149"/>
     <use style="fill-opacity:0.6;stroke:#000000;stroke-linejoin:miter;stroke-opacity:0.6;" x="391.822346" xlink:href="#m215308d126" y="443.226889"/>
     <use style="fill-opacity:0.6;stroke:#000000;stroke-linejoin:miter;stroke-opacity:0.6;" x="388.521547" xlink:href="#m215308d126" y="395.018193"/>
     <use style="fill-opacity:0.6;stroke:#000000;stroke-linejoin:miter;stroke-opacity:0.6;" x="391.822346" xlink:href="#m215308d126" y="443.226889"/>
     <use style="fill-opacity:0.6;stroke:#000000;stroke-linejoin:miter;stroke-opacity:0.6;" x="395.123144" xlink:href="#m215308d126" y="474.562541"/>
    </g>
   </g>
   <g id="patch_21">
    <path d="M 372.017554 566.159062 
L 372.017554 325.115584 
" style="fill:none;stroke:#000000;stroke-linecap:square;stroke-linejoin:miter;stroke-width:0.8;"/>
   </g>
   <g id="patch_22">
    <path d="M 614.62625 566.159062 
L 614.62625 325.115584 
" style="fill:none;stroke:#000000;stroke-linecap:square;stroke-linejoin:miter;stroke-width:0.8;"/>
   </g>
   <g id="patch_23">
    <path d="M 372.017554 566.159062 
L 614.62625 566.159062 
" style="fill:none;stroke:#000000;stroke-linecap:square;stroke-linejoin:miter;stroke-width:0.8;"/>
   </g>
   <g id="patch_24">
    <path d="M 372.017554 325.115584 
L 614.62625 325.115584 
" style="fill:none;stroke:#000000;stroke-linecap:square;stroke-linejoin:miter;stroke-width:0.8;"/>
   </g>
   <g id="legend_4">
    <g id="patch_25">
     <path d="M 377.848554 561.994062 
L 444.1931 561.994062 
Q 445.8591 561.994062 445.8591 560.328062 
L 445.8591 548.934184 
Q 445.8591 547.268184 444.1931 547.268184 
L 377.848554 547.268184 
Q 376.182554 547.268184 376.182554 548.934184 
L 376.182554 560.328062 
Q 376.182554 561.994062 377.848554 561.994062 
z
" style="fill:#ffffff;opacity:0.8;stroke:#cccccc;stroke-linejoin:miter;"/>
    </g>
    <g id="line2d_81"/>
    <g id="line2d_82">
     <g>
      <use style="fill-opacity:0.6;stroke:#000000;stroke-linejoin:miter;stroke-opacity:0.6;" x="387.844554" xlink:href="#m215308d126" y="554.014183"/>
     </g>
    </g>
    <g id="text_58">
     <!-- GNG/HGP -->
     <defs>
      <path d="M 25.390625 72.90625 
L 33.6875 72.90625 
L 8.296875 -9.28125 
L 0 -9.28125 
z
" id="DejaVuSans-47"/>
     </defs>
     <g transform="translate(402.838554 556.929683)scale(0.0833 -0.0833)">
      <use xlink:href="#DejaVuSans-71"/>
      <use x="77.490234" xlink:href="#DejaVuSans-78"/>
      <use x="152.294922" xlink:href="#DejaVuSans-71"/>
      <use x="229.785156" xlink:href="#DejaVuSans-47"/>
      <use x="263.476562" xlink:href="#DejaVuSans-72"/>
      <use x="338.671875" xlink:href="#DejaVuSans-71"/>
      <use x="416.162109" xlink:href="#DejaVuSans-80"/>
     </g>
    </g>
   </g>
  </g>
 </g>
 <defs>
  <clipPath id="pa6ec277f05">
   <rect height="241.043478" width="242.608696" x="56.62625" y="11.759062"/>
  </clipPath>
  <clipPath id="pf883480f87">
   <rect height="241.043478" width="242.608696" x="372.017554" y="11.759062"/>
  </clipPath>
  <clipPath id="pbe7c6c2d59">
   <rect height="241.043478" width="242.608696" x="56.62625" y="325.115584"/>
  </clipPath>
  <clipPath id="pa7a4209427">
   <rect height="241.043478" width="242.608696" x="372.017554" y="325.115584"/>
  </clipPath>
 </defs>
</svg>
